<svg xmlns="http://www.w3.org/2000/svg" xmlns:xlink="http://www.w3.org/1999/xlink" contentStyleType="text/css" data-diagram-type="SEQUENCE" height="1053px" preserveAspectRatio="none" style="width:1106px;height:1053px;background:#FFFFFF;" version="1.1" viewBox="0 0 1106 1053" width="1106px" zoomAndPan="magnify"><defs/><g><rect fill="none" height="90.2031" style="stroke:#000000;stroke-width:1.5;" width="554.6919" x="414.3208" y="487.8906"/><rect fill="none" height="103.2031" style="stroke:#000000;stroke-width:1.5;" width="554.6919" x="414.3208" y="852.1563"/><g><title>User</title><rect fill="#000000" fill-opacity="0.00000" height="891.0625" width="8" x="19.9551" y="81.2969"/><line style="stroke:#181818;stroke-width:0.5;stroke-dasharray:5.0,5.0;" x1="23" x2="23" y1="81.2969" y2="972.3594"/></g><g><title>Kubernetes API Server</title><rect fill="#000000" fill-opacity="0.00000" height="891.0625" width="8" x="227.4341" y="81.2969"/><line style="stroke:#181818;stroke-width:0.5;stroke-dasharray:5.0,5.0;" x1="230.8584" x2="230.8584" y1="81.2969" y2="972.3594"/></g><g><title>Operator</title><rect fill="#000000" fill-opacity="0.00000" height="891.0625" width="8" x="458.6533" y="81.2969"/><line style="stroke:#181818;stroke-width:0.5;stroke-dasharray:5.0,5.0;" x1="462.3208" x2="462.3208" y1="81.2969" y2="972.3594"/></g><g><title>Ingress Controller</title><rect fill="#000000" fill-opacity="0.00000" height="891.0625" width="8" x="698.3379" y="81.2969"/><line style="stroke:#181818;stroke-width:0.5;stroke-dasharray:5.0,5.0;" x1="702.1035" x2="702.1035" y1="81.2969" y2="972.3594"/></g><g><title>Azure API Management</title><rect fill="#000000" fill-opacity="0.00000" height="891.0625" width="8" x="866.2925" y="81.2969"/><line style="stroke:#181818;stroke-width:0.5;stroke-dasharray:5.0,5.0;" x1="869.5723" x2="869.5723" y1="81.2969" y2="972.3594"/></g><g><title>Azure Key Vault</title><rect fill="#000000" fill-opacity="0.00000" height="891.0625" width="8" x="1027.7905" y="81.2969"/><line style="stroke:#181818;stroke-width:0.5;stroke-dasharray:5.0,5.0;" x1="1031.0127" x2="1031.0127" y1="81.2969" y2="972.3594"/></g><g class="participant participant-head" data-participant="User"><text fill="#000000" font-family="sans-serif" font-size="14" lengthAdjust="spacing" textLength="31.9102" x="5" y="77.9951">User</text><ellipse cx="23.9551" cy="13.5" fill="#E2E2F0" rx="8" ry="8" style="stroke:#181818;stroke-width:0.5;"/><path d="M23.9551,21.5 L23.9551,48.5 M10.9551,29.5 L36.9551,29.5 M23.9551,48.5 L10.9551,63.5 M23.9551,48.5 L36.9551,63.5" fill="none" style="stroke:#181818;stroke-width:0.5;"/></g><g class="participant participant-tail" data-participant="User"><text fill="#000000" font-family="sans-serif" font-size="14" lengthAdjust="spacing" textLength="31.9102" x="5" y="984.3545">User</text><ellipse cx="23.9551" cy="996.1563" fill="#E2E2F0" rx="8" ry="8" style="stroke:#181818;stroke-width:0.5;"/><path d="M23.9551,1004.1563 L23.9551,1031.1563 M10.9551,1012.1563 L36.9551,1012.1563 M23.9551,1031.1563 L10.9551,1046.1563 M23.9551,1031.1563 L36.9551,1046.1563" fill="none" style="stroke:#181818;stroke-width:0.5;"/></g><g class="participant participant-head" data-participant="K8sAPI"><rect fill="#E2E2F0" height="30.2969" rx="2.5" ry="2.5" style="stroke:#181818;stroke-width:0.5;" width="171.1514" x="145.8584" y="50"/><text fill="#000000" font-family="sans-serif" font-size="14" lengthAdjust="spacing" textLength="157.1514" x="152.8584" y="69.9951">Kubernetes API Server</text></g><g class="participant participant-tail" data-participant="K8sAPI"><rect fill="#E2E2F0" height="30.2969" rx="2.5" ry="2.5" style="stroke:#181818;stroke-width:0.5;" width="171.1514" x="145.8584" y="971.3594"/><text fill="#000000" font-family="sans-serif" font-size="14" lengthAdjust="spacing" textLength="157.1514" x="152.8584" y="991.3545">Kubernetes API Server</text></g><g class="participant participant-head" data-participant="Operator"><rect fill="#E2E2F0" height="30.2969" rx="2.5" ry="2.5" style="stroke:#181818;stroke-width:0.5;" width="76.665" x="424.3208" y="50"/><text fill="#000000" font-family="sans-serif" font-size="14" lengthAdjust="spacing" textLength="62.665" x="431.3208" y="69.9951">Operator</text></g><g class="participant participant-tail" data-participant="Operator"><rect fill="#E2E2F0" height="30.2969" rx="2.5" ry="2.5" style="stroke:#181818;stroke-width:0.5;" width="76.665" x="424.3208" y="971.3594"/><text fill="#000000" font-family="sans-serif" font-size="14" lengthAdjust="spacing" textLength="62.665" x="431.3208" y="991.3545">Operator</text></g><g class="participant participant-head" data-participant="IngressCtrl"><rect fill="#E2E2F0" height="30.2969" rx="2.5" ry="2.5" style="stroke:#181818;stroke-width:0.5;" width="138.4688" x="633.1035" y="50"/><text fill="#000000" font-family="sans-serif" font-size="14" lengthAdjust="spacing" textLength="124.4688" x="640.1035" y="69.9951">Ingress Controller</text></g><g class="participant participant-tail" data-participant="IngressCtrl"><rect fill="#E2E2F0" height="30.2969" rx="2.5" ry="2.5" style="stroke:#181818;stroke-width:0.5;" width="138.4688" x="633.1035" y="971.3594"/><text fill="#000000" font-family="sans-serif" font-size="14" lengthAdjust="spacing" textLength="124.4688" x="640.1035" y="991.3545">Ingress Controller</text></g><g class="participant participant-head" data-participant="AzureAPIM"><rect fill="#E2E2F0" height="30.2969" rx="2.5" ry="2.5" style="stroke:#181818;stroke-width:0.5;" width="177.4404" x="781.5723" y="50"/><text fill="#000000" font-family="sans-serif" font-size="14" lengthAdjust="spacing" textLength="163.4404" x="788.5723" y="69.9951">Azure API Management</text></g><g class="participant participant-tail" data-participant="AzureAPIM"><rect fill="#E2E2F0" height="30.2969" rx="2.5" ry="2.5" style="stroke:#181818;stroke-width:0.5;" width="177.4404" x="781.5723" y="971.3594"/><text fill="#000000" font-family="sans-serif" font-size="14" lengthAdjust="spacing" textLength="163.4404" x="788.5723" y="991.3545">Azure API Management</text></g><g class="participant participant-head" data-participant="KeyVault"><rect fill="#E2E2F0" height="30.2969" rx="2.5" ry="2.5" style="stroke:#181818;stroke-width:0.5;" width="125.5557" x="969.0127" y="50"/><text fill="#000000" font-family="sans-serif" font-size="14" lengthAdjust="spacing" textLength="111.5557" x="976.0127" y="69.9951">Azure Key Vault</text></g><g class="participant participant-tail" data-participant="KeyVault"><rect fill="#E2E2F0" height="30.2969" rx="2.5" ry="2.5" style="stroke:#181818;stroke-width:0.5;" width="125.5557" x="969.0127" y="971.3594"/><text fill="#000000" font-family="sans-serif" font-size="14" lengthAdjust="spacing" textLength="111.5557" x="976.0127" y="991.3545">Azure Key Vault</text></g><g class="message" data-participant-1="Operator" data-participant-2="KeyVault"><polygon fill="#181818" points="1019.7905,108.4297,1029.7905,112.4297,1019.7905,116.4297,1023.7905,112.4297" style="stroke:#181818;stroke-width:1;"/><line style="stroke:#181818;stroke-width:1;" x1="462.6533" x2="1025.7905" y1="112.4297" y2="112.4297"/><text fill="#000000" font-family="sans-serif" font-size="13" lengthAdjust="spacing" textLength="260.584" x="469.6533" y="107.3638">Retrieve secrets (APIM config, AAD info)</text></g><g class="message" data-participant-1="Operator" data-participant-2="AzureAPIM"><polygon fill="#181818" points="858.2925,137.5625,868.2925,141.5625,858.2925,145.5625,862.2925,141.5625" style="stroke:#181818;stroke-width:1;"/><line style="stroke:#181818;stroke-width:1;" x1="462.6533" x2="864.2925" y1="141.5625" y2="141.5625"/><text fill="#000000" font-family="sans-serif" font-size="13" lengthAdjust="spacing" textLength="232.0449" x="469.6533" y="136.4966">Configure OpenID Connect Provider</text></g><rect fill="#EEEEEE" height="3" style="stroke:#EEEEEE;stroke-width:1;" width="1099.5684" x="0" y="170.1289"/><line style="stroke:#000000;stroke-width:1;" x1="0" x2="1099.5684" y1="170.1289" y2="170.1289"/><line style="stroke:#000000;stroke-width:1;" x1="0" x2="1099.5684" y1="173.1289" y2="173.1289"/><rect fill="#EEEEEE" height="23.1328" style="stroke:#000000;stroke-width:2;" width="287.3428" x="406.1128" y="159.5625"/><text fill="#000000" font-family="sans-serif" font-size="13" font-weight="bold" lengthAdjust="spacing" textLength="268.8169" x="412.1128" y="175.6294">Create/Update ExposedAPI Resource</text><g class="message" data-participant-1="User" data-participant-2="K8sAPI"><polygon fill="#181818" points="219.4341,209.8281,229.4341,213.8281,219.4341,217.8281,223.4341,213.8281" style="stroke:#181818;stroke-width:1;"/><line style="stroke:#181818;stroke-width:1;" x1="23.9551" x2="225.4341" y1="213.8281" y2="213.8281"/><text fill="#000000" font-family="sans-serif" font-size="13" lengthAdjust="spacing" textLength="177.5947" x="30.9551" y="208.7622">Apply ExposedAPI manifest</text></g><g class="message" data-participant-1="K8sAPI" data-participant-2="Operator"><line style="stroke:#181818;stroke-width:1;" x1="460.6533" x2="450.6533" y1="242.9609" y2="238.9609"/><line style="stroke:#181818;stroke-width:1;" x1="460.6533" x2="450.6533" y1="242.9609" y2="246.9609"/><line style="stroke:#181818;stroke-width:1;" x1="231.4341" x2="461.6533" y1="242.9609" y2="242.9609"/><text fill="#000000" font-family="sans-serif" font-size="13" lengthAdjust="spacing" textLength="166.6133" x="238.4341" y="237.895">Emit create/update event</text></g><g class="message" data-participant-1="Operator" data-participant-2="Operator"><line style="stroke:#181818;stroke-width:1;" x1="462.6533" x2="504.6533" y1="272.0938" y2="272.0938"/><line style="stroke:#181818;stroke-width:1;" x1="504.6533" x2="504.6533" y1="272.0938" y2="285.0938"/><line style="stroke:#181818;stroke-width:1;" x1="463.6533" x2="504.6533" y1="285.0938" y2="285.0938"/><polygon fill="#181818" points="473.6533,281.0938,463.6533,285.0938,473.6533,289.0938,469.6533,285.0938" style="stroke:#181818;stroke-width:1;"/><text fill="#000000" font-family="sans-serif" font-size="13" lengthAdjust="spacing" textLength="149.4556" x="469.6533" y="267.0278">manage_api_lifecycle()</text></g><g class="message" data-participant-1="Operator" data-participant-2="Operator"><line style="stroke:#181818;stroke-width:1;" x1="462.6533" x2="504.6533" y1="314.2266" y2="314.2266"/><line style="stroke:#181818;stroke-width:1;" x1="504.6533" x2="504.6533" y1="314.2266" y2="327.2266"/><line style="stroke:#181818;stroke-width:1;" x1="463.6533" x2="504.6533" y1="327.2266" y2="327.2266"/><polygon fill="#181818" points="473.6533,323.2266,463.6533,327.2266,473.6533,331.2266,469.6533,327.2266" style="stroke:#181818;stroke-width:1;"/><text fill="#000000" font-family="sans-serif" font-size="13" lengthAdjust="spacing" textLength="201.1636" x="469.6533" y="309.1606">Extract API spec from resource</text></g><g class="message" data-participant-1="Operator" data-participant-2="K8sAPI"><polygon fill="#181818" points="242.4341,352.3594,232.4341,356.3594,242.4341,360.3594,238.4341,356.3594" style="stroke:#181818;stroke-width:1;"/><line style="stroke:#181818;stroke-width:1;" x1="236.4341" x2="461.6533" y1="356.3594" y2="356.3594"/><text fill="#000000" font-family="sans-serif" font-size="13" lengthAdjust="spacing" textLength="144.9995" x="248.4341" y="351.2935">Check resource status</text></g><g class="message" data-participant-1="Operator" data-participant-2="K8sAPI"><polygon fill="#181818" points="242.4341,381.4922,232.4341,385.4922,242.4341,389.4922,238.4341,385.4922" style="stroke:#181818;stroke-width:1;"/><line style="stroke:#181818;stroke-width:1;" x1="236.4341" x2="461.6533" y1="385.4922" y2="385.4922"/><text fill="#000000" font-family="sans-serif" font-size="13" lengthAdjust="spacing" textLength="207.2192" x="248.4341" y="380.4263">Create/Update Ingress resource</text></g><g class="message" data-participant-1="K8sAPI" data-participant-2="IngressCtrl"><line style="stroke:#181818;stroke-width:1;" x1="700.3379" x2="690.3379" y1="414.625" y2="410.625"/><line style="stroke:#181818;stroke-width:1;" x1="700.3379" x2="690.3379" y1="414.625" y2="418.625"/><line style="stroke:#181818;stroke-width:1;" x1="231.4341" x2="701.3379" y1="414.625" y2="414.625"/><text fill="#000000" font-family="sans-serif" font-size="13" lengthAdjust="spacing" textLength="190.3916" x="238.4341" y="409.5591">Notify about Ingress changes</text></g><g class="message" data-participant-1="Operator" data-participant-2="IngressCtrl"><polygon fill="#181818" points="690.3379,439.7578,700.3379,443.7578,690.3379,447.7578,694.3379,443.7578" style="stroke:#181818;stroke-width:1;"/><line style="stroke:#181818;stroke-width:1;" x1="462.6533" x2="696.3379" y1="443.7578" y2="443.7578"/><text fill="#000000" font-family="sans-serif" font-size="13" lengthAdjust="spacing" textLength="162.519" x="469.6533" y="438.6919">Get Ingress external URL</text></g><g class="message" data-participant-1="Operator" data-participant-2="AzureAPIM"><polygon fill="#181818" points="858.2925,468.8906,868.2925,472.8906,858.2925,476.8906,862.2925,472.8906" style="stroke:#181818;stroke-width:1;"/><line style="stroke:#181818;stroke-width:1;" x1="462.6533" x2="864.2925" y1="472.8906" y2="472.8906"/><text fill="#000000" font-family="sans-serif" font-size="13" lengthAdjust="spacing" textLength="212.3608" x="469.6533" y="467.8247">Get existing API (to obtain ETag)</text></g><path d="M414.3208,487.8906 L478.7637,487.8906 L478.7637,495.0234 L468.7637,505.0234 L414.3208,505.0234 L414.3208,487.8906" fill="#EEEEEE" style="stroke:#000000;stroke-width:1.5;"/><rect fill="none" height="90.2031" style="stroke:#000000;stroke-width:1.5;" width="554.6919" x="414.3208" y="487.8906"/><text fill="#000000" font-family="sans-serif" font-size="13" font-weight="bold" lengthAdjust="spacing" textLength="19.4429" x="429.3208" y="500.9575">alt</text><text fill="#000000" font-family="sans-serif" font-size="11" font-weight="bold" lengthAdjust="spacing" textLength="71.2314" x="493.7637" y="500.1011">[API exists]</text><g class="message" data-participant-1="Operator" data-participant-2="AzureAPIM"><polygon fill="#181818" points="858.2925,522.1563,868.2925,526.1563,858.2925,530.1563,862.2925,526.1563" style="stroke:#181818;stroke-width:1;"/><line style="stroke:#181818;stroke-width:1;" x1="462.6533" x2="864.2925" y1="526.1563" y2="526.1563"/><text fill="#000000" font-family="sans-serif" font-size="13" lengthAdjust="spacing" textLength="230.3628" x="469.6533" y="521.0903">Update API configuration with ETag</text></g><line style="stroke:#000000;stroke-width:1;stroke-dasharray:2.0,2.0;" x1="414.3208" x2="969.0127" y1="535.1563" y2="535.1563"/><text fill="#000000" font-family="sans-serif" font-size="11" font-weight="bold" lengthAdjust="spacing" textLength="122.4287" x="419.3208" y="545.3667">[API does not exist]</text><g class="message" data-participant-1="Operator" data-participant-2="AzureAPIM"><polygon fill="#181818" points="858.2925,566.0938,868.2925,570.0938,858.2925,574.0938,862.2925,570.0938" style="stroke:#181818;stroke-width:1;"/><line style="stroke:#181818;stroke-width:1;" x1="462.6533" x2="864.2925" y1="570.0938" y2="570.0938"/><text fill="#000000" font-family="sans-serif" font-size="13" lengthAdjust="spacing" textLength="189.5474" x="469.6533" y="565.0278">Create new API configuration</text></g><g class="message" data-participant-1="Operator" data-participant-2="AzureAPIM"><polygon fill="#181818" points="858.2925,602.2266,868.2925,606.2266,858.2925,610.2266,862.2925,606.2266" style="stroke:#181818;stroke-width:1;"/><line style="stroke:#181818;stroke-width:1;" x1="462.6533" x2="864.2925" y1="606.2266" y2="606.2266"/><text fill="#000000" font-family="sans-serif" font-size="13" lengthAdjust="spacing" textLength="319.668" x="469.6533" y="601.1606">Configure API policies (JWT, CORS, Rate Limiting)</text></g><g class="message" data-participant-1="Operator" data-participant-2="K8sAPI"><polygon fill="#181818" points="242.4341,631.3594,232.4341,635.3594,242.4341,639.3594,238.4341,635.3594" style="stroke:#181818;stroke-width:1;"/><line style="stroke:#181818;stroke-width:1;" x1="236.4341" x2="461.6533" y1="635.3594" y2="635.3594"/><text fill="#000000" font-family="sans-serif" font-size="13" lengthAdjust="spacing" textLength="170.9932" x="248.4341" y="630.2935">Update ExposedAPI status</text></g><rect fill="#EEEEEE" height="3" style="stroke:#EEEEEE;stroke-width:1;" width="1099.5684" x="0" y="663.9258"/><line style="stroke:#000000;stroke-width:1;" x1="0" x2="1099.5684" y1="663.9258" y2="663.9258"/><line style="stroke:#000000;stroke-width:1;" x1="0" x2="1099.5684" y1="666.9258" y2="666.9258"/><rect fill="#EEEEEE" height="23.1328" style="stroke:#000000;stroke-width:2;" width="228.9634" x="435.3025" y="653.3594"/><text fill="#000000" font-family="sans-serif" font-size="13" font-weight="bold" lengthAdjust="spacing" textLength="210.4375" x="441.3025" y="669.4263">Delete ExposedAPI Resource</text><g class="message" data-participant-1="User" data-participant-2="K8sAPI"><polygon fill="#181818" points="219.4341,703.625,229.4341,707.625,219.4341,711.625,223.4341,707.625" style="stroke:#181818;stroke-width:1;"/><line style="stroke:#181818;stroke-width:1;" x1="23.9551" x2="225.4341" y1="707.625" y2="707.625"/><text fill="#000000" font-family="sans-serif" font-size="13" lengthAdjust="spacing" textLength="183.479" x="30.9551" y="702.5591">Delete ExposedAPI resource</text></g><g class="message" data-participant-1="K8sAPI" data-participant-2="Operator"><line style="stroke:#181818;stroke-width:1;" x1="460.6533" x2="450.6533" y1="736.7578" y2="732.7578"/><line style="stroke:#181818;stroke-width:1;" x1="460.6533" x2="450.6533" y1="736.7578" y2="740.7578"/><line style="stroke:#181818;stroke-width:1;" x1="231.4341" x2="461.6533" y1="736.7578" y2="736.7578"/><text fill="#000000" font-family="sans-serif" font-size="13" lengthAdjust="spacing" textLength="115.832" x="238.4341" y="731.6919">Emit delete event</text></g><g class="message" data-participant-1="Operator" data-participant-2="Operator"><line style="stroke:#181818;stroke-width:1;" x1="462.6533" x2="504.6533" y1="765.8906" y2="765.8906"/><line style="stroke:#181818;stroke-width:1;" x1="504.6533" x2="504.6533" y1="765.8906" y2="778.8906"/><line style="stroke:#181818;stroke-width:1;" x1="463.6533" x2="504.6533" y1="778.8906" y2="778.8906"/><polygon fill="#181818" points="473.6533,774.8906,463.6533,778.8906,473.6533,782.8906,469.6533,778.8906" style="stroke:#181818;stroke-width:1;"/><text fill="#000000" font-family="sans-serif" font-size="13" lengthAdjust="spacing" textLength="148.8208" x="469.6533" y="760.8247">manage_api_deletion()</text></g><g class="message" data-participant-1="Operator" data-participant-2="K8sAPI"><polygon fill="#181818" points="242.4341,804.0234,232.4341,808.0234,242.4341,812.0234,238.4341,808.0234" style="stroke:#181818;stroke-width:1;"/><line style="stroke:#181818;stroke-width:1;" x1="236.4341" x2="461.6533" y1="808.0234" y2="808.0234"/><text fill="#000000" font-family="sans-serif" font-size="13" lengthAdjust="spacing" textLength="154.9907" x="248.4341" y="802.9575">Delete Ingress resource</text></g><g class="message" data-participant-1="Operator" data-participant-2="AzureAPIM"><polygon fill="#181818" points="858.2925,833.1563,868.2925,837.1563,858.2925,841.1563,862.2925,837.1563" style="stroke:#181818;stroke-width:1;"/><line style="stroke:#181818;stroke-width:1;" x1="462.6533" x2="864.2925" y1="837.1563" y2="837.1563"/><text fill="#000000" font-family="sans-serif" font-size="13" lengthAdjust="spacing" textLength="212.3608" x="469.6533" y="832.0903">Get existing API (to obtain ETag)</text></g><path d="M414.3208,852.1563 L478.7637,852.1563 L478.7637,859.2891 L468.7637,869.2891 L414.3208,869.2891 L414.3208,852.1563" fill="#EEEEEE" style="stroke:#000000;stroke-width:1.5;"/><rect fill="none" height="103.2031" style="stroke:#000000;stroke-width:1.5;" width="554.6919" x="414.3208" y="852.1563"/><text fill="#000000" font-family="sans-serif" font-size="13" font-weight="bold" lengthAdjust="spacing" textLength="19.4429" x="429.3208" y="865.2231">alt</text><text fill="#000000" font-family="sans-serif" font-size="11" font-weight="bold" lengthAdjust="spacing" textLength="71.2314" x="493.7637" y="864.3667">[API exists]</text><g class="message" data-participant-1="Operator" data-participant-2="AzureAPIM"><polygon fill="#181818" points="858.2925,886.4219,868.2925,890.4219,858.2925,894.4219,862.2925,890.4219" style="stroke:#181818;stroke-width:1;"/><line style="stroke:#181818;stroke-width:1;" x1="462.6533" x2="864.2925" y1="890.4219" y2="890.4219"/><text fill="#000000" font-family="sans-serif" font-size="13" lengthAdjust="spacing" textLength="225.9956" x="469.6533" y="885.356">Delete API configuration with ETag</text></g><line style="stroke:#000000;stroke-width:1;stroke-dasharray:2.0,2.0;" x1="414.3208" x2="969.0127" y1="899.4219" y2="899.4219"/><text fill="#000000" font-family="sans-serif" font-size="11" font-weight="bold" lengthAdjust="spacing" textLength="122.4287" x="419.3208" y="909.6323">[API does not exist]</text><g class="message" data-participant-1="Operator" data-participant-2="Operator"><line style="stroke:#181818;stroke-width:1;" x1="462.6533" x2="504.6533" y1="934.3594" y2="934.3594"/><line style="stroke:#181818;stroke-width:1;" x1="504.6533" x2="504.6533" y1="934.3594" y2="947.3594"/><line style="stroke:#181818;stroke-width:1;" x1="463.6533" x2="504.6533" y1="947.3594" y2="947.3594"/><polygon fill="#181818" points="473.6533,943.3594,463.6533,947.3594,473.6533,951.3594,469.6533,947.3594" style="stroke:#181818;stroke-width:1;"/><text fill="#000000" font-family="sans-serif" font-size="13" lengthAdjust="spacing" textLength="225.6846" x="469.6533" y="929.2935">Skip deletion (API already deleted)</text></g><!--SRC=[lLJ1Zjem4BtxAqRq0XAhNgkLGA81LHIsYs2tFQwCCmHhZHtP4nRswsix8PiKsBPIrLoYcFTcvhrvXWio5XuTMfPpIrB8d6k2pgnOezL8w62qcC8AxHvj1xY3sIVdJrhe-nmjztNQ9QOwi-WS94QJDKfL_Eeu8QlQ-D5hOJ5sk-EQPxX3JP4HV_3dTvVmCpp2Trwe4kg_uWTZQtC88qYINCbNJj9eM6ovmmvycCjiIvzLWGpySveUReOr7svXYMGbxX4S2elae1j6067qHcPz68t68FN6zCvgrEFw8ab4XpazGa_7uK2Z85XOivUfTnrr2dvMnWO3I2nome-FUUfVC3danc4Q35cYCuKL28C1Os5PSTQu2DzabEVgs8Jlk9ORTCGgoCrm-3RXBKnsaa2KlOgobzUflMbD6Gt2BkxZYUVoIVd2uYWKTdlNq9C3MUubXiukHm4RQtPWAmajLYqXsQ9uhZ7WY5FXha1R9fr2LfTlI6uapVE-6PAR8_2rAQYcYItN6ROxjMbVy0sD1_ANWYjuNCxRPZLt7XXua8wapg89NJ9WriIbXia3ptgCgzATY7Bl1gYI6T2YobAPvHT9srYEeN8b83N-jcfJTNy_bz54qFXoNZf4alq-q86N6-Mle-_Q_VhZeG_9_NBLXsMeF9S-PDw0tkKbdaUyMdcu1cDK-3VvFyTVIiEl5o0jMN-S_8ZtzdIlIAgcE0laVub9rVnVnAIXVlKiSpZfZlz_m9LFJdgit4jx8Im_0G00]--></g></svg>