<svg xmlns="http://www.w3.org/2000/svg" xmlns:xlink="http://www.w3.org/1999/xlink" contentStyleType="text/css" data-diagram-type="SEQUENCE" height="419px" preserveAspectRatio="none" style="width:869px;height:419px;background:#FFFFFF;" version="1.1" viewBox="0 0 869 419" width="869px" zoomAndPan="magnify"><defs/><g><rect fill="none" height="104.5313" style="stroke:#000000;stroke-width:1.5;" width="640.8711" x="222.4033" y="98.2969"/><rect fill="none" height="104.5313" style="stroke:#000000;stroke-width:1.5;" width="853.2744" x="10" y="216.8281"/><g><title>External System Operations</title><rect fill="#000000" fill-opacity="0.00000" height="257.0625" width="8" x="117.2017" y="81.2969"/><line style="stroke:#181818;stroke-width:0.5;stroke-dasharray:5.0,5.0;" x1="121" x2="121" y1="81.2969" y2="338.3594"/></g><g><title>Component Implementation</title><rect fill="#000000" fill-opacity="0.00000" height="257.0625" width="8" x="333.8511" y="81.2969"/><line style="stroke:#181818;stroke-width:0.5;stroke-dasharray:5.0,5.0;" x1="337.4033" x2="337.4033" y1="81.2969" y2="338.3594"/></g><g><title>Identity Management System</title><rect fill="#000000" fill-opacity="0.00000" height="257.0625" width="8" x="601.1377" y="81.2969"/><line style="stroke:#181818;stroke-width:0.5;stroke-dasharray:5.0,5.0;" x1="604.645" x2="604.645" y1="81.2969" y2="338.3594"/></g><g><title>Operations</title><rect fill="#000000" fill-opacity="0.00000" height="257.0625" width="8" x="807.7915" y="81.2969"/><line style="stroke:#181818;stroke-width:0.5;stroke-dasharray:5.0,5.0;" x1="811.3086" x2="811.3086" y1="81.2969" y2="338.3594"/></g><g class="participant participant-head" data-participant="externalSystemOperations"><text fill="#000000" font-family="sans-serif" font-size="14" lengthAdjust="spacing" textLength="196.4033" x="20" y="77.9951">External System Operations</text><ellipse cx="121.2017" cy="13.5" fill="#E2E2F0" rx="8" ry="8" style="stroke:#181818;stroke-width:0.5;"/><path d="M121.2017,21.5 L121.2017,48.5 M108.2017,29.5 L134.2017,29.5 M121.2017,48.5 L108.2017,63.5 M121.2017,48.5 L134.2017,63.5" fill="none" style="stroke:#181818;stroke-width:0.5;"/></g><g class="participant participant-tail" data-participant="externalSystemOperations"><text fill="#000000" font-family="sans-serif" font-size="14" lengthAdjust="spacing" textLength="196.4033" x="20" y="350.3545">External System Operations</text><ellipse cx="121.2017" cy="362.1563" fill="#E2E2F0" rx="8" ry="8" style="stroke:#181818;stroke-width:0.5;"/><path d="M121.2017,370.1563 L121.2017,397.1563 M108.2017,378.1563 L134.2017,378.1563 M121.2017,397.1563 L108.2017,412.1563 M121.2017,397.1563 L134.2017,412.1563" fill="none" style="stroke:#181818;stroke-width:0.5;"/></g><g class="participant participant-head" data-participant="ComponentImplementation"><rect fill="#E2E2F0" height="30.2969" rx="2.5" ry="2.5" style="stroke:#181818;stroke-width:0.5;" width="210.8955" x="232.4033" y="50"/><text fill="#000000" font-family="sans-serif" font-size="14" lengthAdjust="spacing" textLength="196.8955" x="239.4033" y="69.9951">Component Implementation</text></g><g class="participant participant-tail" data-participant="ComponentImplementation"><rect fill="#E2E2F0" height="30.2969" rx="2.5" ry="2.5" style="stroke:#181818;stroke-width:0.5;" width="210.8955" x="232.4033" y="337.3594"/><text fill="#000000" font-family="sans-serif" font-size="14" lengthAdjust="spacing" textLength="196.8955" x="239.4033" y="357.3545">Component Implementation</text></g><g class="participant participant-head" data-participant="IdentityManagementSystem"><rect fill="#E2E2F0" height="30.2969" rx="2.5" ry="2.5" style="stroke:#181818;stroke-width:0.5;" width="220.9854" x="494.645" y="50"/><text fill="#000000" font-family="sans-serif" font-size="14" lengthAdjust="spacing" textLength="206.9854" x="501.645" y="69.9951">Identity Management System</text></g><g class="participant participant-tail" data-participant="IdentityManagementSystem"><rect fill="#E2E2F0" height="30.2969" rx="2.5" ry="2.5" style="stroke:#181818;stroke-width:0.5;" width="220.9854" x="494.645" y="337.3594"/><text fill="#000000" font-family="sans-serif" font-size="14" lengthAdjust="spacing" textLength="206.9854" x="501.645" y="357.3545">Identity Management System</text></g><g class="participant participant-head" data-participant="Operations"><text fill="#000000" font-family="sans-serif" font-size="14" lengthAdjust="spacing" textLength="76.9658" x="770.3086" y="77.9951">Operations</text><ellipse cx="811.7915" cy="13.5" fill="#E2E2F0" rx="8" ry="8" style="stroke:#181818;stroke-width:0.5;"/><path d="M811.7915,21.5 L811.7915,48.5 M798.7915,29.5 L824.7915,29.5 M811.7915,48.5 L798.7915,63.5 M811.7915,48.5 L824.7915,63.5" fill="none" style="stroke:#181818;stroke-width:0.5;"/></g><g class="participant participant-tail" data-participant="Operations"><text fill="#000000" font-family="sans-serif" font-size="14" lengthAdjust="spacing" textLength="76.9658" x="770.3086" y="350.3545">Operations</text><ellipse cx="811.7915" cy="362.1563" fill="#E2E2F0" rx="8" ry="8" style="stroke:#181818;stroke-width:0.5;"/><path d="M811.7915,370.1563 L811.7915,397.1563 M798.7915,378.1563 L824.7915,378.1563 M811.7915,397.1563 L798.7915,412.1563 M811.7915,397.1563 L824.7915,412.1563" fill="none" style="stroke:#181818;stroke-width:0.5;"/></g><path d="M222.4033,98.2969 L525.9751,98.2969 L525.9751,105.4297 L515.9751,115.4297 L222.4033,115.4297 L222.4033,98.2969" fill="#EEEEEE" style="stroke:#000000;stroke-width:1.5;"/><rect fill="none" height="104.5313" style="stroke:#000000;stroke-width:1.5;" width="640.8711" x="222.4033" y="98.2969"/><text fill="#000000" font-family="sans-serif" font-size="13" font-weight="bold" lengthAdjust="spacing" textLength="258.5718" x="237.4033" y="111.3638">Prerequisite - component deployed</text><g class="message" data-participant-1="Operations" data-participant-2="ComponentImplementation"><polygon fill="#181818" points="348.8511,132.5625,338.8511,136.5625,348.8511,140.5625,344.8511,136.5625" style="stroke:#181818;stroke-width:1;"/><line style="stroke:#181818;stroke-width:1;" x1="342.8511" x2="810.7915" y1="136.5625" y2="136.5625"/><text fill="#000000" font-family="sans-serif" font-size="13" lengthAdjust="spacing" textLength="123.1953" x="354.8511" y="131.4966">Deploy component</text></g><g class="message" data-participant-1="ComponentImplementation" data-participant-2="IdentityManagementSystem"><polygon fill="#181818" points="593.1377,161.6953,603.1377,165.6953,593.1377,169.6953,597.1377,165.6953" style="stroke:#181818;stroke-width:1;"/><line style="stroke:#181818;stroke-width:1;" x1="337.8511" x2="599.1377" y1="165.6953" y2="165.6953"/><text fill="#000000" font-family="sans-serif" font-size="13" lengthAdjust="spacing" textLength="241.6807" x="344.8511" y="160.6294">Create client (as part of deployment)</text></g><g class="message" data-participant-1="ComponentImplementation" data-participant-2="IdentityManagementSystem"><polygon fill="#181818" points="593.1377,190.8281,603.1377,194.8281,593.1377,198.8281,597.1377,194.8281" style="stroke:#181818;stroke-width:1;"/><line style="stroke:#181818;stroke-width:1;" x1="337.8511" x2="599.1377" y1="194.8281" y2="194.8281"/><text fill="#000000" font-family="sans-serif" font-size="13" lengthAdjust="spacing" textLength="243.2866" x="344.8511" y="189.7622">Create role 1 (as part of deployment)</text></g><path d="M10,216.8281 L149.3262,216.8281 L149.3262,223.9609 L139.3262,233.9609 L10,233.9609 L10,216.8281" fill="#EEEEEE" style="stroke:#000000;stroke-width:1.5;"/><rect fill="none" height="104.5313" style="stroke:#000000;stroke-width:1.5;" width="853.2744" x="10" y="216.8281"/><text fill="#000000" font-family="sans-serif" font-size="13" font-weight="bold" lengthAdjust="spacing" textLength="94.3262" x="25" y="229.895">Grant access</text><g class="message" data-participant-1="Operations" data-participant-2="IdentityManagementSystem"><polygon fill="#181818" points="616.1377,251.0938,606.1377,255.0938,616.1377,259.0938,612.1377,255.0938" style="stroke:#181818;stroke-width:1;"/><line style="stroke:#181818;stroke-width:1;" x1="610.1377" x2="810.7915" y1="255.0938" y2="255.0938"/><text fill="#000000" font-family="sans-serif" font-size="13" lengthAdjust="spacing" textLength="127.0991" x="622.1377" y="250.0278">Create system user</text></g><g class="message" data-participant-1="Operations" data-participant-2="IdentityManagementSystem"><polygon fill="#181818" points="616.1377,280.2266,606.1377,284.2266,616.1377,288.2266,612.1377,284.2266" style="stroke:#181818;stroke-width:1;"/><line style="stroke:#181818;stroke-width:1;" x1="610.1377" x2="810.7915" y1="284.2266" y2="284.2266"/><text fill="#000000" font-family="sans-serif" font-size="13" lengthAdjust="spacing" textLength="182.6538" x="622.1377" y="279.1606">Grant Role 1 to system user</text></g><g class="message" data-participant-1="Operations" data-participant-2="externalSystemOperations"><polygon fill="#181818" points="132.2017,309.3594,122.2017,313.3594,132.2017,317.3594,128.2017,313.3594" style="stroke:#181818;stroke-width:1;"/><line style="stroke:#181818;stroke-width:1;" x1="126.2017" x2="810.7915" y1="313.3594" y2="313.3594"/><text fill="#000000" font-family="sans-serif" font-size="13" lengthAdjust="spacing" textLength="160.6973" x="138.2017" y="308.2935">Distribute clientId/secret</text></g><!--SRC=[fL91JiGm3Bpd5LPFS5WXhdlWiY3Kmme4Bp29MKLga-2u4lqzIHhQNOa88NfAC_PuPXpKuXdeKuWT3gzp51gV0Z6AzIu2HkWUAWWB2XlSgO0iLjk0Jk3Wn-0TEUd7CD2O3gMgSAmON8AN3Br9zrRc8peybQ8wCbDyWx2XLL6diBZOX2brOZy5U6PY-fXij4Am0xsgC1G6FvDHaBuplxkxbeqzt9UUZQJqjamdefQRFHoOC0dIWyrQhfAxd0Buzwehrrx_cvxzG73Rf2TdeAHKithal0BKccBy8PRcRjPvSVcV8l7V-fV9BujSyRyGjTvgMf2DmlPjMgFjpKqapIHdPhy0]--></g></svg>