<svg xmlns="http://www.w3.org/2000/svg" xmlns:xlink="http://www.w3.org/1999/xlink" contentStyleType="text/css" data-diagram-type="SEQUENCE" height="529px" preserveAspectRatio="none" style="width:1508px;height:529px;background:#FFFFFF;" version="1.1" viewBox="0 0 1508 529" width="1508px" zoomAndPan="magnify"><defs/><g><rect fill="none" height="215.0625" style="stroke:#000000;stroke-width:1.5;" width="1492.7681" x="10" y="98.2969"/><rect fill="none" height="75.3984" style="stroke:#000000;stroke-width:1.5;" width="519.561" x="748.2363" y="230.9609"/><rect fill="none" height="104.5313" style="stroke:#000000;stroke-width:1.5;" width="1164.8315" x="102.9658" y="327.3594"/><g><title>Operations</title><rect fill="#000000" fill-opacity="0.00000" height="367.5938" width="8" x="57.4829" y="81.2969"/><line style="stroke:#181818;stroke-width:0.5;stroke-dasharray:5.0,5.0;" x1="61" x2="61" y1="81.2969" y2="448.8906"/></g><g><title>Business Operations</title><rect fill="#000000" fill-opacity="0.00000" height="367.5938" width="8" x="183.5415" y="81.2969"/><line style="stroke:#181818;stroke-width:0.5;stroke-dasharray:5.0,5.0;" x1="186.9658" x2="186.9658" y1="81.2969" y2="448.8906"/></g><g><title>Component</title><rect fill="#000000" fill-opacity="0.00000" height="367.5938" width="8" x="311.7568" y="81.2969"/><line style="stroke:#181818;stroke-width:0.5;stroke-dasharray:5.0,5.0;" x1="315.1172" x2="315.1172" y1="81.2969" y2="448.8906"/></g><g><title>Component Implementation</title><rect fill="#000000" fill-opacity="0.00000" height="367.5938" width="8" x="470.8442" y="81.2969"/><line style="stroke:#181818;stroke-width:0.5;stroke-dasharray:5.0,5.0;" x1="474.3965" x2="474.3965" y1="81.2969" y2="448.8906"/></g><g><title>ComponentOperator</title><rect fill="#000000" fill-opacity="0.00000" height="367.5938" width="8" x="665.2642" y="81.2969"/><line style="stroke:#181818;stroke-width:0.5;stroke-dasharray:5.0,5.0;" x1="668.292" x2="668.292" y1="81.2969" y2="448.8906"/></g><g><title>ExposedAPI</title><rect fill="#000000" fill-opacity="0.00000" height="367.5938" width="8" x="797.999" y="81.2969"/><line style="stroke:#181818;stroke-width:0.5;stroke-dasharray:5.0,5.0;" x1="801.2363" x2="801.2363" y1="81.2969" y2="448.8906"/></g><g><title>APIExposureOperator</title><rect fill="#000000" fill-opacity="0.00000" height="367.5938" width="8" x="933.728" y="81.2969"/><line style="stroke:#181818;stroke-width:0.5;stroke-dasharray:5.0,5.0;" x1="936.7617" x2="936.7617" y1="81.2969" y2="448.8906"/></g><g><title>Observability Platform</title><rect fill="#000000" fill-opacity="0.00000" height="367.5938" width="8" x="1168.5464" y="81.2969"/><line style="stroke:#181818;stroke-width:0.5;stroke-dasharray:5.0,5.0;" x1="1172.2954" x2="1172.2954" y1="81.2969" y2="448.8906"/></g><g class="participant participant-head" data-participant="Operations"><text fill="#000000" font-family="sans-serif" font-size="14" lengthAdjust="spacing" textLength="76.9658" x="20" y="77.9951">Operations</text><ellipse cx="61.4829" cy="13.5" fill="#E2E2F0" rx="8" ry="8" style="stroke:#181818;stroke-width:0.5;"/><path d="M61.4829,21.5 L61.4829,48.5 M48.4829,29.5 L74.4829,29.5 M61.4829,48.5 L48.4829,63.5 M61.4829,48.5 L74.4829,63.5" fill="none" style="stroke:#181818;stroke-width:0.5;"/></g><g class="participant participant-tail" data-participant="Operations"><text fill="#000000" font-family="sans-serif" font-size="14" lengthAdjust="spacing" textLength="76.9658" x="20" y="460.8857">Operations</text><ellipse cx="61.4829" cy="472.6875" fill="#E2E2F0" rx="8" ry="8" style="stroke:#181818;stroke-width:0.5;"/><path d="M61.4829,480.6875 L61.4829,507.6875 M48.4829,488.6875 L74.4829,488.6875 M61.4829,507.6875 L48.4829,522.6875 M61.4829,507.6875 L74.4829,522.6875" fill="none" style="stroke:#181818;stroke-width:0.5;"/></g><g class="participant participant-head" data-participant="Business Operations"><text fill="#000000" font-family="sans-serif" font-size="14" lengthAdjust="spacing" textLength="143.1514" x="112.9658" y="77.9951">Business Operations</text><ellipse cx="187.5415" cy="13.5" fill="#E2E2F0" rx="8" ry="8" style="stroke:#181818;stroke-width:0.5;"/><path d="M187.5415,21.5 L187.5415,48.5 M174.5415,29.5 L200.5415,29.5 M187.5415,48.5 L174.5415,63.5 M187.5415,48.5 L200.5415,63.5" fill="none" style="stroke:#181818;stroke-width:0.5;"/></g><g class="participant participant-tail" data-participant="Business Operations"><text fill="#000000" font-family="sans-serif" font-size="14" lengthAdjust="spacing" textLength="143.1514" x="112.9658" y="460.8857">Business Operations</text><ellipse cx="187.5415" cy="472.6875" fill="#E2E2F0" rx="8" ry="8" style="stroke:#181818;stroke-width:0.5;"/><path d="M187.5415,480.6875 L187.5415,507.6875 M174.5415,488.6875 L200.5415,488.6875 M187.5415,507.6875 L174.5415,522.6875 M187.5415,507.6875 L200.5415,522.6875" fill="none" style="stroke:#181818;stroke-width:0.5;"/></g><g class="participant participant-head" data-participant="Component"><text fill="#000000" font-family="sans-serif" font-size="14" lengthAdjust="spacing" textLength="81.2793" x="272.1172" y="77.9951">Component</text><ellipse cx="315.7568" cy="49" fill="#E2E2F0" rx="12" ry="12" style="stroke:#181818;stroke-width:0.5;"/><line style="stroke:#181818;stroke-width:0.5;" x1="303.7568" x2="327.7568" y1="63" y2="63"/></g><g class="participant participant-tail" data-participant="Component"><text fill="#000000" font-family="sans-serif" font-size="14" lengthAdjust="spacing" textLength="81.2793" x="272.1172" y="460.8857">Component</text><ellipse cx="315.7568" cy="480.1875" fill="#E2E2F0" rx="12" ry="12" style="stroke:#181818;stroke-width:0.5;"/><line style="stroke:#181818;stroke-width:0.5;" x1="303.7568" x2="327.7568" y1="494.1875" y2="494.1875"/></g><g class="participant participant-head" data-participant="Component Implementation"><rect fill="#E2E2F0" height="30.2969" rx="2.5" ry="2.5" style="stroke:#181818;stroke-width:0.5;" width="210.8955" x="369.3965" y="50"/><text fill="#000000" font-family="sans-serif" font-size="14" lengthAdjust="spacing" textLength="196.8955" x="376.3965" y="69.9951">Component Implementation</text></g><g class="participant participant-tail" data-participant="Component Implementation"><rect fill="#E2E2F0" height="30.2969" rx="2.5" ry="2.5" style="stroke:#181818;stroke-width:0.5;" width="210.8955" x="369.3965" y="447.8906"/><text fill="#000000" font-family="sans-serif" font-size="14" lengthAdjust="spacing" textLength="196.8955" x="376.3965" y="467.8857">Component Implementation</text></g><g class="participant participant-head" data-participant="ComponentOperator"><rect fill="#E2E2F0" height="30.2969" rx="2.5" ry="2.5" style="stroke:#181818;stroke-width:0.5;" width="157.9443" x="590.292" y="50"/><text fill="#000000" font-family="sans-serif" font-size="14" lengthAdjust="spacing" textLength="143.9443" x="597.292" y="69.9951">ComponentOperator</text></g><g class="participant participant-tail" data-participant="ComponentOperator"><rect fill="#E2E2F0" height="30.2969" rx="2.5" ry="2.5" style="stroke:#181818;stroke-width:0.5;" width="157.9443" x="590.292" y="447.8906"/><text fill="#000000" font-family="sans-serif" font-size="14" lengthAdjust="spacing" textLength="143.9443" x="597.292" y="467.8857">ComponentOperator</text></g><g class="participant participant-head" data-participant="ExposedAPI"><text fill="#000000" font-family="sans-serif" font-size="14" lengthAdjust="spacing" textLength="81.5254" x="758.2363" y="77.9951">ExposedAPI</text><ellipse cx="801.999" cy="49" fill="#E2E2F0" rx="12" ry="12" style="stroke:#181818;stroke-width:0.5;"/><line style="stroke:#181818;stroke-width:0.5;" x1="789.999" x2="813.999" y1="63" y2="63"/></g><g class="participant participant-tail" data-participant="ExposedAPI"><text fill="#000000" font-family="sans-serif" font-size="14" lengthAdjust="spacing" textLength="81.5254" x="758.2363" y="460.8857">ExposedAPI</text><ellipse cx="801.999" cy="480.1875" fill="#E2E2F0" rx="12" ry="12" style="stroke:#181818;stroke-width:0.5;"/><line style="stroke:#181818;stroke-width:0.5;" x1="789.999" x2="813.999" y1="494.1875" y2="494.1875"/></g><g class="participant participant-head" data-participant="APIExposureOperator"><rect fill="#E2E2F0" height="30.2969" rx="2.5" ry="2.5" style="stroke:#181818;stroke-width:0.5;" width="163.9326" x="855.7617" y="50"/><text fill="#000000" font-family="sans-serif" font-size="14" lengthAdjust="spacing" textLength="149.9326" x="862.7617" y="69.9951">APIExposureOperator</text></g><g class="participant participant-tail" data-participant="APIExposureOperator"><rect fill="#E2E2F0" height="30.2969" rx="2.5" ry="2.5" style="stroke:#181818;stroke-width:0.5;" width="163.9326" x="855.7617" y="447.8906"/><text fill="#000000" font-family="sans-serif" font-size="14" lengthAdjust="spacing" textLength="149.9326" x="862.7617" y="467.8857">APIExposureOperator</text></g><g class="participant participant-head" data-participant="Observability Platform"><rect fill="#E2E2F0" height="30.2969" rx="2.5" ry="2.5" style="stroke:#181818;stroke-width:0.5;" width="170.502" x="1087.2954" y="50"/><text fill="#000000" font-family="sans-serif" font-size="14" lengthAdjust="spacing" textLength="156.502" x="1094.2954" y="69.9951">Observability Platform</text></g><g class="participant participant-tail" data-participant="Observability Platform"><rect fill="#E2E2F0" height="30.2969" rx="2.5" ry="2.5" style="stroke:#181818;stroke-width:0.5;" width="170.502" x="1087.2954" y="447.8906"/><text fill="#000000" font-family="sans-serif" font-size="14" lengthAdjust="spacing" textLength="156.502" x="1094.2954" y="467.8857">Observability Platform</text></g><path d="M10,98.2969 L182.8164,98.2969 L182.8164,105.4297 L172.8164,115.4297 L10,115.4297 L10,98.2969" fill="#EEEEEE" style="stroke:#000000;stroke-width:1.5;"/><rect fill="none" height="215.0625" style="stroke:#000000;stroke-width:1.5;" width="1492.7681" x="10" y="98.2969"/><text fill="#000000" font-family="sans-serif" font-size="13" font-weight="bold" lengthAdjust="spacing" textLength="127.8164" x="25" y="111.3638">component setup</text><g class="message" data-participant-1="Operations" data-participant-2="Component"><polygon fill="#181818" points="303.7568,132.5625,313.7568,136.5625,303.7568,140.5625,307.7568,136.5625" style="stroke:#181818;stroke-width:1;"/><line style="stroke:#181818;stroke-width:1;" x1="61.4829" x2="309.7568" y1="136.5625" y2="136.5625"/><text fill="#000000" font-family="sans-serif" font-size="13" lengthAdjust="spacing" textLength="123.1953" x="68.4829" y="131.4966">Deploy component</text></g><g class="message" data-participant-1="Component" data-participant-2="ComponentOperator"><polygon fill="#181818" points="657.2642,161.6953,667.2642,165.6953,657.2642,169.6953,661.2642,165.6953" style="stroke:#181818;stroke-width:1;"/><line style="stroke:#181818;stroke-width:1;" x1="315.7568" x2="663.2642" y1="165.6953" y2="165.6953"/><text fill="#000000" font-family="sans-serif" font-size="13" lengthAdjust="spacing" textLength="61.877" x="322.7568" y="160.6294">on.create</text></g><g class="message" data-participant-1="ComponentOperator" data-participant-2="ExposedAPI"><polygon fill="#181818" points="789.999,201.3945,799.999,205.3945,789.999,209.3945,793.999,205.3945" style="stroke:#181818;stroke-width:1;"/><line style="stroke:#181818;stroke-width:1;" x1="669.2642" x2="795.999" y1="205.3945" y2="205.3945"/><text fill="#000000" font-family="sans-serif" font-size="13" lengthAdjust="spacing" textLength="41.5518" x="676.2642" y="200.3286">create</text></g><path d="M806,178.6953 L806,218.6953 L1486,218.6953 L1486,188.6953 L1476,178.6953 L806,178.6953" fill="#FEFFDD" style="stroke:#181818;stroke-width:0.5;"/><path d="M1476,178.6953 L1476,188.6953 L1486,188.6953 L1476,178.6953" fill="#FEFFDD" style="stroke:#181818;stroke-width:0.5;"/><text fill="#000000" font-family="sans-serif" font-size="13" lengthAdjust="spacing" textLength="571.0542" x="812" y="195.7622">The business metrics are defined in the ManagementFunction segment of a component</text><text fill="#000000" font-family="sans-serif" font-size="13" lengthAdjust="spacing" textLength="659.769" x="812" y="210.895">specification. The metrics are exposed via the ExposedAPI, using an open standard like OpenMetrics.</text><path d="M748.2363,230.9609 L1230.7485,230.9609 L1230.7485,238.0938 L1220.7485,248.0938 L748.2363,248.0938 L748.2363,230.9609" fill="#EEEEEE" style="stroke:#000000;stroke-width:1.5;"/><rect fill="none" height="75.3984" style="stroke:#000000;stroke-width:1.5;" width="519.561" x="748.2363" y="230.9609"/><text fill="#000000" font-family="sans-serif" font-size="13" font-weight="bold" lengthAdjust="spacing" textLength="437.5122" x="763.2363" y="244.0278">For each exposed API in the ManagementFunction segment</text><g class="message" data-participant-1="ExposedAPI" data-participant-2="APIExposureOperator"><polygon fill="#181818" points="925.728,265.2266,935.728,269.2266,925.728,273.2266,929.728,269.2266" style="stroke:#181818;stroke-width:1;"/><line style="stroke:#181818;stroke-width:1;" x1="801.999" x2="931.728" y1="269.2266" y2="269.2266"/><text fill="#000000" font-family="sans-serif" font-size="13" lengthAdjust="spacing" textLength="61.877" x="808.999" y="264.1606">on.create</text></g><g class="message" data-participant-1="APIExposureOperator" data-participant-2="Observability Platform"><polygon fill="#181818" points="1160.5464,294.3594,1170.5464,298.3594,1160.5464,302.3594,1164.5464,298.3594" style="stroke:#181818;stroke-width:1;"/><line style="stroke:#181818;stroke-width:1;" x1="937.728" x2="1166.5464" y1="298.3594" y2="298.3594"/><text fill="#000000" font-family="sans-serif" font-size="13" lengthAdjust="spacing" textLength="210.8184" x="944.728" y="293.2935">configure Observability Platform</text></g><path d="M102.9658,327.3594 L275.9346,327.3594 L275.9346,334.4922 L265.9346,344.4922 L102.9658,344.4922 L102.9658,327.3594" fill="#EEEEEE" style="stroke:#000000;stroke-width:1.5;"/><rect fill="none" height="104.5313" style="stroke:#000000;stroke-width:1.5;" width="1164.8315" x="102.9658" y="327.3594"/><text fill="#000000" font-family="sans-serif" font-size="13" font-weight="bold" lengthAdjust="spacing" textLength="127.9688" x="117.9658" y="340.4263">in-life Operations</text><g class="message" data-participant-1="Component Implementation" data-participant-2="Observability Platform"><polygon fill="#181818" points="1160.5464,361.625,1170.5464,365.625,1160.5464,369.625,1164.5464,365.625" style="stroke:#181818;stroke-width:1;"/><line style="stroke:#181818;stroke-width:1;" x1="474.8442" x2="1166.5464" y1="365.625" y2="365.625"/><text fill="#000000" font-family="sans-serif" font-size="13" lengthAdjust="spacing" textLength="159.4023" x="481.8442" y="360.5591">stream business metrics</text></g><g class="message" data-participant-1="Business Operations" data-participant-2="Observability Platform"><polygon fill="#181818" points="1160.5464,390.7578,1170.5464,394.7578,1160.5464,398.7578,1164.5464,394.7578" style="stroke:#181818;stroke-width:1;"/><line style="stroke:#181818;stroke-width:1;" x1="187.5415" x2="1166.5464" y1="394.7578" y2="394.7578"/><text fill="#000000" font-family="sans-serif" font-size="13" lengthAdjust="spacing" textLength="143.4951" x="194.5415" y="389.6919">view business metrics</text></g><g class="message" data-participant-1="Observability Platform" data-participant-2="Business Operations"><polygon fill="#181818" points="198.5415,419.8906,188.5415,423.8906,198.5415,427.8906,194.5415,423.8906" style="stroke:#181818;stroke-width:1;"/><line style="stroke:#181818;stroke-width:1;" x1="192.5415" x2="1171.5464" y1="423.8906" y2="423.8906"/><text fill="#000000" font-family="sans-serif" font-size="13" lengthAdjust="spacing" textLength="257.6069" x="204.5415" y="418.8247">Raise alarms for pre-defined thresholds</text></g><!--SRC=[XLFRQiCm37tFLuWyB_s0CWQx5VfGMiP-G7MKH2onZUrqwz_FTiYjJQWW4Db7H-V8DWgd31mr6NIif4qmBgHlhML9rawsqeIaOtU5TzLe9NsIQ3IE1MkK3j9X6VQDhgdnVx4mdS46L4UiJC_w-QULfVprj9_XVHvtMaD3nQpjyMp9NF3CTM0vrUWAPPeqAOrgDOX1b2NNwWHyZ4AViua_sC87wLfTnw8RUFPoBtyBIcw48NG4StYF26MZkIrqu8YLobSPBgkkKuZlYk3S3xyXPrXOG4EGK-4NSs09pcCEAB6CGzwrKWG3tc4PSb05u8s745QJu895TBk9ZQRyr4c42sDiC4f-Wg2d19IWDFa-3cME9eUQVoWCK1uwdatiHJAFncBIdSBEJu5GL4CJp_hOoA1yb19ckN0ZxWuXn08kbAzT67_yGic2Iu-7PKnlBmbVvunbLdD1qnSKGEkFuO44wxoBvku6TAHBZ_81tuNfTuLjhIWGBdRQmXUo9S0QJMF1eq4RolgBwIf3jb9rRiDy8Fa7]--></g></svg>