<svg xmlns="http://www.w3.org/2000/svg" xmlns:xlink="http://www.w3.org/1999/xlink" contentStyleType="text/css" data-diagram-type="SEQUENCE" height="346px" preserveAspectRatio="none" style="width:1002px;height:346px;background:#FFFFFF;" version="1.1" viewBox="0 0 1002 346" width="1002px" zoomAndPan="magnify"><defs/><g><g><title>Operations</title><rect fill="#000000" fill-opacity="0.00000" height="184.6641" width="8" x="42.4829" y="81.2969"/><line style="stroke:#181818;stroke-width:0.5;stroke-dasharray:5.0,5.0;" x1="46" x2="46" y1="81.2969" y2="265.9609"/></g><g><title>Component</title><rect fill="#000000" fill-opacity="0.00000" height="184.6641" width="8" x="137.6055" y="81.2969"/><line style="stroke:#181818;stroke-width:0.5;stroke-dasharray:5.0,5.0;" x1="140.9658" x2="140.9658" y1="81.2969" y2="265.9609"/></g><g><title>ConversionService</title><rect fill="#000000" fill-opacity="0.00000" height="184.6641" width="8" x="267.4082" y="81.2969"/><line style="stroke:#181818;stroke-width:0.5;stroke-dasharray:5.0,5.0;" x1="271.2925" x2="271.2925" y1="81.2969" y2="265.9609"/></g><g><title>Other Canvas Operators</title><rect fill="#000000" fill-opacity="0.00000" height="184.6641" width="8" x="442.4165" y="81.2969"/><line style="stroke:#181818;stroke-width:0.5;stroke-dasharray:5.0,5.0;" x1="445.4185" x2="445.4185" y1="81.2969" y2="265.9609"/></g><g class="participant participant-head" data-participant="Operations"><text fill="#000000" font-family="sans-serif" font-size="14" lengthAdjust="spacing" textLength="76.9658" x="5" y="77.9951">Operations</text><ellipse cx="46.4829" cy="13.5" fill="#E2E2F0" rx="8" ry="8" style="stroke:#181818;stroke-width:0.5;"/><path d="M46.4829,21.5 L46.4829,48.5 M33.4829,29.5 L59.4829,29.5 M46.4829,48.5 L33.4829,63.5 M46.4829,48.5 L59.4829,63.5" fill="none" style="stroke:#181818;stroke-width:0.5;"/></g><g class="participant participant-tail" data-participant="Operations"><text fill="#000000" font-family="sans-serif" font-size="14" lengthAdjust="spacing" textLength="76.9658" x="5" y="277.9561">Operations</text><ellipse cx="46.4829" cy="289.7578" fill="#E2E2F0" rx="8" ry="8" style="stroke:#181818;stroke-width:0.5;"/><path d="M46.4829,297.7578 L46.4829,324.7578 M33.4829,305.7578 L59.4829,305.7578 M46.4829,324.7578 L33.4829,339.7578 M46.4829,324.7578 L59.4829,339.7578" fill="none" style="stroke:#181818;stroke-width:0.5;"/></g><g class="participant participant-head" data-participant="Component"><text fill="#000000" font-family="sans-serif" font-size="14" lengthAdjust="spacing" textLength="81.2793" x="97.9658" y="77.9951">Component</text><ellipse cx="141.6055" cy="49" fill="#E2E2F0" rx="12" ry="12" style="stroke:#181818;stroke-width:0.5;"/><line style="stroke:#181818;stroke-width:0.5;" x1="129.6055" x2="153.6055" y1="63" y2="63"/></g><g class="participant participant-tail" data-participant="Component"><text fill="#000000" font-family="sans-serif" font-size="14" lengthAdjust="spacing" textLength="81.2793" x="97.9658" y="277.9561">Component</text><ellipse cx="141.6055" cy="297.2578" fill="#E2E2F0" rx="12" ry="12" style="stroke:#181818;stroke-width:0.5;"/><line style="stroke:#181818;stroke-width:0.5;" x1="129.6055" x2="153.6055" y1="311.2578" y2="311.2578"/></g><g class="participant participant-head" data-participant="ConversionService"><rect fill="#E2E2F0" height="30.2969" rx="2.5" ry="2.5" style="stroke:#181818;stroke-width:0.5;" width="144.2314" x="199.2925" y="50"/><text fill="#000000" font-family="sans-serif" font-size="14" lengthAdjust="spacing" textLength="130.2314" x="206.2925" y="69.9951">ConversionService</text></g><g class="participant participant-tail" data-participant="ConversionService"><rect fill="#E2E2F0" height="30.2969" rx="2.5" ry="2.5" style="stroke:#181818;stroke-width:0.5;" width="144.2314" x="199.2925" y="264.9609"/><text fill="#000000" font-family="sans-serif" font-size="14" lengthAdjust="spacing" textLength="130.2314" x="206.2925" y="284.9561">ConversionService</text></g><g class="participant participant-head" data-participant="Other Canvas Operators"><rect fill="#E2E2F0" height="30.2969" rx="2.5" ry="2.5" style="stroke:#181818;stroke-width:0.5;" width="183.9961" x="354.4185" y="50"/><text fill="#000000" font-family="sans-serif" font-size="14" lengthAdjust="spacing" textLength="169.9961" x="361.4185" y="69.9951">Other Canvas Operators</text></g><g class="participant participant-tail" data-participant="Other Canvas Operators"><rect fill="#E2E2F0" height="30.2969" rx="2.5" ry="2.5" style="stroke:#181818;stroke-width:0.5;" width="183.9961" x="354.4185" y="264.9609"/><text fill="#000000" font-family="sans-serif" font-size="14" lengthAdjust="spacing" textLength="169.9961" x="361.4185" y="284.9561">Other Canvas Operators</text></g><g class="message" data-participant-1="Operations" data-participant-2="Component"><polygon fill="#181818" points="129.6055,108.4297,139.6055,112.4297,129.6055,116.4297,133.6055,112.4297" style="stroke:#181818;stroke-width:1;"/><line style="stroke:#181818;stroke-width:1;" x1="46.4829" x2="135.6055" y1="112.4297" y2="112.4297"/><text fill="#000000" font-family="sans-serif" font-size="13" lengthAdjust="spacing" textLength="39.1333" x="53.4829" y="107.3638">Install</text></g><g class="message" data-participant-1="Component" data-participant-2="ConversionService"><polygon fill="#181818" points="259.4082,140.5625,269.4082,144.5625,259.4082,148.5625,263.4082,144.5625" style="stroke:#181818;stroke-width:1;"/><line style="stroke:#181818;stroke-width:1;" x1="141.6055" x2="265.4082" y1="144.5625" y2="144.5625"/><text fill="#000000" font-family="sans-serif" font-size="13" lengthAdjust="spacing" textLength="87.604" x="148.6055" y="139.4966">pre on.create</text></g><path d="M276,125.4297 L276,150.4297 L995,150.4297 L995,135.4297 L985,125.4297 L276,125.4297" fill="#FEFFDD" style="stroke:#181818;stroke-width:0.5;"/><path d="M985,125.4297 L985,135.4297 L995,135.4297 L985,125.4297" fill="#FEFFDD" style="stroke:#181818;stroke-width:0.5;"/><text fill="#000000" font-family="sans-serif" font-size="13" lengthAdjust="spacing" textLength="698.4453" x="282" y="142.4966">Some webhook or similar mechanism fires to convert the component before the normal on.create is issued</text><g class="message" data-participant-1="ConversionService" data-participant-2="ConversionService"><line style="stroke:#181818;stroke-width:1;" x1="271.4082" x2="313.4082" y1="176.6953" y2="176.6953"/><line style="stroke:#181818;stroke-width:1;" x1="313.4082" x2="313.4082" y1="176.6953" y2="189.6953"/><line style="stroke:#181818;stroke-width:1;" x1="272.4082" x2="313.4082" y1="189.6953" y2="189.6953"/><polygon fill="#181818" points="282.4082,185.6953,272.4082,189.6953,282.4082,193.6953,278.4082,189.6953" style="stroke:#181818;stroke-width:1;"/><text fill="#000000" font-family="sans-serif" font-size="13" lengthAdjust="spacing" textLength="161.0083" x="278.4082" y="171.6294">Convert to latest version</text></g><g class="message" data-participant-1="ConversionService" data-participant-2="Component"><polygon fill="#181818" points="152.6055,214.8281,142.6055,218.8281,152.6055,222.8281,148.6055,218.8281" style="stroke:#181818;stroke-width:1;"/><line style="stroke:#181818;stroke-width:1;" x1="146.6055" x2="270.4082" y1="218.8281" y2="218.8281"/><text fill="#000000" font-family="sans-serif" font-size="13" lengthAdjust="spacing" textLength="105.8027" x="158.6055" y="213.7622">updated version</text></g><g class="message" data-participant-1="Component" data-participant-2="Other Canvas Operators"><polygon fill="#181818" points="434.4165,243.9609,444.4165,247.9609,434.4165,251.9609,438.4165,247.9609" style="stroke:#181818;stroke-width:1;"/><line style="stroke:#181818;stroke-width:1;" x1="141.6055" x2="440.4165" y1="247.9609" y2="247.9609"/><text fill="#000000" font-family="sans-serif" font-size="13" lengthAdjust="spacing" textLength="61.877" x="148.6055" y="242.895">on.create</text></g><!--SRC=[TP0nRiCm34LtdU8ZUte0e-ZYgLE6d42HcLgeHGeKuwAtBrCuhOeqWWQ9-loF-Z6PA0wLD5eMRe7OidrYb5A5_H9gLCifryZcLLv9cmkFf6jEXF3dVNUmcHHZv3MspLMqxKBuySFpliDXm2itYylIAVOlzw01LGd2Jqaf6WKM8sX-cot0rr4AuODEiyWx_4Cjbxn4HQ4qHywju9oL6aoGlgqDFgcVRymJdSK1roABbhZyif2RxtQXoSEPS2M7-o3-7tgymGIBMpN3fdZaiCqpu58dRvWwVHVFmw27Bg8l]--></g></svg>