<svg xmlns="http://www.w3.org/2000/svg" xmlns:xlink="http://www.w3.org/1999/xlink" contentStyleType="text/css" data-diagram-type="SEQUENCE" height="1152px" preserveAspectRatio="none" style="width:1641px;height:1152px;background:#FFFFFF;" version="1.1" viewBox="0 0 1641 1152" width="1641px" zoomAndPan="magnify"><defs/><g><rect fill="none" height="544.9219" style="stroke:#000000;stroke-width:1.5;" width="1503.0308" x="132.5996" y="98.2969"/><rect fill="none" height="155.9297" style="stroke:#000000;stroke-width:1.5;" width="1295.6675" x="329.9629" y="375.7578"/><rect fill="none" height="90.5313" style="stroke:#000000;stroke-width:1.5;" width="964.0259" x="248.8232" y="545.6875"/><rect fill="none" height="279.3281" style="stroke:#000000;stroke-width:1.5;" width="1202.8491" x="10" y="657.2188"/><rect fill="none" height="104.5313" style="stroke:#000000;stroke-width:1.5;" width="1080.2495" x="132.5996" y="950.5469"/><g><title>BusinessAdmin</title><rect fill="#000000" fill-opacity="0.00000" height="990.7813" width="8" x="72.2998" y="81.2969"/><line style="stroke:#181818;stroke-width:0.5;stroke-dasharray:5.0,5.0;" x1="76" x2="76" y1="81.2969" y2="1072.0781"/></g><g><title>Component</title><rect fill="#000000" fill-opacity="0.00000" height="990.7813" width="8" x="191.7114" y="81.2969"/><line style="stroke:#181818;stroke-width:0.5;stroke-dasharray:5.0,5.0;" x1="195.5996" x2="195.5996" y1="81.2969" y2="1072.0781"/></g><g><title>Identity</title><rect fill="#000000" fill-opacity="0.00000" height="990.7813" width="8" x="290.3931" y="81.2969"/><line style="stroke:#181818;stroke-width:0.5;stroke-dasharray:5.0,5.0;" x1="293.8232" x2="293.8232" y1="81.2969" y2="1072.0781"/></g><g><title>Component Implementation</title><rect fill="#000000" fill-opacity="0.00000" height="990.7813" width="8" x="441.4106" y="81.2969"/><line style="stroke:#181818;stroke-width:0.5;stroke-dasharray:5.0,5.0;" x1="444.9629" x2="444.9629" y1="81.2969" y2="1072.0781"/></g><g><title>Identity Operator</title><rect fill="#000000" fill-opacity="0.00000" height="990.7813" width="8" x="730.7363" y="81.2969"/><line style="stroke:#181818;stroke-width:0.5;stroke-dasharray:5.0,5.0;" x1="734.3511" x2="734.3511" y1="81.2969" y2="1072.0781"/></g><g><title>Secret store</title><rect fill="#000000" fill-opacity="0.00000" height="990.7813" width="8" x="857.7334" y="81.2969"/><line style="stroke:#181818;stroke-width:0.5;stroke-dasharray:5.0,5.0;" x1="861.1216" x2="861.1216" y1="81.2969" y2="1072.0781"/></g><g><title>Identity Management System</title><rect fill="#000000" fill-opacity="0.00000" height="990.7813" width="8" x="1088.3564" y="81.2969"/><line style="stroke:#181818;stroke-width:0.5;stroke-dasharray:5.0,5.0;" x1="1091.8638" x2="1091.8638" y1="81.2969" y2="1072.0781"/></g><g class="participant participant-head" data-participant="BusinessAdmin"><text fill="#000000" font-family="sans-serif" font-size="14" lengthAdjust="spacing" textLength="106.5996" x="20" y="77.9951">BusinessAdmin</text><ellipse cx="76.2998" cy="13.5" fill="#E2E2F0" rx="8" ry="8" style="stroke:#181818;stroke-width:0.5;"/><path d="M76.2998,21.5 L76.2998,48.5 M63.2998,29.5 L89.2998,29.5 M76.2998,48.5 L63.2998,63.5 M76.2998,48.5 L89.2998,63.5" fill="none" style="stroke:#181818;stroke-width:0.5;"/></g><g class="participant participant-tail" data-participant="BusinessAdmin"><text fill="#000000" font-family="sans-serif" font-size="14" lengthAdjust="spacing" textLength="106.5996" x="20" y="1084.0732">BusinessAdmin</text><ellipse cx="76.2998" cy="1095.875" fill="#E2E2F0" rx="8" ry="8" style="stroke:#181818;stroke-width:0.5;"/><path d="M76.2998,1103.875 L76.2998,1130.875 M63.2998,1111.875 L89.2998,1111.875 M76.2998,1130.875 L63.2998,1145.875 M76.2998,1130.875 L89.2998,1145.875" fill="none" style="stroke:#181818;stroke-width:0.5;"/></g><g class="participant participant-head" data-participant="ComponentOperator"><rect fill="#E2E2F0" height="62.8906" rx="2.5" ry="2.5" style="stroke:#181818;stroke-width:0.5;" width="106.2236" x="142.5996" y="17.4063"/><text fill="#000000" font-family="sans-serif" font-size="14" lengthAdjust="spacing" textLength="81.2793" x="155.0718" y="37.4014">Component</text><text fill="#000000" font-family="sans-serif" font-size="14" lengthAdjust="spacing" textLength="92.2236" x="149.5996" y="53.6982">Management</text><text fill="#000000" font-family="sans-serif" font-size="14" lengthAdjust="spacing" textLength="62.665" x="164.3789" y="69.9951">Operator</text></g><g class="participant participant-tail" data-participant="ComponentOperator"><rect fill="#E2E2F0" height="62.8906" rx="2.5" ry="2.5" style="stroke:#181818;stroke-width:0.5;" width="106.2236" x="142.5996" y="1071.0781"/><text fill="#000000" font-family="sans-serif" font-size="14" lengthAdjust="spacing" textLength="81.2793" x="155.0718" y="1091.0732">Component</text><text fill="#000000" font-family="sans-serif" font-size="14" lengthAdjust="spacing" textLength="92.2236" x="149.5996" y="1107.3701">Management</text><text fill="#000000" font-family="sans-serif" font-size="14" lengthAdjust="spacing" textLength="62.665" x="164.3789" y="1123.667">Operator</text></g><g class="participant participant-head" data-participant="IdentityResource"><text fill="#000000" font-family="sans-serif" font-size="14" lengthAdjust="spacing" textLength="53.6553" x="264.5654" y="61.6982">Identity</text><text fill="#000000" font-family="sans-serif" font-size="14" lengthAdjust="spacing" textLength="65.1396" x="258.8232" y="77.9951">Resource</text><ellipse cx="294.3931" cy="32.7031" fill="#E2E2F0" rx="12" ry="12" style="stroke:#181818;stroke-width:0.5;"/><line style="stroke:#181818;stroke-width:0.5;" x1="282.3931" x2="306.3931" y1="46.7031" y2="46.7031"/></g><g class="participant participant-tail" data-participant="IdentityResource"><text fill="#000000" font-family="sans-serif" font-size="14" lengthAdjust="spacing" textLength="53.6553" x="264.5654" y="1084.0732">Identity</text><text fill="#000000" font-family="sans-serif" font-size="14" lengthAdjust="spacing" textLength="65.1396" x="258.8232" y="1100.3701">Resource</text><ellipse cx="294.3931" cy="1119.6719" fill="#E2E2F0" rx="12" ry="12" style="stroke:#181818;stroke-width:0.5;"/><line style="stroke:#181818;stroke-width:0.5;" x1="282.3931" x2="306.3931" y1="1133.6719" y2="1133.6719"/></g><g class="participant participant-head" data-participant="ComponentImplementation"><rect fill="#E2E2F0" height="30.2969" rx="2.5" ry="2.5" style="stroke:#181818;stroke-width:0.5;" width="210.8955" x="339.9629" y="50"/><text fill="#000000" font-family="sans-serif" font-size="14" lengthAdjust="spacing" textLength="196.8955" x="346.9629" y="69.9951">Component Implementation</text></g><g class="participant participant-tail" data-participant="ComponentImplementation"><rect fill="#E2E2F0" height="30.2969" rx="2.5" ry="2.5" style="stroke:#181818;stroke-width:0.5;" width="210.8955" x="339.9629" y="1071.0781"/><text fill="#000000" font-family="sans-serif" font-size="14" lengthAdjust="spacing" textLength="196.8955" x="346.9629" y="1091.0732">Component Implementation</text></g><g class="participant participant-head" data-participant="identityOperator"><rect fill="#E2E2F0" height="30.2969" rx="2.5" ry="2.5" style="stroke:#181818;stroke-width:0.5;" width="134.7705" x="667.3511" y="50"/><text fill="#000000" font-family="sans-serif" font-size="14" lengthAdjust="spacing" textLength="120.7705" x="674.3511" y="69.9951">Identity Operator</text></g><g class="participant participant-tail" data-participant="identityOperator"><rect fill="#E2E2F0" height="30.2969" rx="2.5" ry="2.5" style="stroke:#181818;stroke-width:0.5;" width="134.7705" x="667.3511" y="1071.0781"/><text fill="#000000" font-family="sans-serif" font-size="14" lengthAdjust="spacing" textLength="120.7705" x="674.3511" y="1091.0732">Identity Operator</text></g><g class="participant participant-head" data-participant="SecretStore"><rect fill="#E2E2F0" height="30.2969" rx="2.5" ry="2.5" style="stroke:#181818;stroke-width:0.5;" width="99.2236" x="812.1216" y="50"/><text fill="#000000" font-family="sans-serif" font-size="14" lengthAdjust="spacing" textLength="85.2236" x="819.1216" y="69.9951">Secret store</text></g><g class="participant participant-tail" data-participant="SecretStore"><rect fill="#E2E2F0" height="30.2969" rx="2.5" ry="2.5" style="stroke:#181818;stroke-width:0.5;" width="99.2236" x="812.1216" y="1071.0781"/><text fill="#000000" font-family="sans-serif" font-size="14" lengthAdjust="spacing" textLength="85.2236" x="819.1216" y="1091.0732">Secret store</text></g><g class="participant participant-head" data-participant="IDM"><rect fill="#E2E2F0" height="30.2969" rx="2.5" ry="2.5" style="stroke:#181818;stroke-width:0.5;" width="220.9854" x="981.8638" y="50"/><text fill="#000000" font-family="sans-serif" font-size="14" lengthAdjust="spacing" textLength="206.9854" x="988.8638" y="69.9951">Identity Management System</text></g><g class="participant participant-tail" data-participant="IDM"><rect fill="#E2E2F0" height="30.2969" rx="2.5" ry="2.5" style="stroke:#181818;stroke-width:0.5;" width="220.9854" x="981.8638" y="1071.0781"/><text fill="#000000" font-family="sans-serif" font-size="14" lengthAdjust="spacing" textLength="206.9854" x="988.8638" y="1091.0732">Identity Management System</text></g><path d="M132.5996,98.2969 L250.0264,98.2969 L250.0264,105.4297 L240.0264,115.4297 L132.5996,115.4297 L132.5996,98.2969" fill="#EEEEEE" style="stroke:#000000;stroke-width:1.5;"/><rect fill="none" height="544.9219" style="stroke:#000000;stroke-width:1.5;" width="1503.0308" x="132.5996" y="98.2969"/><text fill="#000000" font-family="sans-serif" font-size="13" font-weight="bold" lengthAdjust="spacing" textLength="72.4268" x="147.5996" y="111.3638">Bootstrap</text><g class="message" data-participant-1="ComponentOperator" data-participant-2="IdentityResource"><polygon fill="#181818" points="282.3931,132.5625,292.3931,136.5625,282.3931,140.5625,286.3931,136.5625" style="stroke:#181818;stroke-width:1;"/><line style="stroke:#181818;stroke-width:1;" x1="195.7114" x2="288.3931" y1="136.5625" y2="136.5625"/><text fill="#000000" font-family="sans-serif" font-size="13" lengthAdjust="spacing" textLength="41.5518" x="202.7114" y="131.4966">create</text></g><g class="message" data-participant-1="IdentityResource" data-participant-2="identityOperator"><polygon fill="#181818" points="722.7363,161.6953,732.7363,165.6953,722.7363,169.6953,726.7363,165.6953" style="stroke:#181818;stroke-width:1;"/><line style="stroke:#181818;stroke-width:1;" x1="294.3931" x2="728.7363" y1="165.6953" y2="165.6953"/><text fill="#000000" font-family="sans-serif" font-size="13" lengthAdjust="spacing" textLength="61.877" x="301.3931" y="160.6294">on.create</text></g><g class="message" data-participant-1="identityOperator" data-participant-2="IDM"><polygon fill="#181818" points="1080.3564,201.3945,1090.3564,205.3945,1080.3564,209.3945,1084.3564,205.3945" style="stroke:#181818;stroke-width:1;"/><line style="stroke:#181818;stroke-width:1;" x1="734.7363" x2="1086.3564" y1="205.3945" y2="205.3945"/><text fill="#000000" font-family="sans-serif" font-size="13" lengthAdjust="spacing" textLength="183.0029" x="741.7363" y="200.3286">Create client for component</text></g><path d="M1097,178.6953 L1097,218.6953 L1516,218.6953 L1516,188.6953 L1506,178.6953 L1097,178.6953" fill="#FEFFDD" style="stroke:#181818;stroke-width:0.5;"/><path d="M1506,178.6953 L1506,188.6953 L1516,188.6953 L1506,178.6953" fill="#FEFFDD" style="stroke:#181818;stroke-width:0.5;"/><text fill="#000000" font-family="sans-serif" font-size="13" lengthAdjust="spacing" textLength="398.2773" x="1103" y="195.7622">Clients are entities that can request authentication of a user.</text><text fill="#000000" font-family="sans-serif" font-size="13" lengthAdjust="spacing" textLength="375.0068" x="1103" y="210.895">All the roles and permissions are associated with a client.</text><g class="message" data-participant-1="ComponentImplementation" data-participant-2="SecretStore"><polygon fill="#181818" points="849.7334,259.2266,859.7334,263.2266,849.7334,267.2266,853.7334,263.2266" style="stroke:#181818;stroke-width:1;"/><line style="stroke:#181818;stroke-width:1;" x1="445.4106" x2="855.7334" y1="263.2266" y2="263.2266"/><text fill="#000000" font-family="sans-serif" font-size="13" lengthAdjust="spacing" textLength="161.9414" x="452.4106" y="258.1606">Read ClientID and secret</text></g><path d="M866,228.9609 L866,283.9609 L1333,283.9609 L1333,238.9609 L1323,228.9609 L866,228.9609" fill="#FEFFDD" style="stroke:#181818;stroke-width:0.5;"/><path d="M1323,228.9609 L1323,238.9609 L1333,238.9609 L1323,228.9609" fill="#FEFFDD" style="stroke:#181818;stroke-width:0.5;"/><text fill="#000000" font-family="sans-serif" font-size="13" lengthAdjust="spacing" textLength="411.2075" x="872" y="246.0278">Populating the ClientID and secret from the identity platform is</text><text fill="#000000" font-family="sans-serif" font-size="13" lengthAdjust="spacing" textLength="446.5894" x="872" y="261.1606">out of scope for the Canvas, but the Reference Implementation uses</text><text fill="#000000" font-family="sans-serif" font-size="13" lengthAdjust="spacing" textLength="253.4429" x="872" y="276.2935">a credentials operator to simulate this.</text><g class="message" data-participant-1="identityOperator" data-participant-2="IdentityResource"><polygon fill="#181818" points="305.3931,321.625,295.3931,325.625,305.3931,329.625,301.3931,325.625" style="stroke:#181818;stroke-width:1;"/><line style="stroke:#181818;stroke-width:1;" x1="299.3931" x2="733.7363" y1="325.625" y2="325.625"/><text fill="#000000" font-family="sans-serif" font-size="13" lengthAdjust="spacing" textLength="234.2222" x="311.3931" y="305.4263">Query bootstrap Admin role defined</text><text fill="#000000" font-family="sans-serif" font-size="13" lengthAdjust="spacing" textLength="264.2021" x="311.3931" y="320.5591">in component SecurityFunction segment</text></g><g class="message" data-participant-1="identityOperator" data-participant-2="IDM"><polygon fill="#181818" points="1080.3564,353.7578,1090.3564,357.7578,1080.3564,361.7578,1084.3564,357.7578" style="stroke:#181818;stroke-width:1;"/><line style="stroke:#181818;stroke-width:1;" x1="734.7363" x2="1086.3564" y1="357.7578" y2="357.7578"/><text fill="#000000" font-family="sans-serif" font-size="13" lengthAdjust="spacing" textLength="94.3896" x="741.7363" y="352.6919">Assign Canvas</text><text fill="#000000" font-family="sans-serif" font-size="13" font-weight="bold" lengthAdjust="spacing" textLength="103.2446" x="840.2583" y="352.6919">canvassystem</text><text fill="#000000" font-family="sans-serif" font-size="13" lengthAdjust="spacing" textLength="127.7212" x="947.6353" y="352.6919">client to Admin role</text></g><path d="M1097,338.625 L1097,363.625 L1602,363.625 L1602,348.625 L1592,338.625 L1097,338.625" fill="#FEFFDD" style="stroke:#181818;stroke-width:0.5;"/><path d="M1592,338.625 L1592,348.625 L1602,348.625 L1592,338.625" fill="#FEFFDD" style="stroke:#181818;stroke-width:0.5;"/><text fill="#000000" font-family="sans-serif" font-size="13" lengthAdjust="spacing" textLength="484.2373" x="1103" y="355.6919">The Admin role is used by the Canvas to call APIs on the ODA Component.</text><path d="M329.9629,375.7578 L646.6997,375.7578 L646.6997,382.8906 L636.6997,392.8906 L329.9629,392.8906 L329.9629,375.7578" fill="#EEEEEE" style="stroke:#000000;stroke-width:1.5;"/><rect fill="none" height="155.9297" style="stroke:#000000;stroke-width:1.5;" width="1295.6675" x="329.9629" y="375.7578"/><text fill="#000000" font-family="sans-serif" font-size="13" font-weight="bold" lengthAdjust="spacing" textLength="271.7368" x="344.9629" y="388.8247">Dynamic role management - optional</text><g class="message" data-participant-1="identityOperator" data-participant-2="ComponentImplementation"><polygon fill="#181818" points="456.4106,435.7227,446.4106,439.7227,456.4106,443.7227,452.4106,439.7227" style="stroke:#181818;stroke-width:1;"/><line style="stroke:#181818;stroke-width:1;" x1="450.4106" x2="733.7363" y1="439.7227" y2="439.7227"/><text fill="#000000" font-family="sans-serif" font-size="13" lengthAdjust="spacing" textLength="265.3257" x="462.4106" y="419.5239">Register identityOperator to listen to the</text><text fill="#000000" font-family="sans-serif" font-size="13" lengthAdjust="spacing" textLength="205.2769" x="462.4106" y="434.6567">API provided by the component</text></g><path d="M739,397.8906 L739,452.8906 L1609,452.8906 L1609,407.8906 L1599,397.8906 L739,397.8906" fill="#FEFFDD" style="stroke:#181818;stroke-width:0.5;"/><path d="M1599,397.8906 L1599,407.8906 L1609,407.8906 L1599,397.8906" fill="#FEFFDD" style="stroke:#181818;stroke-width:0.5;"/><text fill="#000000" font-family="sans-serif" font-size="13" lengthAdjust="spacing" textLength="650.2603" x="745" y="414.9575">The component implementation provides an API that the identityOperator can call to manage roles.</text><text fill="#000000" font-family="sans-serif" font-size="13" lengthAdjust="spacing" textLength="668.6875" x="745" y="430.0903">The identityOperator listens to the API and manages roles based on the events. The component needs</text><text fill="#000000" font-family="sans-serif" font-size="13" lengthAdjust="spacing" textLength="112.7852" x="745" y="445.2231">to implement the</text><text fill="#000000" font-family="sans-serif" font-size="13" font-weight="bold" lengthAdjust="spacing" textLength="294.2964" x="861.9175" y="445.2231">TMF672 User Roles and Permissions API</text><text fill="#000000" font-family="sans-serif" font-size="13" lengthAdjust="spacing" textLength="178.2104" x="1160.3462" y="445.2231">and the operator listens for</text><text fill="#000000" font-family="sans-serif" font-size="13" font-weight="bold" lengthAdjust="spacing" textLength="200.1416" x="1342.689" y="445.2231">permissionSpecificationSet</text><text fill="#000000" font-family="sans-serif" font-size="13" lengthAdjust="spacing" textLength="47.9312" x="1546.9629" y="445.2231">events.</text><g class="message" data-participant-1="identityOperator" data-participant-2="ComponentImplementation"><polygon fill="#181818" points="456.4106,490.5547,446.4106,494.5547,456.4106,498.5547,452.4106,494.5547" style="stroke:#181818;stroke-width:1;"/><line style="stroke:#181818;stroke-width:1;" x1="450.4106" x2="733.7363" y1="494.5547" y2="494.5547"/><text fill="#000000" font-family="sans-serif" font-size="13" lengthAdjust="spacing" textLength="226.9541" x="462.4106" y="474.356">Query dynamically defined roles in</text><text fill="#000000" font-family="sans-serif" font-size="13" lengthAdjust="spacing" textLength="205.2769" x="462.4106" y="489.4888">API provided by the component</text></g><g class="message" data-participant-1="identityOperator" data-participant-2="IDM"><polygon fill="#181818" points="1080.3564,519.6875,1090.3564,523.6875,1080.3564,527.6875,1084.3564,523.6875" style="stroke:#181818;stroke-width:1;"/><line style="stroke:#181818;stroke-width:1;" x1="734.7363" x2="1086.3564" y1="523.6875" y2="523.6875"/><text fill="#000000" font-family="sans-serif" font-size="13" lengthAdjust="spacing" textLength="87.5088" x="741.7363" y="518.6216">create role(s)</text></g><path d="M248.8232,545.6875 L545.2856,545.6875 L545.2856,552.8203 L535.2856,562.8203 L248.8232,562.8203 L248.8232,545.6875" fill="#EEEEEE" style="stroke:#000000;stroke-width:1.5;"/><rect fill="none" height="90.5313" style="stroke:#000000;stroke-width:1.5;" width="964.0259" x="248.8232" y="545.6875"/><text fill="#000000" font-family="sans-serif" font-size="13" font-weight="bold" lengthAdjust="spacing" textLength="251.4624" x="263.8232" y="558.7544">Static role management - optional</text><g class="message" data-participant-1="identityOperator" data-participant-2="IdentityResource"><polygon fill="#181818" points="305.3931,595.0859,295.3931,599.0859,305.3931,603.0859,301.3931,599.0859" style="stroke:#181818;stroke-width:1;"/><line style="stroke:#181818;stroke-width:1;" x1="299.3931" x2="733.7363" y1="599.0859" y2="599.0859"/><text fill="#000000" font-family="sans-serif" font-size="13" lengthAdjust="spacing" textLength="207.0732" x="311.3931" y="578.8872">Query statically defined roles in</text><text fill="#000000" font-family="sans-serif" font-size="13" lengthAdjust="spacing" textLength="248.2188" x="311.3931" y="594.02">component SecurityFunction segment</text></g><g class="message" data-participant-1="identityOperator" data-participant-2="IDM"><polygon fill="#181818" points="1080.3564,624.2188,1090.3564,628.2188,1080.3564,632.2188,1084.3564,628.2188" style="stroke:#181818;stroke-width:1;"/><line style="stroke:#181818;stroke-width:1;" x1="734.7363" x2="1086.3564" y1="628.2188" y2="628.2188"/><text fill="#000000" font-family="sans-serif" font-size="13" lengthAdjust="spacing" textLength="87.5088" x="741.7363" y="623.1528">create role(s)</text></g><path d="M10,657.2188 L495.6353,657.2188 L495.6353,664.3516 L485.6353,674.3516 L10,674.3516 L10,657.2188" fill="#EEEEEE" style="stroke:#000000;stroke-width:1.5;"/><rect fill="none" height="279.3281" style="stroke:#000000;stroke-width:1.5;" width="1202.8491" x="10" y="657.2188"/><text fill="#000000" font-family="sans-serif" font-size="13" font-weight="bold" lengthAdjust="spacing" textLength="440.6353" x="25" y="670.2856">Normal business operations - for dynamic role management</text><g class="message" data-participant-1="BusinessAdmin" data-participant-2="ComponentImplementation"><polygon fill="#181818" points="433.4106,691.4844,443.4106,695.4844,433.4106,699.4844,437.4106,695.4844" style="stroke:#181818;stroke-width:1;"/><line style="stroke:#181818;stroke-width:1;" x1="76.2998" x2="439.4106" y1="695.4844" y2="695.4844"/><text fill="#000000" font-family="sans-serif" font-size="13" lengthAdjust="spacing" textLength="76.21" x="83.2998" y="690.4185">Create Role</text></g><g class="message" data-participant-1="ComponentImplementation" data-participant-2="identityOperator"><polygon fill="#181818" points="722.7363,720.6172,732.7363,724.6172,722.7363,728.6172,726.7363,724.6172" style="stroke:#181818;stroke-width:1;"/><line style="stroke:#181818;stroke-width:1;" x1="445.4106" x2="728.7363" y1="724.6172" y2="724.6172"/><text fill="#000000" font-family="sans-serif" font-size="13" lengthAdjust="spacing" textLength="159.9482" x="452.4106" y="719.5513">create notification event</text></g><g class="message" data-participant-1="identityOperator" data-participant-2="IDM"><polygon fill="#181818" points="1080.3564,749.75,1090.3564,753.75,1080.3564,757.75,1084.3564,753.75" style="stroke:#181818;stroke-width:1;"/><line style="stroke:#181818;stroke-width:1;" x1="734.7363" x2="1086.3564" y1="753.75" y2="753.75"/><text fill="#000000" font-family="sans-serif" font-size="13" lengthAdjust="spacing" textLength="70.5923" x="741.7363" y="748.6841">create role</text></g><g class="message" data-participant-1="BusinessAdmin" data-participant-2="ComponentImplementation"><polygon fill="#181818" points="433.4106,778.8828,443.4106,782.8828,433.4106,786.8828,437.4106,782.8828" style="stroke:#181818;stroke-width:1;"/><line style="stroke:#181818;stroke-width:1;" x1="76.2998" x2="439.4106" y1="782.8828" y2="782.8828"/><text fill="#000000" font-family="sans-serif" font-size="13" lengthAdjust="spacing" textLength="79.8091" x="83.2998" y="777.8169">Update Role</text></g><g class="message" data-participant-1="ComponentImplementation" data-participant-2="identityOperator"><polygon fill="#181818" points="722.7363,808.0156,732.7363,812.0156,722.7363,816.0156,726.7363,812.0156" style="stroke:#181818;stroke-width:1;"/><line style="stroke:#181818;stroke-width:1;" x1="445.4106" x2="728.7363" y1="812.0156" y2="812.0156"/><text fill="#000000" font-family="sans-serif" font-size="13" lengthAdjust="spacing" textLength="164.2012" x="452.4106" y="806.9497">update notification event</text></g><g class="message" data-participant-1="identityOperator" data-participant-2="IDM"><polygon fill="#181818" points="1080.3564,837.1484,1090.3564,841.1484,1080.3564,845.1484,1084.3564,841.1484" style="stroke:#181818;stroke-width:1;"/><line style="stroke:#181818;stroke-width:1;" x1="734.7363" x2="1086.3564" y1="841.1484" y2="841.1484"/><text fill="#000000" font-family="sans-serif" font-size="13" lengthAdjust="spacing" textLength="76.1211" x="741.7363" y="836.0825">Update role</text></g><g class="message" data-participant-1="BusinessAdmin" data-participant-2="ComponentImplementation"><polygon fill="#181818" points="433.4106,866.2813,443.4106,870.2813,433.4106,874.2813,437.4106,870.2813" style="stroke:#181818;stroke-width:1;"/><line style="stroke:#181818;stroke-width:1;" x1="76.2998" x2="439.4106" y1="870.2813" y2="870.2813"/><text fill="#000000" font-family="sans-serif" font-size="13" lengthAdjust="spacing" textLength="75.4419" x="83.2998" y="865.2153">Delete Role</text></g><g class="message" data-participant-1="ComponentImplementation" data-participant-2="identityOperator"><polygon fill="#181818" points="722.7363,895.4141,732.7363,899.4141,722.7363,903.4141,726.7363,899.4141" style="stroke:#181818;stroke-width:1;"/><line style="stroke:#181818;stroke-width:1;" x1="445.4106" x2="728.7363" y1="899.4141" y2="899.4141"/><text fill="#000000" font-family="sans-serif" font-size="13" lengthAdjust="spacing" textLength="159.3516" x="452.4106" y="894.3481">delete notification event</text></g><g class="message" data-participant-1="identityOperator" data-participant-2="IDM"><polygon fill="#181818" points="1080.3564,924.5469,1090.3564,928.5469,1080.3564,932.5469,1084.3564,928.5469" style="stroke:#181818;stroke-width:1;"/><line style="stroke:#181818;stroke-width:1;" x1="734.7363" x2="1086.3564" y1="928.5469" y2="928.5469"/><text fill="#000000" font-family="sans-serif" font-size="13" lengthAdjust="spacing" textLength="71.7539" x="741.7363" y="923.481">Delete role</text></g><path d="M132.5996,950.5469 L242.7583,950.5469 L242.7583,957.6797 L232.7583,967.6797 L132.5996,967.6797 L132.5996,950.5469" fill="#EEEEEE" style="stroke:#000000;stroke-width:1.5;"/><rect fill="none" height="104.5313" style="stroke:#000000;stroke-width:1.5;" width="1080.2495" x="132.5996" y="950.5469"/><text fill="#000000" font-family="sans-serif" font-size="13" font-weight="bold" lengthAdjust="spacing" textLength="65.1587" x="147.5996" y="963.6138">Uninstall</text><g class="message" data-participant-1="ComponentOperator" data-participant-2="IdentityResource"><polygon fill="#181818" points="282.3931,984.8125,292.3931,988.8125,282.3931,992.8125,286.3931,988.8125" style="stroke:#181818;stroke-width:1;"/><line style="stroke:#181818;stroke-width:1;" x1="195.7114" x2="288.3931" y1="988.8125" y2="988.8125"/><text fill="#000000" font-family="sans-serif" font-size="13" lengthAdjust="spacing" textLength="40.9551" x="202.7114" y="983.7466">delete</text></g><g class="message" data-participant-1="IdentityResource" data-participant-2="identityOperator"><polygon fill="#181818" points="722.7363,1013.9453,732.7363,1017.9453,722.7363,1021.9453,726.7363,1017.9453" style="stroke:#181818;stroke-width:1;"/><line style="stroke:#181818;stroke-width:1;" x1="294.3931" x2="728.7363" y1="1017.9453" y2="1017.9453"/><text fill="#000000" font-family="sans-serif" font-size="13" lengthAdjust="spacing" textLength="61.2803" x="301.3931" y="1012.8794">on.delete</text></g><g class="message" data-participant-1="identityOperator" data-participant-2="IDM"><polygon fill="#181818" points="1080.3564,1043.0781,1090.3564,1047.0781,1080.3564,1051.0781,1084.3564,1047.0781" style="stroke:#181818;stroke-width:1;"/><line style="stroke:#181818;stroke-width:1;" x1="734.7363" x2="1086.3564" y1="1047.0781" y2="1047.0781"/><text fill="#000000" font-family="sans-serif" font-size="13" lengthAdjust="spacing" textLength="239.9478" x="741.7363" y="1042.0122">Delete client and all associated roles</text></g><!--SRC=[dLR1Rjim3BtxAuYUEcF9OOSD28O1QOC2ENJjalQMYs8hYG1RyYIvG_v-92KxjfCKIN9I995yZtoaB39lB3pKJcdft3GlbKugORtAL2MqXxj7KrP6I-rN-bbeiPKbhrygQGMQte5mqDvfTXDSAx-7ktaULYkzaCxKDfDiq6mtcsT2mhoi2Wuel3Aw7wj_rlVG-8SUJ1LtMvGzcwNChFJWy22031jB-d_6-o4XiDmxByj0RlQS95jhwWeUZF7EMr4bGyRmStISDfW0XXHU9iVtHx-Ey4_0w74mW6HuI0Q8P0AFuK9MACAvmPEiYPjeWoTMRNS-0VmzyXq7mafWRqewy3lX8HCQhFnRI-T1r7v7fnad7im61DHEsZ7xc1O5cg1NKw2nq3aWe58vXtU3P-6SoHHYok6VyZkq3jZ6g9eS25AIdAaoaUgKPG8BAV88UpxZQ8wFXynUJLKNw49l6Tm92zXOK_9Xaqceq0BpLO9oxCJKdjYwp5II4yckXFuGxYkiyP3-B-H6MgcnOWFecABWHb2HEOOe79YcNjw0KoMXbEX8kMuwJXPtg909_AcbtSEw4HrmEtCb89SRxF1yfN6ZhJ_bihReuwdM6ODqSak8pwjfYeNSwiWQqZJZXMFrfscZCkHoY3sinHjcgODCEKfD3kjz9v_a8HCefUdh77Ea-UXbDZtqJ3SzeTbcUorAbGMlvQ4rHvXZ8YSA3d-AsXcvaRws2gdPOoi4MD2HfXMYMsc42fKr7tYrPNDeDGezI4IJZ4CzL5yoqHkr4IKYj69NeYqQwa_E5u89r4C3Zdk1Zim20nSfS0pgYE31nHvU2ofFh87ye0an7k3MKkQk3ONUMY9ibAPlpq_VVto3TnmJi6WdmsjdCc1ir0_jaeKP8gHsIzF3A5bMCbERE8EMqgDjXCOmMcrSNV7GGtdG4cPqtxHEp8RIbrJwRF_4SKs-xjqNrd2Kxv8GtAJUuIHeI3ZsU8R31KFWQY9TEhznS8e2nsBuieWLvLAFk9hvwNRbgBtlaK_B5LytqbHumavVFFbwHWgearP9GKGNCxyIx7kLtmos3hRNWeqXRm0xauMy5MmURAy56qCoM9HICzZVyT52BHT57yUdZo4q8DZcug-f2FmYcF6jev55axVpMHEw39Z3Vm00]--></g></svg>