<svg xmlns="http://www.w3.org/2000/svg" xmlns:xlink="http://www.w3.org/1999/xlink" contentStyleType="text/css" data-diagram-type="SEQUENCE" height="708px" preserveAspectRatio="none" style="width:1906px;height:708px;background:#FFFFFF;" version="1.1" viewBox="0 0 1906 708" width="1906px" zoomAndPan="magnify"><defs/><g><rect fill="none" height="118.5313" style="stroke:#000000;stroke-width:1.5;" width="722.0713" x="526.4224" y="185.6953"/><rect fill="none" height="175.7969" style="stroke:#000000;stroke-width:1.5;" width="1812.9927" x="87.9658" y="405.625"/><g><title>Operations</title><rect fill="#000000" fill-opacity="0.00000" height="546.2578" width="8" x="42.4829" y="81.2969"/><line style="stroke:#181818;stroke-width:0.5;stroke-dasharray:5.0,5.0;" x1="46" x2="46" y1="81.2969" y2="627.5547"/></g><g><title>Event Manager</title><rect fill="#000000" fill-opacity="0.00000" height="546.2578" width="8" x="153.9272" y="81.2969"/><line style="stroke:#181818;stroke-width:0.5;stroke-dasharray:5.0,5.0;" x1="156.9658" x2="156.9658" y1="81.2969" y2="627.5547"/></g><g><title>Topic</title><rect fill="#000000" fill-opacity="0.00000" height="546.2578" width="8" x="500.627" y="81.2969"/><line style="stroke:#181818;stroke-width:0.5;stroke-dasharray:5.0,5.0;" x1="503.8315" x2="503.8315" y1="81.2969" y2="627.5547"/></g><g><title>Component</title><rect fill="#000000" fill-opacity="0.00000" height="546.2578" width="8" x="576.062" y="81.2969"/><line style="stroke:#181818;stroke-width:0.5;stroke-dasharray:5.0,5.0;" x1="579.4224" x2="579.4224" y1="81.2969" y2="627.5547"/></g><g><title>ComponentOperator</title><rect fill="#000000" fill-opacity="0.00000" height="546.2578" width="8" x="708.6738" y="81.2969"/><line style="stroke:#181818;stroke-width:0.5;stroke-dasharray:5.0,5.0;" x1="711.7017" x2="711.7017" y1="81.2969" y2="627.5547"/></g><g><title>PublishedNotification</title><rect fill="#000000" fill-opacity="0.00000" height="546.2578" width="8" x="874.6348" y="81.2969"/><line style="stroke:#181818;stroke-width:0.5;stroke-dasharray:5.0,5.0;" x1="877.646" x2="877.646" y1="81.2969" y2="627.5547"/></g><g><title>EventPublishingEnablementOperator</title><rect fill="#000000" fill-opacity="0.00000" height="546.2578" width="8" x="1098.0586" y="81.2969"/><line style="stroke:#181818;stroke-width:0.5;stroke-dasharray:5.0,5.0;" x1="1101.6235" x2="1101.6235" y1="81.2969" y2="627.5547"/></g><g><title>SubscribedNotification</title><rect fill="#000000" fill-opacity="0.00000" height="546.2578" width="8" x="1326.4932" y="81.2969"/><line style="stroke:#181818;stroke-width:0.5;stroke-dasharray:5.0,5.0;" x1="1329.4937" x2="1329.4937" y1="81.2969" y2="627.5547"/></g><g><title>EventSubscriptionEnablementOperator</title><rect fill="#000000" fill-opacity="0.00000" height="546.2578" width="8" x="1562.5225" y="81.2969"/><line style="stroke:#181818;stroke-width:0.5;stroke-dasharray:5.0,5.0;" x1="1566.4927" x2="1566.4927" y1="81.2969" y2="627.5547"/></g><g><title>subscribedNotification</title><rect fill="#000000" fill-opacity="0.00000" height="546.2578" width="8" x="1801.7554" y="81.2969"/><line style="stroke:#181818;stroke-width:0.5;stroke-dasharray:5.0,5.0;" x1="1805.5522" x2="1805.5522" y1="81.2969" y2="627.5547"/></g><g class="participant participant-head" data-participant="Operations"><text fill="#000000" font-family="sans-serif" font-size="14" lengthAdjust="spacing" textLength="76.9658" x="5" y="77.9951">Operations</text><ellipse cx="46.4829" cy="13.5" fill="#E2E2F0" rx="8" ry="8" style="stroke:#181818;stroke-width:0.5;"/><path d="M46.4829,21.5 L46.4829,48.5 M33.4829,29.5 L59.4829,29.5 M46.4829,48.5 L33.4829,63.5 M46.4829,48.5 L59.4829,63.5" fill="none" style="stroke:#181818;stroke-width:0.5;"/></g><g class="participant participant-tail" data-participant="Operations"><text fill="#000000" font-family="sans-serif" font-size="14" lengthAdjust="spacing" textLength="76.9658" x="5" y="639.5498">Operations</text><ellipse cx="46.4829" cy="651.3516" fill="#E2E2F0" rx="8" ry="8" style="stroke:#181818;stroke-width:0.5;"/><path d="M46.4829,659.3516 L46.4829,686.3516 M33.4829,667.3516 L59.4829,667.3516 M46.4829,686.3516 L33.4829,701.3516 M46.4829,686.3516 L59.4829,701.3516" fill="none" style="stroke:#181818;stroke-width:0.5;"/></g><g class="participant participant-head" data-participant="TMFC019"><rect fill="#E2E2F0" height="30.2969" rx="2.5" ry="2.5" style="stroke:#181818;stroke-width:0.5;" width="119.9229" x="97.9658" y="50"/><text fill="#000000" font-family="sans-serif" font-size="14" lengthAdjust="spacing" textLength="105.9229" x="104.9658" y="69.9951">Event Manager</text></g><g class="participant participant-tail" data-participant="TMFC019"><rect fill="#E2E2F0" height="30.2969" rx="2.5" ry="2.5" style="stroke:#181818;stroke-width:0.5;" width="119.9229" x="97.9658" y="626.5547"/><text fill="#000000" font-family="sans-serif" font-size="14" lengthAdjust="spacing" textLength="105.9229" x="104.9658" y="646.5498">Event Manager</text></g><g class="participant participant-head" data-participant="Topic"><text fill="#000000" font-family="sans-serif" font-size="14" lengthAdjust="spacing" textLength="37.5908" x="482.8315" y="77.9951">Topic</text><ellipse cx="504.627" cy="49" fill="#E2E2F0" rx="12" ry="12" style="stroke:#181818;stroke-width:0.5;"/><line style="stroke:#181818;stroke-width:0.5;" x1="492.627" x2="516.627" y1="63" y2="63"/></g><g class="participant participant-tail" data-participant="Topic"><text fill="#000000" font-family="sans-serif" font-size="14" lengthAdjust="spacing" textLength="37.5908" x="482.8315" y="639.5498">Topic</text><ellipse cx="504.627" cy="658.8516" fill="#E2E2F0" rx="12" ry="12" style="stroke:#181818;stroke-width:0.5;"/><line style="stroke:#181818;stroke-width:0.5;" x1="492.627" x2="516.627" y1="672.8516" y2="672.8516"/></g><g class="participant participant-head" data-participant="Component"><text fill="#000000" font-family="sans-serif" font-size="14" lengthAdjust="spacing" textLength="81.2793" x="536.4224" y="77.9951">Component</text><ellipse cx="580.062" cy="49" fill="#E2E2F0" rx="12" ry="12" style="stroke:#181818;stroke-width:0.5;"/><line style="stroke:#181818;stroke-width:0.5;" x1="568.062" x2="592.062" y1="63" y2="63"/></g><g class="participant participant-tail" data-participant="Component"><text fill="#000000" font-family="sans-serif" font-size="14" lengthAdjust="spacing" textLength="81.2793" x="536.4224" y="639.5498">Component</text><ellipse cx="580.062" cy="658.8516" fill="#E2E2F0" rx="12" ry="12" style="stroke:#181818;stroke-width:0.5;"/><line style="stroke:#181818;stroke-width:0.5;" x1="568.062" x2="592.062" y1="672.8516" y2="672.8516"/></g><g class="participant participant-head" data-participant="ComponentOperator"><rect fill="#E2E2F0" height="30.2969" rx="2.5" ry="2.5" style="stroke:#181818;stroke-width:0.5;" width="157.9443" x="633.7017" y="50"/><text fill="#000000" font-family="sans-serif" font-size="14" lengthAdjust="spacing" textLength="143.9443" x="640.7017" y="69.9951">ComponentOperator</text></g><g class="participant participant-tail" data-participant="ComponentOperator"><rect fill="#E2E2F0" height="30.2969" rx="2.5" ry="2.5" style="stroke:#181818;stroke-width:0.5;" width="157.9443" x="633.7017" y="626.5547"/><text fill="#000000" font-family="sans-serif" font-size="14" lengthAdjust="spacing" textLength="143.9443" x="640.7017" y="646.5498">ComponentOperator</text></g><g class="participant participant-head" data-participant="PublishedNotification"><text fill="#000000" font-family="sans-serif" font-size="14" lengthAdjust="spacing" textLength="147.9775" x="801.646" y="77.9951">PublishedNotification</text><ellipse cx="878.6348" cy="49" fill="#E2E2F0" rx="12" ry="12" style="stroke:#181818;stroke-width:0.5;"/><line style="stroke:#181818;stroke-width:0.5;" x1="866.6348" x2="890.6348" y1="63" y2="63"/></g><g class="participant participant-tail" data-participant="PublishedNotification"><text fill="#000000" font-family="sans-serif" font-size="14" lengthAdjust="spacing" textLength="147.9775" x="801.646" y="639.5498">PublishedNotification</text><ellipse cx="878.6348" cy="658.8516" fill="#E2E2F0" rx="12" ry="12" style="stroke:#181818;stroke-width:0.5;"/><line style="stroke:#181818;stroke-width:0.5;" x1="866.6348" x2="890.6348" y1="672.8516" y2="672.8516"/></g><g class="participant participant-head" data-participant="EventPublishingEnablementOperator"><rect fill="#E2E2F0" height="30.2969" rx="2.5" ry="2.5" style="stroke:#181818;stroke-width:0.5;" width="272.8701" x="965.6235" y="50"/><text fill="#000000" font-family="sans-serif" font-size="14" lengthAdjust="spacing" textLength="258.8701" x="972.6235" y="69.9951">EventPublishingEnablementOperator</text></g><g class="participant participant-tail" data-participant="EventPublishingEnablementOperator"><rect fill="#E2E2F0" height="30.2969" rx="2.5" ry="2.5" style="stroke:#181818;stroke-width:0.5;" width="272.8701" x="965.6235" y="626.5547"/><text fill="#000000" font-family="sans-serif" font-size="14" lengthAdjust="spacing" textLength="258.8701" x="972.6235" y="646.5498">EventPublishingEnablementOperator</text></g><g class="participant participant-head" data-participant="SubscribedNotification"><text fill="#000000" font-family="sans-serif" font-size="14" lengthAdjust="spacing" textLength="157.999" x="1248.4937" y="77.9951">SubscribedNotification</text><ellipse cx="1330.4932" cy="49" fill="#E2E2F0" rx="12" ry="12" style="stroke:#181818;stroke-width:0.5;"/><line style="stroke:#181818;stroke-width:0.5;" x1="1318.4932" x2="1342.4932" y1="63" y2="63"/></g><g class="participant participant-tail" data-participant="SubscribedNotification"><text fill="#000000" font-family="sans-serif" font-size="14" lengthAdjust="spacing" textLength="157.999" x="1248.4937" y="639.5498">SubscribedNotification</text><ellipse cx="1330.4932" cy="658.8516" fill="#E2E2F0" rx="12" ry="12" style="stroke:#181818;stroke-width:0.5;"/><line style="stroke:#181818;stroke-width:0.5;" x1="1318.4932" x2="1342.4932" y1="672.8516" y2="672.8516"/></g><g class="participant participant-head" data-participant="EventSubscriptionEnablementOperator"><rect fill="#E2E2F0" height="30.2969" rx="2.5" ry="2.5" style="stroke:#181818;stroke-width:0.5;" width="288.0596" x="1422.4927" y="50"/><text fill="#000000" font-family="sans-serif" font-size="14" lengthAdjust="spacing" textLength="274.0596" x="1429.4927" y="69.9951">EventSubscriptionEnablementOperator</text></g><g class="participant participant-tail" data-participant="EventSubscriptionEnablementOperator"><rect fill="#E2E2F0" height="30.2969" rx="2.5" ry="2.5" style="stroke:#181818;stroke-width:0.5;" width="288.0596" x="1422.4927" y="626.5547"/><text fill="#000000" font-family="sans-serif" font-size="14" lengthAdjust="spacing" textLength="274.0596" x="1429.4927" y="646.5498">EventSubscriptionEnablementOperator</text></g><g class="participant participant-head" data-participant="subscribedNotification"><rect fill="#E2E2F0" height="30.2969" rx="2.5" ry="2.5" style="stroke:#181818;stroke-width:0.5;" width="170.4063" x="1720.5522" y="50"/><text fill="#000000" font-family="sans-serif" font-size="14" lengthAdjust="spacing" textLength="156.4063" x="1727.5522" y="69.9951">subscribedNotification</text></g><g class="participant participant-tail" data-participant="subscribedNotification"><rect fill="#E2E2F0" height="30.2969" rx="2.5" ry="2.5" style="stroke:#181818;stroke-width:0.5;" width="170.4063" x="1720.5522" y="626.5547"/><text fill="#000000" font-family="sans-serif" font-size="14" lengthAdjust="spacing" textLength="156.4063" x="1727.5522" y="646.5498">subscribedNotification</text></g><g class="message" data-participant-1="Operations" data-participant-2="TMFC019"><polygon fill="#181818" points="145.9272,108.4297,155.9272,112.4297,145.9272,116.4297,149.9272,112.4297" style="stroke:#181818;stroke-width:1;"/><line style="stroke:#181818;stroke-width:1;" x1="46.4829" x2="151.9272" y1="112.4297" y2="112.4297"/><text fill="#000000" font-family="sans-serif" font-size="13" lengthAdjust="spacing" textLength="82.5195" x="53.4829" y="107.3638">Create Topic</text></g><g class="message" data-participant-1="TMFC019" data-participant-2="Topic"><polygon fill="#181818" points="492.627,137.5625,502.627,141.5625,492.627,145.5625,496.627,141.5625" style="stroke:#181818;stroke-width:1;"/><line style="stroke:#181818;stroke-width:1;" x1="157.9272" x2="498.627" y1="141.5625" y2="141.5625"/><text fill="#000000" font-family="sans-serif" font-size="13" lengthAdjust="spacing" textLength="41.5518" x="164.9272" y="136.4966">create</text></g><g class="message" data-participant-1="Topic" data-participant-2="EventPublishingEnablementOperator"><polygon fill="#181818" points="1090.0586,166.6953,1100.0586,170.6953,1090.0586,174.6953,1094.0586,170.6953" style="stroke:#181818;stroke-width:1;"/><line style="stroke:#181818;stroke-width:1;" x1="504.627" x2="1096.0586" y1="170.6953" y2="170.6953"/><text fill="#000000" font-family="sans-serif" font-size="13" lengthAdjust="spacing" textLength="61.877" x="511.627" y="165.6294">on.create</text></g><path d="M526.4224,185.6953 L797.0688,185.6953 L797.0688,192.8281 L787.0688,202.8281 L526.4224,202.8281 L526.4224,185.6953" fill="#EEEEEE" style="stroke:#000000;stroke-width:1.5;"/><rect fill="none" height="118.5313" style="stroke:#000000;stroke-width:1.5;" width="722.0713" x="526.4224" y="185.6953"/><text fill="#000000" font-family="sans-serif" font-size="13" font-weight="bold" lengthAdjust="spacing" textLength="225.6465" x="541.4224" y="198.7622">For each publishedNotification</text><g class="message" data-participant-1="EventPublishingEnablementOperator" data-participant-2="Component"><polygon fill="#181818" points="591.062,219.9609,581.062,223.9609,591.062,227.9609,587.062,223.9609" style="stroke:#181818;stroke-width:1;"/><line style="stroke:#181818;stroke-width:1;" x1="585.062" x2="1101.0586" y1="223.9609" y2="223.9609"/><text fill="#000000" font-family="sans-serif" font-size="13" lengthAdjust="spacing" textLength="203.6582" x="597.062" y="218.895">configure event publishing URL</text></g><g class="message" data-participant-1="Component" data-participant-2="EventPublishingEnablementOperator"><polygon fill="#181818" points="1090.0586,233.9609,1100.0586,237.9609,1090.0586,241.9609,1094.0586,237.9609" style="stroke:#181818;stroke-width:1;"/><line style="stroke:#181818;stroke-width:1;stroke-dasharray:2.0,2.0;" x1="580.062" x2="1096.0586" y1="237.9609" y2="237.9609"/></g><g class="message" data-participant-1="EventPublishingEnablementOperator" data-participant-2="PublishedNotification"><polygon fill="#181818" points="889.6348,263.0938,879.6348,267.0938,889.6348,271.0938,885.6348,267.0938" style="stroke:#181818;stroke-width:1;"/><line style="stroke:#181818;stroke-width:1;" x1="883.6348" x2="1101.0586" y1="267.0938" y2="267.0938"/><text fill="#000000" font-family="sans-serif" font-size="13" lengthAdjust="spacing" textLength="45.8047" x="895.6348" y="262.0278">update</text></g><g class="message" data-participant-1="PublishedNotification" data-participant-2="ComponentOperator"><polygon fill="#181818" points="723.6738,292.2266,713.6738,296.2266,723.6738,300.2266,719.6738,296.2266" style="stroke:#181818;stroke-width:1;"/><line style="stroke:#181818;stroke-width:1;" x1="717.6738" x2="877.6348" y1="296.2266" y2="296.2266"/><text fill="#000000" font-family="sans-serif" font-size="13" lengthAdjust="spacing" textLength="66.1299" x="729.6738" y="291.1606">on.update</text></g><g class="message" data-participant-1="ComponentOperator" data-participant-2="Component"><polygon fill="#181818" points="591.062,328.3594,581.062,332.3594,591.062,336.3594,587.062,332.3594" style="stroke:#181818;stroke-width:1;"/><line style="stroke:#181818;stroke-width:1;" x1="585.062" x2="711.6738" y1="332.3594" y2="332.3594"/><text fill="#000000" font-family="sans-serif" font-size="13" lengthAdjust="spacing" textLength="45.8047" x="597.062" y="327.2935">update</text></g><g class="message" data-participant-1="EventPublishingEnablementOperator" data-participant-2="Topic"><polygon fill="#181818" points="515.627,357.4922,505.627,361.4922,515.627,365.4922,511.627,361.4922" style="stroke:#181818;stroke-width:1;"/><line style="stroke:#181818;stroke-width:1;" x1="509.627" x2="1101.0586" y1="361.4922" y2="361.4922"/><text fill="#000000" font-family="sans-serif" font-size="13" lengthAdjust="spacing" textLength="45.8047" x="521.627" y="356.4263">update</text></g><g class="message" data-participant-1="Topic" data-participant-2="EventSubscriptionEnablementOperator"><polygon fill="#181818" points="1554.5225,386.625,1564.5225,390.625,1554.5225,394.625,1558.5225,390.625" style="stroke:#181818;stroke-width:1;"/><line style="stroke:#181818;stroke-width:1;" x1="504.627" x2="1560.5225" y1="390.625" y2="390.625"/><text fill="#000000" font-family="sans-serif" font-size="13" lengthAdjust="spacing" textLength="66.1299" x="511.627" y="385.5591">on.update</text></g><path d="M87.9658,405.625 L366.7563,405.625 L366.7563,412.7578 L356.7563,422.7578 L87.9658,422.7578 L87.9658,405.625" fill="#EEEEEE" style="stroke:#000000;stroke-width:1.5;"/><rect fill="none" height="175.7969" style="stroke:#000000;stroke-width:1.5;" width="1812.9927" x="87.9658" y="405.625"/><text fill="#000000" font-family="sans-serif" font-size="13" font-weight="bold" lengthAdjust="spacing" textLength="233.7905" x="102.9658" y="418.6919">For each subscribedNotification</text><g class="message" data-participant-1="EventSubscriptionEnablementOperator" data-participant-2="TMFC019"><polygon fill="#181818" points="168.9272,439.8906,158.9272,443.8906,168.9272,447.8906,164.9272,443.8906" style="stroke:#181818;stroke-width:1;"/><line style="stroke:#181818;stroke-width:1;" x1="162.9272" x2="1565.5225" y1="443.8906" y2="443.8906"/><text fill="#000000" font-family="sans-serif" font-size="13" lengthAdjust="spacing" textLength="91.7617" x="174.9272" y="438.8247">configure Hub</text></g><g class="message" data-participant-1="TMFC019" data-participant-2="TMFC019"><line style="stroke:#181818;stroke-width:1;" x1="157.9272" x2="199.9272" y1="473.0234" y2="473.0234"/><line style="stroke:#181818;stroke-width:1;" x1="199.9272" x2="199.9272" y1="473.0234" y2="486.0234"/><line style="stroke:#181818;stroke-width:1;" x1="158.9272" x2="199.9272" y1="486.0234" y2="486.0234"/><polygon fill="#181818" points="168.9272,482.0234,158.9272,486.0234,168.9272,490.0234,164.9272,486.0234" style="stroke:#181818;stroke-width:1;"/><text fill="#000000" font-family="sans-serif" font-size="13" lengthAdjust="spacing" textLength="332.6997" x="164.9272" y="467.9575">(optional) approval flow to approve creation of hub</text></g><g class="message" data-participant-1="TMFC019" data-participant-2="EventSubscriptionEnablementOperator"><polygon fill="#181818" points="1554.5225,511.1563,1564.5225,515.1563,1554.5225,519.1563,1558.5225,515.1563" style="stroke:#181818;stroke-width:1;"/><line style="stroke:#181818;stroke-width:1;" x1="157.9272" x2="1560.5225" y1="515.1563" y2="515.1563"/><text fill="#000000" font-family="sans-serif" font-size="13" lengthAdjust="spacing" textLength="49.8037" x="164.9272" y="510.0903">created</text></g><g class="message" data-participant-1="EventPublishingEnablementOperator" data-participant-2="subscribedNotification"><polygon fill="#181818" points="1793.7554,540.2891,1803.7554,544.2891,1793.7554,548.2891,1797.7554,544.2891" style="stroke:#181818;stroke-width:1;"/><line style="stroke:#181818;stroke-width:1;" x1="1102.0586" x2="1799.7554" y1="544.2891" y2="544.2891"/><text fill="#000000" font-family="sans-serif" font-size="13" lengthAdjust="spacing" textLength="45.8047" x="1109.0586" y="539.2231">update</text></g><g class="message" data-participant-1="PublishedNotification" data-participant-2="ComponentOperator"><polygon fill="#181818" points="723.6738,569.4219,713.6738,573.4219,723.6738,577.4219,719.6738,573.4219" style="stroke:#181818;stroke-width:1;"/><line style="stroke:#181818;stroke-width:1;" x1="717.6738" x2="877.6348" y1="573.4219" y2="573.4219"/><text fill="#000000" font-family="sans-serif" font-size="13" lengthAdjust="spacing" textLength="66.1299" x="729.6738" y="568.356">on.update</text></g><g class="message" data-participant-1="ComponentOperator" data-participant-2="Component"><polygon fill="#181818" points="591.062,605.5547,581.062,609.5547,591.062,613.5547,587.062,609.5547" style="stroke:#181818;stroke-width:1;"/><line style="stroke:#181818;stroke-width:1;" x1="585.062" x2="711.6738" y1="609.5547" y2="609.5547"/><text fill="#000000" font-family="sans-serif" font-size="13" lengthAdjust="spacing" textLength="45.8047" x="597.062" y="604.4888">update</text></g><!--SRC=[pLBBJiCm43oJhrZr18SWE19LNAfM72WWA1-mSPpKKkgr7AU8lyTsd3IX5isHN1olTsOVCyWCQNXLNACH99j4eJQ22ONIm69zvFROeiIAwmLW0xljPdLt_v3Ok33Vi2CbM7zPqK6Hj9S9oH3jYf3kqz_Ql1RDdXSlP4Gfc6zW0lNbGvgGrLfYNlD3XEgZpHkcHNw9A-GfznfXIqvxWFIndnKoM6cEXeTf-x3BS84Cc7zE_Cs5B_QT0SdRWAeqjGesLWMER0ygkXMmtqLMLthOjksQaIn5rMeEtEke1YnylZ_Fv5ocwKXOXudgPlFcZDsgmitiQCvyuIYYt7vR0SbbaPncNARdD4EHMViA2WR8LC6_tJBkwfU6JToERkgh6SnJxvrKV6hpZcFimEutWsloR5ZV02gbwOWrb3LzWQ4Gu9rFdLXKmhudczEGtVEe8U_RmgFZa_v3C_m0]--></g></svg>