<svg xmlns="http://www.w3.org/2000/svg" xmlns:xlink="http://www.w3.org/1999/xlink" contentStyleType="text/css" data-diagram-type="SEQUENCE" height="680px" preserveAspectRatio="none" style="width:2165px;height:680px;background:#FFFFFF;" version="1.1" viewBox="0 0 2165 680" width="2165px" zoomAndPan="magnify"><defs/><g><rect fill="none" height="221.0625" style="stroke:#000000;stroke-width:1.5;" width="1454.4346" x="87.9658" y="251.0938"/><rect fill="none" height="96.5313" style="stroke:#000000;stroke-width:1.5;" width="1974.4331" x="185.2451" y="486.1563"/><g><title>Operations</title><rect fill="#000000" fill-opacity="0.00000" height="518.3906" width="8" x="42.4829" y="81.2969"/><line style="stroke:#181818;stroke-width:0.5;stroke-dasharray:5.0,5.0;" x1="46" x2="46" y1="81.2969" y2="599.6875"/></g><g><title>Component</title><rect fill="#000000" fill-opacity="0.00000" height="518.3906" width="8" x="137.6055" y="81.2969"/><line style="stroke:#181818;stroke-width:0.5;stroke-dasharray:5.0,5.0;" x1="140.9658" x2="140.9658" y1="81.2969" y2="599.6875"/></g><g><title>ComponentImplementation</title><rect fill="#000000" fill-opacity="0.00000" height="518.3906" width="8" x="294.4678" y="81.2969"/><line style="stroke:#181818;stroke-width:0.5;stroke-dasharray:5.0,5.0;" x1="298.2451" x2="298.2451" y1="81.2969" y2="599.6875"/></g><g><title>ComponentOperator</title><rect fill="#000000" fill-opacity="0.00000" height="518.3906" width="8" x="486.6626" y="81.2969"/><line style="stroke:#181818;stroke-width:0.5;stroke-dasharray:5.0,5.0;" x1="489.6904" x2="489.6904" y1="81.2969" y2="599.6875"/></g><g><title>DependentAPI</title><rect fill="#000000" fill-opacity="0.00000" height="518.3906" width="8" x="628.5234" y="81.2969"/><line style="stroke:#181818;stroke-width:0.5;stroke-dasharray:5.0,5.0;" x1="631.6348" x2="631.6348" y1="81.2969" y2="599.6875"/></g><g><title>DependentAPIOperator</title><rect fill="#000000" fill-opacity="0.00000" height="518.3906" width="8" x="779.6333" y="81.2969"/><line style="stroke:#181818;stroke-width:0.5;stroke-dasharray:5.0,5.0;" x1="783.4121" x2="783.4121" y1="81.2969" y2="599.6875"/></g><g><title>IdentityConfigOperator</title><rect fill="#000000" fill-opacity="0.00000" height="518.3906" width="8" x="965.4741" y="81.2969"/><line style="stroke:#181818;stroke-width:0.5;stroke-dasharray:5.0,5.0;" x1="968.8545" x2="968.8545" y1="81.2969" y2="599.6875"/></g><g><title>Identity Management System</title><rect fill="#000000" fill-opacity="0.00000" height="518.3906" width="8" x="1256.9771" y="81.2969"/><line style="stroke:#181818;stroke-width:0.5;stroke-dasharray:5.0,5.0;" x1="1260.4844" x2="1260.4844" y1="81.2969" y2="599.6875"/></g><g><title>Canvas.Info service</title><rect fill="#000000" fill-opacity="0.00000" height="518.3906" width="8" x="1452.9351" y="81.2969"/><line style="stroke:#181818;stroke-width:0.5;stroke-dasharray:5.0,5.0;" x1="1456.4697" x2="1456.4697" y1="81.2969" y2="599.6875"/></g><g><title>Dependent API Endpoint</title><rect fill="#000000" fill-opacity="0.00000" height="518.3906" width="8" x="1626.894" y="81.2969"/><line style="stroke:#181818;stroke-width:0.5;stroke-dasharray:5.0,5.0;" x1="1630.4004" x2="1630.4004" y1="81.2969" y2="599.6875"/></g><g class="participant participant-head" data-participant="Operations"><text fill="#000000" font-family="sans-serif" font-size="14" lengthAdjust="spacing" textLength="76.9658" x="5" y="77.9951">Operations</text><ellipse cx="46.4829" cy="13.5" fill="#E2E2F0" rx="8" ry="8" style="stroke:#181818;stroke-width:0.5;"/><path d="M46.4829,21.5 L46.4829,48.5 M33.4829,29.5 L59.4829,29.5 M46.4829,48.5 L33.4829,63.5 M46.4829,48.5 L59.4829,63.5" fill="none" style="stroke:#181818;stroke-width:0.5;"/></g><g class="participant participant-tail" data-participant="Operations"><text fill="#000000" font-family="sans-serif" font-size="14" lengthAdjust="spacing" textLength="76.9658" x="5" y="611.6826">Operations</text><ellipse cx="46.4829" cy="623.4844" fill="#E2E2F0" rx="8" ry="8" style="stroke:#181818;stroke-width:0.5;"/><path d="M46.4829,631.4844 L46.4829,658.4844 M33.4829,639.4844 L59.4829,639.4844 M46.4829,658.4844 L33.4829,673.4844 M46.4829,658.4844 L59.4829,673.4844" fill="none" style="stroke:#181818;stroke-width:0.5;"/></g><g class="participant participant-head" data-participant="Component"><text fill="#000000" font-family="sans-serif" font-size="14" lengthAdjust="spacing" textLength="81.2793" x="97.9658" y="77.9951">Component</text><ellipse cx="141.6055" cy="49" fill="#E2E2F0" rx="12" ry="12" style="stroke:#181818;stroke-width:0.5;"/><line style="stroke:#181818;stroke-width:0.5;" x1="129.6055" x2="153.6055" y1="63" y2="63"/></g><g class="participant participant-tail" data-participant="Component"><text fill="#000000" font-family="sans-serif" font-size="14" lengthAdjust="spacing" textLength="81.2793" x="97.9658" y="611.6826">Component</text><ellipse cx="141.6055" cy="630.9844" fill="#E2E2F0" rx="12" ry="12" style="stroke:#181818;stroke-width:0.5;"/><line style="stroke:#181818;stroke-width:0.5;" x1="129.6055" x2="153.6055" y1="644.9844" y2="644.9844"/></g><g class="participant participant-head" data-participant="ComponentImplementation"><rect fill="#E2E2F0" height="30.2969" rx="2.5" ry="2.5" style="stroke:#181818;stroke-width:0.5;" width="206.4453" x="195.2451" y="50"/><text fill="#000000" font-family="sans-serif" font-size="14" lengthAdjust="spacing" textLength="192.4453" x="202.2451" y="69.9951">ComponentImplementation</text></g><g class="participant participant-tail" data-participant="ComponentImplementation"><rect fill="#E2E2F0" height="30.2969" rx="2.5" ry="2.5" style="stroke:#181818;stroke-width:0.5;" width="206.4453" x="195.2451" y="598.6875"/><text fill="#000000" font-family="sans-serif" font-size="14" lengthAdjust="spacing" textLength="192.4453" x="202.2451" y="618.6826">ComponentImplementation</text></g><g class="participant participant-head" data-participant="ComponentOperator"><rect fill="#E2E2F0" height="30.2969" rx="2.5" ry="2.5" style="stroke:#181818;stroke-width:0.5;" width="157.9443" x="411.6904" y="50"/><text fill="#000000" font-family="sans-serif" font-size="14" lengthAdjust="spacing" textLength="143.9443" x="418.6904" y="69.9951">ComponentOperator</text></g><g class="participant participant-tail" data-participant="ComponentOperator"><rect fill="#E2E2F0" height="30.2969" rx="2.5" ry="2.5" style="stroke:#181818;stroke-width:0.5;" width="157.9443" x="411.6904" y="598.6875"/><text fill="#000000" font-family="sans-serif" font-size="14" lengthAdjust="spacing" textLength="143.9443" x="418.6904" y="618.6826">ComponentOperator</text></g><g class="participant participant-head" data-participant="DependentAPI"><text fill="#000000" font-family="sans-serif" font-size="14" lengthAdjust="spacing" textLength="99.7773" x="579.6348" y="77.9951">DependentAPI</text><ellipse cx="632.5234" cy="49" fill="#E2E2F0" rx="12" ry="12" style="stroke:#181818;stroke-width:0.5;"/><line style="stroke:#181818;stroke-width:0.5;" x1="620.5234" x2="644.5234" y1="63" y2="63"/></g><g class="participant participant-tail" data-participant="DependentAPI"><text fill="#000000" font-family="sans-serif" font-size="14" lengthAdjust="spacing" textLength="99.7773" x="579.6348" y="611.6826">DependentAPI</text><ellipse cx="632.5234" cy="630.9844" fill="#E2E2F0" rx="12" ry="12" style="stroke:#181818;stroke-width:0.5;"/><line style="stroke:#181818;stroke-width:0.5;" x1="620.5234" x2="644.5234" y1="644.9844" y2="644.9844"/></g><g class="participant participant-head" data-participant="DependentAPIOperator"><rect fill="#E2E2F0" height="30.2969" rx="2.5" ry="2.5" style="stroke:#181818;stroke-width:0.5;" width="176.4424" x="695.4121" y="50"/><text fill="#000000" font-family="sans-serif" font-size="14" lengthAdjust="spacing" textLength="162.4424" x="702.4121" y="69.9951">DependentAPIOperator</text></g><g class="participant participant-tail" data-participant="DependentAPIOperator"><rect fill="#E2E2F0" height="30.2969" rx="2.5" ry="2.5" style="stroke:#181818;stroke-width:0.5;" width="176.4424" x="695.4121" y="598.6875"/><text fill="#000000" font-family="sans-serif" font-size="14" lengthAdjust="spacing" textLength="162.4424" x="702.4121" y="618.6826">DependentAPIOperator</text></g><g class="participant participant-head" data-participant="IdentityConfigOperator"><rect fill="#E2E2F0" height="30.2969" rx="2.5" ry="2.5" style="stroke:#181818;stroke-width:0.5;" width="175.2393" x="881.8545" y="50"/><text fill="#000000" font-family="sans-serif" font-size="14" lengthAdjust="spacing" textLength="161.2393" x="888.8545" y="69.9951">IdentityConfigOperator</text></g><g class="participant participant-tail" data-participant="IdentityConfigOperator"><rect fill="#E2E2F0" height="30.2969" rx="2.5" ry="2.5" style="stroke:#181818;stroke-width:0.5;" width="175.2393" x="881.8545" y="598.6875"/><text fill="#000000" font-family="sans-serif" font-size="14" lengthAdjust="spacing" textLength="161.2393" x="888.8545" y="618.6826">IdentityConfigOperator</text></g><g class="participant participant-head" data-participant="Identity Management System"><rect fill="#E2E2F0" height="30.2969" rx="2.5" ry="2.5" style="stroke:#181818;stroke-width:0.5;" width="220.9854" x="1150.4844" y="50"/><text fill="#000000" font-family="sans-serif" font-size="14" lengthAdjust="spacing" textLength="206.9854" x="1157.4844" y="69.9951">Identity Management System</text></g><g class="participant participant-tail" data-participant="Identity Management System"><rect fill="#E2E2F0" height="30.2969" rx="2.5" ry="2.5" style="stroke:#181818;stroke-width:0.5;" width="220.9854" x="1150.4844" y="598.6875"/><text fill="#000000" font-family="sans-serif" font-size="14" lengthAdjust="spacing" textLength="206.9854" x="1157.4844" y="618.6826">Identity Management System</text></g><g class="participant participant-head" data-participant="Canvas.Info service"><rect fill="#E2E2F0" height="30.2969" rx="2.5" ry="2.5" style="stroke:#181818;stroke-width:0.5;" width="150.9307" x="1381.4697" y="50"/><text fill="#000000" font-family="sans-serif" font-size="14" lengthAdjust="spacing" textLength="136.9307" x="1388.4697" y="69.9951">Canvas.Info service</text></g><g class="participant participant-tail" data-participant="Canvas.Info service"><rect fill="#E2E2F0" height="30.2969" rx="2.5" ry="2.5" style="stroke:#181818;stroke-width:0.5;" width="150.9307" x="1381.4697" y="598.6875"/><text fill="#000000" font-family="sans-serif" font-size="14" lengthAdjust="spacing" textLength="136.9307" x="1388.4697" y="618.6826">Canvas.Info service</text></g><g class="participant participant-head" data-participant="Dependent API Endpoint"><text fill="#000000" font-family="sans-serif" font-size="14" lengthAdjust="spacing" textLength="170.9873" x="1542.4004" y="77.9951">Dependent API Endpoint</text><path d="M1610.394,37 L1610.394,61 M1610.394,49 L1627.394,49" fill="none" style="stroke:#181818;stroke-width:0.5;"/><ellipse cx="1639.394" cy="49" fill="#E2E2F0" rx="12" ry="12" style="stroke:#181818;stroke-width:0.5;"/></g><g class="participant participant-tail" data-participant="Dependent API Endpoint"><text fill="#000000" font-family="sans-serif" font-size="14" lengthAdjust="spacing" textLength="170.9873" x="1542.4004" y="611.6826">Dependent API Endpoint</text><path d="M1610.394,618.9844 L1610.394,642.9844 M1610.394,630.9844 L1627.394,630.9844" fill="none" style="stroke:#181818;stroke-width:0.5;"/><ellipse cx="1639.394" cy="630.9844" fill="#E2E2F0" rx="12" ry="12" style="stroke:#181818;stroke-width:0.5;"/></g><g class="message" data-participant-1="Operations" data-participant-2="Component"><polygon fill="#181818" points="129.6055,108.4297,139.6055,112.4297,129.6055,116.4297,133.6055,112.4297" style="stroke:#181818;stroke-width:1;"/><line style="stroke:#181818;stroke-width:1;" x1="46.4829" x2="135.6055" y1="112.4297" y2="112.4297"/><text fill="#000000" font-family="sans-serif" font-size="13" lengthAdjust="spacing" textLength="39.1333" x="53.4829" y="107.3638">Install</text></g><g class="message" data-participant-1="Operations" data-participant-2="ComponentImplementation"><polygon fill="#181818" points="286.4678,137.5625,296.4678,141.5625,286.4678,145.5625,290.4678,141.5625" style="stroke:#181818;stroke-width:1;"/><line style="stroke:#181818;stroke-width:1;" x1="46.4829" x2="292.4678" y1="141.5625" y2="141.5625"/><text fill="#000000" font-family="sans-serif" font-size="13" lengthAdjust="spacing" textLength="39.1333" x="53.4829" y="136.4966">Install</text></g><g class="message" data-participant-1="Component" data-participant-2="ComponentOperator"><polygon fill="#181818" points="478.6626,166.6953,488.6626,170.6953,478.6626,174.6953,482.6626,170.6953" style="stroke:#181818;stroke-width:1;"/><line style="stroke:#181818;stroke-width:1;" x1="141.6055" x2="484.6626" y1="170.6953" y2="170.6953"/><text fill="#000000" font-family="sans-serif" font-size="13" lengthAdjust="spacing" textLength="61.877" x="148.6055" y="165.6294">on.create</text></g><g class="message" data-participant-1="ComponentOperator" data-participant-2="DependentAPI"><polygon fill="#181818" points="620.5234,213.9609,630.5234,217.9609,620.5234,221.9609,624.5234,217.9609" style="stroke:#181818;stroke-width:1;"/><line style="stroke:#181818;stroke-width:1;" x1="490.6626" x2="626.5234" y1="217.9609" y2="217.9609"/><text fill="#000000" font-family="sans-serif" font-size="13" lengthAdjust="spacing" textLength="41.5518" x="497.6626" y="212.895">create</text></g><path d="M637,183.6953 L637,238.6953 L954,238.6953 L954,193.6953 L944,183.6953 L637,183.6953" fill="#FEFFDD" style="stroke:#181818;stroke-width:0.5;"/><path d="M944,183.6953 L944,193.6953 L954,193.6953 L944,183.6953" fill="#FEFFDD" style="stroke:#181818;stroke-width:0.5;"/><text fill="#000000" font-family="sans-serif" font-size="13" lengthAdjust="spacing" textLength="296.5879" x="643" y="200.7622">A separate DependentAPI resource is created</text><text fill="#000000" font-family="sans-serif" font-size="13" lengthAdjust="spacing" textLength="287.9106" x="643" y="215.895">for each dependent API in the core function,</text><text fill="#000000" font-family="sans-serif" font-size="13" lengthAdjust="spacing" textLength="229.436" x="643" y="231.0278">security and management sections</text><path d="M87.9658,251.0938 L308.834,251.0938 L308.834,258.2266 L298.834,268.2266 L87.9658,268.2266 L87.9658,251.0938" fill="#EEEEEE" style="stroke:#000000;stroke-width:1.5;"/><rect fill="none" height="221.0625" style="stroke:#000000;stroke-width:1.5;" width="1454.4346" x="87.9658" y="251.0938"/><text fill="#000000" font-family="sans-serif" font-size="13" font-weight="bold" lengthAdjust="spacing" textLength="175.8682" x="102.9658" y="264.1606">For each dependent API</text><g class="message" data-participant-1="DependentAPI" data-participant-2="DependentAPIOperator"><polygon fill="#181818" points="771.6333,285.3594,781.6333,289.3594,771.6333,293.3594,775.6333,289.3594" style="stroke:#181818;stroke-width:1;"/><line style="stroke:#181818;stroke-width:1;" x1="632.5234" x2="777.6333" y1="289.3594" y2="289.3594"/><text fill="#000000" font-family="sans-serif" font-size="13" lengthAdjust="spacing" textLength="61.877" x="639.5234" y="284.2935">on.create</text></g><g class="message" data-participant-1="DependentAPIOperator" data-participant-2="Canvas.Info service"><polygon fill="#181818" points="1444.9351,314.4922,1454.9351,318.4922,1444.9351,322.4922,1448.9351,318.4922" style="stroke:#181818;stroke-width:1;"/><line style="stroke:#181818;stroke-width:1;" x1="783.6333" x2="1450.9351" y1="318.4922" y2="318.4922"/><text fill="#000000" font-family="sans-serif" font-size="13" lengthAdjust="spacing" textLength="323.1973" x="790.6333" y="313.4263">Register the availability of the downstraem API(s)</text></g><g class="message" data-participant-1="Canvas.Info service" data-participant-2="IdentityConfigOperator"><polygon fill="#181818" points="980.4741,343.625,970.4741,347.625,980.4741,351.625,976.4741,347.625" style="stroke:#181818;stroke-width:1;"/><line style="stroke:#181818;stroke-width:1;" x1="974.4741" x2="1455.9351" y1="347.625" y2="347.625"/><text fill="#000000" font-family="sans-serif" font-size="13" lengthAdjust="spacing" textLength="256.2104" x="986.4741" y="342.5591">listen for new Service in state 'inactive'</text></g><g class="message" data-participant-1="IdentityConfigOperator" data-participant-2="Identity Management System"><polygon fill="#181818" points="1248.9771,372.7578,1258.9771,376.7578,1248.9771,380.7578,1252.9771,376.7578" style="stroke:#181818;stroke-width:1;"/><line style="stroke:#181818;stroke-width:1;" x1="969.4741" x2="1254.9771" y1="376.7578" y2="376.7578"/><text fill="#000000" font-family="sans-serif" font-size="13" lengthAdjust="spacing" textLength="267.5029" x="976.4741" y="371.6919">Grant to a role on the downstraem API(s)</text></g><g class="message" data-participant-1="IdentityConfigOperator" data-participant-2="Canvas.Info service"><polygon fill="#181818" points="1444.9351,401.8906,1454.9351,405.8906,1444.9351,409.8906,1448.9351,405.8906" style="stroke:#181818;stroke-width:1;"/><line style="stroke:#181818;stroke-width:1;" x1="969.4741" x2="1450.9351" y1="405.8906" y2="405.8906"/><text fill="#000000" font-family="sans-serif" font-size="13" lengthAdjust="spacing" textLength="152.1216" x="976.4741" y="400.8247">Update state to 'active'</text></g><g class="message" data-participant-1="DependentAPIOperator" data-participant-2="DependentAPI"><polygon fill="#181818" points="643.5234,431.0234,633.5234,435.0234,643.5234,439.0234,639.5234,435.0234" style="stroke:#181818;stroke-width:1;"/><line style="stroke:#181818;stroke-width:1;" x1="637.5234" x2="782.6333" y1="435.0234" y2="435.0234"/><text fill="#000000" font-family="sans-serif" font-size="13" lengthAdjust="spacing" textLength="45.8047" x="649.5234" y="429.9575">update</text></g><g class="message" data-participant-1="ComponentOperator" data-participant-2="Component"><polygon fill="#181818" points="152.6055,460.1563,142.6055,464.1563,152.6055,468.1563,148.6055,464.1563" style="stroke:#181818;stroke-width:1;"/><line style="stroke:#181818;stroke-width:1;" x1="146.6055" x2="489.6626" y1="464.1563" y2="464.1563"/><text fill="#000000" font-family="sans-serif" font-size="13" lengthAdjust="spacing" textLength="45.8047" x="158.6055" y="459.0903">update</text></g><path d="M185.2451,486.1563 L506.8823,486.1563 L506.8823,493.2891 L496.8823,503.2891 L185.2451,503.2891 L185.2451,486.1563" fill="#EEEEEE" style="stroke:#000000;stroke-width:1.5;"/><rect fill="none" height="96.5313" style="stroke:#000000;stroke-width:1.5;" width="1974.4331" x="185.2451" y="486.1563"/><text fill="#000000" font-family="sans-serif" font-size="13" font-weight="bold" lengthAdjust="spacing" textLength="276.6372" x="200.2451" y="499.2231">During Component runtime execution</text><g class="message" data-participant-1="ComponentImplementation" data-participant-2="Canvas.Info service"><polygon fill="#181818" points="1444.9351,530.9883,1454.9351,534.9883,1444.9351,538.9883,1448.9351,534.9883" style="stroke:#181818;stroke-width:1;"/><line style="stroke:#181818;stroke-width:1;" x1="298.4678" x2="1450.9351" y1="534.9883" y2="534.9883"/><text fill="#000000" font-family="sans-serif" font-size="13" lengthAdjust="spacing" textLength="563.6274" x="305.4678" y="529.9224">query for APIs matching declared dependencies using Component Client ID and secret</text></g><path d="M1461,508.2891 L1461,548.2891 L2143,548.2891 L2143,518.2891 L2133,508.2891 L1461,508.2891" fill="#FEFFDD" style="stroke:#181818;stroke-width:0.5;"/><path d="M2133,508.2891 L2133,518.2891 L2143,518.2891 L2133,508.2891" fill="#FEFFDD" style="stroke:#181818;stroke-width:0.5;"/><text fill="#000000" font-family="sans-serif" font-size="13" lengthAdjust="spacing" textLength="661.7432" x="1467" y="525.356">The component can query with a GET on the Canvas.Info service or register for callback notifications.</text><text fill="#000000" font-family="sans-serif" font-size="13" lengthAdjust="spacing" textLength="431.2852" x="1467" y="540.4888">There could be more than 1 API available for a given dependency.</text><g class="message" data-participant-1="ComponentImplementation" data-participant-2="Dependent API Endpoint"><polygon fill="#181818" points="1618.894,570.6875,1628.894,574.6875,1618.894,578.6875,1622.894,574.6875" style="stroke:#181818;stroke-width:1;"/><line style="stroke:#181818;stroke-width:1;" x1="298.4678" x2="1624.894" y1="574.6875" y2="574.6875"/><text fill="#000000" font-family="sans-serif" font-size="13" lengthAdjust="spacing" textLength="275.9453" x="305.4678" y="569.6216">Call using Component Client ID and secret</text></g><!--SRC=[ZLHDZzCm4BtdLunwAKXi9QuHGbgrooe716AN7-3QayJ26GVRQUc_P-mqJT9D2xcqSURZlJTlB6Im3hwrw4JGbdo657GumTOshIL-oLhXWfQw5HJ6qw9f3JRy9sKjn_H5hHjAxh15Klpo-BsOPKm_N9Ac0ONgIsmjbRfQ35aDCV1LaAWIDdWv-O3DQXwu5NGGVbDGQS6ZEsY9gsnlErB2dM1r0GEC1fv8jLPJM6LPDee43vz7cf13GJu8Osv5pCMQn8yrfk43lnmiRQH34H2oDrzZobIu7FhGZ2p7ErtL8GD-7faayuz5fk7WqDlEIGJjpvagnPTS6eMiGSs4q0IXHf3M8PGToSZaGqhmA3iNXHUae1d5v_F1KGeYgAnojclXosA3L6e6y8hVWYflSgRQBCwPjV-1bMPNk4H778GsOgzDn6_BTARiaSVZ13OHrpl_FhLPBiTzbhsPWubTACb9U8INFYNgoBFdOQmr2HReWEjKVxbC8dB7sSpdsKLN1mi2d3N8wjnXSQVB4hySVhOgWkqXSvFr5FDiN9yUReohIoLImkXtZbxmUnyAqJ5di-pOMbHD4bt711e4_CEsItVFhF3Lgjqczhj3tlOu7GRhsRT1rh6JGcc4GtLnfzJeeVDp55kZuq-nIwPdfplij-rg-UBpcjPco9I2phsFEjGyjEUdrs5c2qY10Rh1iH6jv7jZB-Ils4cNMlRNpMRQpSL-dL6mHsZYleQQctvCQtmsFFia5XDGyJ1fv7hg2rqszb_QthWiSwPYpF-f5eVz5m00]--></g></svg>