<svg xmlns="http://www.w3.org/2000/svg" xmlns:xlink="http://www.w3.org/1999/xlink" contentStyleType="text/css" data-diagram-type="SEQUENCE" height="450px" preserveAspectRatio="none" style="width:1027px;height:450px;background:#FFFFFF;" version="1.1" viewBox="0 0 1027 450" width="1027px" zoomAndPan="magnify"><defs/><g><rect fill="none" height="160.7969" style="stroke:#000000;stroke-width:1.5;" width="836.3271" x="185.2451" y="162.5625"/><g><title>Operations</title><rect fill="#000000" fill-opacity="0.00000" height="288.1953" width="8" x="42.4829" y="81.2969"/><line style="stroke:#181818;stroke-width:0.5;stroke-dasharray:5.0,5.0;" x1="46" x2="46" y1="81.2969" y2="369.4922"/></g><g><title>Component</title><rect fill="#000000" fill-opacity="0.00000" height="288.1953" width="8" x="137.6055" y="81.2969"/><line style="stroke:#181818;stroke-width:0.5;stroke-dasharray:5.0,5.0;" x1="140.9658" x2="140.9658" y1="81.2969" y2="369.4922"/></g><g><title>ComponentOperator</title><rect fill="#000000" fill-opacity="0.00000" height="288.1953" width="8" x="270.2173" y="81.2969"/><line style="stroke:#181818;stroke-width:0.5;stroke-dasharray:5.0,5.0;" x1="273.2451" x2="273.2451" y1="81.2969" y2="369.4922"/></g><g><title>PublishedNotification</title><rect fill="#000000" fill-opacity="0.00000" height="288.1953" width="8" x="436.1782" y="81.2969"/><line style="stroke:#181818;stroke-width:0.5;stroke-dasharray:5.0,5.0;" x1="439.1895" x2="439.1895" y1="81.2969" y2="369.4922"/></g><g><title>EventPublishingEnablementOperator</title><rect fill="#000000" fill-opacity="0.00000" height="288.1953" width="8" x="659.6021" y="81.2969"/><line style="stroke:#181818;stroke-width:0.5;stroke-dasharray:5.0,5.0;" x1="663.167" x2="663.167" y1="81.2969" y2="369.4922"/></g><g><title>Event Manager</title><rect fill="#000000" fill-opacity="0.00000" height="288.1953" width="8" x="865.9985" y="81.2969"/><line style="stroke:#181818;stroke-width:0.5;stroke-dasharray:5.0,5.0;" x1="869.0371" x2="869.0371" y1="81.2969" y2="369.4922"/></g><g class="participant participant-head" data-participant="Operations"><text fill="#000000" font-family="sans-serif" font-size="14" lengthAdjust="spacing" textLength="76.9658" x="5" y="77.9951">Operations</text><ellipse cx="46.4829" cy="13.5" fill="#E2E2F0" rx="8" ry="8" style="stroke:#181818;stroke-width:0.5;"/><path d="M46.4829,21.5 L46.4829,48.5 M33.4829,29.5 L59.4829,29.5 M46.4829,48.5 L33.4829,63.5 M46.4829,48.5 L59.4829,63.5" fill="none" style="stroke:#181818;stroke-width:0.5;"/></g><g class="participant participant-tail" data-participant="Operations"><text fill="#000000" font-family="sans-serif" font-size="14" lengthAdjust="spacing" textLength="76.9658" x="5" y="381.4873">Operations</text><ellipse cx="46.4829" cy="393.2891" fill="#E2E2F0" rx="8" ry="8" style="stroke:#181818;stroke-width:0.5;"/><path d="M46.4829,401.2891 L46.4829,428.2891 M33.4829,409.2891 L59.4829,409.2891 M46.4829,428.2891 L33.4829,443.2891 M46.4829,428.2891 L59.4829,443.2891" fill="none" style="stroke:#181818;stroke-width:0.5;"/></g><g class="participant participant-head" data-participant="Component"><text fill="#000000" font-family="sans-serif" font-size="14" lengthAdjust="spacing" textLength="81.2793" x="97.9658" y="77.9951">Component</text><ellipse cx="141.6055" cy="49" fill="#E2E2F0" rx="12" ry="12" style="stroke:#181818;stroke-width:0.5;"/><line style="stroke:#181818;stroke-width:0.5;" x1="129.6055" x2="153.6055" y1="63" y2="63"/></g><g class="participant participant-tail" data-participant="Component"><text fill="#000000" font-family="sans-serif" font-size="14" lengthAdjust="spacing" textLength="81.2793" x="97.9658" y="381.4873">Component</text><ellipse cx="141.6055" cy="400.7891" fill="#E2E2F0" rx="12" ry="12" style="stroke:#181818;stroke-width:0.5;"/><line style="stroke:#181818;stroke-width:0.5;" x1="129.6055" x2="153.6055" y1="414.7891" y2="414.7891"/></g><g class="participant participant-head" data-participant="ComponentOperator"><rect fill="#E2E2F0" height="30.2969" rx="2.5" ry="2.5" style="stroke:#181818;stroke-width:0.5;" width="157.9443" x="195.2451" y="50"/><text fill="#000000" font-family="sans-serif" font-size="14" lengthAdjust="spacing" textLength="143.9443" x="202.2451" y="69.9951">ComponentOperator</text></g><g class="participant participant-tail" data-participant="ComponentOperator"><rect fill="#E2E2F0" height="30.2969" rx="2.5" ry="2.5" style="stroke:#181818;stroke-width:0.5;" width="157.9443" x="195.2451" y="368.4922"/><text fill="#000000" font-family="sans-serif" font-size="14" lengthAdjust="spacing" textLength="143.9443" x="202.2451" y="388.4873">ComponentOperator</text></g><g class="participant participant-head" data-participant="PublishedNotification"><text fill="#000000" font-family="sans-serif" font-size="14" lengthAdjust="spacing" textLength="147.9775" x="363.1895" y="77.9951">PublishedNotification</text><ellipse cx="440.1782" cy="49" fill="#E2E2F0" rx="12" ry="12" style="stroke:#181818;stroke-width:0.5;"/><line style="stroke:#181818;stroke-width:0.5;" x1="428.1782" x2="452.1782" y1="63" y2="63"/></g><g class="participant participant-tail" data-participant="PublishedNotification"><text fill="#000000" font-family="sans-serif" font-size="14" lengthAdjust="spacing" textLength="147.9775" x="363.1895" y="381.4873">PublishedNotification</text><ellipse cx="440.1782" cy="400.7891" fill="#E2E2F0" rx="12" ry="12" style="stroke:#181818;stroke-width:0.5;"/><line style="stroke:#181818;stroke-width:0.5;" x1="428.1782" x2="452.1782" y1="414.7891" y2="414.7891"/></g><g class="participant participant-head" data-participant="EventPublishingEnablementOperator"><rect fill="#E2E2F0" height="30.2969" rx="2.5" ry="2.5" style="stroke:#181818;stroke-width:0.5;" width="272.8701" x="527.167" y="50"/><text fill="#000000" font-family="sans-serif" font-size="14" lengthAdjust="spacing" textLength="258.8701" x="534.167" y="69.9951">EventPublishingEnablementOperator</text></g><g class="participant participant-tail" data-participant="EventPublishingEnablementOperator"><rect fill="#E2E2F0" height="30.2969" rx="2.5" ry="2.5" style="stroke:#181818;stroke-width:0.5;" width="272.8701" x="527.167" y="368.4922"/><text fill="#000000" font-family="sans-serif" font-size="14" lengthAdjust="spacing" textLength="258.8701" x="534.167" y="388.4873">EventPublishingEnablementOperator</text></g><g class="participant participant-head" data-participant="TMFC019"><rect fill="#E2E2F0" height="30.2969" rx="2.5" ry="2.5" style="stroke:#181818;stroke-width:0.5;" width="119.9229" x="810.0371" y="50"/><text fill="#000000" font-family="sans-serif" font-size="14" lengthAdjust="spacing" textLength="105.9229" x="817.0371" y="69.9951">Event Manager</text></g><g class="participant participant-tail" data-participant="TMFC019"><rect fill="#E2E2F0" height="30.2969" rx="2.5" ry="2.5" style="stroke:#181818;stroke-width:0.5;" width="119.9229" x="810.0371" y="368.4922"/><text fill="#000000" font-family="sans-serif" font-size="14" lengthAdjust="spacing" textLength="105.9229" x="817.0371" y="388.4873">Event Manager</text></g><g class="message" data-participant-1="Operations" data-participant-2="Component"><polygon fill="#181818" points="129.6055,108.4297,139.6055,112.4297,129.6055,116.4297,133.6055,112.4297" style="stroke:#181818;stroke-width:1;"/><line style="stroke:#181818;stroke-width:1;" x1="46.4829" x2="135.6055" y1="112.4297" y2="112.4297"/><text fill="#000000" font-family="sans-serif" font-size="13" lengthAdjust="spacing" textLength="55.5801" x="53.4829" y="107.3638">Upgrade</text></g><g class="message" data-participant-1="Component" data-participant-2="ComponentOperator"><polygon fill="#181818" points="262.2173,140.5625,272.2173,144.5625,262.2173,148.5625,266.2173,144.5625" style="stroke:#181818;stroke-width:1;"/><line style="stroke:#181818;stroke-width:1;" x1="141.6055" x2="268.2173" y1="144.5625" y2="144.5625"/><text fill="#000000" font-family="sans-serif" font-size="13" lengthAdjust="spacing" textLength="66.1299" x="148.6055" y="139.4966">on.update</text></g><path d="M279,125.4297 L279,150.4297 L733,150.4297 L733,135.4297 L723,125.4297 L279,125.4297" fill="#FEFFDD" style="stroke:#181818;stroke-width:0.5;"/><path d="M723,125.4297 L723,135.4297 L733,135.4297 L723,125.4297" fill="#FEFFDD" style="stroke:#181818;stroke-width:0.5;"/><text fill="#000000" font-family="sans-serif" font-size="13" lengthAdjust="spacing" textLength="433.4941" x="285" y="142.4966">One or more PublishedNotification are modified on the component</text><path d="M185.2451,162.5625 L525.1128,162.5625 L525.1128,169.6953 L515.1128,179.6953 L185.2451,179.6953 L185.2451,162.5625" fill="#EEEEEE" style="stroke:#000000;stroke-width:1.5;"/><rect fill="none" height="160.7969" style="stroke:#000000;stroke-width:1.5;" width="836.3271" x="185.2451" y="162.5625"/><text fill="#000000" font-family="sans-serif" font-size="13" font-weight="bold" lengthAdjust="spacing" textLength="294.8677" x="200.2451" y="175.6294">For each modified PublishedNotification</text><g class="message" data-participant-1="ComponentOperator" data-participant-2="PublishedNotification"><polygon fill="#181818" points="428.1782,207.3945,438.1782,211.3945,428.1782,215.3945,432.1782,211.3945" style="stroke:#181818;stroke-width:1;"/><line style="stroke:#181818;stroke-width:1;" x1="274.2173" x2="434.1782" y1="211.3945" y2="211.3945"/><text fill="#000000" font-family="sans-serif" font-size="13" lengthAdjust="spacing" textLength="45.8047" x="281.2173" y="206.3286">update</text></g><path d="M445,184.6953 L445,224.6953 L814,224.6953 L814,194.6953 L804,184.6953 L445,184.6953" fill="#FEFFDD" style="stroke:#181818;stroke-width:0.5;"/><path d="M804,184.6953 L804,194.6953 L814,194.6953 L804,184.6953" fill="#FEFFDD" style="stroke:#181818;stroke-width:0.5;"/><text fill="#000000" font-family="sans-serif" font-size="13" lengthAdjust="spacing" textLength="348.4609" x="451" y="201.7622">A separate PublishedNotification resource is modified</text><text fill="#000000" font-family="sans-serif" font-size="13" lengthAdjust="spacing" textLength="225.9004" x="451" y="216.895">for each new PublishedNotification</text><g class="message" data-participant-1="PublishedNotification" data-participant-2="EventPublishingEnablementOperator"><polygon fill="#181818" points="651.6021,250.0938,661.6021,254.0938,651.6021,258.0938,655.6021,254.0938" style="stroke:#181818;stroke-width:1;"/><line style="stroke:#181818;stroke-width:1;" x1="440.1782" x2="657.6021" y1="254.0938" y2="254.0938"/><text fill="#000000" font-family="sans-serif" font-size="13" lengthAdjust="spacing" textLength="66.1299" x="447.1782" y="249.0278">on.update</text></g><path d="M668,234.9609 L668,259.9609 L1005,259.9609 L1005,244.9609 L995,234.9609 L668,234.9609" fill="#FEFFDD" style="stroke:#181818;stroke-width:0.5;"/><path d="M995,234.9609 L995,244.9609 L1005,244.9609 L995,234.9609" fill="#FEFFDD" style="stroke:#181818;stroke-width:0.5;"/><text fill="#000000" font-family="sans-serif" font-size="13" lengthAdjust="spacing" textLength="316.9702" x="674" y="252.0278">It is not very clear yet what changes could occur</text><g class="message" data-participant-1="EventPublishingEnablementOperator" data-participant-2="PublishedNotification"><polygon fill="#181818" points="451.1782,282.2266,441.1782,286.2266,451.1782,290.2266,447.1782,286.2266" style="stroke:#181818;stroke-width:1;"/><line style="stroke:#181818;stroke-width:1;" x1="445.1782" x2="662.6021" y1="286.2266" y2="286.2266"/><text fill="#000000" font-family="sans-serif" font-size="13" lengthAdjust="spacing" textLength="45.8047" x="457.1782" y="281.1606">update</text></g><g class="message" data-participant-1="PublishedNotification" data-participant-2="ComponentOperator"><polygon fill="#181818" points="285.2173,311.3594,275.2173,315.3594,285.2173,319.3594,281.2173,315.3594" style="stroke:#181818;stroke-width:1;"/><line style="stroke:#181818;stroke-width:1;" x1="279.2173" x2="439.1782" y1="315.3594" y2="315.3594"/><text fill="#000000" font-family="sans-serif" font-size="13" lengthAdjust="spacing" textLength="66.1299" x="291.2173" y="310.2935">on.update</text></g><g class="message" data-participant-1="ComponentOperator" data-participant-2="Component"><polygon fill="#181818" points="152.6055,347.4922,142.6055,351.4922,152.6055,355.4922,148.6055,351.4922" style="stroke:#181818;stroke-width:1;"/><line style="stroke:#181818;stroke-width:1;" x1="146.6055" x2="273.2173" y1="351.4922" y2="351.4922"/><text fill="#000000" font-family="sans-serif" font-size="13" lengthAdjust="spacing" textLength="45.8047" x="158.6055" y="346.4263">update</text></g><!--SRC=[ZPB1Ri8m38RFpLDOt9csuwffqeH0ui3OONi0avesKfj4JWhYxUSKA6KKZHmgDVdzw_DleuwEOUs9CHfdWo8RJJp0p3NUMVbH7ZaQRJpQUBaz5ZW-ox_QJMr2HSMdYsPhT6TsLJhVYVGaCxQSMzpKr0ojXkf99uSLMYo99u01lbUBsVFBgr8z1BnD1-IGmuyl6GiQAARljymvEFlK-W8ZWR9ElcpAAYgGixO4aaVZcCPx0fINnXLoGOKOGQm8T1yMsGAIfIhPjHuMuaMegql5U53P3MGY7zNcS4HNsG0zI-mV44WoJ6sDepC5rx8cCA47EfPkpvoMzdUALTRtbYh6HGBzxvo7yQVJsVqPGxQC2L9kOKTy05qJCXmemhx22Bf2MrAGtDjQXg1rortP0uIoCWyGdY9EDhUJ4Oixa-aRItjmlQSZMtXUmLy0]--></g></svg>