<svg xmlns="http://www.w3.org/2000/svg" xmlns:xlink="http://www.w3.org/1999/xlink" contentStyleType="text/css" data-diagram-type="SEQUENCE" height="511px" preserveAspectRatio="none" style="width:971px;height:511px;background:#FFFFFF;" version="1.1" viewBox="0 0 971 511" width="971px" zoomAndPan="magnify"><defs/><g><rect fill="none" height="228.1953" style="stroke:#000000;stroke-width:1.5;" width="779.9258" x="185.2451" y="156.5625"/><g><title>Operations</title><rect fill="#000000" fill-opacity="0.00000" height="349.5938" width="8" x="42.4829" y="81.2969"/><line style="stroke:#181818;stroke-width:0.5;stroke-dasharray:5.0,5.0;" x1="46" x2="46" y1="81.2969" y2="430.8906"/></g><g><title>Component</title><rect fill="#000000" fill-opacity="0.00000" height="349.5938" width="8" x="137.6055" y="81.2969"/><line style="stroke:#181818;stroke-width:0.5;stroke-dasharray:5.0,5.0;" x1="140.9658" x2="140.9658" y1="81.2969" y2="430.8906"/></g><g><title>ComponentOperator</title><rect fill="#000000" fill-opacity="0.00000" height="349.5938" width="8" x="270.2173" y="81.2969"/><line style="stroke:#181818;stroke-width:0.5;stroke-dasharray:5.0,5.0;" x1="273.2451" x2="273.2451" y1="81.2969" y2="430.8906"/></g><g><title>SubscribedNotification</title><rect fill="#000000" fill-opacity="0.00000" height="349.5938" width="8" x="441.189" y="81.2969"/><line style="stroke:#181818;stroke-width:0.5;stroke-dasharray:5.0,5.0;" x1="444.1895" x2="444.1895" y1="81.2969" y2="430.8906"/></g><g><title>EventSubscriptionEnablementOperator</title><rect fill="#000000" fill-opacity="0.00000" height="349.5938" width="8" x="677.2183" y="81.2969"/><line style="stroke:#181818;stroke-width:0.5;stroke-dasharray:5.0,5.0;" x1="681.1885" x2="681.1885" y1="81.2969" y2="430.8906"/></g><g><title>Event Manager</title><rect fill="#000000" fill-opacity="0.00000" height="349.5938" width="8" x="891.2095" y="81.2969"/><line style="stroke:#181818;stroke-width:0.5;stroke-dasharray:5.0,5.0;" x1="894.248" x2="894.248" y1="81.2969" y2="430.8906"/></g><g class="participant participant-head" data-participant="Operations"><text fill="#000000" font-family="sans-serif" font-size="14" lengthAdjust="spacing" textLength="76.9658" x="5" y="77.9951">Operations</text><ellipse cx="46.4829" cy="13.5" fill="#E2E2F0" rx="8" ry="8" style="stroke:#181818;stroke-width:0.5;"/><path d="M46.4829,21.5 L46.4829,48.5 M33.4829,29.5 L59.4829,29.5 M46.4829,48.5 L33.4829,63.5 M46.4829,48.5 L59.4829,63.5" fill="none" style="stroke:#181818;stroke-width:0.5;"/></g><g class="participant participant-tail" data-participant="Operations"><text fill="#000000" font-family="sans-serif" font-size="14" lengthAdjust="spacing" textLength="76.9658" x="5" y="442.8857">Operations</text><ellipse cx="46.4829" cy="454.6875" fill="#E2E2F0" rx="8" ry="8" style="stroke:#181818;stroke-width:0.5;"/><path d="M46.4829,462.6875 L46.4829,489.6875 M33.4829,470.6875 L59.4829,470.6875 M46.4829,489.6875 L33.4829,504.6875 M46.4829,489.6875 L59.4829,504.6875" fill="none" style="stroke:#181818;stroke-width:0.5;"/></g><g class="participant participant-head" data-participant="Component"><text fill="#000000" font-family="sans-serif" font-size="14" lengthAdjust="spacing" textLength="81.2793" x="97.9658" y="77.9951">Component</text><ellipse cx="141.6055" cy="49" fill="#E2E2F0" rx="12" ry="12" style="stroke:#181818;stroke-width:0.5;"/><line style="stroke:#181818;stroke-width:0.5;" x1="129.6055" x2="153.6055" y1="63" y2="63"/></g><g class="participant participant-tail" data-participant="Component"><text fill="#000000" font-family="sans-serif" font-size="14" lengthAdjust="spacing" textLength="81.2793" x="97.9658" y="442.8857">Component</text><ellipse cx="141.6055" cy="462.1875" fill="#E2E2F0" rx="12" ry="12" style="stroke:#181818;stroke-width:0.5;"/><line style="stroke:#181818;stroke-width:0.5;" x1="129.6055" x2="153.6055" y1="476.1875" y2="476.1875"/></g><g class="participant participant-head" data-participant="ComponentOperator"><rect fill="#E2E2F0" height="30.2969" rx="2.5" ry="2.5" style="stroke:#181818;stroke-width:0.5;" width="157.9443" x="195.2451" y="50"/><text fill="#000000" font-family="sans-serif" font-size="14" lengthAdjust="spacing" textLength="143.9443" x="202.2451" y="69.9951">ComponentOperator</text></g><g class="participant participant-tail" data-participant="ComponentOperator"><rect fill="#E2E2F0" height="30.2969" rx="2.5" ry="2.5" style="stroke:#181818;stroke-width:0.5;" width="157.9443" x="195.2451" y="429.8906"/><text fill="#000000" font-family="sans-serif" font-size="14" lengthAdjust="spacing" textLength="143.9443" x="202.2451" y="449.8857">ComponentOperator</text></g><g class="participant participant-head" data-participant="SubscribedNotification"><text fill="#000000" font-family="sans-serif" font-size="14" lengthAdjust="spacing" textLength="157.999" x="363.1895" y="77.9951">SubscribedNotification</text><ellipse cx="445.189" cy="49" fill="#E2E2F0" rx="12" ry="12" style="stroke:#181818;stroke-width:0.5;"/><line style="stroke:#181818;stroke-width:0.5;" x1="433.189" x2="457.189" y1="63" y2="63"/></g><g class="participant participant-tail" data-participant="SubscribedNotification"><text fill="#000000" font-family="sans-serif" font-size="14" lengthAdjust="spacing" textLength="157.999" x="363.1895" y="442.8857">SubscribedNotification</text><ellipse cx="445.189" cy="462.1875" fill="#E2E2F0" rx="12" ry="12" style="stroke:#181818;stroke-width:0.5;"/><line style="stroke:#181818;stroke-width:0.5;" x1="433.189" x2="457.189" y1="476.1875" y2="476.1875"/></g><g class="participant participant-head" data-participant="EventSubscriptionEnablementOperator"><rect fill="#E2E2F0" height="30.2969" rx="2.5" ry="2.5" style="stroke:#181818;stroke-width:0.5;" width="288.0596" x="537.1885" y="50"/><text fill="#000000" font-family="sans-serif" font-size="14" lengthAdjust="spacing" textLength="274.0596" x="544.1885" y="69.9951">EventSubscriptionEnablementOperator</text></g><g class="participant participant-tail" data-participant="EventSubscriptionEnablementOperator"><rect fill="#E2E2F0" height="30.2969" rx="2.5" ry="2.5" style="stroke:#181818;stroke-width:0.5;" width="288.0596" x="537.1885" y="429.8906"/><text fill="#000000" font-family="sans-serif" font-size="14" lengthAdjust="spacing" textLength="274.0596" x="544.1885" y="449.8857">EventSubscriptionEnablementOperator</text></g><g class="participant participant-head" data-participant="TMFC019"><rect fill="#E2E2F0" height="30.2969" rx="2.5" ry="2.5" style="stroke:#181818;stroke-width:0.5;" width="119.9229" x="835.248" y="50"/><text fill="#000000" font-family="sans-serif" font-size="14" lengthAdjust="spacing" textLength="105.9229" x="842.248" y="69.9951">Event Manager</text></g><g class="participant participant-tail" data-participant="TMFC019"><rect fill="#E2E2F0" height="30.2969" rx="2.5" ry="2.5" style="stroke:#181818;stroke-width:0.5;" width="119.9229" x="835.248" y="429.8906"/><text fill="#000000" font-family="sans-serif" font-size="14" lengthAdjust="spacing" textLength="105.9229" x="842.248" y="449.8857">Event Manager</text></g><g class="message" data-participant-1="Operations" data-participant-2="Component"><polygon fill="#181818" points="129.6055,108.4297,139.6055,112.4297,129.6055,116.4297,133.6055,112.4297" style="stroke:#181818;stroke-width:1;"/><line style="stroke:#181818;stroke-width:1;" x1="46.4829" x2="135.6055" y1="112.4297" y2="112.4297"/><text fill="#000000" font-family="sans-serif" font-size="13" lengthAdjust="spacing" textLength="39.1333" x="53.4829" y="107.3638">Install</text></g><g class="message" data-participant-1="Component" data-participant-2="ComponentOperator"><polygon fill="#181818" points="262.2173,137.5625,272.2173,141.5625,262.2173,145.5625,266.2173,141.5625" style="stroke:#181818;stroke-width:1;"/><line style="stroke:#181818;stroke-width:1;" x1="141.6055" x2="268.2173" y1="141.5625" y2="141.5625"/><text fill="#000000" font-family="sans-serif" font-size="13" lengthAdjust="spacing" textLength="61.2803" x="148.6055" y="136.4966">on.delete</text></g><path d="M185.2451,156.5625 L464.0356,156.5625 L464.0356,163.6953 L454.0356,173.6953 L185.2451,173.6953 L185.2451,156.5625" fill="#EEEEEE" style="stroke:#000000;stroke-width:1.5;"/><rect fill="none" height="228.1953" style="stroke:#000000;stroke-width:1.5;" width="779.9258" x="185.2451" y="156.5625"/><text fill="#000000" font-family="sans-serif" font-size="13" font-weight="bold" lengthAdjust="spacing" textLength="233.7905" x="200.2451" y="169.6294">For each subscribedNotification</text><g class="message" data-participant-1="ComponentOperator" data-participant-2="SubscribedNotification"><polygon fill="#181818" points="433.189,208.9609,443.189,212.9609,433.189,216.9609,437.189,212.9609" style="stroke:#181818;stroke-width:1;"/><line style="stroke:#181818;stroke-width:1;" x1="274.2173" x2="439.189" y1="212.9609" y2="212.9609"/><text fill="#000000" font-family="sans-serif" font-size="13" lengthAdjust="spacing" textLength="40.9551" x="281.2173" y="207.895">delete</text></g><path d="M450,178.6953 L450,233.6953 L820,233.6953 L820,188.6953 L810,178.6953 L450,178.6953" fill="#FEFFDD" style="stroke:#181818;stroke-width:0.5;"/><path d="M810,178.6953 L810,188.6953 L820,188.6953 L810,178.6953" fill="#FEFFDD" style="stroke:#181818;stroke-width:0.5;"/><text fill="#000000" font-family="sans-serif" font-size="13" lengthAdjust="spacing" textLength="349.1719" x="456" y="195.7622">A separate subscribedNotification resource is created</text><text fill="#000000" font-family="sans-serif" font-size="13" lengthAdjust="spacing" textLength="333.3535" x="456" y="210.895">for each published notification in the core function,</text><text fill="#000000" font-family="sans-serif" font-size="13" lengthAdjust="spacing" textLength="229.436" x="456" y="226.0278">security and management sections</text><g class="message" data-participant-1="SubscribedNotification" data-participant-2="EventSubscriptionEnablementOperator"><polygon fill="#181818" points="669.2183,256.2266,679.2183,260.2266,669.2183,264.2266,673.2183,260.2266" style="stroke:#181818;stroke-width:1;"/><line style="stroke:#181818;stroke-width:1;" x1="445.189" x2="675.2183" y1="260.2266" y2="260.2266"/><text fill="#000000" font-family="sans-serif" font-size="13" lengthAdjust="spacing" textLength="61.2803" x="452.189" y="255.1606">on.delete</text></g><g class="message" data-participant-1="EventSubscriptionEnablementOperator" data-participant-2="TMFC019"><polygon fill="#181818" points="883.2095,285.3594,893.2095,289.3594,883.2095,293.3594,887.2095,289.3594" style="stroke:#181818;stroke-width:1;"/><line style="stroke:#181818;stroke-width:1;" x1="681.2183" x2="889.2095" y1="289.3594" y2="289.3594"/><text fill="#000000" font-family="sans-serif" font-size="13" lengthAdjust="spacing" textLength="69.8179" x="688.2183" y="284.2935">delete hub</text></g><g class="message" data-participant-1="TMFC019" data-participant-2="EventSubscriptionEnablementOperator"><polygon fill="#181818" points="692.2183,314.4922,682.2183,318.4922,692.2183,322.4922,688.2183,318.4922" style="stroke:#181818;stroke-width:1;"/><line style="stroke:#181818;stroke-width:1;stroke-dasharray:2.0,2.0;" x1="686.2183" x2="894.2095" y1="318.4922" y2="318.4922"/><text fill="#000000" font-family="sans-serif" font-size="13" lengthAdjust="spacing" textLength="57.9033" x="698.2183" y="313.4263">removed</text></g><g class="message" data-participant-1="EventSubscriptionEnablementOperator" data-participant-2="SubscribedNotification"><polygon fill="#181818" points="456.189,343.625,446.189,347.625,456.189,351.625,452.189,347.625" style="stroke:#181818;stroke-width:1;"/><line style="stroke:#181818;stroke-width:1;" x1="450.189" x2="680.2183" y1="347.625" y2="347.625"/><text fill="#000000" font-family="sans-serif" font-size="13" lengthAdjust="spacing" textLength="45.8047" x="462.189" y="342.5591">update</text></g><g class="message" data-participant-1="SubscribedNotification" data-participant-2="ComponentOperator"><polygon fill="#181818" points="285.2173,372.7578,275.2173,376.7578,285.2173,380.7578,281.2173,376.7578" style="stroke:#181818;stroke-width:1;"/><line style="stroke:#181818;stroke-width:1;" x1="279.2173" x2="444.189" y1="376.7578" y2="376.7578"/><text fill="#000000" font-family="sans-serif" font-size="13" lengthAdjust="spacing" textLength="66.1299" x="291.2173" y="371.6919">on.update</text></g><g class="message" data-participant-1="ComponentOperator" data-participant-2="Component"><polygon fill="#181818" points="152.6055,408.8906,142.6055,412.8906,152.6055,416.8906,148.6055,412.8906" style="stroke:#181818;stroke-width:1;"/><line style="stroke:#181818;stroke-width:1;" x1="146.6055" x2="273.2173" y1="412.8906" y2="412.8906"/><text fill="#000000" font-family="sans-serif" font-size="13" lengthAdjust="spacing" textLength="45.8047" x="158.6055" y="407.8247">update</text></g><!--SRC=[ZL91QiCm4Bpx5KlETMcF3Q5GGW8zf3sq7rZBcrXWhyHA2lJtbLIvSOW3zithcV7EpABoHk3Jag3NXbr5xBN_WQqPhE7uKbaKhvMsoFuo_ICO6U5VeN5AT4FjX_7wg5LMk-BkpX5RS3PztJ4sFGrJjIb-bGbmGCOJoGhGmVTXltrwVgcg_prWKq-MXpMyi_FOznD4_NgxzXeCFxRKawVg92POsCSK25K7Rjx9ZKJIdNUzXgBCnXE8FdM-WlYyWQDe4EDm_YSWv4mGHQ0TAA68R3FpE2vdGzDhrr4BFELf1jyHA2C4ny0g3Hyoqv4AaWf2Rc78KQR0qtoiEsjHHi_xIKuNb3VDD8aje2JbqkaO6dIXMKpVrFM5BpIOSmdiZf5uB8kC1DjYSN7RUnIvrtiCe51ZhDT7EdE21VeB]--></g></svg>