<svg xmlns="http://www.w3.org/2000/svg" xmlns:xlink="http://www.w3.org/1999/xlink" contentStyleType="text/css" data-diagram-type="SEQUENCE" height="744px" preserveAspectRatio="none" style="width:1275px;height:744px;background:#FFFFFF;" version="1.1" viewBox="0 0 1275 744" width="1275px" zoomAndPan="magnify"><defs/><g><rect fill="none" height="424.7969" style="stroke:#000000;stroke-width:1.5;" width="1084.2568" x="185.2451" y="192.8281"/><rect fill="none" height="211.7344" style="stroke:#000000;stroke-width:1.5;" width="732.3135" x="527.1885" y="340.625"/><g><title>Operations</title><rect fill="#000000" fill-opacity="0.00000" height="582.4609" width="8" x="42.4829" y="81.2969"/><line style="stroke:#181818;stroke-width:0.5;stroke-dasharray:5.0,5.0;" x1="46" x2="46" y1="81.2969" y2="663.7578"/></g><g><title>Component</title><rect fill="#000000" fill-opacity="0.00000" height="582.4609" width="8" x="137.6055" y="81.2969"/><line style="stroke:#181818;stroke-width:0.5;stroke-dasharray:5.0,5.0;" x1="140.9658" x2="140.9658" y1="81.2969" y2="663.7578"/></g><g><title>ComponentOperator</title><rect fill="#000000" fill-opacity="0.00000" height="582.4609" width="8" x="270.2173" y="81.2969"/><line style="stroke:#181818;stroke-width:0.5;stroke-dasharray:5.0,5.0;" x1="273.2451" x2="273.2451" y1="81.2969" y2="663.7578"/></g><g><title>SubscribedNotification</title><rect fill="#000000" fill-opacity="0.00000" height="582.4609" width="8" x="441.189" y="81.2969"/><line style="stroke:#181818;stroke-width:0.5;stroke-dasharray:5.0,5.0;" x1="444.1895" x2="444.1895" y1="81.2969" y2="663.7578"/></g><g><title>EventSubscriptionEnablementOperator</title><rect fill="#000000" fill-opacity="0.00000" height="582.4609" width="8" x="677.2183" y="81.2969"/><line style="stroke:#181818;stroke-width:0.5;stroke-dasharray:5.0,5.0;" x1="681.1885" x2="681.1885" y1="81.2969" y2="663.7578"/></g><g><title>Event Manager</title><rect fill="#000000" fill-opacity="0.00000" height="582.4609" width="8" x="891.2095" y="81.2969"/><line style="stroke:#181818;stroke-width:0.5;stroke-dasharray:5.0,5.0;" x1="894.248" x2="894.248" y1="81.2969" y2="663.7578"/></g><g class="participant participant-head" data-participant="Operations"><text fill="#000000" font-family="sans-serif" font-size="14" lengthAdjust="spacing" textLength="76.9658" x="5" y="77.9951">Operations</text><ellipse cx="46.4829" cy="13.5" fill="#E2E2F0" rx="8" ry="8" style="stroke:#181818;stroke-width:0.5;"/><path d="M46.4829,21.5 L46.4829,48.5 M33.4829,29.5 L59.4829,29.5 M46.4829,48.5 L33.4829,63.5 M46.4829,48.5 L59.4829,63.5" fill="none" style="stroke:#181818;stroke-width:0.5;"/></g><g class="participant participant-tail" data-participant="Operations"><text fill="#000000" font-family="sans-serif" font-size="14" lengthAdjust="spacing" textLength="76.9658" x="5" y="675.7529">Operations</text><ellipse cx="46.4829" cy="687.5547" fill="#E2E2F0" rx="8" ry="8" style="stroke:#181818;stroke-width:0.5;"/><path d="M46.4829,695.5547 L46.4829,722.5547 M33.4829,703.5547 L59.4829,703.5547 M46.4829,722.5547 L33.4829,737.5547 M46.4829,722.5547 L59.4829,737.5547" fill="none" style="stroke:#181818;stroke-width:0.5;"/></g><g class="participant participant-head" data-participant="Component"><text fill="#000000" font-family="sans-serif" font-size="14" lengthAdjust="spacing" textLength="81.2793" x="97.9658" y="77.9951">Component</text><ellipse cx="141.6055" cy="49" fill="#E2E2F0" rx="12" ry="12" style="stroke:#181818;stroke-width:0.5;"/><line style="stroke:#181818;stroke-width:0.5;" x1="129.6055" x2="153.6055" y1="63" y2="63"/></g><g class="participant participant-tail" data-participant="Component"><text fill="#000000" font-family="sans-serif" font-size="14" lengthAdjust="spacing" textLength="81.2793" x="97.9658" y="675.7529">Component</text><ellipse cx="141.6055" cy="695.0547" fill="#E2E2F0" rx="12" ry="12" style="stroke:#181818;stroke-width:0.5;"/><line style="stroke:#181818;stroke-width:0.5;" x1="129.6055" x2="153.6055" y1="709.0547" y2="709.0547"/></g><g class="participant participant-head" data-participant="ComponentOperator"><rect fill="#E2E2F0" height="30.2969" rx="2.5" ry="2.5" style="stroke:#181818;stroke-width:0.5;" width="157.9443" x="195.2451" y="50"/><text fill="#000000" font-family="sans-serif" font-size="14" lengthAdjust="spacing" textLength="143.9443" x="202.2451" y="69.9951">ComponentOperator</text></g><g class="participant participant-tail" data-participant="ComponentOperator"><rect fill="#E2E2F0" height="30.2969" rx="2.5" ry="2.5" style="stroke:#181818;stroke-width:0.5;" width="157.9443" x="195.2451" y="662.7578"/><text fill="#000000" font-family="sans-serif" font-size="14" lengthAdjust="spacing" textLength="143.9443" x="202.2451" y="682.7529">ComponentOperator</text></g><g class="participant participant-head" data-participant="SubscribedNotification"><text fill="#000000" font-family="sans-serif" font-size="14" lengthAdjust="spacing" textLength="157.999" x="363.1895" y="77.9951">SubscribedNotification</text><ellipse cx="445.189" cy="49" fill="#E2E2F0" rx="12" ry="12" style="stroke:#181818;stroke-width:0.5;"/><line style="stroke:#181818;stroke-width:0.5;" x1="433.189" x2="457.189" y1="63" y2="63"/></g><g class="participant participant-tail" data-participant="SubscribedNotification"><text fill="#000000" font-family="sans-serif" font-size="14" lengthAdjust="spacing" textLength="157.999" x="363.1895" y="675.7529">SubscribedNotification</text><ellipse cx="445.189" cy="695.0547" fill="#E2E2F0" rx="12" ry="12" style="stroke:#181818;stroke-width:0.5;"/><line style="stroke:#181818;stroke-width:0.5;" x1="433.189" x2="457.189" y1="709.0547" y2="709.0547"/></g><g class="participant participant-head" data-participant="EventSubscriptionEnablementOperator"><rect fill="#E2E2F0" height="30.2969" rx="2.5" ry="2.5" style="stroke:#181818;stroke-width:0.5;" width="288.0596" x="537.1885" y="50"/><text fill="#000000" font-family="sans-serif" font-size="14" lengthAdjust="spacing" textLength="274.0596" x="544.1885" y="69.9951">EventSubscriptionEnablementOperator</text></g><g class="participant participant-tail" data-participant="EventSubscriptionEnablementOperator"><rect fill="#E2E2F0" height="30.2969" rx="2.5" ry="2.5" style="stroke:#181818;stroke-width:0.5;" width="288.0596" x="537.1885" y="662.7578"/><text fill="#000000" font-family="sans-serif" font-size="14" lengthAdjust="spacing" textLength="274.0596" x="544.1885" y="682.7529">EventSubscriptionEnablementOperator</text></g><g class="participant participant-head" data-participant="TMFC019"><rect fill="#E2E2F0" height="30.2969" rx="2.5" ry="2.5" style="stroke:#181818;stroke-width:0.5;" width="119.9229" x="835.248" y="50"/><text fill="#000000" font-family="sans-serif" font-size="14" lengthAdjust="spacing" textLength="105.9229" x="842.248" y="69.9951">Event Manager</text></g><g class="participant participant-tail" data-participant="TMFC019"><rect fill="#E2E2F0" height="30.2969" rx="2.5" ry="2.5" style="stroke:#181818;stroke-width:0.5;" width="119.9229" x="835.248" y="662.7578"/><text fill="#000000" font-family="sans-serif" font-size="14" lengthAdjust="spacing" textLength="105.9229" x="842.248" y="682.7529">Event Manager</text></g><g class="message" data-participant-1="Operations" data-participant-2="Component"><polygon fill="#181818" points="129.6055,108.4297,139.6055,112.4297,129.6055,116.4297,133.6055,112.4297" style="stroke:#181818;stroke-width:1;"/><line style="stroke:#181818;stroke-width:1;" x1="46.4829" x2="135.6055" y1="112.4297" y2="112.4297"/><text fill="#000000" font-family="sans-serif" font-size="13" lengthAdjust="spacing" textLength="39.1333" x="53.4829" y="107.3638">Install</text></g><g class="message" data-participant-1="Component" data-participant-2="ComponentOperator"><polygon fill="#181818" points="262.2173,155.6953,272.2173,159.6953,262.2173,163.6953,266.2173,159.6953" style="stroke:#181818;stroke-width:1;"/><line style="stroke:#181818;stroke-width:1;" x1="141.6055" x2="268.2173" y1="159.6953" y2="159.6953"/><text fill="#000000" font-family="sans-serif" font-size="13" lengthAdjust="spacing" textLength="61.877" x="148.6055" y="154.6294">on.create</text></g><path d="M279,125.4297 L279,180.4297 L649,180.4297 L649,135.4297 L639,125.4297 L279,125.4297" fill="#FEFFDD" style="stroke:#181818;stroke-width:0.5;"/><path d="M639,125.4297 L639,135.4297 L649,135.4297 L639,125.4297" fill="#FEFFDD" style="stroke:#181818;stroke-width:0.5;"/><text fill="#000000" font-family="sans-serif" font-size="13" lengthAdjust="spacing" textLength="349.1719" x="285" y="142.4966">A separate subscribedNotification resource is created</text><text fill="#000000" font-family="sans-serif" font-size="13" lengthAdjust="spacing" textLength="333.3535" x="285" y="157.6294">for each published notification in the core function,</text><text fill="#000000" font-family="sans-serif" font-size="13" lengthAdjust="spacing" textLength="229.436" x="285" y="172.7622">security and management sections</text><path d="M185.2451,192.8281 L464.0356,192.8281 L464.0356,199.9609 L454.0356,209.9609 L185.2451,209.9609 L185.2451,192.8281" fill="#EEEEEE" style="stroke:#000000;stroke-width:1.5;"/><rect fill="none" height="424.7969" style="stroke:#000000;stroke-width:1.5;" width="1084.2568" x="185.2451" y="192.8281"/><text fill="#000000" font-family="sans-serif" font-size="13" font-weight="bold" lengthAdjust="spacing" textLength="233.7905" x="200.2451" y="205.895">For each subscribedNotification</text><g class="message" data-participant-1="ComponentOperator" data-participant-2="SubscribedNotification"><polygon fill="#181818" points="433.189,227.0938,443.189,231.0938,433.189,235.0938,437.189,231.0938" style="stroke:#181818;stroke-width:1;"/><line style="stroke:#181818;stroke-width:1;" x1="274.2173" x2="439.189" y1="231.0938" y2="231.0938"/><text fill="#000000" font-family="sans-serif" font-size="13" lengthAdjust="spacing" textLength="41.5518" x="281.2173" y="226.0278">create</text></g><g class="message" data-participant-1="SubscribedNotification" data-participant-2="EventSubscriptionEnablementOperator"><polygon fill="#181818" points="669.2183,256.2266,679.2183,260.2266,669.2183,264.2266,673.2183,260.2266" style="stroke:#181818;stroke-width:1;"/><line style="stroke:#181818;stroke-width:1;" x1="445.189" x2="675.2183" y1="260.2266" y2="260.2266"/><text fill="#000000" font-family="sans-serif" font-size="13" lengthAdjust="spacing" textLength="61.877" x="452.189" y="255.1606">on.create</text></g><g class="message" data-participant-1="EventSubscriptionEnablementOperator" data-participant-2="TMFC019"><polygon fill="#181818" points="883.2095,303.4922,893.2095,307.4922,883.2095,311.4922,887.2095,307.4922" style="stroke:#181818;stroke-width:1;"/><line style="stroke:#181818;stroke-width:1;" x1="681.2183" x2="889.2095" y1="307.4922" y2="307.4922"/><text fill="#000000" font-family="sans-serif" font-size="13" lengthAdjust="spacing" textLength="167.0195" x="688.2183" y="302.4263">search for matching topic</text></g><path d="M900,273.2266 L900,328.2266 L1179,328.2266 L1179,283.2266 L1169,273.2266 L900,273.2266" fill="#FEFFDD" style="stroke:#181818;stroke-width:0.5;"/><path d="M1169,273.2266 L1169,283.2266 L1179,283.2266 L1169,273.2266" fill="#FEFFDD" style="stroke:#181818;stroke-width:0.5;"/><text fill="#000000" font-family="sans-serif" font-size="13" lengthAdjust="spacing" textLength="252.8462" x="906" y="290.2935">A topic can exist if another component</text><text fill="#000000" font-family="sans-serif" font-size="13" lengthAdjust="spacing" textLength="258.813" x="906" y="305.4263">is already publishing these notifications</text><text fill="#000000" font-family="sans-serif" font-size="13" lengthAdjust="spacing" textLength="229.1885" x="906" y="320.5591">or if an operator pre-created topics</text><path d="M527.1885,340.625 L591.6313,340.625 L591.6313,347.7578 L581.6313,357.7578 L527.1885,357.7578 L527.1885,340.625" fill="#EEEEEE" style="stroke:#000000;stroke-width:1.5;"/><rect fill="none" height="211.7344" style="stroke:#000000;stroke-width:1.5;" width="732.3135" x="527.1885" y="340.625"/><text fill="#000000" font-family="sans-serif" font-size="13" font-weight="bold" lengthAdjust="spacing" textLength="19.4429" x="542.1885" y="353.6919">alt</text><text fill="#000000" font-family="sans-serif" font-size="11" font-weight="bold" lengthAdjust="spacing" textLength="77.2417" x="606.6313" y="352.8354">[Topic exist]</text><g class="message" data-participant-1="TMFC019" data-participant-2="EventSubscriptionEnablementOperator"><polygon fill="#181818" points="692.2183,374.8906,682.2183,378.8906,692.2183,382.8906,688.2183,378.8906" style="stroke:#181818;stroke-width:1;"/><line style="stroke:#181818;stroke-width:1;stroke-dasharray:2.0,2.0;" x1="686.2183" x2="894.2095" y1="378.8906" y2="378.8906"/><text fill="#000000" font-family="sans-serif" font-size="13" lengthAdjust="spacing" textLength="40.1616" x="698.2183" y="373.8247">Found</text></g><g class="message" data-participant-1="EventSubscriptionEnablementOperator" data-participant-2="TMFC019"><polygon fill="#181818" points="883.2095,404.0234,893.2095,408.0234,883.2095,412.0234,887.2095,408.0234" style="stroke:#181818;stroke-width:1;"/><line style="stroke:#181818;stroke-width:1;" x1="681.2183" x2="889.2095" y1="408.0234" y2="408.0234"/><text fill="#000000" font-family="sans-serif" font-size="13" lengthAdjust="spacing" textLength="91.7617" x="688.2183" y="402.9575">configure Hub</text></g><g class="message" data-participant-1="TMFC019" data-participant-2="TMFC019"><line style="stroke:#181818;stroke-width:1;" x1="895.2095" x2="937.2095" y1="437.1563" y2="437.1563"/><line style="stroke:#181818;stroke-width:1;" x1="937.2095" x2="937.2095" y1="437.1563" y2="450.1563"/><line style="stroke:#181818;stroke-width:1;" x1="896.2095" x2="937.2095" y1="450.1563" y2="450.1563"/><polygon fill="#181818" points="906.2095,446.1563,896.2095,450.1563,906.2095,454.1563,902.2095,450.1563" style="stroke:#181818;stroke-width:1;"/><text fill="#000000" font-family="sans-serif" font-size="13" lengthAdjust="spacing" textLength="332.6997" x="902.2095" y="432.0903">(optional) approval flow to approve creation of hub</text></g><g class="message" data-participant-1="TMFC019" data-participant-2="EventSubscriptionEnablementOperator"><polygon fill="#181818" points="692.2183,475.2891,682.2183,479.2891,692.2183,483.2891,688.2183,479.2891" style="stroke:#181818;stroke-width:1;"/><line style="stroke:#181818;stroke-width:1;" x1="686.2183" x2="894.2095" y1="479.2891" y2="479.2891"/><text fill="#000000" font-family="sans-serif" font-size="13" lengthAdjust="spacing" textLength="49.8037" x="698.2183" y="474.2231">created</text></g><line style="stroke:#000000;stroke-width:1;stroke-dasharray:2.0,2.0;" x1="527.1885" x2="1259.502" y1="488.2891" y2="488.2891"/><text fill="#000000" font-family="sans-serif" font-size="11" font-weight="bold" lengthAdjust="spacing" textLength="134.9863" x="532.1885" y="498.4995">[Topic does not exist]</text><g class="message" data-participant-1="TMFC019" data-participant-2="EventSubscriptionEnablementOperator"><polygon fill="#181818" points="692.2183,529.793,682.2183,533.793,692.2183,537.793,688.2183,533.793" style="stroke:#181818;stroke-width:1;"/><line style="stroke:#181818;stroke-width:1;stroke-dasharray:2.0,2.0;" x1="686.2183" x2="894.2095" y1="533.793" y2="533.793"/><text fill="#000000" font-family="sans-serif" font-size="13" lengthAdjust="spacing" textLength="67.0693" x="698.2183" y="528.7271">Not Found</text></g><path d="M900,507.0938 L900,547.0938 L1244,547.0938 L1244,517.0938 L1234,507.0938 L900,507.0938" fill="#FEFFDD" style="stroke:#181818;stroke-width:0.5;"/><path d="M1234,507.0938 L1234,517.0938 L1244,517.0938 L1234,507.0938" fill="#FEFFDD" style="stroke:#181818;stroke-width:0.5;"/><text fill="#000000" font-family="sans-serif" font-size="13" lengthAdjust="spacing" textLength="147.9385" x="906" y="524.1606">if a topic doesn't exist,</text><text fill="#000000" font-family="sans-serif" font-size="13" lengthAdjust="spacing" textLength="323.2925" x="906" y="539.2935">this should not block activation of the component</text><g class="message" data-participant-1="EventSubscriptionEnablementOperator" data-participant-2="SubscribedNotification"><polygon fill="#181818" points="456.189,576.4922,446.189,580.4922,456.189,584.4922,452.189,580.4922" style="stroke:#181818;stroke-width:1;"/><line style="stroke:#181818;stroke-width:1;" x1="450.189" x2="680.2183" y1="580.4922" y2="580.4922"/><text fill="#000000" font-family="sans-serif" font-size="13" lengthAdjust="spacing" textLength="45.8047" x="462.189" y="575.4263">update</text></g><g class="message" data-participant-1="SubscribedNotification" data-participant-2="ComponentOperator"><polygon fill="#181818" points="285.2173,605.625,275.2173,609.625,285.2173,613.625,281.2173,609.625" style="stroke:#181818;stroke-width:1;"/><line style="stroke:#181818;stroke-width:1;" x1="279.2173" x2="444.189" y1="609.625" y2="609.625"/><text fill="#000000" font-family="sans-serif" font-size="13" lengthAdjust="spacing" textLength="66.1299" x="291.2173" y="604.5591">on.update</text></g><g class="message" data-participant-1="ComponentOperator" data-participant-2="Component"><polygon fill="#181818" points="152.6055,641.7578,142.6055,645.7578,152.6055,649.7578,148.6055,645.7578" style="stroke:#181818;stroke-width:1;"/><line style="stroke:#181818;stroke-width:1;" x1="146.6055" x2="273.2173" y1="645.7578" y2="645.7578"/><text fill="#000000" font-family="sans-serif" font-size="13" lengthAdjust="spacing" textLength="45.8047" x="158.6055" y="640.6919">update</text></g><!--SRC=[dLHDRzim33tNluBePHjG5zjnGJ6WA1fqXsw7zG_8CXqBKqH17zdwxqT9Tg8ixc3C1mEIoAV7zqW96SZ1TujE14N6DsY22g_mG7jBXXUD5IuegQmmuRHR4iZDuJzYvwLJ7VRVAAX1oOnsbljuuDWfpgRJHoCwZViQhOw_pWdmB8pOeRi6uU7bUVlmyTFdfZdoWBks8WyR-6fy45fN4UsNIzeR87Ch7Og0q1ZYlrExCJJ0tpruP1xfo2zM1GuzHISHb8S2qkVCWPL48KUmiTFAZzY3gVEKWJ0YI788GpGoRTxaJ8yokgIZC3tiSyL9bxG_kvAniDavYXQsyqtB39khYugJ3CicRQOQCf7ba9IymhvArGos8YKXJwvkk5hXkAOauru4EIgpWq1MoOpsbqrNz-KCf320lvKFe0RMZrXYnnhFxPjZsIYXcLZ_EdkJiKVqU6QHB-5C86C1pJIjmtQokbnR8e-sf8NG0LuofKodGAtHuAvjJo9iAPf-VUv9Fsv-IMPGkyZjzHIxWZ4VrZg_fumcz0SGrZew20s3fbzSsRI1fIUIzJJ0E8EjAwOcL4q7QXQxwDCJ-gHR9TH_ACKTMgcrq2BpbxoScYNTRDvD5z-SHOMHkyIF57Ns53fDyYS87i33KOaoldLhNNH1Md0d_6kQMA9LqnHjFu_IvJmpo5lpp5CufJAPyxTouIKieT3y0G00]--></g></svg>