<svg xmlns="http://www.w3.org/2000/svg" xmlns:xlink="http://www.w3.org/1999/xlink" contentStyleType="text/css" data-diagram-type="SEQUENCE" height="495px" preserveAspectRatio="none" style="width:1161px;height:495px;background:#FFFFFF;" version="1.1" viewBox="0 0 1161 495" width="1161px" zoomAndPan="magnify"><defs/><g><rect fill="none" height="206.1953" style="stroke:#000000;stroke-width:1.5;" width="969.9263" x="185.2451" y="162.5625"/><g><title>Operations</title><rect fill="#000000" fill-opacity="0.00000" height="333.5938" width="8" x="42.4829" y="81.2969"/><line style="stroke:#181818;stroke-width:0.5;stroke-dasharray:5.0,5.0;" x1="46" x2="46" y1="81.2969" y2="414.8906"/></g><g><title>Component</title><rect fill="#000000" fill-opacity="0.00000" height="333.5938" width="8" x="137.6055" y="81.2969"/><line style="stroke:#181818;stroke-width:0.5;stroke-dasharray:5.0,5.0;" x1="140.9658" x2="140.9658" y1="81.2969" y2="414.8906"/></g><g><title>ComponentOperator</title><rect fill="#000000" fill-opacity="0.00000" height="333.5938" width="8" x="270.2173" y="81.2969"/><line style="stroke:#181818;stroke-width:0.5;stroke-dasharray:5.0,5.0;" x1="273.2451" x2="273.2451" y1="81.2969" y2="414.8906"/></g><g><title>PublishedNotification</title><rect fill="#000000" fill-opacity="0.00000" height="333.5938" width="8" x="436.1782" y="81.2969"/><line style="stroke:#181818;stroke-width:0.5;stroke-dasharray:5.0,5.0;" x1="439.1895" x2="439.1895" y1="81.2969" y2="414.8906"/></g><g><title>EventPublishingEnablementOperator</title><rect fill="#000000" fill-opacity="0.00000" height="333.5938" width="8" x="659.6021" y="81.2969"/><line style="stroke:#181818;stroke-width:0.5;stroke-dasharray:5.0,5.0;" x1="663.167" x2="663.167" y1="81.2969" y2="414.8906"/></g><g><title>Event Manager</title><rect fill="#000000" fill-opacity="0.00000" height="333.5938" width="8" x="865.9985" y="81.2969"/><line style="stroke:#181818;stroke-width:0.5;stroke-dasharray:5.0,5.0;" x1="869.0371" x2="869.0371" y1="81.2969" y2="414.8906"/></g><g class="participant participant-head" data-participant="Operations"><text fill="#000000" font-family="sans-serif" font-size="14" lengthAdjust="spacing" textLength="76.9658" x="5" y="77.9951">Operations</text><ellipse cx="46.4829" cy="13.5" fill="#E2E2F0" rx="8" ry="8" style="stroke:#181818;stroke-width:0.5;"/><path d="M46.4829,21.5 L46.4829,48.5 M33.4829,29.5 L59.4829,29.5 M46.4829,48.5 L33.4829,63.5 M46.4829,48.5 L59.4829,63.5" fill="none" style="stroke:#181818;stroke-width:0.5;"/></g><g class="participant participant-tail" data-participant="Operations"><text fill="#000000" font-family="sans-serif" font-size="14" lengthAdjust="spacing" textLength="76.9658" x="5" y="426.8857">Operations</text><ellipse cx="46.4829" cy="438.6875" fill="#E2E2F0" rx="8" ry="8" style="stroke:#181818;stroke-width:0.5;"/><path d="M46.4829,446.6875 L46.4829,473.6875 M33.4829,454.6875 L59.4829,454.6875 M46.4829,473.6875 L33.4829,488.6875 M46.4829,473.6875 L59.4829,488.6875" fill="none" style="stroke:#181818;stroke-width:0.5;"/></g><g class="participant participant-head" data-participant="Component"><text fill="#000000" font-family="sans-serif" font-size="14" lengthAdjust="spacing" textLength="81.2793" x="97.9658" y="77.9951">Component</text><ellipse cx="141.6055" cy="49" fill="#E2E2F0" rx="12" ry="12" style="stroke:#181818;stroke-width:0.5;"/><line style="stroke:#181818;stroke-width:0.5;" x1="129.6055" x2="153.6055" y1="63" y2="63"/></g><g class="participant participant-tail" data-participant="Component"><text fill="#000000" font-family="sans-serif" font-size="14" lengthAdjust="spacing" textLength="81.2793" x="97.9658" y="426.8857">Component</text><ellipse cx="141.6055" cy="446.1875" fill="#E2E2F0" rx="12" ry="12" style="stroke:#181818;stroke-width:0.5;"/><line style="stroke:#181818;stroke-width:0.5;" x1="129.6055" x2="153.6055" y1="460.1875" y2="460.1875"/></g><g class="participant participant-head" data-participant="ComponentOperator"><rect fill="#E2E2F0" height="30.2969" rx="2.5" ry="2.5" style="stroke:#181818;stroke-width:0.5;" width="157.9443" x="195.2451" y="50"/><text fill="#000000" font-family="sans-serif" font-size="14" lengthAdjust="spacing" textLength="143.9443" x="202.2451" y="69.9951">ComponentOperator</text></g><g class="participant participant-tail" data-participant="ComponentOperator"><rect fill="#E2E2F0" height="30.2969" rx="2.5" ry="2.5" style="stroke:#181818;stroke-width:0.5;" width="157.9443" x="195.2451" y="413.8906"/><text fill="#000000" font-family="sans-serif" font-size="14" lengthAdjust="spacing" textLength="143.9443" x="202.2451" y="433.8857">ComponentOperator</text></g><g class="participant participant-head" data-participant="PublishedNotification"><text fill="#000000" font-family="sans-serif" font-size="14" lengthAdjust="spacing" textLength="147.9775" x="363.1895" y="77.9951">PublishedNotification</text><ellipse cx="440.1782" cy="49" fill="#E2E2F0" rx="12" ry="12" style="stroke:#181818;stroke-width:0.5;"/><line style="stroke:#181818;stroke-width:0.5;" x1="428.1782" x2="452.1782" y1="63" y2="63"/></g><g class="participant participant-tail" data-participant="PublishedNotification"><text fill="#000000" font-family="sans-serif" font-size="14" lengthAdjust="spacing" textLength="147.9775" x="363.1895" y="426.8857">PublishedNotification</text><ellipse cx="440.1782" cy="446.1875" fill="#E2E2F0" rx="12" ry="12" style="stroke:#181818;stroke-width:0.5;"/><line style="stroke:#181818;stroke-width:0.5;" x1="428.1782" x2="452.1782" y1="460.1875" y2="460.1875"/></g><g class="participant participant-head" data-participant="EventPublishingEnablementOperator"><rect fill="#E2E2F0" height="30.2969" rx="2.5" ry="2.5" style="stroke:#181818;stroke-width:0.5;" width="272.8701" x="527.167" y="50"/><text fill="#000000" font-family="sans-serif" font-size="14" lengthAdjust="spacing" textLength="258.8701" x="534.167" y="69.9951">EventPublishingEnablementOperator</text></g><g class="participant participant-tail" data-participant="EventPublishingEnablementOperator"><rect fill="#E2E2F0" height="30.2969" rx="2.5" ry="2.5" style="stroke:#181818;stroke-width:0.5;" width="272.8701" x="527.167" y="413.8906"/><text fill="#000000" font-family="sans-serif" font-size="14" lengthAdjust="spacing" textLength="258.8701" x="534.167" y="433.8857">EventPublishingEnablementOperator</text></g><g class="participant participant-head" data-participant="TMFC019"><rect fill="#E2E2F0" height="30.2969" rx="2.5" ry="2.5" style="stroke:#181818;stroke-width:0.5;" width="119.9229" x="810.0371" y="50"/><text fill="#000000" font-family="sans-serif" font-size="14" lengthAdjust="spacing" textLength="105.9229" x="817.0371" y="69.9951">Event Manager</text></g><g class="participant participant-tail" data-participant="TMFC019"><rect fill="#E2E2F0" height="30.2969" rx="2.5" ry="2.5" style="stroke:#181818;stroke-width:0.5;" width="119.9229" x="810.0371" y="413.8906"/><text fill="#000000" font-family="sans-serif" font-size="14" lengthAdjust="spacing" textLength="105.9229" x="817.0371" y="433.8857">Event Manager</text></g><g class="message" data-participant-1="Operations" data-participant-2="Component"><polygon fill="#181818" points="129.6055,108.4297,139.6055,112.4297,129.6055,116.4297,133.6055,112.4297" style="stroke:#181818;stroke-width:1;"/><line style="stroke:#181818;stroke-width:1;" x1="46.4829" x2="135.6055" y1="112.4297" y2="112.4297"/><text fill="#000000" font-family="sans-serif" font-size="13" lengthAdjust="spacing" textLength="55.5801" x="53.4829" y="107.3638">Upgrade</text></g><g class="message" data-participant-1="Component" data-participant-2="ComponentOperator"><polygon fill="#181818" points="262.2173,140.5625,272.2173,144.5625,262.2173,148.5625,266.2173,144.5625" style="stroke:#181818;stroke-width:1;"/><line style="stroke:#181818;stroke-width:1;" x1="141.6055" x2="268.2173" y1="144.5625" y2="144.5625"/><text fill="#000000" font-family="sans-serif" font-size="13" lengthAdjust="spacing" textLength="66.1299" x="148.6055" y="139.4966">on.update</text></g><path d="M279,125.4297 L279,150.4297 L714,150.4297 L714,135.4297 L704,125.4297 L279,125.4297" fill="#FEFFDD" style="stroke:#181818;stroke-width:0.5;"/><path d="M704,125.4297 L704,135.4297 L714,135.4297 L704,125.4297" fill="#FEFFDD" style="stroke:#181818;stroke-width:0.5;"/><text fill="#000000" font-family="sans-serif" font-size="13" lengthAdjust="spacing" textLength="414.1528" x="285" y="142.4966">One or more PublishedNotification are added to the component</text><path d="M185.2451,162.5625 L524.9414,162.5625 L524.9414,169.6953 L514.9414,179.6953 L185.2451,179.6953 L185.2451,162.5625" fill="#EEEEEE" style="stroke:#000000;stroke-width:1.5;"/><rect fill="none" height="206.1953" style="stroke:#000000;stroke-width:1.5;" width="969.9263" x="185.2451" y="162.5625"/><text fill="#000000" font-family="sans-serif" font-size="13" font-weight="bold" lengthAdjust="spacing" textLength="294.6963" x="200.2451" y="175.6294">For each removed PublishedNotification</text><g class="message" data-participant-1="ComponentOperator" data-participant-2="PublishedNotification"><polygon fill="#181818" points="428.1782,214.9609,438.1782,218.9609,428.1782,222.9609,432.1782,218.9609" style="stroke:#181818;stroke-width:1;"/><line style="stroke:#181818;stroke-width:1;" x1="274.2173" x2="434.1782" y1="218.9609" y2="218.9609"/><text fill="#000000" font-family="sans-serif" font-size="13" lengthAdjust="spacing" textLength="40.9551" x="281.2173" y="213.895">delete</text></g><path d="M445,184.6953 L445,239.6953 L827,239.6953 L827,194.6953 L817,184.6953 L445,184.6953" fill="#FEFFDD" style="stroke:#181818;stroke-width:0.5;"/><path d="M817,184.6953 L817,194.6953 L827,194.6953 L817,184.6953" fill="#FEFFDD" style="stroke:#181818;stroke-width:0.5;"/><text fill="#000000" font-family="sans-serif" font-size="13" lengthAdjust="spacing" textLength="341.3452" x="451" y="201.7622">A separate PublishedNotification resource is created</text><text fill="#000000" font-family="sans-serif" font-size="13" lengthAdjust="spacing" textLength="361.2959" x="451" y="216.895">for each new PublishedNotification in the core function,</text><text fill="#000000" font-family="sans-serif" font-size="13" lengthAdjust="spacing" textLength="229.436" x="451" y="232.0278">security and management sections</text><g class="message" data-participant-1="PublishedNotification" data-participant-2="EventPublishingEnablementOperator"><polygon fill="#181818" points="651.6021,280.3594,661.6021,284.3594,651.6021,288.3594,655.6021,284.3594" style="stroke:#181818;stroke-width:1;"/><line style="stroke:#181818;stroke-width:1;" x1="440.1782" x2="657.6021" y1="284.3594" y2="284.3594"/><text fill="#000000" font-family="sans-serif" font-size="13" lengthAdjust="spacing" textLength="61.2803" x="447.1782" y="279.2935">on.delete</text></g><path d="M668,250.0938 L668,305.0938 L1139,305.0938 L1139,260.0938 L1129,250.0938 L668,250.0938" fill="#FEFFDD" style="stroke:#181818;stroke-width:0.5;"/><path d="M1129,250.0938 L1129,260.0938 L1139,260.0938 L1129,250.0938" fill="#FEFFDD" style="stroke:#181818;stroke-width:0.5;"/><text fill="#000000" font-family="sans-serif" font-size="13" lengthAdjust="spacing" textLength="384.998" x="674" y="267.1606">Since more than one component may be publishing events</text><text fill="#000000" font-family="sans-serif" font-size="13" lengthAdjust="spacing" textLength="236.9263" x="674" y="282.2935">on the topic, the topic is not deleted</text><text fill="#000000" font-family="sans-serif" font-size="13" lengthAdjust="spacing" textLength="450.5693" x="674" y="297.4263">Since the component will no longer publish no need to clean up hub?</text><g class="message" data-participant-1="EventPublishingEnablementOperator" data-participant-2="PublishedNotification"><polygon fill="#181818" points="451.1782,327.625,441.1782,331.625,451.1782,335.625,447.1782,331.625" style="stroke:#181818;stroke-width:1;"/><line style="stroke:#181818;stroke-width:1;" x1="445.1782" x2="662.6021" y1="331.625" y2="331.625"/><text fill="#000000" font-family="sans-serif" font-size="13" lengthAdjust="spacing" textLength="78.8633" x="457.1782" y="326.5591">allow delete</text></g><g class="message" data-participant-1="PublishedNotification" data-participant-2="ComponentOperator"><polygon fill="#181818" points="285.2173,356.7578,275.2173,360.7578,285.2173,364.7578,281.2173,360.7578" style="stroke:#181818;stroke-width:1;"/><line style="stroke:#181818;stroke-width:1;" x1="279.2173" x2="439.1782" y1="360.7578" y2="360.7578"/><text fill="#000000" font-family="sans-serif" font-size="13" lengthAdjust="spacing" textLength="66.1299" x="291.2173" y="355.6919">on.update</text></g><g class="message" data-participant-1="ComponentOperator" data-participant-2="Component"><polygon fill="#181818" points="152.6055,392.8906,142.6055,396.8906,152.6055,400.8906,148.6055,396.8906" style="stroke:#181818;stroke-width:1;"/><line style="stroke:#181818;stroke-width:1;" x1="146.6055" x2="273.2173" y1="396.8906" y2="396.8906"/><text fill="#000000" font-family="sans-serif" font-size="13" lengthAdjust="spacing" textLength="45.8047" x="158.6055" y="391.8247">update</text></g><!--SRC=[XLF1Ri8m33stNs5nXcax3asR9WGtngHj7n0IqqPAxIXDGVpzd1PA4KLmg6Zw_Fpy_A9qv00RZq55orJdID768oouyapoadiLejNMAugNqww0mnd-tMoThKiqNnpjpkgMxAfqkHVe2MQfM9BQEgo6L4Fqf8N3Mf4gC4n0rV2xNYsUNrxpFEzLmDji81tcyEUBe0mE4BFtMz5pO7fgl54H8IUMPx156NEGtuOGn92A0uuF1Kg-A6FGG6I89OBkhK8oaFZo8d3ZOIL4g7G90IlUIy6uIzcDmAHw53i7WmwbGJQGdINTdr2Z69X66fSTiEOcQ0HRWmueGDDLxiug2GztQYsT1fNHTmtfT3ZjgclKJKW9K39xrQuhBJMTTtdAUbEoSNAPzM4ssetT6_t7aepLRYoMYWGws8beEi8MmVViWAbRtTLoDrbaR_NqyZUP96rERfjXdwkDmy4w9qXmJ9BJSvTqGjWbH3iKJPA6ijb-3Dn8ZEE6IAWV6Y9PLyxnuPo7n7OR8s6w4wF-0gJCNb-eaUjokYl_]--></g></svg>