<svg xmlns="http://www.w3.org/2000/svg" xmlns:xlink="http://www.w3.org/1999/xlink" contentStyleType="text/css" data-diagram-type="SEQUENCE" height="772px" preserveAspectRatio="none" style="width:1323px;height:772px;background:#FFFFFF;" version="1.1" viewBox="0 0 1323 772" width="1323px" zoomAndPan="magnify"><defs/><g><rect fill="none" height="483.0625" style="stroke:#000000;stroke-width:1.5;" width="1229.4805" x="87.9658" y="162.5625"/><rect fill="none" height="190.6016" style="stroke:#000000;stroke-width:1.5;" width="570.4277" x="517.167" y="346.625"/><g><title>Operations</title><rect fill="#000000" fill-opacity="0.00000" height="610.4609" width="8" x="42.4829" y="81.2969"/><line style="stroke:#181818;stroke-width:0.5;stroke-dasharray:5.0,5.0;" x1="46" x2="46" y1="81.2969" y2="691.7578"/></g><g><title>Component</title><rect fill="#000000" fill-opacity="0.00000" height="610.4609" width="8" x="137.6055" y="81.2969"/><line style="stroke:#181818;stroke-width:0.5;stroke-dasharray:5.0,5.0;" x1="140.9658" x2="140.9658" y1="81.2969" y2="691.7578"/></g><g><title>ComponentOperator</title><rect fill="#000000" fill-opacity="0.00000" height="610.4609" width="8" x="270.2173" y="81.2969"/><line style="stroke:#181818;stroke-width:0.5;stroke-dasharray:5.0,5.0;" x1="273.2451" x2="273.2451" y1="81.2969" y2="691.7578"/></g><g><title>PublishedNotification</title><rect fill="#000000" fill-opacity="0.00000" height="610.4609" width="8" x="436.1782" y="81.2969"/><line style="stroke:#181818;stroke-width:0.5;stroke-dasharray:5.0,5.0;" x1="439.1895" x2="439.1895" y1="81.2969" y2="691.7578"/></g><g><title>EventPublishingEnablementOperator</title><rect fill="#000000" fill-opacity="0.00000" height="610.4609" width="8" x="659.6021" y="81.2969"/><line style="stroke:#181818;stroke-width:0.5;stroke-dasharray:5.0,5.0;" x1="663.167" x2="663.167" y1="81.2969" y2="691.7578"/></g><g><title>Event Manager</title><rect fill="#000000" fill-opacity="0.00000" height="610.4609" width="8" x="1013.6333" y="81.2969"/><line style="stroke:#181818;stroke-width:0.5;stroke-dasharray:5.0,5.0;" x1="1016.6719" x2="1016.6719" y1="81.2969" y2="691.7578"/></g><g class="participant participant-head" data-participant="Operations"><text fill="#000000" font-family="sans-serif" font-size="14" lengthAdjust="spacing" textLength="76.9658" x="5" y="77.9951">Operations</text><ellipse cx="46.4829" cy="13.5" fill="#E2E2F0" rx="8" ry="8" style="stroke:#181818;stroke-width:0.5;"/><path d="M46.4829,21.5 L46.4829,48.5 M33.4829,29.5 L59.4829,29.5 M46.4829,48.5 L33.4829,63.5 M46.4829,48.5 L59.4829,63.5" fill="none" style="stroke:#181818;stroke-width:0.5;"/></g><g class="participant participant-tail" data-participant="Operations"><text fill="#000000" font-family="sans-serif" font-size="14" lengthAdjust="spacing" textLength="76.9658" x="5" y="703.7529">Operations</text><ellipse cx="46.4829" cy="715.5547" fill="#E2E2F0" rx="8" ry="8" style="stroke:#181818;stroke-width:0.5;"/><path d="M46.4829,723.5547 L46.4829,750.5547 M33.4829,731.5547 L59.4829,731.5547 M46.4829,750.5547 L33.4829,765.5547 M46.4829,750.5547 L59.4829,765.5547" fill="none" style="stroke:#181818;stroke-width:0.5;"/></g><g class="participant participant-head" data-participant="Component"><text fill="#000000" font-family="sans-serif" font-size="14" lengthAdjust="spacing" textLength="81.2793" x="97.9658" y="77.9951">Component</text><ellipse cx="141.6055" cy="49" fill="#E2E2F0" rx="12" ry="12" style="stroke:#181818;stroke-width:0.5;"/><line style="stroke:#181818;stroke-width:0.5;" x1="129.6055" x2="153.6055" y1="63" y2="63"/></g><g class="participant participant-tail" data-participant="Component"><text fill="#000000" font-family="sans-serif" font-size="14" lengthAdjust="spacing" textLength="81.2793" x="97.9658" y="703.7529">Component</text><ellipse cx="141.6055" cy="723.0547" fill="#E2E2F0" rx="12" ry="12" style="stroke:#181818;stroke-width:0.5;"/><line style="stroke:#181818;stroke-width:0.5;" x1="129.6055" x2="153.6055" y1="737.0547" y2="737.0547"/></g><g class="participant participant-head" data-participant="ComponentOperator"><rect fill="#E2E2F0" height="30.2969" rx="2.5" ry="2.5" style="stroke:#181818;stroke-width:0.5;" width="157.9443" x="195.2451" y="50"/><text fill="#000000" font-family="sans-serif" font-size="14" lengthAdjust="spacing" textLength="143.9443" x="202.2451" y="69.9951">ComponentOperator</text></g><g class="participant participant-tail" data-participant="ComponentOperator"><rect fill="#E2E2F0" height="30.2969" rx="2.5" ry="2.5" style="stroke:#181818;stroke-width:0.5;" width="157.9443" x="195.2451" y="690.7578"/><text fill="#000000" font-family="sans-serif" font-size="14" lengthAdjust="spacing" textLength="143.9443" x="202.2451" y="710.7529">ComponentOperator</text></g><g class="participant participant-head" data-participant="PublishedNotification"><text fill="#000000" font-family="sans-serif" font-size="14" lengthAdjust="spacing" textLength="147.9775" x="363.1895" y="77.9951">PublishedNotification</text><ellipse cx="440.1782" cy="49" fill="#E2E2F0" rx="12" ry="12" style="stroke:#181818;stroke-width:0.5;"/><line style="stroke:#181818;stroke-width:0.5;" x1="428.1782" x2="452.1782" y1="63" y2="63"/></g><g class="participant participant-tail" data-participant="PublishedNotification"><text fill="#000000" font-family="sans-serif" font-size="14" lengthAdjust="spacing" textLength="147.9775" x="363.1895" y="703.7529">PublishedNotification</text><ellipse cx="440.1782" cy="723.0547" fill="#E2E2F0" rx="12" ry="12" style="stroke:#181818;stroke-width:0.5;"/><line style="stroke:#181818;stroke-width:0.5;" x1="428.1782" x2="452.1782" y1="737.0547" y2="737.0547"/></g><g class="participant participant-head" data-participant="EventPublishingEnablementOperator"><rect fill="#E2E2F0" height="30.2969" rx="2.5" ry="2.5" style="stroke:#181818;stroke-width:0.5;" width="272.8701" x="527.167" y="50"/><text fill="#000000" font-family="sans-serif" font-size="14" lengthAdjust="spacing" textLength="258.8701" x="534.167" y="69.9951">EventPublishingEnablementOperator</text></g><g class="participant participant-tail" data-participant="EventPublishingEnablementOperator"><rect fill="#E2E2F0" height="30.2969" rx="2.5" ry="2.5" style="stroke:#181818;stroke-width:0.5;" width="272.8701" x="527.167" y="690.7578"/><text fill="#000000" font-family="sans-serif" font-size="14" lengthAdjust="spacing" textLength="258.8701" x="534.167" y="710.7529">EventPublishingEnablementOperator</text></g><g class="participant participant-head" data-participant="TMFC019"><rect fill="#E2E2F0" height="30.2969" rx="2.5" ry="2.5" style="stroke:#181818;stroke-width:0.5;" width="119.9229" x="957.6719" y="50"/><text fill="#000000" font-family="sans-serif" font-size="14" lengthAdjust="spacing" textLength="105.9229" x="964.6719" y="69.9951">Event Manager</text></g><g class="participant participant-tail" data-participant="TMFC019"><rect fill="#E2E2F0" height="30.2969" rx="2.5" ry="2.5" style="stroke:#181818;stroke-width:0.5;" width="119.9229" x="957.6719" y="690.7578"/><text fill="#000000" font-family="sans-serif" font-size="14" lengthAdjust="spacing" textLength="105.9229" x="964.6719" y="710.7529">Event Manager</text></g><g class="message" data-participant-1="Operations" data-participant-2="Component"><polygon fill="#181818" points="129.6055,108.4297,139.6055,112.4297,129.6055,116.4297,133.6055,112.4297" style="stroke:#181818;stroke-width:1;"/><line style="stroke:#181818;stroke-width:1;" x1="46.4829" x2="135.6055" y1="112.4297" y2="112.4297"/><text fill="#000000" font-family="sans-serif" font-size="13" lengthAdjust="spacing" textLength="55.5801" x="53.4829" y="107.3638">Upgrade</text></g><g class="message" data-participant-1="Component" data-participant-2="ComponentOperator"><polygon fill="#181818" points="262.2173,140.5625,272.2173,144.5625,262.2173,148.5625,266.2173,144.5625" style="stroke:#181818;stroke-width:1;"/><line style="stroke:#181818;stroke-width:1;" x1="141.6055" x2="268.2173" y1="144.5625" y2="144.5625"/><text fill="#000000" font-family="sans-serif" font-size="13" lengthAdjust="spacing" textLength="66.1299" x="148.6055" y="139.4966">on.update</text></g><path d="M279,125.4297 L279,150.4297 L714,150.4297 L714,135.4297 L704,125.4297 L279,125.4297" fill="#FEFFDD" style="stroke:#181818;stroke-width:0.5;"/><path d="M704,125.4297 L704,135.4297 L714,135.4297 L704,125.4297" fill="#FEFFDD" style="stroke:#181818;stroke-width:0.5;"/><text fill="#000000" font-family="sans-serif" font-size="13" lengthAdjust="spacing" textLength="414.1528" x="285" y="142.4966">One or more PublishedNotification are added to the component</text><path d="M87.9658,162.5625 L432.8291,162.5625 L432.8291,169.6953 L422.8291,179.6953 L87.9658,179.6953 L87.9658,162.5625" fill="#EEEEEE" style="stroke:#000000;stroke-width:1.5;"/><rect fill="none" height="483.0625" style="stroke:#000000;stroke-width:1.5;" width="1229.4805" x="87.9658" y="162.5625"/><text fill="#000000" font-family="sans-serif" font-size="13" font-weight="bold" lengthAdjust="spacing" textLength="299.8633" x="102.9658" y="175.6294">For each addtional PublishedNotification</text><g class="message" data-participant-1="ComponentOperator" data-participant-2="PublishedNotification"><polygon fill="#181818" points="428.1782,214.9609,438.1782,218.9609,428.1782,222.9609,432.1782,218.9609" style="stroke:#181818;stroke-width:1;"/><line style="stroke:#181818;stroke-width:1;" x1="274.2173" x2="434.1782" y1="218.9609" y2="218.9609"/><text fill="#000000" font-family="sans-serif" font-size="13" lengthAdjust="spacing" textLength="41.5518" x="281.2173" y="213.895">create</text></g><path d="M445,184.6953 L445,239.6953 L827,239.6953 L827,194.6953 L817,184.6953 L445,184.6953" fill="#FEFFDD" style="stroke:#181818;stroke-width:0.5;"/><path d="M817,184.6953 L817,194.6953 L827,194.6953 L817,184.6953" fill="#FEFFDD" style="stroke:#181818;stroke-width:0.5;"/><text fill="#000000" font-family="sans-serif" font-size="13" lengthAdjust="spacing" textLength="341.3452" x="451" y="201.7622">A separate PublishedNotification resource is created</text><text fill="#000000" font-family="sans-serif" font-size="13" lengthAdjust="spacing" textLength="361.2959" x="451" y="216.895">for each new PublishedNotification in the core function,</text><text fill="#000000" font-family="sans-serif" font-size="13" lengthAdjust="spacing" textLength="229.436" x="451" y="232.0278">security and management sections</text><g class="message" data-participant-1="PublishedNotification" data-participant-2="EventPublishingEnablementOperator"><polygon fill="#181818" points="651.6021,262.2266,661.6021,266.2266,651.6021,270.2266,655.6021,266.2266" style="stroke:#181818;stroke-width:1;"/><line style="stroke:#181818;stroke-width:1;" x1="440.1782" x2="657.6021" y1="266.2266" y2="266.2266"/><text fill="#000000" font-family="sans-serif" font-size="13" lengthAdjust="spacing" textLength="61.877" x="447.1782" y="261.1606">on.create</text></g><g class="message" data-participant-1="EventPublishingEnablementOperator" data-participant-2="TMFC019"><polygon fill="#181818" points="1005.6333,309.4922,1015.6333,313.4922,1005.6333,317.4922,1009.6333,313.4922" style="stroke:#181818;stroke-width:1;"/><line style="stroke:#181818;stroke-width:1;" x1="663.6021" x2="1011.6333" y1="313.4922" y2="313.4922"/><text fill="#000000" font-family="sans-serif" font-size="13" lengthAdjust="spacing" textLength="167.0195" x="670.6021" y="308.4263">search for matching topic</text></g><path d="M1022,279.2266 L1022,334.2266 L1301,334.2266 L1301,289.2266 L1291,279.2266 L1022,279.2266" fill="#FEFFDD" style="stroke:#181818;stroke-width:0.5;"/><path d="M1291,279.2266 L1291,289.2266 L1301,289.2266 L1291,279.2266" fill="#FEFFDD" style="stroke:#181818;stroke-width:0.5;"/><text fill="#000000" font-family="sans-serif" font-size="13" lengthAdjust="spacing" textLength="252.8462" x="1028" y="296.2935">A topic can exist if another component</text><text fill="#000000" font-family="sans-serif" font-size="13" lengthAdjust="spacing" textLength="258.813" x="1028" y="311.4263">is already publishing these notifications</text><text fill="#000000" font-family="sans-serif" font-size="13" lengthAdjust="spacing" textLength="229.1885" x="1028" y="326.5591">or if an operator pre-created topics</text><path d="M517.167,346.625 L581.6099,346.625 L581.6099,353.7578 L571.6099,363.7578 L517.167,363.7578 L517.167,346.625" fill="#EEEEEE" style="stroke:#000000;stroke-width:1.5;"/><rect fill="none" height="190.6016" style="stroke:#000000;stroke-width:1.5;" width="570.4277" x="517.167" y="346.625"/><text fill="#000000" font-family="sans-serif" font-size="13" font-weight="bold" lengthAdjust="spacing" textLength="19.4429" x="532.167" y="359.6919">alt</text><text fill="#000000" font-family="sans-serif" font-size="11" font-weight="bold" lengthAdjust="spacing" textLength="77.2417" x="596.6099" y="358.8354">[Topic exist]</text><g class="message" data-participant-1="TMFC019" data-participant-2="EventPublishingEnablementOperator"><polygon fill="#181818" points="674.6021,380.8906,664.6021,384.8906,674.6021,388.8906,670.6021,384.8906" style="stroke:#181818;stroke-width:1;"/><line style="stroke:#181818;stroke-width:1;stroke-dasharray:2.0,2.0;" x1="668.6021" x2="1016.6333" y1="384.8906" y2="384.8906"/><text fill="#000000" font-family="sans-serif" font-size="13" lengthAdjust="spacing" textLength="56.2339" x="680.6021" y="379.8247">Topic url</text></g><line style="stroke:#000000;stroke-width:1;stroke-dasharray:2.0,2.0;" x1="517.167" x2="1087.5947" y1="393.8906" y2="393.8906"/><text fill="#000000" font-family="sans-serif" font-size="11" font-weight="bold" lengthAdjust="spacing" textLength="134.9863" x="522.167" y="404.1011">[Topic does not exist]</text><g class="message" data-participant-1="TMFC019" data-participant-2="EventPublishingEnablementOperator"><polygon fill="#181818" points="674.6021,424.8281,664.6021,428.8281,674.6021,432.8281,670.6021,428.8281" style="stroke:#181818;stroke-width:1;"/><line style="stroke:#181818;stroke-width:1;stroke-dasharray:2.0,2.0;" x1="668.6021" x2="1016.6333" y1="428.8281" y2="428.8281"/><text fill="#000000" font-family="sans-serif" font-size="13" lengthAdjust="spacing" textLength="67.0693" x="680.6021" y="423.7622">Not Found</text></g><g class="message" data-participant-1="EventPublishingEnablementOperator" data-participant-2="EventPublishingEnablementOperator"><line style="stroke:#181818;stroke-width:1;" x1="663.6021" x2="705.6021" y1="457.9609" y2="457.9609"/><line style="stroke:#181818;stroke-width:1;" x1="705.6021" x2="705.6021" y1="457.9609" y2="470.9609"/><line style="stroke:#181818;stroke-width:1;" x1="664.6021" x2="705.6021" y1="470.9609" y2="470.9609"/><polygon fill="#181818" points="674.6021,466.9609,664.6021,470.9609,674.6021,474.9609,670.6021,470.9609" style="stroke:#181818;stroke-width:1;"/><text fill="#000000" font-family="sans-serif" font-size="13" lengthAdjust="spacing" textLength="340.0313" x="670.6021" y="452.895">(optional) approval flow to approve creation of topic</text></g><g class="message" data-participant-1="EventPublishingEnablementOperator" data-participant-2="TMFC019"><polygon fill="#181818" points="1005.6333,496.0938,1015.6333,500.0938,1005.6333,504.0938,1009.6333,500.0938" style="stroke:#181818;stroke-width:1;"/><line style="stroke:#181818;stroke-width:1;" x1="663.6021" x2="1011.6333" y1="500.0938" y2="500.0938"/><text fill="#000000" font-family="sans-serif" font-size="13" lengthAdjust="spacing" textLength="172.1738" x="670.6021" y="495.0278">configure Topic Event Hub</text></g><g class="message" data-participant-1="TMFC019" data-participant-2="EventPublishingEnablementOperator"><polygon fill="#181818" points="674.6021,525.2266,664.6021,529.2266,674.6021,533.2266,670.6021,529.2266" style="stroke:#181818;stroke-width:1;"/><line style="stroke:#181818;stroke-width:1;" x1="668.6021" x2="1016.6333" y1="529.2266" y2="529.2266"/><text fill="#000000" font-family="sans-serif" font-size="13" lengthAdjust="spacing" textLength="56.2339" x="680.6021" y="524.1606">Topic url</text></g><g class="message" data-participant-1="EventPublishingEnablementOperator" data-participant-2="Component"><polygon fill="#181818" points="152.6055,561.3594,142.6055,565.3594,152.6055,569.3594,148.6055,565.3594" style="stroke:#181818;stroke-width:1;"/><line style="stroke:#181818;stroke-width:1;" x1="146.6055" x2="662.6021" y1="565.3594" y2="565.3594"/><text fill="#000000" font-family="sans-serif" font-size="13" lengthAdjust="spacing" textLength="203.6582" x="158.6055" y="560.2935">configure event publishing URL</text></g><g class="message" data-participant-1="Component" data-participant-2="EventPublishingEnablementOperator"><polygon fill="#181818" points="651.6021,575.3594,661.6021,579.3594,651.6021,583.3594,655.6021,579.3594" style="stroke:#181818;stroke-width:1;"/><line style="stroke:#181818;stroke-width:1;stroke-dasharray:2.0,2.0;" x1="141.6055" x2="657.6021" y1="579.3594" y2="579.3594"/></g><g class="message" data-participant-1="EventPublishingEnablementOperator" data-participant-2="PublishedNotification"><polygon fill="#181818" points="451.1782,604.4922,441.1782,608.4922,451.1782,612.4922,447.1782,608.4922" style="stroke:#181818;stroke-width:1;"/><line style="stroke:#181818;stroke-width:1;" x1="445.1782" x2="662.6021" y1="608.4922" y2="608.4922"/><text fill="#000000" font-family="sans-serif" font-size="13" lengthAdjust="spacing" textLength="45.8047" x="457.1782" y="603.4263">update</text></g><g class="message" data-participant-1="PublishedNotification" data-participant-2="ComponentOperator"><polygon fill="#181818" points="285.2173,633.625,275.2173,637.625,285.2173,641.625,281.2173,637.625" style="stroke:#181818;stroke-width:1;"/><line style="stroke:#181818;stroke-width:1;" x1="279.2173" x2="439.1782" y1="637.625" y2="637.625"/><text fill="#000000" font-family="sans-serif" font-size="13" lengthAdjust="spacing" textLength="66.1299" x="291.2173" y="632.5591">on.update</text></g><g class="message" data-participant-1="ComponentOperator" data-participant-2="Component"><polygon fill="#181818" points="152.6055,669.7578,142.6055,673.7578,152.6055,677.7578,148.6055,673.7578" style="stroke:#181818;stroke-width:1;"/><line style="stroke:#181818;stroke-width:1;" x1="146.6055" x2="273.2173" y1="673.7578" y2="673.7578"/><text fill="#000000" font-family="sans-serif" font-size="13" lengthAdjust="spacing" textLength="45.8047" x="158.6055" y="668.6919">update</text></g><!--SRC=[bLH1Rjim43nBhrZar09rq1vh10K28q4FJLCKoGDeSYKJa4Y2f9BczzqbBPcEPLZnGO2fsT7ip7A5ZDR3eqClehOcr6YYZc-miRspXlxKJlYefNR2nCDfBh1-XFyPjfqEErI_RTIDbedigFJkXQ1xc3RjdH7R3lkIgaHV9JWy22DQz5SW0Zmzt6- -VljUr_Ma0cvMXNHOmxDhlL1O85O_JaMlmPhhmIaH4MfZwUbrkuirqE_H890XlVKutnG8UYEKGWNHGjmXoCagD0gOhswz7HpS4n4AkMCubuhkZ4_LYKJMFOjTW_H8mkkg45wnybi8I1PoK_F2FGOxU8cWmvv4vSfcr6dmzKojDljMgVbcC98Fl-JgW7BmF0E2kkzJO1mhd-U9gYPR63xFJ-rU790KMnREH93eBbOnzNvqrgH9UEgJ6-v5b5n1AJej4zUxKQXkypkGmW3-qo62RgXBIqxu8lM49Kz5HzhK6xX93NiMa7cdJaE6au341NQKwJokzgdapsRaaNUYY_2K92KvcUgo0pUhrS62N3_uBjDtf2yVAOk1FrLmVvYSCgMf7unQAcrPxf-io_VdCmZdl7sXczHqzfLlO3x0FD4yIhOf8gq-CX-qGAGrZMu7FvgIrz3FORlSwuBjdTSK9IMuV6mFMwmKXabICMJFVtyjvEIiDaTpEtyRgOa5gUGDccXEznTHdDbVq-xbTNcyosSszRYcw_y0]--></g></svg>