<svg xmlns="http://www.w3.org/2000/svg" xmlns:xlink="http://www.w3.org/1999/xlink" contentStyleType="text/css" data-diagram-type="SEQUENCE" height="957px" preserveAspectRatio="none" style="width:1887px;height:957px;background:#FFFFFF;" version="1.1" viewBox="0 0 1887 957" width="1887px" zoomAndPan="magnify"><defs/><g><rect fill="none" height="117.5313" style="stroke:#000000;stroke-width:1.5;" width="454.8369" x="87.9658" y="174.1563"/><rect fill="none" height="117.5313" style="stroke:#000000;stroke-width:1.5;" width="721.4146" x="87.9658" y="305.6875"/><rect fill="none" height="117.5313" style="stroke:#000000;stroke-width:1.5;" width="1793.9058" x="87.9658" y="738.4141"/><g><title>Operations</title><rect fill="#000000" fill-opacity="0.00000" height="787.0547" width="8" x="42.4829" y="85.8906"/><line style="stroke:#181818;stroke-width:0.5;stroke-dasharray:5.0,5.0;" x1="46" x2="46" y1="85.8906" y2="872.9453"/></g><g><title>Component</title><rect fill="#000000" fill-opacity="0.00000" height="787.0547" width="8" x="137.6055" y="85.8906"/><line style="stroke:#181818;stroke-width:0.5;stroke-dasharray:5.0,5.0;" x1="140.9658" x2="140.9658" y1="85.8906" y2="872.9453"/></g><g><title>Component</title><rect fill="#000000" fill-opacity="0.00000" height="787.0547" width="8" x="244.3569" y="85.8906"/><line style="stroke:#181818;stroke-width:0.5;stroke-dasharray:5.0,5.0;" x1="248.2451" x2="248.2451" y1="85.8906" y2="872.9453"/></g><g><title>Exposed</title><rect fill="#000000" fill-opacity="0.00000" height="787.0547" width="8" x="343.0386" y="85.8906"/><line style="stroke:#181818;stroke-width:0.5;stroke-dasharray:5.0,5.0;" x1="346.4688" x2="346.4688" y1="85.8906" y2="872.9453"/></g><g><title>API</title><rect fill="#000000" fill-opacity="0.00000" height="787.0547" width="8" x="441.7202" y="85.8906"/><line style="stroke:#181818;stroke-width:0.5;stroke-dasharray:5.0,5.0;" x1="445.6084" x2="445.6084" y1="85.8906" y2="872.9453"/></g><g><title>Published</title><rect fill="#000000" fill-opacity="0.00000" height="787.0547" width="8" x="547.9966" y="85.8906"/><line style="stroke:#181818;stroke-width:0.5;stroke-dasharray:5.0,5.0;" x1="551.832" x2="551.832" y1="85.8906" y2="872.9453"/></g><g><title>Event</title><rect fill="#000000" fill-opacity="0.00000" height="787.0547" width="8" x="654.2729" y="85.8906"/><line style="stroke:#181818;stroke-width:0.5;stroke-dasharray:5.0,5.0;" x1="658.1611" x2="658.1611" y1="85.8906" y2="872.9453"/></g><g><title>Identity</title><rect fill="#000000" fill-opacity="0.00000" height="787.0547" width="8" x="800.3804" y="85.8906"/><line style="stroke:#181818;stroke-width:0.5;stroke-dasharray:5.0,5.0;" x1="803.8105" x2="803.8105" y1="85.8906" y2="872.9453"/></g><g><title>Identity</title><rect fill="#000000" fill-opacity="0.00000" height="787.0547" width="8" x="899.062" y="85.8906"/><line style="stroke:#181818;stroke-width:0.5;stroke-dasharray:5.0,5.0;" x1="902.9502" x2="902.9502" y1="85.8906" y2="872.9453"/></g><g><title>Observability</title><rect fill="#000000" fill-opacity="0.00000" height="787.0547" width="8" x="1070.1094" y="85.8906"/><line style="stroke:#181818;stroke-width:0.5;stroke-dasharray:5.0,5.0;" x1="1073.7275" x2="1073.7275" y1="85.8906" y2="872.9453"/></g><g><title>Observability</title><rect fill="#000000" fill-opacity="0.00000" height="787.0547" width="8" x="1182.873" y="85.8906"/><line style="stroke:#181818;stroke-width:0.5;stroke-dasharray:5.0,5.0;" x1="1186.4912" x2="1186.4912" y1="85.8906" y2="872.9453"/></g><g><title>Secrets</title><rect fill="#000000" fill-opacity="0.00000" height="787.0547" width="8" x="1340.5269" y="85.8906"/><line style="stroke:#181818;stroke-width:0.5;stroke-dasharray:5.0,5.0;" x1="1343.957" x2="1343.957" y1="85.8906" y2="872.9453"/></g><g><title>Secrets</title><rect fill="#000000" fill-opacity="0.00000" height="787.0547" width="8" x="1439.2085" y="85.8906"/><line style="stroke:#181818;stroke-width:0.5;stroke-dasharray:5.0,5.0;" x1="1443.0967" x2="1443.0967" y1="85.8906" y2="872.9453"/></g><g><title>DependentAPI</title><rect fill="#000000" fill-opacity="0.00000" height="787.0547" width="8" x="1594.5962" y="85.8906"/><line style="stroke:#181818;stroke-width:0.5;stroke-dasharray:5.0,5.0;" x1="1597.7075" x2="1597.7075" y1="85.8906" y2="872.9453"/></g><g><title>Dependency</title><rect fill="#000000" fill-opacity="0.00000" height="787.0547" width="8" x="1710.5967" y="85.8906"/><line style="stroke:#181818;stroke-width:0.5;stroke-dasharray:5.0,5.0;" x1="1714.4849" x2="1714.4849" y1="85.8906" y2="872.9453"/></g><g class="participant participant-head" data-participant="Operations"><text fill="#000000" font-family="sans-serif" font-size="14" lengthAdjust="spacing" textLength="76.9658" x="5" y="82.5889">Operations</text><ellipse cx="46.4829" cy="18.0938" fill="#E2E2F0" rx="8" ry="8" style="stroke:#181818;stroke-width:0.5;"/><path d="M46.4829,26.0938 L46.4829,53.0938 M33.4829,34.0938 L59.4829,34.0938 M46.4829,53.0938 L33.4829,68.0938 M46.4829,53.0938 L59.4829,68.0938" fill="none" style="stroke:#181818;stroke-width:0.5;"/></g><g class="participant participant-tail" data-participant="Operations"><text fill="#000000" font-family="sans-serif" font-size="14" lengthAdjust="spacing" textLength="76.9658" x="5" y="884.9404">Operations</text><ellipse cx="46.4829" cy="896.7422" fill="#E2E2F0" rx="8" ry="8" style="stroke:#181818;stroke-width:0.5;"/><path d="M46.4829,904.7422 L46.4829,931.7422 M33.4829,912.7422 L59.4829,912.7422 M46.4829,931.7422 L33.4829,946.7422 M46.4829,931.7422 L59.4829,946.7422" fill="none" style="stroke:#181818;stroke-width:0.5;"/></g><g class="participant participant-head" data-participant="Component"><text fill="#000000" font-family="sans-serif" font-size="14" lengthAdjust="spacing" textLength="81.2793" x="97.9658" y="66.292">Component</text><text fill="#000000" font-family="sans-serif" font-size="14" lengthAdjust="spacing" textLength="65.1396" x="106.0356" y="82.5889">Resource</text><ellipse cx="141.6055" cy="37.2969" fill="#E2E2F0" rx="12" ry="12" style="stroke:#181818;stroke-width:0.5;"/><line style="stroke:#181818;stroke-width:0.5;" x1="129.6055" x2="153.6055" y1="51.2969" y2="51.2969"/></g><g class="participant participant-tail" data-participant="Component"><text fill="#000000" font-family="sans-serif" font-size="14" lengthAdjust="spacing" textLength="81.2793" x="97.9658" y="884.9404">Component</text><text fill="#000000" font-family="sans-serif" font-size="14" lengthAdjust="spacing" textLength="65.1396" x="106.0356" y="901.2373">Resource</text><ellipse cx="141.6055" cy="920.5391" fill="#E2E2F0" rx="12" ry="12" style="stroke:#181818;stroke-width:0.5;"/><line style="stroke:#181818;stroke-width:0.5;" x1="129.6055" x2="153.6055" y1="934.5391" y2="934.5391"/></g><g class="participant participant-head" data-participant="ComponentOperator"><rect fill="#E2E2F0" height="62.8906" rx="2.5" ry="2.5" style="stroke:#181818;stroke-width:0.5;" width="106.2236" x="195.2451" y="22"/><text fill="#000000" font-family="sans-serif" font-size="14" lengthAdjust="spacing" textLength="81.2793" x="207.7173" y="41.9951">Component</text><text fill="#000000" font-family="sans-serif" font-size="14" lengthAdjust="spacing" textLength="92.2236" x="202.2451" y="58.292">Management</text><text fill="#000000" font-family="sans-serif" font-size="14" lengthAdjust="spacing" textLength="62.665" x="217.0244" y="74.5889">Operator</text></g><g class="participant participant-tail" data-participant="ComponentOperator"><rect fill="#E2E2F0" height="62.8906" rx="2.5" ry="2.5" style="stroke:#181818;stroke-width:0.5;" width="106.2236" x="195.2451" y="871.9453"/><text fill="#000000" font-family="sans-serif" font-size="14" lengthAdjust="spacing" textLength="81.2793" x="207.7173" y="891.9404">Component</text><text fill="#000000" font-family="sans-serif" font-size="14" lengthAdjust="spacing" textLength="92.2236" x="202.2451" y="908.2373">Management</text><text fill="#000000" font-family="sans-serif" font-size="14" lengthAdjust="spacing" textLength="62.665" x="217.0244" y="924.5342">Operator</text></g><g class="participant participant-head" data-participant="ExposedAPI"><text fill="#000000" font-family="sans-serif" font-size="14" lengthAdjust="spacing" textLength="59.377" x="314.3501" y="49.9951">Exposed</text><text fill="#000000" font-family="sans-serif" font-size="14" lengthAdjust="spacing" textLength="22.1484" x="332.9644" y="66.292">API</text><text fill="#000000" font-family="sans-serif" font-size="14" lengthAdjust="spacing" textLength="65.1396" x="311.4688" y="82.5889">Resource</text><ellipse cx="347.0386" cy="21" fill="#E2E2F0" rx="12" ry="12" style="stroke:#181818;stroke-width:0.5;"/><line style="stroke:#181818;stroke-width:0.5;" x1="335.0386" x2="359.0386" y1="35" y2="35"/></g><g class="participant participant-tail" data-participant="ExposedAPI"><text fill="#000000" font-family="sans-serif" font-size="14" lengthAdjust="spacing" textLength="59.377" x="314.3501" y="884.9404">Exposed</text><text fill="#000000" font-family="sans-serif" font-size="14" lengthAdjust="spacing" textLength="22.1484" x="332.9644" y="901.2373">API</text><text fill="#000000" font-family="sans-serif" font-size="14" lengthAdjust="spacing" textLength="65.1396" x="311.4688" y="917.5342">Resource</text><ellipse cx="347.0386" cy="936.8359" fill="#E2E2F0" rx="12" ry="12" style="stroke:#181818;stroke-width:0.5;"/><line style="stroke:#181818;stroke-width:0.5;" x1="335.0386" x2="359.0386" y1="950.8359" y2="950.8359"/></g><g class="participant participant-head" data-participant="APIExposureOperator"><rect fill="#E2E2F0" height="62.8906" rx="2.5" ry="2.5" style="stroke:#181818;stroke-width:0.5;" width="106.2236" x="392.6084" y="22"/><text fill="#000000" font-family="sans-serif" font-size="14" lengthAdjust="spacing" textLength="22.1484" x="434.646" y="41.9951">API</text><text fill="#000000" font-family="sans-serif" font-size="14" lengthAdjust="spacing" textLength="92.2236" x="399.6084" y="58.292">Management</text><text fill="#000000" font-family="sans-serif" font-size="14" lengthAdjust="spacing" textLength="62.665" x="414.3877" y="74.5889">Operator</text></g><g class="participant participant-tail" data-participant="APIExposureOperator"><rect fill="#E2E2F0" height="62.8906" rx="2.5" ry="2.5" style="stroke:#181818;stroke-width:0.5;" width="106.2236" x="392.6084" y="871.9453"/><text fill="#000000" font-family="sans-serif" font-size="14" lengthAdjust="spacing" textLength="22.1484" x="434.646" y="891.9404">API</text><text fill="#000000" font-family="sans-serif" font-size="14" lengthAdjust="spacing" textLength="92.2236" x="399.6084" y="908.2373">Management</text><text fill="#000000" font-family="sans-serif" font-size="14" lengthAdjust="spacing" textLength="62.665" x="414.3877" y="924.5342">Operator</text></g><g class="participant participant-head" data-participant="PublishedNotification"><text fill="#000000" font-family="sans-serif" font-size="14" lengthAdjust="spacing" textLength="67.6484" x="515.1724" y="49.9951">Published</text><text fill="#000000" font-family="sans-serif" font-size="14" lengthAdjust="spacing" textLength="80.3291" x="508.832" y="66.292">Notification</text><text fill="#000000" font-family="sans-serif" font-size="14" lengthAdjust="spacing" textLength="65.1396" x="516.4268" y="82.5889">Resource</text><ellipse cx="551.9966" cy="21" fill="#E2E2F0" rx="12" ry="12" style="stroke:#181818;stroke-width:0.5;"/><line style="stroke:#181818;stroke-width:0.5;" x1="539.9966" x2="563.9966" y1="35" y2="35"/></g><g class="participant participant-tail" data-participant="PublishedNotification"><text fill="#000000" font-family="sans-serif" font-size="14" lengthAdjust="spacing" textLength="67.6484" x="515.1724" y="884.9404">Published</text><text fill="#000000" font-family="sans-serif" font-size="14" lengthAdjust="spacing" textLength="80.3291" x="508.832" y="901.2373">Notification</text><text fill="#000000" font-family="sans-serif" font-size="14" lengthAdjust="spacing" textLength="65.1396" x="516.4268" y="917.5342">Resource</text><ellipse cx="551.9966" cy="936.8359" fill="#E2E2F0" rx="12" ry="12" style="stroke:#181818;stroke-width:0.5;"/><line style="stroke:#181818;stroke-width:0.5;" x1="539.9966" x2="563.9966" y1="950.8359" y2="950.8359"/></g><g class="participant participant-head" data-participant="EventOperator"><rect fill="#E2E2F0" height="62.8906" rx="2.5" ry="2.5" style="stroke:#181818;stroke-width:0.5;" width="106.2236" x="605.1611" y="22"/><text fill="#000000" font-family="sans-serif" font-size="14" lengthAdjust="spacing" textLength="40.1064" x="638.2197" y="41.9951">Event</text><text fill="#000000" font-family="sans-serif" font-size="14" lengthAdjust="spacing" textLength="92.2236" x="612.1611" y="58.292">Management</text><text fill="#000000" font-family="sans-serif" font-size="14" lengthAdjust="spacing" textLength="62.665" x="626.9404" y="74.5889">Operator</text></g><g class="participant participant-tail" data-participant="EventOperator"><rect fill="#E2E2F0" height="62.8906" rx="2.5" ry="2.5" style="stroke:#181818;stroke-width:0.5;" width="106.2236" x="605.1611" y="871.9453"/><text fill="#000000" font-family="sans-serif" font-size="14" lengthAdjust="spacing" textLength="40.1064" x="638.2197" y="891.9404">Event</text><text fill="#000000" font-family="sans-serif" font-size="14" lengthAdjust="spacing" textLength="92.2236" x="612.1611" y="908.2373">Management</text><text fill="#000000" font-family="sans-serif" font-size="14" lengthAdjust="spacing" textLength="62.665" x="626.9404" y="924.5342">Operator</text></g><g class="participant participant-head" data-participant="Identity"><text fill="#000000" font-family="sans-serif" font-size="14" lengthAdjust="spacing" textLength="53.6553" x="774.5527" y="66.292">Identity</text><text fill="#000000" font-family="sans-serif" font-size="14" lengthAdjust="spacing" textLength="65.1396" x="768.8105" y="82.5889">Resource</text><ellipse cx="804.3804" cy="37.2969" fill="#E2E2F0" rx="12" ry="12" style="stroke:#181818;stroke-width:0.5;"/><line style="stroke:#181818;stroke-width:0.5;" x1="792.3804" x2="816.3804" y1="51.2969" y2="51.2969"/></g><g class="participant participant-tail" data-participant="Identity"><text fill="#000000" font-family="sans-serif" font-size="14" lengthAdjust="spacing" textLength="53.6553" x="774.5527" y="884.9404">Identity</text><text fill="#000000" font-family="sans-serif" font-size="14" lengthAdjust="spacing" textLength="65.1396" x="768.8105" y="901.2373">Resource</text><ellipse cx="804.3804" cy="920.5391" fill="#E2E2F0" rx="12" ry="12" style="stroke:#181818;stroke-width:0.5;"/><line style="stroke:#181818;stroke-width:0.5;" x1="792.3804" x2="816.3804" y1="934.5391" y2="934.5391"/></g><g class="participant participant-head" data-participant="IdentityOperator"><rect fill="#E2E2F0" height="62.8906" rx="2.5" ry="2.5" style="stroke:#181818;stroke-width:0.5;" width="106.2236" x="849.9502" y="22"/><text fill="#000000" font-family="sans-serif" font-size="14" lengthAdjust="spacing" textLength="53.6553" x="876.2344" y="41.9951">Identity</text><text fill="#000000" font-family="sans-serif" font-size="14" lengthAdjust="spacing" textLength="92.2236" x="856.9502" y="58.292">Management</text><text fill="#000000" font-family="sans-serif" font-size="14" lengthAdjust="spacing" textLength="62.665" x="871.7295" y="74.5889">Operator</text></g><g class="participant participant-tail" data-participant="IdentityOperator"><rect fill="#E2E2F0" height="62.8906" rx="2.5" ry="2.5" style="stroke:#181818;stroke-width:0.5;" width="106.2236" x="849.9502" y="871.9453"/><text fill="#000000" font-family="sans-serif" font-size="14" lengthAdjust="spacing" textLength="53.6553" x="876.2344" y="891.9404">Identity</text><text fill="#000000" font-family="sans-serif" font-size="14" lengthAdjust="spacing" textLength="92.2236" x="856.9502" y="908.2373">Management</text><text fill="#000000" font-family="sans-serif" font-size="14" lengthAdjust="spacing" textLength="62.665" x="871.7295" y="924.5342">Operator</text></g><g class="participant participant-head" data-participant="Observability"><text fill="#000000" font-family="sans-serif" font-size="14" lengthAdjust="spacing" textLength="92.7637" x="1024.7275" y="66.292">Observability</text><text fill="#000000" font-family="sans-serif" font-size="14" lengthAdjust="spacing" textLength="65.1396" x="1038.5396" y="82.5889">Resource</text><ellipse cx="1074.1094" cy="37.2969" fill="#E2E2F0" rx="12" ry="12" style="stroke:#181818;stroke-width:0.5;"/><line style="stroke:#181818;stroke-width:0.5;" x1="1062.1094" x2="1086.1094" y1="51.2969" y2="51.2969"/></g><g class="participant participant-tail" data-participant="Observability"><text fill="#000000" font-family="sans-serif" font-size="14" lengthAdjust="spacing" textLength="92.7637" x="1024.7275" y="884.9404">Observability</text><text fill="#000000" font-family="sans-serif" font-size="14" lengthAdjust="spacing" textLength="65.1396" x="1038.5396" y="901.2373">Resource</text><ellipse cx="1074.1094" cy="920.5391" fill="#E2E2F0" rx="12" ry="12" style="stroke:#181818;stroke-width:0.5;"/><line style="stroke:#181818;stroke-width:0.5;" x1="1062.1094" x2="1086.1094" y1="934.5391" y2="934.5391"/></g><g class="participant participant-head" data-participant="ObservabilityOperator"><rect fill="#E2E2F0" height="62.8906" rx="2.5" ry="2.5" style="stroke:#181818;stroke-width:0.5;" width="106.7637" x="1133.4912" y="22"/><text fill="#000000" font-family="sans-serif" font-size="14" lengthAdjust="spacing" textLength="92.7637" x="1140.4912" y="41.9951">Observability</text><text fill="#000000" font-family="sans-serif" font-size="14" lengthAdjust="spacing" textLength="92.2236" x="1140.7612" y="58.292">Management</text><text fill="#000000" font-family="sans-serif" font-size="14" lengthAdjust="spacing" textLength="62.665" x="1155.5405" y="74.5889">Operator</text></g><g class="participant participant-tail" data-participant="ObservabilityOperator"><rect fill="#E2E2F0" height="62.8906" rx="2.5" ry="2.5" style="stroke:#181818;stroke-width:0.5;" width="106.7637" x="1133.4912" y="871.9453"/><text fill="#000000" font-family="sans-serif" font-size="14" lengthAdjust="spacing" textLength="92.7637" x="1140.4912" y="891.9404">Observability</text><text fill="#000000" font-family="sans-serif" font-size="14" lengthAdjust="spacing" textLength="92.2236" x="1140.7612" y="908.2373">Management</text><text fill="#000000" font-family="sans-serif" font-size="14" lengthAdjust="spacing" textLength="62.665" x="1155.5405" y="924.5342">Operator</text></g><g class="participant participant-head" data-participant="Secrets"><text fill="#000000" font-family="sans-serif" font-size="14" lengthAdjust="spacing" textLength="52.3496" x="1315.3521" y="66.292">Secrets</text><text fill="#000000" font-family="sans-serif" font-size="14" lengthAdjust="spacing" textLength="65.1396" x="1308.957" y="82.5889">Resource</text><ellipse cx="1344.5269" cy="37.2969" fill="#E2E2F0" rx="12" ry="12" style="stroke:#181818;stroke-width:0.5;"/><line style="stroke:#181818;stroke-width:0.5;" x1="1332.5269" x2="1356.5269" y1="51.2969" y2="51.2969"/></g><g class="participant participant-tail" data-participant="Secrets"><text fill="#000000" font-family="sans-serif" font-size="14" lengthAdjust="spacing" textLength="52.3496" x="1315.3521" y="884.9404">Secrets</text><text fill="#000000" font-family="sans-serif" font-size="14" lengthAdjust="spacing" textLength="65.1396" x="1308.957" y="901.2373">Resource</text><ellipse cx="1344.5269" cy="920.5391" fill="#E2E2F0" rx="12" ry="12" style="stroke:#181818;stroke-width:0.5;"/><line style="stroke:#181818;stroke-width:0.5;" x1="1332.5269" x2="1356.5269" y1="934.5391" y2="934.5391"/></g><g class="participant participant-head" data-participant="SecretsOperator"><rect fill="#E2E2F0" height="62.8906" rx="2.5" ry="2.5" style="stroke:#181818;stroke-width:0.5;" width="106.2236" x="1390.0967" y="22"/><text fill="#000000" font-family="sans-serif" font-size="14" lengthAdjust="spacing" textLength="52.3496" x="1417.0337" y="41.9951">Secrets</text><text fill="#000000" font-family="sans-serif" font-size="14" lengthAdjust="spacing" textLength="92.2236" x="1397.0967" y="58.292">Management</text><text fill="#000000" font-family="sans-serif" font-size="14" lengthAdjust="spacing" textLength="62.665" x="1411.876" y="74.5889">Operator</text></g><g class="participant participant-tail" data-participant="SecretsOperator"><rect fill="#E2E2F0" height="62.8906" rx="2.5" ry="2.5" style="stroke:#181818;stroke-width:0.5;" width="106.2236" x="1390.0967" y="871.9453"/><text fill="#000000" font-family="sans-serif" font-size="14" lengthAdjust="spacing" textLength="52.3496" x="1417.0337" y="891.9404">Secrets</text><text fill="#000000" font-family="sans-serif" font-size="14" lengthAdjust="spacing" textLength="92.2236" x="1397.0967" y="908.2373">Management</text><text fill="#000000" font-family="sans-serif" font-size="14" lengthAdjust="spacing" textLength="62.665" x="1411.876" y="924.5342">Operator</text></g><g class="participant participant-head" data-participant="DependentAPI"><text fill="#000000" font-family="sans-serif" font-size="14" lengthAdjust="spacing" textLength="99.7773" x="1545.7075" y="66.292">DependentAPI</text><text fill="#000000" font-family="sans-serif" font-size="14" lengthAdjust="spacing" textLength="65.1396" x="1563.0264" y="82.5889">Resource</text><ellipse cx="1598.5962" cy="37.2969" fill="#E2E2F0" rx="12" ry="12" style="stroke:#181818;stroke-width:0.5;"/><line style="stroke:#181818;stroke-width:0.5;" x1="1586.5962" x2="1610.5962" y1="51.2969" y2="51.2969"/></g><g class="participant participant-tail" data-participant="DependentAPI"><text fill="#000000" font-family="sans-serif" font-size="14" lengthAdjust="spacing" textLength="99.7773" x="1545.7075" y="884.9404">DependentAPI</text><text fill="#000000" font-family="sans-serif" font-size="14" lengthAdjust="spacing" textLength="65.1396" x="1563.0264" y="901.2373">Resource</text><ellipse cx="1598.5962" cy="920.5391" fill="#E2E2F0" rx="12" ry="12" style="stroke:#181818;stroke-width:0.5;"/><line style="stroke:#181818;stroke-width:0.5;" x1="1586.5962" x2="1610.5962" y1="934.5391" y2="934.5391"/></g><g class="participant participant-head" data-participant="DependencyOperator"><rect fill="#E2E2F0" height="62.8906" rx="2.5" ry="2.5" style="stroke:#181818;stroke-width:0.5;" width="106.2236" x="1661.4849" y="22"/><text fill="#000000" font-family="sans-serif" font-size="14" lengthAdjust="spacing" textLength="88.1221" x="1670.5356" y="41.9951">Dependency</text><text fill="#000000" font-family="sans-serif" font-size="14" lengthAdjust="spacing" textLength="92.2236" x="1668.4849" y="58.292">Management</text><text fill="#000000" font-family="sans-serif" font-size="14" lengthAdjust="spacing" textLength="62.665" x="1683.2642" y="74.5889">Operator</text></g><g class="participant participant-tail" data-participant="DependencyOperator"><rect fill="#E2E2F0" height="62.8906" rx="2.5" ry="2.5" style="stroke:#181818;stroke-width:0.5;" width="106.2236" x="1661.4849" y="871.9453"/><text fill="#000000" font-family="sans-serif" font-size="14" lengthAdjust="spacing" textLength="88.1221" x="1670.5356" y="891.9404">Dependency</text><text fill="#000000" font-family="sans-serif" font-size="14" lengthAdjust="spacing" textLength="92.2236" x="1668.4849" y="908.2373">Management</text><text fill="#000000" font-family="sans-serif" font-size="14" lengthAdjust="spacing" textLength="62.665" x="1683.2642" y="924.5342">Operator</text></g><g class="message" data-participant-1="Operations" data-participant-2="Component"><polygon fill="#181818" points="129.6055,113.0234,139.6055,117.0234,129.6055,121.0234,133.6055,117.0234" style="stroke:#181818;stroke-width:1;"/><line style="stroke:#181818;stroke-width:1;" x1="46.4829" x2="135.6055" y1="117.0234" y2="117.0234"/><text fill="#000000" font-family="sans-serif" font-size="13" lengthAdjust="spacing" textLength="56.6655" x="53.4829" y="111.9575">Uninstall</text></g><g class="message" data-participant-1="Component" data-participant-2="Component"><line style="stroke:#181818;stroke-width:1;" x1="141.6055" x2="183.6055" y1="146.1563" y2="146.1563"/><line style="stroke:#181818;stroke-width:1;" x1="183.6055" x2="183.6055" y1="146.1563" y2="159.1563"/><line style="stroke:#181818;stroke-width:1;" x1="142.6055" x2="183.6055" y1="159.1563" y2="159.1563"/><polygon fill="#181818" points="152.6055,155.1563,142.6055,159.1563,152.6055,163.1563,148.6055,159.1563" style="stroke:#181818;stroke-width:1;"/><text fill="#000000" font-family="sans-serif" font-size="13" lengthAdjust="spacing" textLength="61.2803" x="148.6055" y="141.0903">on.delete</text></g><path d="M221.2803,133.5234 L221.2803,158.5234 L493.2803,158.5234 L493.2803,143.5234 L483.2803,133.5234 L221.2803,133.5234" fill="#FEFFDD" style="stroke:#181818;stroke-width:0.5;"/><path d="M483.2803,133.5234 L483.2803,143.5234 L493.2803,143.5234 L483.2803,133.5234" fill="#FEFFDD" style="stroke:#181818;stroke-width:0.5;"/><text fill="#000000" font-family="sans-serif" font-size="13" lengthAdjust="spacing" textLength="251.0562" x="227.2803" y="150.5903">Cascading delete of all child resources</text><path d="M87.9658,174.1563 L291.0415,174.1563 L291.0415,181.2891 L281.0415,191.2891 L87.9658,191.2891 L87.9658,174.1563" fill="#EEEEEE" style="stroke:#000000;stroke-width:1.5;"/><rect fill="none" height="117.5313" style="stroke:#000000;stroke-width:1.5;" width="454.8369" x="87.9658" y="174.1563"/><text fill="#000000" font-family="sans-serif" font-size="13" font-weight="bold" lengthAdjust="spacing" textLength="158.0757" x="102.9658" y="187.2231">For each exposed API</text><g class="message" data-participant-1="Component" data-participant-2="ExposedAPI"><polygon fill="#181818" points="335.0386,208.4219,345.0386,212.4219,335.0386,216.4219,339.0386,212.4219" style="stroke:#181818;stroke-width:1;"/><line style="stroke:#181818;stroke-width:1;" x1="141.6055" x2="341.0386" y1="212.4219" y2="212.4219"/><text fill="#000000" font-family="sans-serif" font-size="13" lengthAdjust="spacing" textLength="40.9551" x="148.6055" y="207.356">delete</text></g><g class="message" data-participant-1="ExposedAPI" data-participant-2="APIExposureOperator"><polygon fill="#181818" points="433.7202,237.5547,443.7202,241.5547,433.7202,245.5547,437.7202,241.5547" style="stroke:#181818;stroke-width:1;"/><line style="stroke:#181818;stroke-width:1;" x1="347.0386" x2="439.7202" y1="241.5547" y2="241.5547"/><text fill="#000000" font-family="sans-serif" font-size="13" lengthAdjust="spacing" textLength="61.2803" x="354.0386" y="236.4888">on.delete</text></g><g class="message" data-participant-1="APIExposureOperator" data-participant-2="APIExposureOperator"><line style="stroke:#181818;stroke-width:1;" x1="445.7202" x2="487.7202" y1="270.6875" y2="270.6875"/><line style="stroke:#181818;stroke-width:1;" x1="487.7202" x2="487.7202" y1="270.6875" y2="283.6875"/><line style="stroke:#181818;stroke-width:1;" x1="446.7202" x2="487.7202" y1="283.6875" y2="283.6875"/><polygon fill="#181818" points="456.7202,279.6875,446.7202,283.6875,456.7202,287.6875,452.7202,283.6875" style="stroke:#181818;stroke-width:1;"/><text fill="#000000" font-family="sans-serif" font-size="13" lengthAdjust="spacing" textLength="78.0825" x="452.7202" y="265.6216">Cleanup API</text></g><path d="M87.9658,305.6875 L363.3604,305.6875 L363.3604,312.8203 L353.3604,322.8203 L87.9658,322.8203 L87.9658,305.6875" fill="#EEEEEE" style="stroke:#000000;stroke-width:1.5;"/><rect fill="none" height="117.5313" style="stroke:#000000;stroke-width:1.5;" width="721.4146" x="87.9658" y="305.6875"/><text fill="#000000" font-family="sans-serif" font-size="13" font-weight="bold" lengthAdjust="spacing" textLength="230.3945" x="102.9658" y="318.7544">For each Published Notification</text><g class="message" data-participant-1="Component" data-participant-2="PublishedNotification"><polygon fill="#181818" points="539.9966,339.9531,549.9966,343.9531,539.9966,347.9531,543.9966,343.9531" style="stroke:#181818;stroke-width:1;"/><line style="stroke:#181818;stroke-width:1;" x1="141.6055" x2="545.9966" y1="343.9531" y2="343.9531"/><text fill="#000000" font-family="sans-serif" font-size="13" lengthAdjust="spacing" textLength="40.9551" x="148.6055" y="338.8872">delete</text></g><g class="message" data-participant-1="PublishedNotification" data-participant-2="EventOperator"><polygon fill="#181818" points="646.2729,369.0859,656.2729,373.0859,646.2729,377.0859,650.2729,373.0859" style="stroke:#181818;stroke-width:1;"/><line style="stroke:#181818;stroke-width:1;" x1="551.9966" x2="652.2729" y1="373.0859" y2="373.0859"/><text fill="#000000" font-family="sans-serif" font-size="13" lengthAdjust="spacing" textLength="61.2803" x="558.9966" y="368.02">on.delete</text></g><g class="message" data-participant-1="EventOperator" data-participant-2="EventOperator"><line style="stroke:#181818;stroke-width:1;" x1="658.2729" x2="700.2729" y1="402.2188" y2="402.2188"/><line style="stroke:#181818;stroke-width:1;" x1="700.2729" x2="700.2729" y1="402.2188" y2="415.2188"/><line style="stroke:#181818;stroke-width:1;" x1="659.2729" x2="700.2729" y1="415.2188" y2="415.2188"/><polygon fill="#181818" points="669.2729,411.2188,659.2729,415.2188,669.2729,419.2188,665.2729,415.2188" style="stroke:#181818;stroke-width:1;"/><text fill="#000000" font-family="sans-serif" font-size="13" lengthAdjust="spacing" textLength="132.1074" x="665.2729" y="397.1528">Cleanup Notification</text></g><g class="message" data-participant-1="Component" data-participant-2="Identity"><polygon fill="#181818" points="792.3804,447.3516,802.3804,451.3516,792.3804,455.3516,796.3804,451.3516" style="stroke:#181818;stroke-width:1;"/><line style="stroke:#181818;stroke-width:1;" x1="141.6055" x2="798.3804" y1="451.3516" y2="451.3516"/><text fill="#000000" font-family="sans-serif" font-size="13" lengthAdjust="spacing" textLength="40.9551" x="148.6055" y="446.2856">delete</text></g><g class="message" data-participant-1="Identity" data-participant-2="IdentityOperator"><polygon fill="#181818" points="891.062,476.4844,901.062,480.4844,891.062,484.4844,895.062,480.4844" style="stroke:#181818;stroke-width:1;"/><line style="stroke:#181818;stroke-width:1;" x1="804.3804" x2="897.062" y1="480.4844" y2="480.4844"/><text fill="#000000" font-family="sans-serif" font-size="13" lengthAdjust="spacing" textLength="61.2803" x="811.3804" y="475.4185">on.delete</text></g><g class="message" data-participant-1="IdentityOperator" data-participant-2="IdentityOperator"><line style="stroke:#181818;stroke-width:1;" x1="903.062" x2="945.062" y1="509.6172" y2="509.6172"/><line style="stroke:#181818;stroke-width:1;" x1="945.062" x2="945.062" y1="509.6172" y2="522.6172"/><line style="stroke:#181818;stroke-width:1;" x1="904.062" x2="945.062" y1="522.6172" y2="522.6172"/><polygon fill="#181818" points="914.062,518.6172,904.062,522.6172,914.062,526.6172,910.062,522.6172" style="stroke:#181818;stroke-width:1;"/><text fill="#000000" font-family="sans-serif" font-size="13" lengthAdjust="spacing" textLength="157.0474" x="910.062" y="504.5513">Cleanup roles and users</text></g><g class="message" data-participant-1="Component" data-participant-2="Observability"><polygon fill="#181818" points="1062.1094,547.75,1072.1094,551.75,1062.1094,555.75,1066.1094,551.75" style="stroke:#181818;stroke-width:1;"/><line style="stroke:#181818;stroke-width:1;" x1="141.6055" x2="1068.1094" y1="551.75" y2="551.75"/><text fill="#000000" font-family="sans-serif" font-size="13" lengthAdjust="spacing" textLength="40.9551" x="148.6055" y="546.6841">delete</text></g><g class="message" data-participant-1="Observability" data-participant-2="ObservabilityOperator"><polygon fill="#181818" points="1174.873,576.8828,1184.873,580.8828,1174.873,584.8828,1178.873,580.8828" style="stroke:#181818;stroke-width:1;"/><line style="stroke:#181818;stroke-width:1;" x1="1074.1094" x2="1180.873" y1="580.8828" y2="580.8828"/><text fill="#000000" font-family="sans-serif" font-size="13" lengthAdjust="spacing" textLength="61.2803" x="1081.1094" y="575.8169">on.delete</text></g><g class="message" data-participant-1="ObservabilityOperator" data-participant-2="ObservabilityOperator"><line style="stroke:#181818;stroke-width:1;" x1="1186.873" x2="1228.873" y1="610.0156" y2="610.0156"/><line style="stroke:#181818;stroke-width:1;" x1="1228.873" x2="1228.873" y1="610.0156" y2="623.0156"/><line style="stroke:#181818;stroke-width:1;" x1="1187.873" x2="1228.873" y1="623.0156" y2="623.0156"/><polygon fill="#181818" points="1197.873,619.0156,1187.873,623.0156,1197.873,627.0156,1193.873,623.0156" style="stroke:#181818;stroke-width:1;"/><text fill="#000000" font-family="sans-serif" font-size="13" lengthAdjust="spacing" textLength="143.6538" x="1193.873" y="604.9497">Cleanup Observability</text></g><g class="message" data-participant-1="Component" data-participant-2="Secrets"><polygon fill="#181818" points="1332.5269,648.1484,1342.5269,652.1484,1332.5269,656.1484,1336.5269,652.1484" style="stroke:#181818;stroke-width:1;"/><line style="stroke:#181818;stroke-width:1;" x1="141.6055" x2="1338.5269" y1="652.1484" y2="652.1484"/><text fill="#000000" font-family="sans-serif" font-size="13" lengthAdjust="spacing" textLength="40.9551" x="148.6055" y="647.0825">delete</text></g><g class="message" data-participant-1="Secrets" data-participant-2="SecretsOperator"><polygon fill="#181818" points="1431.2085,677.2813,1441.2085,681.2813,1431.2085,685.2813,1435.2085,681.2813" style="stroke:#181818;stroke-width:1;"/><line style="stroke:#181818;stroke-width:1;" x1="1344.5269" x2="1437.2085" y1="681.2813" y2="681.2813"/><text fill="#000000" font-family="sans-serif" font-size="13" lengthAdjust="spacing" textLength="61.2803" x="1351.5269" y="676.2153">on.delete</text></g><g class="message" data-participant-1="SecretsOperator" data-participant-2="SecretsOperator"><line style="stroke:#181818;stroke-width:1;" x1="1443.2085" x2="1485.2085" y1="710.4141" y2="710.4141"/><line style="stroke:#181818;stroke-width:1;" x1="1485.2085" x2="1485.2085" y1="710.4141" y2="723.4141"/><line style="stroke:#181818;stroke-width:1;" x1="1444.2085" x2="1485.2085" y1="723.4141" y2="723.4141"/><polygon fill="#181818" points="1454.2085,719.4141,1444.2085,723.4141,1454.2085,727.4141,1450.2085,723.4141" style="stroke:#181818;stroke-width:1;"/><text fill="#000000" font-family="sans-serif" font-size="13" lengthAdjust="spacing" textLength="141.3877" x="1450.2085" y="705.3481">Cleanup secrets vault</text></g><path d="M87.9658,738.4141 L308.834,738.4141 L308.834,745.5469 L298.834,755.5469 L87.9658,755.5469 L87.9658,738.4141" fill="#EEEEEE" style="stroke:#000000;stroke-width:1.5;"/><rect fill="none" height="117.5313" style="stroke:#000000;stroke-width:1.5;" width="1793.9058" x="87.9658" y="738.4141"/><text fill="#000000" font-family="sans-serif" font-size="13" font-weight="bold" lengthAdjust="spacing" textLength="175.8682" x="102.9658" y="751.481">For each dependent API</text><g class="message" data-participant-1="Component" data-participant-2="DependentAPI"><polygon fill="#181818" points="1586.5962,772.6797,1596.5962,776.6797,1586.5962,780.6797,1590.5962,776.6797" style="stroke:#181818;stroke-width:1;"/><line style="stroke:#181818;stroke-width:1;" x1="141.6055" x2="1592.5962" y1="776.6797" y2="776.6797"/><text fill="#000000" font-family="sans-serif" font-size="13" lengthAdjust="spacing" textLength="40.9551" x="148.6055" y="771.6138">delete</text></g><g class="message" data-participant-1="DependentAPI" data-participant-2="DependencyOperator"><polygon fill="#181818" points="1702.5967,801.8125,1712.5967,805.8125,1702.5967,809.8125,1706.5967,805.8125" style="stroke:#181818;stroke-width:1;"/><line style="stroke:#181818;stroke-width:1;" x1="1598.5962" x2="1708.5967" y1="805.8125" y2="805.8125"/><text fill="#000000" font-family="sans-serif" font-size="13" lengthAdjust="spacing" textLength="61.2803" x="1605.5962" y="800.7466">on.delete</text></g><g class="message" data-participant-1="DependencyOperator" data-participant-2="DependencyOperator"><line style="stroke:#181818;stroke-width:1;" x1="1714.5967" x2="1756.5967" y1="834.9453" y2="834.9453"/><line style="stroke:#181818;stroke-width:1;" x1="1756.5967" x2="1756.5967" y1="834.9453" y2="847.9453"/><line style="stroke:#181818;stroke-width:1;" x1="1715.5967" x2="1756.5967" y1="847.9453" y2="847.9453"/><polygon fill="#181818" points="1725.5967,843.9453,1715.5967,847.9453,1725.5967,851.9453,1721.5967,847.9453" style="stroke:#181818;stroke-width:1;"/><text fill="#000000" font-family="sans-serif" font-size="13" lengthAdjust="spacing" textLength="148.2749" x="1721.5967" y="829.8794">Cleanup dependencies</text></g><!--SRC=[VLJ1RkCW4BtxAqQzfnyGhLQgigtKmxRLLhtrGl0qGQ9W0OwQlr-m3MO09oTxtfjvRvHvPjnf0wy36kQ4LhP3vOIxmjr1VmzQ-RTFzG-j7Wt7Es0MKhqRc762Yu4fH-X_cM8d_9wUvy7QqDPOJMAFFuEss7-gXxVdGc-1F4059-Qcb4Udnj5W9VOs7gMmvo3teftu4dnQlT1Dh9n3BJnURkyxuPNySpy_5NgnJ2LMygPAf5H2hqUBviAEGjPg1AEIHTkcBk5Luk_83JfRo2vLAfYecr8BenBvWmEgi7vzDZb4vIB2Rostaf9erwNxXL-xB3AmXmybb7LCoeop-xqU_1wqkkzHeiDEQOTWnEdiEl2_0xESzKATOCP1Vu4V1FmiP0zcsIdaieVGsfsC7WTuygb5ni-0Spx2nS_pSWDhUFRB-8cpbWEfaPNSRsXeK3Ox3nAPyWw38M-wz9jo1IHObVLc_iWMJSQqTPwxSXK2DjZHFd4NzY3kOkYIeLZ8mPQ54clpemcZ9LfW_gyVVTWizK02c8oGQaLhMMeIRdH6S_GRGgmjWKscblSCQXafe2OxYjjbueMDqfKtriVmjrEHVnl8HUL0JkJNhMkg6LjzqNZqniKSwku_]--></g></svg>