<svg xmlns="http://www.w3.org/2000/svg" xmlns:xlink="http://www.w3.org/1999/xlink" contentStyleType="text/css" data-diagram-type="SEQUENCE" height="370px" preserveAspectRatio="none" style="width:1042px;height:370px;background:#FFFFFF;" version="1.1" viewBox="0 0 1042 370" width="1042px" zoomAndPan="magnify"><defs/><g><g><title>Operations</title><rect fill="#000000" fill-opacity="0.00000" height="207.9297" width="8" x="42.4829" y="81.2969"/><line style="stroke:#181818;stroke-width:0.5;stroke-dasharray:5.0,5.0;" x1="46" x2="46" y1="81.2969" y2="289.2266"/></g><g><title>Component</title><rect fill="#000000" fill-opacity="0.00000" height="207.9297" width="8" x="137.6055" y="81.2969"/><line style="stroke:#181818;stroke-width:0.5;stroke-dasharray:5.0,5.0;" x1="140.9658" x2="140.9658" y1="81.2969" y2="289.2266"/></g><g><title>ConversionService</title><rect fill="#000000" fill-opacity="0.00000" height="207.9297" width="8" x="263.3608" y="81.2969"/><line style="stroke:#181818;stroke-width:0.5;stroke-dasharray:5.0,5.0;" x1="267.2451" x2="267.2451" y1="81.2969" y2="289.2266"/></g><g><title>Canvas Operator 1</title><rect fill="#000000" fill-opacity="0.00000" height="207.9297" width="8" x="418.4058" y="81.2969"/><line style="stroke:#181818;stroke-width:0.5;stroke-dasharray:5.0,5.0;" x1="421.4766" x2="421.4766" y1="81.2969" y2="289.2266"/></g><g><title>Canvas Operator 2</title><rect fill="#000000" fill-opacity="0.00000" height="207.9297" width="8" x="574.2642" y="81.2969"/><line style="stroke:#181818;stroke-width:0.5;stroke-dasharray:5.0,5.0;" x1="577.335" x2="577.335" y1="81.2969" y2="289.2266"/></g><g class="participant participant-head" data-participant="Operations"><text fill="#000000" font-family="sans-serif" font-size="14" lengthAdjust="spacing" textLength="76.9658" x="5" y="77.9951">Operations</text><ellipse cx="46.4829" cy="13.5" fill="#E2E2F0" rx="8" ry="8" style="stroke:#181818;stroke-width:0.5;"/><path d="M46.4829,21.5 L46.4829,48.5 M33.4829,29.5 L59.4829,29.5 M46.4829,48.5 L33.4829,63.5 M46.4829,48.5 L59.4829,63.5" fill="none" style="stroke:#181818;stroke-width:0.5;"/></g><g class="participant participant-tail" data-participant="Operations"><text fill="#000000" font-family="sans-serif" font-size="14" lengthAdjust="spacing" textLength="76.9658" x="5" y="301.2217">Operations</text><ellipse cx="46.4829" cy="313.0234" fill="#E2E2F0" rx="8" ry="8" style="stroke:#181818;stroke-width:0.5;"/><path d="M46.4829,321.0234 L46.4829,348.0234 M33.4829,329.0234 L59.4829,329.0234 M46.4829,348.0234 L33.4829,363.0234 M46.4829,348.0234 L59.4829,363.0234" fill="none" style="stroke:#181818;stroke-width:0.5;"/></g><g class="participant participant-head" data-participant="Component"><text fill="#000000" font-family="sans-serif" font-size="14" lengthAdjust="spacing" textLength="81.2793" x="97.9658" y="77.9951">Component</text><ellipse cx="141.6055" cy="49" fill="#E2E2F0" rx="12" ry="12" style="stroke:#181818;stroke-width:0.5;"/><line style="stroke:#181818;stroke-width:0.5;" x1="129.6055" x2="153.6055" y1="63" y2="63"/></g><g class="participant participant-tail" data-participant="Component"><text fill="#000000" font-family="sans-serif" font-size="14" lengthAdjust="spacing" textLength="81.2793" x="97.9658" y="301.2217">Component</text><ellipse cx="141.6055" cy="320.5234" fill="#E2E2F0" rx="12" ry="12" style="stroke:#181818;stroke-width:0.5;"/><line style="stroke:#181818;stroke-width:0.5;" x1="129.6055" x2="153.6055" y1="334.5234" y2="334.5234"/></g><g class="participant participant-head" data-participant="ConversionService"><rect fill="#E2E2F0" height="30.2969" rx="2.5" ry="2.5" style="stroke:#181818;stroke-width:0.5;" width="144.2314" x="195.2451" y="50"/><text fill="#000000" font-family="sans-serif" font-size="14" lengthAdjust="spacing" textLength="130.2314" x="202.2451" y="69.9951">ConversionService</text></g><g class="participant participant-tail" data-participant="ConversionService"><rect fill="#E2E2F0" height="30.2969" rx="2.5" ry="2.5" style="stroke:#181818;stroke-width:0.5;" width="144.2314" x="195.2451" y="288.2266"/><text fill="#000000" font-family="sans-serif" font-size="14" lengthAdjust="spacing" textLength="130.2314" x="202.2451" y="308.2217">ConversionService</text></g><g class="participant participant-head" data-participant="Canvas Operator 1"><rect fill="#E2E2F0" height="30.2969" rx="2.5" ry="2.5" style="stroke:#181818;stroke-width:0.5;" width="145.8584" x="349.4766" y="50"/><text fill="#000000" font-family="sans-serif" font-size="14" lengthAdjust="spacing" textLength="131.8584" x="356.4766" y="69.9951">Canvas Operator 1</text></g><g class="participant participant-tail" data-participant="Canvas Operator 1"><rect fill="#E2E2F0" height="30.2969" rx="2.5" ry="2.5" style="stroke:#181818;stroke-width:0.5;" width="145.8584" x="349.4766" y="288.2266"/><text fill="#000000" font-family="sans-serif" font-size="14" lengthAdjust="spacing" textLength="131.8584" x="356.4766" y="308.2217">Canvas Operator 1</text></g><g class="participant participant-head" data-participant="Canvas Operator 2"><rect fill="#E2E2F0" height="30.2969" rx="2.5" ry="2.5" style="stroke:#181818;stroke-width:0.5;" width="145.8584" x="505.335" y="50"/><text fill="#000000" font-family="sans-serif" font-size="14" lengthAdjust="spacing" textLength="131.8584" x="512.335" y="69.9951">Canvas Operator 2</text></g><g class="participant participant-tail" data-participant="Canvas Operator 2"><rect fill="#E2E2F0" height="30.2969" rx="2.5" ry="2.5" style="stroke:#181818;stroke-width:0.5;" width="145.8584" x="505.335" y="288.2266"/><text fill="#000000" font-family="sans-serif" font-size="14" lengthAdjust="spacing" textLength="131.8584" x="512.335" y="308.2217">Canvas Operator 2</text></g><g class="message" data-participant-1="Operations" data-participant-2="Component"><polygon fill="#181818" points="129.6055,108.4297,139.6055,112.4297,129.6055,116.4297,133.6055,112.4297" style="stroke:#181818;stroke-width:1;"/><line style="stroke:#181818;stroke-width:1;" x1="46.4829" x2="135.6055" y1="112.4297" y2="112.4297"/><text fill="#000000" font-family="sans-serif" font-size="13" lengthAdjust="spacing" textLength="39.1333" x="53.4829" y="107.3638">Install</text></g><g class="message" data-participant-1="Component" data-participant-2="ConversionService"><polygon fill="#181818" points="255.3608,148.1289,265.3608,152.1289,255.3608,156.1289,259.3608,152.1289" style="stroke:#181818;stroke-width:1;"/><line style="stroke:#181818;stroke-width:1;" x1="141.6055" x2="261.3608" y1="152.1289" y2="152.1289"/><text fill="#000000" font-family="sans-serif" font-size="13" lengthAdjust="spacing" textLength="61.877" x="148.6055" y="147.063">on.create</text></g><path d="M272,125.4297 L272,165.4297 L1014,165.4297 L1014,135.4297 L1004,125.4297 L272,125.4297" fill="#FEFFDD" style="stroke:#181818;stroke-width:0.5;"/><path d="M1004,125.4297 L1004,135.4297 L1014,135.4297 L1004,125.4297" fill="#FEFFDD" style="stroke:#181818;stroke-width:0.5;"/><text fill="#000000" font-family="sans-serif" font-size="13" lengthAdjust="spacing" textLength="721.2905" x="278" y="142.4966">Component 1 has registered for on.create events to the component resource using a prior version of the spec.</text><text fill="#000000" font-family="sans-serif" font-size="13" lengthAdjust="spacing" textLength="721.2969" x="278" y="157.6294">The Conversion service intercepts the request and converts the resource to the requested version of the spec.</text><g class="message" data-participant-1="ConversionService" data-participant-2="Canvas Operator 1"><polygon fill="#181818" points="410.4058,187.8281,420.4058,191.8281,410.4058,195.8281,414.4058,191.8281" style="stroke:#181818;stroke-width:1;"/><line style="stroke:#181818;stroke-width:1;" x1="267.3608" x2="416.4058" y1="191.8281" y2="191.8281"/><text fill="#000000" font-family="sans-serif" font-size="13" lengthAdjust="spacing" textLength="61.877" x="274.3608" y="186.7622">on.create</text></g><g class="message" data-participant-1="Component" data-participant-2="ConversionService"><polygon fill="#181818" points="255.3608,227.5273,265.3608,231.5273,255.3608,235.5273,259.3608,231.5273" style="stroke:#181818;stroke-width:1;"/><line style="stroke:#181818;stroke-width:1;" x1="141.6055" x2="261.3608" y1="231.5273" y2="231.5273"/><text fill="#000000" font-family="sans-serif" font-size="13" lengthAdjust="spacing" textLength="61.877" x="148.6055" y="226.4614">on.create</text></g><path d="M272,204.8281 L272,244.8281 L1035,244.8281 L1035,214.8281 L1025,204.8281 L272,204.8281" fill="#FEFFDD" style="stroke:#181818;stroke-width:0.5;"/><path d="M1025,204.8281 L1025,214.8281 L1035,214.8281 L1025,204.8281" fill="#FEFFDD" style="stroke:#181818;stroke-width:0.5;"/><text fill="#000000" font-family="sans-serif" font-size="13" lengthAdjust="spacing" textLength="742.3457" x="278" y="221.895">Component 2has registered for on.create events to the component resource using a different version of the spec.</text><text fill="#000000" font-family="sans-serif" font-size="13" lengthAdjust="spacing" textLength="721.2969" x="278" y="237.0278">The Conversion service intercepts the request and converts the resource to the requested version of the spec.</text><g class="message" data-participant-1="ConversionService" data-participant-2="Canvas Operator 2"><polygon fill="#181818" points="566.2642,267.2266,576.2642,271.2266,566.2642,275.2266,570.2642,271.2266" style="stroke:#181818;stroke-width:1;"/><line style="stroke:#181818;stroke-width:1;" x1="267.3608" x2="572.2642" y1="271.2266" y2="271.2266"/><text fill="#000000" font-family="sans-serif" font-size="13" lengthAdjust="spacing" textLength="61.877" x="274.3608" y="266.1606">on.create</text></g><!--SRC=[rP6nRiCm34HtVSN1UmB4Or1qoTIfG_i3WapR0b9AfMW3_VlIWU0uID0fIqU9Tth7am-Q1E-Pn6jCN1onHlt1ANtbn7PmsOl64BDdjLkUIOe9FqZc60ZkPjwSFC- -rFViuKFpzxnjd5jHUDbjak28Doxgp-UDOlUA-n179Du78Q_aE2b1uZ2g0t1T0mUC1XOQOb4Iwj0RVlM1PXCLQ8AEXB3QX4gQn1QTIkG17bcY6Mi0fFwYBvd2_WByjDCr84gjAR910-K5OGgXxucAmdDdh4Mz3Ygk1gb2Y_kGIEPVDdRt7sDDFVWDRBjwHgtjSrhjOj-RtqR_izdsjjbV]--></g></svg>