<svg xmlns="http://www.w3.org/2000/svg" xmlns:xlink="http://www.w3.org/1999/xlink" contentStyleType="text/css" data-diagram-type="SEQUENCE" height="766px" preserveAspectRatio="none" style="width:1323px;height:766px;background:#FFFFFF;" version="1.1" viewBox="0 0 1323 766" width="1323px" zoomAndPan="magnify"><defs/><g><rect fill="none" height="483.0625" style="stroke:#000000;stroke-width:1.5;" width="1229.4805" x="87.9658" y="156.5625"/><rect fill="none" height="190.6016" style="stroke:#000000;stroke-width:1.5;" width="570.4277" x="517.167" y="340.625"/><g><title>Operations</title><rect fill="#000000" fill-opacity="0.00000" height="604.4609" width="8" x="42.4829" y="81.2969"/><line style="stroke:#181818;stroke-width:0.5;stroke-dasharray:5.0,5.0;" x1="46" x2="46" y1="81.2969" y2="685.7578"/></g><g><title>Component</title><rect fill="#000000" fill-opacity="0.00000" height="604.4609" width="8" x="137.6055" y="81.2969"/><line style="stroke:#181818;stroke-width:0.5;stroke-dasharray:5.0,5.0;" x1="140.9658" x2="140.9658" y1="81.2969" y2="685.7578"/></g><g><title>ComponentOperator</title><rect fill="#000000" fill-opacity="0.00000" height="604.4609" width="8" x="270.2173" y="81.2969"/><line style="stroke:#181818;stroke-width:0.5;stroke-dasharray:5.0,5.0;" x1="273.2451" x2="273.2451" y1="81.2969" y2="685.7578"/></g><g><title>PublishedNotification</title><rect fill="#000000" fill-opacity="0.00000" height="604.4609" width="8" x="436.1782" y="81.2969"/><line style="stroke:#181818;stroke-width:0.5;stroke-dasharray:5.0,5.0;" x1="439.1895" x2="439.1895" y1="81.2969" y2="685.7578"/></g><g><title>EventPublishingEnablementOperator</title><rect fill="#000000" fill-opacity="0.00000" height="604.4609" width="8" x="659.6021" y="81.2969"/><line style="stroke:#181818;stroke-width:0.5;stroke-dasharray:5.0,5.0;" x1="663.167" x2="663.167" y1="81.2969" y2="685.7578"/></g><g><title>Event Manager</title><rect fill="#000000" fill-opacity="0.00000" height="604.4609" width="8" x="1013.6333" y="81.2969"/><line style="stroke:#181818;stroke-width:0.5;stroke-dasharray:5.0,5.0;" x1="1016.6719" x2="1016.6719" y1="81.2969" y2="685.7578"/></g><g class="participant participant-head" data-participant="Operations"><text fill="#000000" font-family="sans-serif" font-size="14" lengthAdjust="spacing" textLength="76.9658" x="5" y="77.9951">Operations</text><ellipse cx="46.4829" cy="13.5" fill="#E2E2F0" rx="8" ry="8" style="stroke:#181818;stroke-width:0.5;"/><path d="M46.4829,21.5 L46.4829,48.5 M33.4829,29.5 L59.4829,29.5 M46.4829,48.5 L33.4829,63.5 M46.4829,48.5 L59.4829,63.5" fill="none" style="stroke:#181818;stroke-width:0.5;"/></g><g class="participant participant-tail" data-participant="Operations"><text fill="#000000" font-family="sans-serif" font-size="14" lengthAdjust="spacing" textLength="76.9658" x="5" y="697.7529">Operations</text><ellipse cx="46.4829" cy="709.5547" fill="#E2E2F0" rx="8" ry="8" style="stroke:#181818;stroke-width:0.5;"/><path d="M46.4829,717.5547 L46.4829,744.5547 M33.4829,725.5547 L59.4829,725.5547 M46.4829,744.5547 L33.4829,759.5547 M46.4829,744.5547 L59.4829,759.5547" fill="none" style="stroke:#181818;stroke-width:0.5;"/></g><g class="participant participant-head" data-participant="Component"><text fill="#000000" font-family="sans-serif" font-size="14" lengthAdjust="spacing" textLength="81.2793" x="97.9658" y="77.9951">Component</text><ellipse cx="141.6055" cy="49" fill="#E2E2F0" rx="12" ry="12" style="stroke:#181818;stroke-width:0.5;"/><line style="stroke:#181818;stroke-width:0.5;" x1="129.6055" x2="153.6055" y1="63" y2="63"/></g><g class="participant participant-tail" data-participant="Component"><text fill="#000000" font-family="sans-serif" font-size="14" lengthAdjust="spacing" textLength="81.2793" x="97.9658" y="697.7529">Component</text><ellipse cx="141.6055" cy="717.0547" fill="#E2E2F0" rx="12" ry="12" style="stroke:#181818;stroke-width:0.5;"/><line style="stroke:#181818;stroke-width:0.5;" x1="129.6055" x2="153.6055" y1="731.0547" y2="731.0547"/></g><g class="participant participant-head" data-participant="ComponentOperator"><rect fill="#E2E2F0" height="30.2969" rx="2.5" ry="2.5" style="stroke:#181818;stroke-width:0.5;" width="157.9443" x="195.2451" y="50"/><text fill="#000000" font-family="sans-serif" font-size="14" lengthAdjust="spacing" textLength="143.9443" x="202.2451" y="69.9951">ComponentOperator</text></g><g class="participant participant-tail" data-participant="ComponentOperator"><rect fill="#E2E2F0" height="30.2969" rx="2.5" ry="2.5" style="stroke:#181818;stroke-width:0.5;" width="157.9443" x="195.2451" y="684.7578"/><text fill="#000000" font-family="sans-serif" font-size="14" lengthAdjust="spacing" textLength="143.9443" x="202.2451" y="704.7529">ComponentOperator</text></g><g class="participant participant-head" data-participant="PublishedNotification"><text fill="#000000" font-family="sans-serif" font-size="14" lengthAdjust="spacing" textLength="147.9775" x="363.1895" y="77.9951">PublishedNotification</text><ellipse cx="440.1782" cy="49" fill="#E2E2F0" rx="12" ry="12" style="stroke:#181818;stroke-width:0.5;"/><line style="stroke:#181818;stroke-width:0.5;" x1="428.1782" x2="452.1782" y1="63" y2="63"/></g><g class="participant participant-tail" data-participant="PublishedNotification"><text fill="#000000" font-family="sans-serif" font-size="14" lengthAdjust="spacing" textLength="147.9775" x="363.1895" y="697.7529">PublishedNotification</text><ellipse cx="440.1782" cy="717.0547" fill="#E2E2F0" rx="12" ry="12" style="stroke:#181818;stroke-width:0.5;"/><line style="stroke:#181818;stroke-width:0.5;" x1="428.1782" x2="452.1782" y1="731.0547" y2="731.0547"/></g><g class="participant participant-head" data-participant="EventPublishingEnablementOperator"><rect fill="#E2E2F0" height="30.2969" rx="2.5" ry="2.5" style="stroke:#181818;stroke-width:0.5;" width="272.8701" x="527.167" y="50"/><text fill="#000000" font-family="sans-serif" font-size="14" lengthAdjust="spacing" textLength="258.8701" x="534.167" y="69.9951">EventPublishingEnablementOperator</text></g><g class="participant participant-tail" data-participant="EventPublishingEnablementOperator"><rect fill="#E2E2F0" height="30.2969" rx="2.5" ry="2.5" style="stroke:#181818;stroke-width:0.5;" width="272.8701" x="527.167" y="684.7578"/><text fill="#000000" font-family="sans-serif" font-size="14" lengthAdjust="spacing" textLength="258.8701" x="534.167" y="704.7529">EventPublishingEnablementOperator</text></g><g class="participant participant-head" data-participant="TMFC019"><rect fill="#E2E2F0" height="30.2969" rx="2.5" ry="2.5" style="stroke:#181818;stroke-width:0.5;" width="119.9229" x="957.6719" y="50"/><text fill="#000000" font-family="sans-serif" font-size="14" lengthAdjust="spacing" textLength="105.9229" x="964.6719" y="69.9951">Event Manager</text></g><g class="participant participant-tail" data-participant="TMFC019"><rect fill="#E2E2F0" height="30.2969" rx="2.5" ry="2.5" style="stroke:#181818;stroke-width:0.5;" width="119.9229" x="957.6719" y="684.7578"/><text fill="#000000" font-family="sans-serif" font-size="14" lengthAdjust="spacing" textLength="105.9229" x="964.6719" y="704.7529">Event Manager</text></g><g class="message" data-participant-1="Operations" data-participant-2="Component"><polygon fill="#181818" points="129.6055,108.4297,139.6055,112.4297,129.6055,116.4297,133.6055,112.4297" style="stroke:#181818;stroke-width:1;"/><line style="stroke:#181818;stroke-width:1;" x1="46.4829" x2="135.6055" y1="112.4297" y2="112.4297"/><text fill="#000000" font-family="sans-serif" font-size="13" lengthAdjust="spacing" textLength="39.1333" x="53.4829" y="107.3638">Install</text></g><g class="message" data-participant-1="Component" data-participant-2="ComponentOperator"><polygon fill="#181818" points="262.2173,137.5625,272.2173,141.5625,262.2173,145.5625,266.2173,141.5625" style="stroke:#181818;stroke-width:1;"/><line style="stroke:#181818;stroke-width:1;" x1="141.6055" x2="268.2173" y1="141.5625" y2="141.5625"/><text fill="#000000" font-family="sans-serif" font-size="13" lengthAdjust="spacing" textLength="61.877" x="148.6055" y="136.4966">on.create</text></g><path d="M87.9658,156.5625 L358.6123,156.5625 L358.6123,163.6953 L348.6123,173.6953 L87.9658,173.6953 L87.9658,156.5625" fill="#EEEEEE" style="stroke:#000000;stroke-width:1.5;"/><rect fill="none" height="483.0625" style="stroke:#000000;stroke-width:1.5;" width="1229.4805" x="87.9658" y="156.5625"/><text fill="#000000" font-family="sans-serif" font-size="13" font-weight="bold" lengthAdjust="spacing" textLength="225.6465" x="102.9658" y="169.6294">For each publishedNotification</text><g class="message" data-participant-1="ComponentOperator" data-participant-2="PublishedNotification"><polygon fill="#181818" points="428.1782,208.9609,438.1782,212.9609,428.1782,216.9609,432.1782,212.9609" style="stroke:#181818;stroke-width:1;"/><line style="stroke:#181818;stroke-width:1;" x1="274.2173" x2="434.1782" y1="212.9609" y2="212.9609"/><text fill="#000000" font-family="sans-serif" font-size="13" lengthAdjust="spacing" textLength="41.5518" x="281.2173" y="207.895">create</text></g><path d="M445,178.6953 L445,233.6953 L807,233.6953 L807,188.6953 L797,178.6953 L445,178.6953" fill="#FEFFDD" style="stroke:#181818;stroke-width:0.5;"/><path d="M797,178.6953 L797,188.6953 L807,188.6953 L797,178.6953" fill="#FEFFDD" style="stroke:#181818;stroke-width:0.5;"/><text fill="#000000" font-family="sans-serif" font-size="13" lengthAdjust="spacing" textLength="341.7578" x="451" y="195.7622">A separate publishedNotification resource is created</text><text fill="#000000" font-family="sans-serif" font-size="13" lengthAdjust="spacing" textLength="333.3535" x="451" y="210.895">for each published notification in the core function,</text><text fill="#000000" font-family="sans-serif" font-size="13" lengthAdjust="spacing" textLength="229.436" x="451" y="226.0278">security and management sections</text><g class="message" data-participant-1="PublishedNotification" data-participant-2="EventPublishingEnablementOperator"><polygon fill="#181818" points="651.6021,256.2266,661.6021,260.2266,651.6021,264.2266,655.6021,260.2266" style="stroke:#181818;stroke-width:1;"/><line style="stroke:#181818;stroke-width:1;" x1="440.1782" x2="657.6021" y1="260.2266" y2="260.2266"/><text fill="#000000" font-family="sans-serif" font-size="13" lengthAdjust="spacing" textLength="61.877" x="447.1782" y="255.1606">on.create</text></g><g class="message" data-participant-1="EventPublishingEnablementOperator" data-participant-2="TMFC019"><polygon fill="#181818" points="1005.6333,303.4922,1015.6333,307.4922,1005.6333,311.4922,1009.6333,307.4922" style="stroke:#181818;stroke-width:1;"/><line style="stroke:#181818;stroke-width:1;" x1="663.6021" x2="1011.6333" y1="307.4922" y2="307.4922"/><text fill="#000000" font-family="sans-serif" font-size="13" lengthAdjust="spacing" textLength="167.0195" x="670.6021" y="302.4263">search for matching topic</text></g><path d="M1022,273.2266 L1022,328.2266 L1301,328.2266 L1301,283.2266 L1291,273.2266 L1022,273.2266" fill="#FEFFDD" style="stroke:#181818;stroke-width:0.5;"/><path d="M1291,273.2266 L1291,283.2266 L1301,283.2266 L1291,273.2266" fill="#FEFFDD" style="stroke:#181818;stroke-width:0.5;"/><text fill="#000000" font-family="sans-serif" font-size="13" lengthAdjust="spacing" textLength="252.8462" x="1028" y="290.2935">A topic can exist if another component</text><text fill="#000000" font-family="sans-serif" font-size="13" lengthAdjust="spacing" textLength="258.813" x="1028" y="305.4263">is already publishing these notifications</text><text fill="#000000" font-family="sans-serif" font-size="13" lengthAdjust="spacing" textLength="229.1885" x="1028" y="320.5591">or if an operator pre-created topics</text><path d="M517.167,340.625 L581.6099,340.625 L581.6099,347.7578 L571.6099,357.7578 L517.167,357.7578 L517.167,340.625" fill="#EEEEEE" style="stroke:#000000;stroke-width:1.5;"/><rect fill="none" height="190.6016" style="stroke:#000000;stroke-width:1.5;" width="570.4277" x="517.167" y="340.625"/><text fill="#000000" font-family="sans-serif" font-size="13" font-weight="bold" lengthAdjust="spacing" textLength="19.4429" x="532.167" y="353.6919">alt</text><text fill="#000000" font-family="sans-serif" font-size="11" font-weight="bold" lengthAdjust="spacing" textLength="77.2417" x="596.6099" y="352.8354">[Topic exist]</text><g class="message" data-participant-1="TMFC019" data-participant-2="EventPublishingEnablementOperator"><polygon fill="#181818" points="674.6021,374.8906,664.6021,378.8906,674.6021,382.8906,670.6021,378.8906" style="stroke:#181818;stroke-width:1;"/><line style="stroke:#181818;stroke-width:1;stroke-dasharray:2.0,2.0;" x1="668.6021" x2="1016.6333" y1="378.8906" y2="378.8906"/><text fill="#000000" font-family="sans-serif" font-size="13" lengthAdjust="spacing" textLength="56.2339" x="680.6021" y="373.8247">Topic url</text></g><line style="stroke:#000000;stroke-width:1;stroke-dasharray:2.0,2.0;" x1="517.167" x2="1087.5947" y1="387.8906" y2="387.8906"/><text fill="#000000" font-family="sans-serif" font-size="11" font-weight="bold" lengthAdjust="spacing" textLength="134.9863" x="522.167" y="398.1011">[Topic does not exist]</text><g class="message" data-participant-1="TMFC019" data-participant-2="EventPublishingEnablementOperator"><polygon fill="#181818" points="674.6021,418.8281,664.6021,422.8281,674.6021,426.8281,670.6021,422.8281" style="stroke:#181818;stroke-width:1;"/><line style="stroke:#181818;stroke-width:1;stroke-dasharray:2.0,2.0;" x1="668.6021" x2="1016.6333" y1="422.8281" y2="422.8281"/><text fill="#000000" font-family="sans-serif" font-size="13" lengthAdjust="spacing" textLength="67.0693" x="680.6021" y="417.7622">Not Found</text></g><g class="message" data-participant-1="EventPublishingEnablementOperator" data-participant-2="EventPublishingEnablementOperator"><line style="stroke:#181818;stroke-width:1;" x1="663.6021" x2="705.6021" y1="451.9609" y2="451.9609"/><line style="stroke:#181818;stroke-width:1;" x1="705.6021" x2="705.6021" y1="451.9609" y2="464.9609"/><line style="stroke:#181818;stroke-width:1;" x1="664.6021" x2="705.6021" y1="464.9609" y2="464.9609"/><polygon fill="#181818" points="674.6021,460.9609,664.6021,464.9609,674.6021,468.9609,670.6021,464.9609" style="stroke:#181818;stroke-width:1;"/><text fill="#000000" font-family="sans-serif" font-size="13" lengthAdjust="spacing" textLength="340.0313" x="670.6021" y="446.895">(optional) approval flow to approve creation of topic</text></g><g class="message" data-participant-1="EventPublishingEnablementOperator" data-participant-2="TMFC019"><polygon fill="#181818" points="1005.6333,490.0938,1015.6333,494.0938,1005.6333,498.0938,1009.6333,494.0938" style="stroke:#181818;stroke-width:1;"/><line style="stroke:#181818;stroke-width:1;" x1="663.6021" x2="1011.6333" y1="494.0938" y2="494.0938"/><text fill="#000000" font-family="sans-serif" font-size="13" lengthAdjust="spacing" textLength="172.1738" x="670.6021" y="489.0278">configure Topic Event Hub</text></g><g class="message" data-participant-1="TMFC019" data-participant-2="EventPublishingEnablementOperator"><polygon fill="#181818" points="674.6021,519.2266,664.6021,523.2266,674.6021,527.2266,670.6021,523.2266" style="stroke:#181818;stroke-width:1;"/><line style="stroke:#181818;stroke-width:1;" x1="668.6021" x2="1016.6333" y1="523.2266" y2="523.2266"/><text fill="#000000" font-family="sans-serif" font-size="13" lengthAdjust="spacing" textLength="56.2339" x="680.6021" y="518.1606">Topic url</text></g><g class="message" data-participant-1="EventPublishingEnablementOperator" data-participant-2="Component"><polygon fill="#181818" points="152.6055,555.3594,142.6055,559.3594,152.6055,563.3594,148.6055,559.3594" style="stroke:#181818;stroke-width:1;"/><line style="stroke:#181818;stroke-width:1;" x1="146.6055" x2="662.6021" y1="559.3594" y2="559.3594"/><text fill="#000000" font-family="sans-serif" font-size="13" lengthAdjust="spacing" textLength="203.6582" x="158.6055" y="554.2935">configure event publishing URL</text></g><g class="message" data-participant-1="Component" data-participant-2="EventPublishingEnablementOperator"><polygon fill="#181818" points="651.6021,569.3594,661.6021,573.3594,651.6021,577.3594,655.6021,573.3594" style="stroke:#181818;stroke-width:1;"/><line style="stroke:#181818;stroke-width:1;stroke-dasharray:2.0,2.0;" x1="141.6055" x2="657.6021" y1="573.3594" y2="573.3594"/></g><g class="message" data-participant-1="EventPublishingEnablementOperator" data-participant-2="PublishedNotification"><polygon fill="#181818" points="451.1782,598.4922,441.1782,602.4922,451.1782,606.4922,447.1782,602.4922" style="stroke:#181818;stroke-width:1;"/><line style="stroke:#181818;stroke-width:1;" x1="445.1782" x2="662.6021" y1="602.4922" y2="602.4922"/><text fill="#000000" font-family="sans-serif" font-size="13" lengthAdjust="spacing" textLength="45.8047" x="457.1782" y="597.4263">update</text></g><g class="message" data-participant-1="PublishedNotification" data-participant-2="ComponentOperator"><polygon fill="#181818" points="285.2173,627.625,275.2173,631.625,285.2173,635.625,281.2173,631.625" style="stroke:#181818;stroke-width:1;"/><line style="stroke:#181818;stroke-width:1;" x1="279.2173" x2="439.1782" y1="631.625" y2="631.625"/><text fill="#000000" font-family="sans-serif" font-size="13" lengthAdjust="spacing" textLength="66.1299" x="291.2173" y="626.5591">on.update</text></g><g class="message" data-participant-1="ComponentOperator" data-participant-2="Component"><polygon fill="#181818" points="152.6055,663.7578,142.6055,667.7578,152.6055,671.7578,148.6055,667.7578" style="stroke:#181818;stroke-width:1;"/><line style="stroke:#181818;stroke-width:1;" x1="146.6055" x2="273.2173" y1="667.7578" y2="667.7578"/><text fill="#000000" font-family="sans-serif" font-size="13" lengthAdjust="spacing" textLength="45.8047" x="158.6055" y="662.6919">update</text></g><!--SRC=[bLJHRjGm47nElcBL9v08WaTE5L9rQjLA510g7x3dR19BFjkodKB_dhMTS0uNT6dUuioEPsSsYo8O1zyiEGpIQ5-J3ZAymDuShT7yKbjqGGffKOVJQIumReP_7mzA-e7QhoR8Jef4jYYzVMRe19EwlzLuK7GigKhqLOB38shioLq1UdXwlDj_-FYfhl-AWEkcK0uxUD0-e585elbyhda7HhyNZZ0GrBqpeuKxze1G361N-wZEE2BnQiyxoCnrfGtpEzaFeQw0dnlmn2t6MrTl0KVUZ4uGI3-HjBcoErC7kYoK6i9088mZw4Ojuk6xNEf9Z2u6XBg5Ot8pUXxFSzmLwSH6TOIljXHxlPXUQMfy4jt5gaWzvRfZJUYuoTZj4OE85H2CbI9n5NR6r-ecVmE16kYtz05anrqQTiAn5VFq9YmRYegrjI-pXObx84yB9ts6iu341MQMQHqrKoJvsenSU8Sgm5EIbEHagiiEN3VDoO9SFpgLwHNhoqUj8H-lAhXVJSwPyg2FkjqgRLlkRuoDtg5w2sYjCy-ee5Fc5nir7L0UvpXAfYiYhLup7_nx2wCxsOzkDYNlYFlniDthWkqVhpbAJd3xs9vsJ2cCagHYo7x- -BAHCsQrNypj-j_8JMn8PRGjJeDvlhoOuZ_BYt_YgP8DMMxQbJsQeL3_0G00]--></g></svg>