<svg xmlns="http://www.w3.org/2000/svg" xmlns:xlink="http://www.w3.org/1999/xlink" contentStyleType="text/css" data-diagram-type="SEQUENCE" height="511px" preserveAspectRatio="none" style="width:978px;height:511px;background:#FFFFFF;" version="1.1" viewBox="0 0 978 511" width="978px" zoomAndPan="magnify"><defs/><g><rect fill="none" height="228.1953" style="stroke:#000000;stroke-width:1.5;" width="787.2197" x="185.2451" y="156.5625"/><g><title>Operations</title><rect fill="#000000" fill-opacity="0.00000" height="349.5938" width="8" x="42.4829" y="81.2969"/><line style="stroke:#181818;stroke-width:0.5;stroke-dasharray:5.0,5.0;" x1="46" x2="46" y1="81.2969" y2="430.8906"/></g><g><title>Component</title><rect fill="#000000" fill-opacity="0.00000" height="349.5938" width="8" x="137.6055" y="81.2969"/><line style="stroke:#181818;stroke-width:0.5;stroke-dasharray:5.0,5.0;" x1="140.9658" x2="140.9658" y1="81.2969" y2="430.8906"/></g><g><title>ComponentOperator</title><rect fill="#000000" fill-opacity="0.00000" height="349.5938" width="8" x="270.2173" y="81.2969"/><line style="stroke:#181818;stroke-width:0.5;stroke-dasharray:5.0,5.0;" x1="273.2451" x2="273.2451" y1="81.2969" y2="430.8906"/></g><g><title>SubscribedNotifications</title><rect fill="#000000" fill-opacity="0.00000" height="349.5938" width="8" x="444.8359" y="81.2969"/><line style="stroke:#181818;stroke-width:0.5;stroke-dasharray:5.0,5.0;" x1="448.1895" x2="448.1895" y1="81.2969" y2="430.8906"/></g><g><title>EventSubscriptionEnablementOperator</title><rect fill="#000000" fill-opacity="0.00000" height="349.5938" width="8" x="684.5122" y="81.2969"/><line style="stroke:#181818;stroke-width:0.5;stroke-dasharray:5.0,5.0;" x1="688.4824" x2="688.4824" y1="81.2969" y2="430.8906"/></g><g><title>Event Manager</title><rect fill="#000000" fill-opacity="0.00000" height="349.5938" width="8" x="898.5034" y="81.2969"/><line style="stroke:#181818;stroke-width:0.5;stroke-dasharray:5.0,5.0;" x1="901.542" x2="901.542" y1="81.2969" y2="430.8906"/></g><g class="participant participant-head" data-participant="Operations"><text fill="#000000" font-family="sans-serif" font-size="14" lengthAdjust="spacing" textLength="76.9658" x="5" y="77.9951">Operations</text><ellipse cx="46.4829" cy="13.5" fill="#E2E2F0" rx="8" ry="8" style="stroke:#181818;stroke-width:0.5;"/><path d="M46.4829,21.5 L46.4829,48.5 M33.4829,29.5 L59.4829,29.5 M46.4829,48.5 L33.4829,63.5 M46.4829,48.5 L59.4829,63.5" fill="none" style="stroke:#181818;stroke-width:0.5;"/></g><g class="participant participant-tail" data-participant="Operations"><text fill="#000000" font-family="sans-serif" font-size="14" lengthAdjust="spacing" textLength="76.9658" x="5" y="442.8857">Operations</text><ellipse cx="46.4829" cy="454.6875" fill="#E2E2F0" rx="8" ry="8" style="stroke:#181818;stroke-width:0.5;"/><path d="M46.4829,462.6875 L46.4829,489.6875 M33.4829,470.6875 L59.4829,470.6875 M46.4829,489.6875 L33.4829,504.6875 M46.4829,489.6875 L59.4829,504.6875" fill="none" style="stroke:#181818;stroke-width:0.5;"/></g><g class="participant participant-head" data-participant="Component"><text fill="#000000" font-family="sans-serif" font-size="14" lengthAdjust="spacing" textLength="81.2793" x="97.9658" y="77.9951">Component</text><ellipse cx="141.6055" cy="49" fill="#E2E2F0" rx="12" ry="12" style="stroke:#181818;stroke-width:0.5;"/><line style="stroke:#181818;stroke-width:0.5;" x1="129.6055" x2="153.6055" y1="63" y2="63"/></g><g class="participant participant-tail" data-participant="Component"><text fill="#000000" font-family="sans-serif" font-size="14" lengthAdjust="spacing" textLength="81.2793" x="97.9658" y="442.8857">Component</text><ellipse cx="141.6055" cy="462.1875" fill="#E2E2F0" rx="12" ry="12" style="stroke:#181818;stroke-width:0.5;"/><line style="stroke:#181818;stroke-width:0.5;" x1="129.6055" x2="153.6055" y1="476.1875" y2="476.1875"/></g><g class="participant participant-head" data-participant="ComponentOperator"><rect fill="#E2E2F0" height="30.2969" rx="2.5" ry="2.5" style="stroke:#181818;stroke-width:0.5;" width="157.9443" x="195.2451" y="50"/><text fill="#000000" font-family="sans-serif" font-size="14" lengthAdjust="spacing" textLength="143.9443" x="202.2451" y="69.9951">ComponentOperator</text></g><g class="participant participant-tail" data-participant="ComponentOperator"><rect fill="#E2E2F0" height="30.2969" rx="2.5" ry="2.5" style="stroke:#181818;stroke-width:0.5;" width="157.9443" x="195.2451" y="429.8906"/><text fill="#000000" font-family="sans-serif" font-size="14" lengthAdjust="spacing" textLength="143.9443" x="202.2451" y="449.8857">ComponentOperator</text></g><g class="participant participant-head" data-participant="SubscribedNotifications"><text fill="#000000" font-family="sans-serif" font-size="14" lengthAdjust="spacing" textLength="165.293" x="363.1895" y="77.9951">SubscribedNotifications</text><ellipse cx="448.8359" cy="49" fill="#E2E2F0" rx="12" ry="12" style="stroke:#181818;stroke-width:0.5;"/><line style="stroke:#181818;stroke-width:0.5;" x1="436.8359" x2="460.8359" y1="63" y2="63"/></g><g class="participant participant-tail" data-participant="SubscribedNotifications"><text fill="#000000" font-family="sans-serif" font-size="14" lengthAdjust="spacing" textLength="165.293" x="363.1895" y="442.8857">SubscribedNotifications</text><ellipse cx="448.8359" cy="462.1875" fill="#E2E2F0" rx="12" ry="12" style="stroke:#181818;stroke-width:0.5;"/><line style="stroke:#181818;stroke-width:0.5;" x1="436.8359" x2="460.8359" y1="476.1875" y2="476.1875"/></g><g class="participant participant-head" data-participant="EventSubscriptionEnablementOperator"><rect fill="#E2E2F0" height="30.2969" rx="2.5" ry="2.5" style="stroke:#181818;stroke-width:0.5;" width="288.0596" x="544.4824" y="50"/><text fill="#000000" font-family="sans-serif" font-size="14" lengthAdjust="spacing" textLength="274.0596" x="551.4824" y="69.9951">EventSubscriptionEnablementOperator</text></g><g class="participant participant-tail" data-participant="EventSubscriptionEnablementOperator"><rect fill="#E2E2F0" height="30.2969" rx="2.5" ry="2.5" style="stroke:#181818;stroke-width:0.5;" width="288.0596" x="544.4824" y="429.8906"/><text fill="#000000" font-family="sans-serif" font-size="14" lengthAdjust="spacing" textLength="274.0596" x="551.4824" y="449.8857">EventSubscriptionEnablementOperator</text></g><g class="participant participant-head" data-participant="TMFC019"><rect fill="#E2E2F0" height="30.2969" rx="2.5" ry="2.5" style="stroke:#181818;stroke-width:0.5;" width="119.9229" x="842.542" y="50"/><text fill="#000000" font-family="sans-serif" font-size="14" lengthAdjust="spacing" textLength="105.9229" x="849.542" y="69.9951">Event Manager</text></g><g class="participant participant-tail" data-participant="TMFC019"><rect fill="#E2E2F0" height="30.2969" rx="2.5" ry="2.5" style="stroke:#181818;stroke-width:0.5;" width="119.9229" x="842.542" y="429.8906"/><text fill="#000000" font-family="sans-serif" font-size="14" lengthAdjust="spacing" textLength="105.9229" x="849.542" y="449.8857">Event Manager</text></g><g class="message" data-participant-1="Operations" data-participant-2="Component"><polygon fill="#181818" points="129.6055,108.4297,139.6055,112.4297,129.6055,116.4297,133.6055,112.4297" style="stroke:#181818;stroke-width:1;"/><line style="stroke:#181818;stroke-width:1;" x1="46.4829" x2="135.6055" y1="112.4297" y2="112.4297"/><text fill="#000000" font-family="sans-serif" font-size="13" lengthAdjust="spacing" textLength="39.1333" x="53.4829" y="107.3638">Install</text></g><g class="message" data-participant-1="Component" data-participant-2="ComponentOperator"><polygon fill="#181818" points="262.2173,137.5625,272.2173,141.5625,262.2173,145.5625,266.2173,141.5625" style="stroke:#181818;stroke-width:1;"/><line style="stroke:#181818;stroke-width:1;" x1="141.6055" x2="268.2173" y1="141.5625" y2="141.5625"/><text fill="#000000" font-family="sans-serif" font-size="13" lengthAdjust="spacing" textLength="66.1299" x="148.6055" y="136.4966">on.update</text></g><path d="M185.2451,156.5625 L464.0356,156.5625 L464.0356,163.6953 L454.0356,173.6953 L185.2451,173.6953 L185.2451,156.5625" fill="#EEEEEE" style="stroke:#000000;stroke-width:1.5;"/><rect fill="none" height="228.1953" style="stroke:#000000;stroke-width:1.5;" width="787.2197" x="185.2451" y="156.5625"/><text fill="#000000" font-family="sans-serif" font-size="13" font-weight="bold" lengthAdjust="spacing" textLength="233.7905" x="200.2451" y="169.6294">For each subscribedNotification</text><g class="message" data-participant-1="ComponentOperator" data-participant-2="SubscribedNotifications"><polygon fill="#181818" points="436.8359,208.9609,446.8359,212.9609,436.8359,216.9609,440.8359,212.9609" style="stroke:#181818;stroke-width:1;"/><line style="stroke:#181818;stroke-width:1;" x1="274.2173" x2="442.8359" y1="212.9609" y2="212.9609"/><text fill="#000000" font-family="sans-serif" font-size="13" lengthAdjust="spacing" textLength="40.9551" x="281.2173" y="207.895">delete</text></g><path d="M453,178.6953 L453,233.6953 L823,233.6953 L823,188.6953 L813,178.6953 L453,178.6953" fill="#FEFFDD" style="stroke:#181818;stroke-width:0.5;"/><path d="M813,178.6953 L813,188.6953 L823,188.6953 L813,178.6953" fill="#FEFFDD" style="stroke:#181818;stroke-width:0.5;"/><text fill="#000000" font-family="sans-serif" font-size="13" lengthAdjust="spacing" textLength="349.1719" x="459" y="195.7622">A separate subscribedNotification resource is created</text><text fill="#000000" font-family="sans-serif" font-size="13" lengthAdjust="spacing" textLength="333.3535" x="459" y="210.895">for each published notification in the core function,</text><text fill="#000000" font-family="sans-serif" font-size="13" lengthAdjust="spacing" textLength="229.436" x="459" y="226.0278">security and management sections</text><g class="message" data-participant-1="SubscribedNotifications" data-participant-2="EventSubscriptionEnablementOperator"><polygon fill="#181818" points="676.5122,256.2266,686.5122,260.2266,676.5122,264.2266,680.5122,260.2266" style="stroke:#181818;stroke-width:1;"/><line style="stroke:#181818;stroke-width:1;" x1="448.8359" x2="682.5122" y1="260.2266" y2="260.2266"/><text fill="#000000" font-family="sans-serif" font-size="13" lengthAdjust="spacing" textLength="61.2803" x="455.8359" y="255.1606">on.delete</text></g><g class="message" data-participant-1="EventSubscriptionEnablementOperator" data-participant-2="TMFC019"><polygon fill="#181818" points="890.5034,285.3594,900.5034,289.3594,890.5034,293.3594,894.5034,289.3594" style="stroke:#181818;stroke-width:1;"/><line style="stroke:#181818;stroke-width:1;" x1="688.5122" x2="896.5034" y1="289.3594" y2="289.3594"/><text fill="#000000" font-family="sans-serif" font-size="13" lengthAdjust="spacing" textLength="71.354" x="695.5122" y="284.2935">delete Hub</text></g><g class="message" data-participant-1="TMFC019" data-participant-2="EventSubscriptionEnablementOperator"><polygon fill="#181818" points="699.5122,314.4922,689.5122,318.4922,699.5122,322.4922,695.5122,318.4922" style="stroke:#181818;stroke-width:1;"/><line style="stroke:#181818;stroke-width:1;stroke-dasharray:2.0,2.0;" x1="693.5122" x2="901.5034" y1="318.4922" y2="318.4922"/><text fill="#000000" font-family="sans-serif" font-size="13" lengthAdjust="spacing" textLength="57.9033" x="705.5122" y="313.4263">removed</text></g><g class="message" data-participant-1="EventSubscriptionEnablementOperator" data-participant-2="SubscribedNotifications"><polygon fill="#181818" points="459.8359,343.625,449.8359,347.625,459.8359,351.625,455.8359,347.625" style="stroke:#181818;stroke-width:1;"/><line style="stroke:#181818;stroke-width:1;" x1="453.8359" x2="687.5122" y1="347.625" y2="347.625"/><text fill="#000000" font-family="sans-serif" font-size="13" lengthAdjust="spacing" textLength="45.8047" x="465.8359" y="342.5591">update</text></g><g class="message" data-participant-1="SubscribedNotifications" data-participant-2="ComponentOperator"><polygon fill="#181818" points="285.2173,372.7578,275.2173,376.7578,285.2173,380.7578,281.2173,376.7578" style="stroke:#181818;stroke-width:1;"/><line style="stroke:#181818;stroke-width:1;" x1="279.2173" x2="447.8359" y1="376.7578" y2="376.7578"/><text fill="#000000" font-family="sans-serif" font-size="13" lengthAdjust="spacing" textLength="66.1299" x="291.2173" y="371.6919">on.update</text></g><g class="message" data-participant-1="ComponentOperator" data-participant-2="Component"><polygon fill="#181818" points="152.6055,408.8906,142.6055,412.8906,152.6055,416.8906,148.6055,412.8906" style="stroke:#181818;stroke-width:1;"/><line style="stroke:#181818;stroke-width:1;" x1="146.6055" x2="273.2173" y1="412.8906" y2="412.8906"/><text fill="#000000" font-family="sans-serif" font-size="13" lengthAdjust="spacing" textLength="45.8047" x="158.6055" y="407.8247">update</text></g><!--SRC=[ZL91JiCm4Bpx5QkU2O8ZKOM4gbPmA1pW0uwpRImbQsjjL-BtsCOXGMsav1PxPhmpir9vm_1XaQNNXfn0yjf_myuCrb3y4LQorqfRINuw_IKO7k6VeN6ATOFjk_7wf5LHcvFtbmWkG9kkzoIR7eUvt1o_oGGuIf9dv0r81r_7m-xXyKc8lq5WMyscXnhUo7dPzpD4zNmzTms6xeDjfKTnPXCi768CA5K7xgOLSIMHT1Tirz1YZr6QZ4TWVUwyWFYzWCFeC3wwy0emEXDO8MW7YZ4YsymyZTFPqFJQTTW2pNcQm7S8oZ32AP1AXtUPwL05JXL9Qc78MQR4q_bOUDR2Z5umbBokg2-dMgmdjHMKf5nQ7LE3rz2ifc-hQk8p3kPI4bjo4lTbbPEo74dgkleeibZzj5WnsV-BUcCD2_G7]--></g></svg>