<svg xmlns="http://www.w3.org/2000/svg" xmlns:xlink="http://www.w3.org/1999/xlink" contentStyleType="text/css" data-diagram-type="SEQUENCE" height="744px" preserveAspectRatio="none" style="width:1282px;height:744px;background:#FFFFFF;" version="1.1" viewBox="0 0 1282 744" width="1282px" zoomAndPan="magnify"><defs/><g><rect fill="none" height="461.0625" style="stroke:#000000;stroke-width:1.5;" width="1091.5508" x="185.2451" y="156.5625"/><rect fill="none" height="211.7344" style="stroke:#000000;stroke-width:1.5;" width="732.3135" x="534.4824" y="340.625"/><g><title>Operations</title><rect fill="#000000" fill-opacity="0.00000" height="582.4609" width="8" x="42.4829" y="81.2969"/><line style="stroke:#181818;stroke-width:0.5;stroke-dasharray:5.0,5.0;" x1="46" x2="46" y1="81.2969" y2="663.7578"/></g><g><title>Component</title><rect fill="#000000" fill-opacity="0.00000" height="582.4609" width="8" x="137.6055" y="81.2969"/><line style="stroke:#181818;stroke-width:0.5;stroke-dasharray:5.0,5.0;" x1="140.9658" x2="140.9658" y1="81.2969" y2="663.7578"/></g><g><title>ComponentOperator</title><rect fill="#000000" fill-opacity="0.00000" height="582.4609" width="8" x="270.2173" y="81.2969"/><line style="stroke:#181818;stroke-width:0.5;stroke-dasharray:5.0,5.0;" x1="273.2451" x2="273.2451" y1="81.2969" y2="663.7578"/></g><g><title>SubscribedNotifications</title><rect fill="#000000" fill-opacity="0.00000" height="582.4609" width="8" x="444.8359" y="81.2969"/><line style="stroke:#181818;stroke-width:0.5;stroke-dasharray:5.0,5.0;" x1="448.1895" x2="448.1895" y1="81.2969" y2="663.7578"/></g><g><title>EventSubscriptionEnablementOperator</title><rect fill="#000000" fill-opacity="0.00000" height="582.4609" width="8" x="684.5122" y="81.2969"/><line style="stroke:#181818;stroke-width:0.5;stroke-dasharray:5.0,5.0;" x1="688.4824" x2="688.4824" y1="81.2969" y2="663.7578"/></g><g><title>Event Manager</title><rect fill="#000000" fill-opacity="0.00000" height="582.4609" width="8" x="898.5034" y="81.2969"/><line style="stroke:#181818;stroke-width:0.5;stroke-dasharray:5.0,5.0;" x1="901.542" x2="901.542" y1="81.2969" y2="663.7578"/></g><g class="participant participant-head" data-participant="Operations"><text fill="#000000" font-family="sans-serif" font-size="14" lengthAdjust="spacing" textLength="76.9658" x="5" y="77.9951">Operations</text><ellipse cx="46.4829" cy="13.5" fill="#E2E2F0" rx="8" ry="8" style="stroke:#181818;stroke-width:0.5;"/><path d="M46.4829,21.5 L46.4829,48.5 M33.4829,29.5 L59.4829,29.5 M46.4829,48.5 L33.4829,63.5 M46.4829,48.5 L59.4829,63.5" fill="none" style="stroke:#181818;stroke-width:0.5;"/></g><g class="participant participant-tail" data-participant="Operations"><text fill="#000000" font-family="sans-serif" font-size="14" lengthAdjust="spacing" textLength="76.9658" x="5" y="675.7529">Operations</text><ellipse cx="46.4829" cy="687.5547" fill="#E2E2F0" rx="8" ry="8" style="stroke:#181818;stroke-width:0.5;"/><path d="M46.4829,695.5547 L46.4829,722.5547 M33.4829,703.5547 L59.4829,703.5547 M46.4829,722.5547 L33.4829,737.5547 M46.4829,722.5547 L59.4829,737.5547" fill="none" style="stroke:#181818;stroke-width:0.5;"/></g><g class="participant participant-head" data-participant="Component"><text fill="#000000" font-family="sans-serif" font-size="14" lengthAdjust="spacing" textLength="81.2793" x="97.9658" y="77.9951">Component</text><ellipse cx="141.6055" cy="49" fill="#E2E2F0" rx="12" ry="12" style="stroke:#181818;stroke-width:0.5;"/><line style="stroke:#181818;stroke-width:0.5;" x1="129.6055" x2="153.6055" y1="63" y2="63"/></g><g class="participant participant-tail" data-participant="Component"><text fill="#000000" font-family="sans-serif" font-size="14" lengthAdjust="spacing" textLength="81.2793" x="97.9658" y="675.7529">Component</text><ellipse cx="141.6055" cy="695.0547" fill="#E2E2F0" rx="12" ry="12" style="stroke:#181818;stroke-width:0.5;"/><line style="stroke:#181818;stroke-width:0.5;" x1="129.6055" x2="153.6055" y1="709.0547" y2="709.0547"/></g><g class="participant participant-head" data-participant="ComponentOperator"><rect fill="#E2E2F0" height="30.2969" rx="2.5" ry="2.5" style="stroke:#181818;stroke-width:0.5;" width="157.9443" x="195.2451" y="50"/><text fill="#000000" font-family="sans-serif" font-size="14" lengthAdjust="spacing" textLength="143.9443" x="202.2451" y="69.9951">ComponentOperator</text></g><g class="participant participant-tail" data-participant="ComponentOperator"><rect fill="#E2E2F0" height="30.2969" rx="2.5" ry="2.5" style="stroke:#181818;stroke-width:0.5;" width="157.9443" x="195.2451" y="662.7578"/><text fill="#000000" font-family="sans-serif" font-size="14" lengthAdjust="spacing" textLength="143.9443" x="202.2451" y="682.7529">ComponentOperator</text></g><g class="participant participant-head" data-participant="SubscribedNotifications"><text fill="#000000" font-family="sans-serif" font-size="14" lengthAdjust="spacing" textLength="165.293" x="363.1895" y="77.9951">SubscribedNotifications</text><ellipse cx="448.8359" cy="49" fill="#E2E2F0" rx="12" ry="12" style="stroke:#181818;stroke-width:0.5;"/><line style="stroke:#181818;stroke-width:0.5;" x1="436.8359" x2="460.8359" y1="63" y2="63"/></g><g class="participant participant-tail" data-participant="SubscribedNotifications"><text fill="#000000" font-family="sans-serif" font-size="14" lengthAdjust="spacing" textLength="165.293" x="363.1895" y="675.7529">SubscribedNotifications</text><ellipse cx="448.8359" cy="695.0547" fill="#E2E2F0" rx="12" ry="12" style="stroke:#181818;stroke-width:0.5;"/><line style="stroke:#181818;stroke-width:0.5;" x1="436.8359" x2="460.8359" y1="709.0547" y2="709.0547"/></g><g class="participant participant-head" data-participant="EventSubscriptionEnablementOperator"><rect fill="#E2E2F0" height="30.2969" rx="2.5" ry="2.5" style="stroke:#181818;stroke-width:0.5;" width="288.0596" x="544.4824" y="50"/><text fill="#000000" font-family="sans-serif" font-size="14" lengthAdjust="spacing" textLength="274.0596" x="551.4824" y="69.9951">EventSubscriptionEnablementOperator</text></g><g class="participant participant-tail" data-participant="EventSubscriptionEnablementOperator"><rect fill="#E2E2F0" height="30.2969" rx="2.5" ry="2.5" style="stroke:#181818;stroke-width:0.5;" width="288.0596" x="544.4824" y="662.7578"/><text fill="#000000" font-family="sans-serif" font-size="14" lengthAdjust="spacing" textLength="274.0596" x="551.4824" y="682.7529">EventSubscriptionEnablementOperator</text></g><g class="participant participant-head" data-participant="TMFC019"><rect fill="#E2E2F0" height="30.2969" rx="2.5" ry="2.5" style="stroke:#181818;stroke-width:0.5;" width="119.9229" x="842.542" y="50"/><text fill="#000000" font-family="sans-serif" font-size="14" lengthAdjust="spacing" textLength="105.9229" x="849.542" y="69.9951">Event Manager</text></g><g class="participant participant-tail" data-participant="TMFC019"><rect fill="#E2E2F0" height="30.2969" rx="2.5" ry="2.5" style="stroke:#181818;stroke-width:0.5;" width="119.9229" x="842.542" y="662.7578"/><text fill="#000000" font-family="sans-serif" font-size="14" lengthAdjust="spacing" textLength="105.9229" x="849.542" y="682.7529">Event Manager</text></g><g class="message" data-participant-1="Operations" data-participant-2="Component"><polygon fill="#181818" points="129.6055,108.4297,139.6055,112.4297,129.6055,116.4297,133.6055,112.4297" style="stroke:#181818;stroke-width:1;"/><line style="stroke:#181818;stroke-width:1;" x1="46.4829" x2="135.6055" y1="112.4297" y2="112.4297"/><text fill="#000000" font-family="sans-serif" font-size="13" lengthAdjust="spacing" textLength="39.1333" x="53.4829" y="107.3638">Install</text></g><g class="message" data-participant-1="Component" data-participant-2="ComponentOperator"><polygon fill="#181818" points="262.2173,137.5625,272.2173,141.5625,262.2173,145.5625,266.2173,141.5625" style="stroke:#181818;stroke-width:1;"/><line style="stroke:#181818;stroke-width:1;" x1="141.6055" x2="268.2173" y1="141.5625" y2="141.5625"/><text fill="#000000" font-family="sans-serif" font-size="13" lengthAdjust="spacing" textLength="61.877" x="148.6055" y="136.4966">on.create</text></g><path d="M185.2451,156.5625 L542.4863,156.5625 L542.4863,163.6953 L532.4863,173.6953 L185.2451,173.6953 L185.2451,156.5625" fill="#EEEEEE" style="stroke:#000000;stroke-width:1.5;"/><rect fill="none" height="461.0625" style="stroke:#000000;stroke-width:1.5;" width="1091.5508" x="185.2451" y="156.5625"/><text fill="#000000" font-family="sans-serif" font-size="13" font-weight="bold" lengthAdjust="spacing" textLength="312.2412" x="200.2451" y="169.6294">For each additional subscribedNotification</text><g class="message" data-participant-1="ComponentOperator" data-participant-2="SubscribedNotifications"><polygon fill="#181818" points="436.8359,208.9609,446.8359,212.9609,436.8359,216.9609,440.8359,212.9609" style="stroke:#181818;stroke-width:1;"/><line style="stroke:#181818;stroke-width:1;" x1="274.2173" x2="442.8359" y1="212.9609" y2="212.9609"/><text fill="#000000" font-family="sans-serif" font-size="13" lengthAdjust="spacing" textLength="41.5518" x="281.2173" y="207.895">create</text></g><path d="M453,178.6953 L453,233.6953 L823,233.6953 L823,188.6953 L813,178.6953 L453,178.6953" fill="#FEFFDD" style="stroke:#181818;stroke-width:0.5;"/><path d="M813,178.6953 L813,188.6953 L823,188.6953 L813,178.6953" fill="#FEFFDD" style="stroke:#181818;stroke-width:0.5;"/><text fill="#000000" font-family="sans-serif" font-size="13" lengthAdjust="spacing" textLength="349.1719" x="459" y="195.7622">A separate subscribedNotification resource is created</text><text fill="#000000" font-family="sans-serif" font-size="13" lengthAdjust="spacing" textLength="333.3535" x="459" y="210.895">for each published notification in the core function,</text><text fill="#000000" font-family="sans-serif" font-size="13" lengthAdjust="spacing" textLength="229.436" x="459" y="226.0278">security and management sections</text><g class="message" data-participant-1="SubscribedNotifications" data-participant-2="EventSubscriptionEnablementOperator"><polygon fill="#181818" points="676.5122,256.2266,686.5122,260.2266,676.5122,264.2266,680.5122,260.2266" style="stroke:#181818;stroke-width:1;"/><line style="stroke:#181818;stroke-width:1;" x1="448.8359" x2="682.5122" y1="260.2266" y2="260.2266"/><text fill="#000000" font-family="sans-serif" font-size="13" lengthAdjust="spacing" textLength="61.877" x="455.8359" y="255.1606">on.create</text></g><g class="message" data-participant-1="EventSubscriptionEnablementOperator" data-participant-2="TMFC019"><polygon fill="#181818" points="890.5034,303.4922,900.5034,307.4922,890.5034,311.4922,894.5034,307.4922" style="stroke:#181818;stroke-width:1;"/><line style="stroke:#181818;stroke-width:1;" x1="688.5122" x2="896.5034" y1="307.4922" y2="307.4922"/><text fill="#000000" font-family="sans-serif" font-size="13" lengthAdjust="spacing" textLength="167.0195" x="695.5122" y="302.4263">search for matching topic</text></g><path d="M907,273.2266 L907,328.2266 L1186,328.2266 L1186,283.2266 L1176,273.2266 L907,273.2266" fill="#FEFFDD" style="stroke:#181818;stroke-width:0.5;"/><path d="M1176,273.2266 L1176,283.2266 L1186,283.2266 L1176,273.2266" fill="#FEFFDD" style="stroke:#181818;stroke-width:0.5;"/><text fill="#000000" font-family="sans-serif" font-size="13" lengthAdjust="spacing" textLength="252.8462" x="913" y="290.2935">A topic can exist if another component</text><text fill="#000000" font-family="sans-serif" font-size="13" lengthAdjust="spacing" textLength="258.813" x="913" y="305.4263">is already publishing these notifications</text><text fill="#000000" font-family="sans-serif" font-size="13" lengthAdjust="spacing" textLength="229.1885" x="913" y="320.5591">or if an operator pre-created topics</text><path d="M534.4824,340.625 L598.9253,340.625 L598.9253,347.7578 L588.9253,357.7578 L534.4824,357.7578 L534.4824,340.625" fill="#EEEEEE" style="stroke:#000000;stroke-width:1.5;"/><rect fill="none" height="211.7344" style="stroke:#000000;stroke-width:1.5;" width="732.3135" x="534.4824" y="340.625"/><text fill="#000000" font-family="sans-serif" font-size="13" font-weight="bold" lengthAdjust="spacing" textLength="19.4429" x="549.4824" y="353.6919">alt</text><text fill="#000000" font-family="sans-serif" font-size="11" font-weight="bold" lengthAdjust="spacing" textLength="77.2417" x="613.9253" y="352.8354">[Topic exist]</text><g class="message" data-participant-1="TMFC019" data-participant-2="EventSubscriptionEnablementOperator"><polygon fill="#181818" points="699.5122,374.8906,689.5122,378.8906,699.5122,382.8906,695.5122,378.8906" style="stroke:#181818;stroke-width:1;"/><line style="stroke:#181818;stroke-width:1;stroke-dasharray:2.0,2.0;" x1="693.5122" x2="901.5034" y1="378.8906" y2="378.8906"/><text fill="#000000" font-family="sans-serif" font-size="13" lengthAdjust="spacing" textLength="40.1616" x="705.5122" y="373.8247">Found</text></g><g class="message" data-participant-1="EventSubscriptionEnablementOperator" data-participant-2="TMFC019"><polygon fill="#181818" points="890.5034,404.0234,900.5034,408.0234,890.5034,412.0234,894.5034,408.0234" style="stroke:#181818;stroke-width:1;"/><line style="stroke:#181818;stroke-width:1;" x1="688.5122" x2="896.5034" y1="408.0234" y2="408.0234"/><text fill="#000000" font-family="sans-serif" font-size="13" lengthAdjust="spacing" textLength="91.7617" x="695.5122" y="402.9575">configure Hub</text></g><g class="message" data-participant-1="TMFC019" data-participant-2="TMFC019"><line style="stroke:#181818;stroke-width:1;" x1="902.5034" x2="944.5034" y1="437.1563" y2="437.1563"/><line style="stroke:#181818;stroke-width:1;" x1="944.5034" x2="944.5034" y1="437.1563" y2="450.1563"/><line style="stroke:#181818;stroke-width:1;" x1="903.5034" x2="944.5034" y1="450.1563" y2="450.1563"/><polygon fill="#181818" points="913.5034,446.1563,903.5034,450.1563,913.5034,454.1563,909.5034,450.1563" style="stroke:#181818;stroke-width:1;"/><text fill="#000000" font-family="sans-serif" font-size="13" lengthAdjust="spacing" textLength="332.6997" x="909.5034" y="432.0903">(optional) approval flow to approve creation of hub</text></g><g class="message" data-participant-1="TMFC019" data-participant-2="EventSubscriptionEnablementOperator"><polygon fill="#181818" points="699.5122,475.2891,689.5122,479.2891,699.5122,483.2891,695.5122,479.2891" style="stroke:#181818;stroke-width:1;"/><line style="stroke:#181818;stroke-width:1;" x1="693.5122" x2="901.5034" y1="479.2891" y2="479.2891"/><text fill="#000000" font-family="sans-serif" font-size="13" lengthAdjust="spacing" textLength="49.8037" x="705.5122" y="474.2231">created</text></g><line style="stroke:#000000;stroke-width:1;stroke-dasharray:2.0,2.0;" x1="534.4824" x2="1266.7959" y1="488.2891" y2="488.2891"/><text fill="#000000" font-family="sans-serif" font-size="11" font-weight="bold" lengthAdjust="spacing" textLength="134.9863" x="539.4824" y="498.4995">[Topic does not exist]</text><g class="message" data-participant-1="TMFC019" data-participant-2="EventSubscriptionEnablementOperator"><polygon fill="#181818" points="699.5122,529.793,689.5122,533.793,699.5122,537.793,695.5122,533.793" style="stroke:#181818;stroke-width:1;"/><line style="stroke:#181818;stroke-width:1;stroke-dasharray:2.0,2.0;" x1="693.5122" x2="901.5034" y1="533.793" y2="533.793"/><text fill="#000000" font-family="sans-serif" font-size="13" lengthAdjust="spacing" textLength="67.0693" x="705.5122" y="528.7271">Not Found</text></g><path d="M907,507.0938 L907,547.0938 L1251,547.0938 L1251,517.0938 L1241,507.0938 L907,507.0938" fill="#FEFFDD" style="stroke:#181818;stroke-width:0.5;"/><path d="M1241,507.0938 L1241,517.0938 L1251,517.0938 L1241,507.0938" fill="#FEFFDD" style="stroke:#181818;stroke-width:0.5;"/><text fill="#000000" font-family="sans-serif" font-size="13" lengthAdjust="spacing" textLength="147.9385" x="913" y="524.1606">if a topic doesn't exist,</text><text fill="#000000" font-family="sans-serif" font-size="13" lengthAdjust="spacing" textLength="323.2925" x="913" y="539.2935">this should not block activation of the component</text><g class="message" data-participant-1="EventSubscriptionEnablementOperator" data-participant-2="SubscribedNotifications"><polygon fill="#181818" points="459.8359,576.4922,449.8359,580.4922,459.8359,584.4922,455.8359,580.4922" style="stroke:#181818;stroke-width:1;"/><line style="stroke:#181818;stroke-width:1;" x1="453.8359" x2="687.5122" y1="580.4922" y2="580.4922"/><text fill="#000000" font-family="sans-serif" font-size="13" lengthAdjust="spacing" textLength="45.8047" x="465.8359" y="575.4263">update</text></g><g class="message" data-participant-1="SubscribedNotifications" data-participant-2="ComponentOperator"><polygon fill="#181818" points="285.2173,605.625,275.2173,609.625,285.2173,613.625,281.2173,609.625" style="stroke:#181818;stroke-width:1;"/><line style="stroke:#181818;stroke-width:1;" x1="279.2173" x2="447.8359" y1="609.625" y2="609.625"/><text fill="#000000" font-family="sans-serif" font-size="13" lengthAdjust="spacing" textLength="66.1299" x="291.2173" y="604.5591">on.update</text></g><g class="message" data-participant-1="ComponentOperator" data-participant-2="Component"><polygon fill="#181818" points="152.6055,641.7578,142.6055,645.7578,152.6055,649.7578,148.6055,645.7578" style="stroke:#181818;stroke-width:1;"/><line style="stroke:#181818;stroke-width:1;" x1="146.6055" x2="273.2173" y1="645.7578" y2="645.7578"/><text fill="#000000" font-family="sans-serif" font-size="13" lengthAdjust="spacing" textLength="45.8047" x="158.6055" y="640.6919">update</text></g><!--SRC=[dLHDRzim33tFluBePHjG5zjnGJ6WA1giXsw7zG_8CcqBKqH17zdwxqT9TgCiIM7CDqlau-FZeuGCvE27HIU28kCRD4655xYddIN3FuqLBYYfh33XS5eIo2tXFsFdfLCTzjyfg4796QrEVjXpy1neq_M34Pt6NGrNnr_b17WIHepeha1uU7xQtd_w_ALfNed0RLknXmqy6X-4rbL4-_MKzmR8t4Y78Y0qewDeOSiwe90JYBvN2Krey6VRQaxWKeqB4coWb6aCSIsdnYaqmDyTUEHk4u7pLS2Xf-WaWl8pHfypXuMeZPrMVi8UJ9sd38G9GP936AAHwV0wPtgKqQLn2TF3BkkQr4_do_0p5kRe2msbNbUCib8uewr8ISZpX3VCIJZkCJMx4q5EoemGo2gPqVuHyzrTkGCf3E0VvGEeWRia5iAn4ekNSopBAJGJwryM1JFsX1wFXFGbd0baBA25fdNOpWCfPKlaaNX21tZEb3AT0hL6WzksFOYmfMZwzRa7_NWH99b1ZP5Dy2rs1MEvh7N-GBQO_IC8QntjsVQ3fj_SsNo0nNt9MZJ0j82jQwOcL7aODOjTzEa9VTAj4ke_b6ABLcgTiSZofLdEPacLpVkvyFLHL9ZO9NwYgFDCeTCaVu7WDTc_Ab6MhBRMYGlI3plXpNLYZLQjKxJziakdxm-3N7n_U0_dNAPp_7AUUHVdqBy0]--></g></svg>