<svg xmlns="http://www.w3.org/2000/svg" xmlns:xlink="http://www.w3.org/1999/xlink" contentStyleType="text/css" data-diagram-type="SEQUENCE" height="489px" preserveAspectRatio="none" style="width:1203px;height:489px;background:#FFFFFF;" version="1.1" viewBox="0 0 1203 489" width="1203px" zoomAndPan="magnify"><defs/><g><rect fill="none" height="206.1953" style="stroke:#000000;stroke-width:1.5;" width="969.9263" x="227.8535" y="156.5625"/><g><title>Operations</title><rect fill="#000000" fill-opacity="0.00000" height="327.5938" width="8" x="42.4829" y="81.2969"/><line style="stroke:#181818;stroke-width:0.5;stroke-dasharray:5.0,5.0;" x1="46" x2="46" y1="81.2969" y2="408.8906"/></g><g><title>Component</title><rect fill="#000000" fill-opacity="0.00000" height="327.5938" width="8" x="137.6055" y="81.2969"/><line style="stroke:#181818;stroke-width:0.5;stroke-dasharray:5.0,5.0;" x1="140.9658" x2="140.9658" y1="81.2969" y2="408.8906"/></g><g><title>ComponentOperator</title><rect fill="#000000" fill-opacity="0.00000" height="327.5938" width="8" x="312.8257" y="81.2969"/><line style="stroke:#181818;stroke-width:0.5;stroke-dasharray:5.0,5.0;" x1="315.8535" x2="315.8535" y1="81.2969" y2="408.8906"/></g><g><title>PublishedNotification</title><rect fill="#000000" fill-opacity="0.00000" height="327.5938" width="8" x="478.7866" y="81.2969"/><line style="stroke:#181818;stroke-width:0.5;stroke-dasharray:5.0,5.0;" x1="481.7979" x2="481.7979" y1="81.2969" y2="408.8906"/></g><g><title>EventPublishingEnablementOperator</title><rect fill="#000000" fill-opacity="0.00000" height="327.5938" width="8" x="702.2104" y="81.2969"/><line style="stroke:#181818;stroke-width:0.5;stroke-dasharray:5.0,5.0;" x1="705.7754" x2="705.7754" y1="81.2969" y2="408.8906"/></g><g><title>Event Manager</title><rect fill="#000000" fill-opacity="0.00000" height="327.5938" width="8" x="908.6069" y="81.2969"/><line style="stroke:#181818;stroke-width:0.5;stroke-dasharray:5.0,5.0;" x1="911.6455" x2="911.6455" y1="81.2969" y2="408.8906"/></g><g class="participant participant-head" data-participant="Operations"><text fill="#000000" font-family="sans-serif" font-size="14" lengthAdjust="spacing" textLength="76.9658" x="5" y="77.9951">Operations</text><ellipse cx="46.4829" cy="13.5" fill="#E2E2F0" rx="8" ry="8" style="stroke:#181818;stroke-width:0.5;"/><path d="M46.4829,21.5 L46.4829,48.5 M33.4829,29.5 L59.4829,29.5 M46.4829,48.5 L33.4829,63.5 M46.4829,48.5 L59.4829,63.5" fill="none" style="stroke:#181818;stroke-width:0.5;"/></g><g class="participant participant-tail" data-participant="Operations"><text fill="#000000" font-family="sans-serif" font-size="14" lengthAdjust="spacing" textLength="76.9658" x="5" y="420.8857">Operations</text><ellipse cx="46.4829" cy="432.6875" fill="#E2E2F0" rx="8" ry="8" style="stroke:#181818;stroke-width:0.5;"/><path d="M46.4829,440.6875 L46.4829,467.6875 M33.4829,448.6875 L59.4829,448.6875 M46.4829,467.6875 L33.4829,482.6875 M46.4829,467.6875 L59.4829,482.6875" fill="none" style="stroke:#181818;stroke-width:0.5;"/></g><g class="participant participant-head" data-participant="Component"><text fill="#000000" font-family="sans-serif" font-size="14" lengthAdjust="spacing" textLength="81.2793" x="97.9658" y="77.9951">Component</text><ellipse cx="141.6055" cy="49" fill="#E2E2F0" rx="12" ry="12" style="stroke:#181818;stroke-width:0.5;"/><line style="stroke:#181818;stroke-width:0.5;" x1="129.6055" x2="153.6055" y1="63" y2="63"/></g><g class="participant participant-tail" data-participant="Component"><text fill="#000000" font-family="sans-serif" font-size="14" lengthAdjust="spacing" textLength="81.2793" x="97.9658" y="420.8857">Component</text><ellipse cx="141.6055" cy="440.1875" fill="#E2E2F0" rx="12" ry="12" style="stroke:#181818;stroke-width:0.5;"/><line style="stroke:#181818;stroke-width:0.5;" x1="129.6055" x2="153.6055" y1="454.1875" y2="454.1875"/></g><g class="participant participant-head" data-participant="ComponentOperator"><rect fill="#E2E2F0" height="30.2969" rx="2.5" ry="2.5" style="stroke:#181818;stroke-width:0.5;" width="157.9443" x="237.8535" y="50"/><text fill="#000000" font-family="sans-serif" font-size="14" lengthAdjust="spacing" textLength="143.9443" x="244.8535" y="69.9951">ComponentOperator</text></g><g class="participant participant-tail" data-participant="ComponentOperator"><rect fill="#E2E2F0" height="30.2969" rx="2.5" ry="2.5" style="stroke:#181818;stroke-width:0.5;" width="157.9443" x="237.8535" y="407.8906"/><text fill="#000000" font-family="sans-serif" font-size="14" lengthAdjust="spacing" textLength="143.9443" x="244.8535" y="427.8857">ComponentOperator</text></g><g class="participant participant-head" data-participant="PublishedNotification"><text fill="#000000" font-family="sans-serif" font-size="14" lengthAdjust="spacing" textLength="147.9775" x="405.7979" y="77.9951">PublishedNotification</text><ellipse cx="482.7866" cy="49" fill="#E2E2F0" rx="12" ry="12" style="stroke:#181818;stroke-width:0.5;"/><line style="stroke:#181818;stroke-width:0.5;" x1="470.7866" x2="494.7866" y1="63" y2="63"/></g><g class="participant participant-tail" data-participant="PublishedNotification"><text fill="#000000" font-family="sans-serif" font-size="14" lengthAdjust="spacing" textLength="147.9775" x="405.7979" y="420.8857">PublishedNotification</text><ellipse cx="482.7866" cy="440.1875" fill="#E2E2F0" rx="12" ry="12" style="stroke:#181818;stroke-width:0.5;"/><line style="stroke:#181818;stroke-width:0.5;" x1="470.7866" x2="494.7866" y1="454.1875" y2="454.1875"/></g><g class="participant participant-head" data-participant="EventPublishingEnablementOperator"><rect fill="#E2E2F0" height="30.2969" rx="2.5" ry="2.5" style="stroke:#181818;stroke-width:0.5;" width="272.8701" x="569.7754" y="50"/><text fill="#000000" font-family="sans-serif" font-size="14" lengthAdjust="spacing" textLength="258.8701" x="576.7754" y="69.9951">EventPublishingEnablementOperator</text></g><g class="participant participant-tail" data-participant="EventPublishingEnablementOperator"><rect fill="#E2E2F0" height="30.2969" rx="2.5" ry="2.5" style="stroke:#181818;stroke-width:0.5;" width="272.8701" x="569.7754" y="407.8906"/><text fill="#000000" font-family="sans-serif" font-size="14" lengthAdjust="spacing" textLength="258.8701" x="576.7754" y="427.8857">EventPublishingEnablementOperator</text></g><g class="participant participant-head" data-participant="TMFC019"><rect fill="#E2E2F0" height="30.2969" rx="2.5" ry="2.5" style="stroke:#181818;stroke-width:0.5;" width="119.9229" x="852.6455" y="50"/><text fill="#000000" font-family="sans-serif" font-size="14" lengthAdjust="spacing" textLength="105.9229" x="859.6455" y="69.9951">Event Manager</text></g><g class="participant participant-tail" data-participant="TMFC019"><rect fill="#E2E2F0" height="30.2969" rx="2.5" ry="2.5" style="stroke:#181818;stroke-width:0.5;" width="119.9229" x="852.6455" y="407.8906"/><text fill="#000000" font-family="sans-serif" font-size="14" lengthAdjust="spacing" textLength="105.9229" x="859.6455" y="427.8857">Event Manager</text></g><g class="message" data-participant-1="Operations" data-participant-2="Component"><polygon fill="#181818" points="129.6055,108.4297,139.6055,112.4297,129.6055,116.4297,133.6055,112.4297" style="stroke:#181818;stroke-width:1;"/><line style="stroke:#181818;stroke-width:1;" x1="46.4829" x2="135.6055" y1="112.4297" y2="112.4297"/><text fill="#000000" font-family="sans-serif" font-size="13" lengthAdjust="spacing" textLength="56.6655" x="53.4829" y="107.3638">Uninstall</text></g><g class="message" data-participant-1="Component" data-participant-2="ComponentOperator"><polygon fill="#181818" points="304.8257,137.5625,314.8257,141.5625,304.8257,145.5625,308.8257,141.5625" style="stroke:#181818;stroke-width:1;"/><line style="stroke:#181818;stroke-width:1;" x1="141.6055" x2="310.8257" y1="141.5625" y2="141.5625"/><text fill="#000000" font-family="sans-serif" font-size="13" lengthAdjust="spacing" textLength="61.2803" x="148.6055" y="136.4966">on.delete</text></g><path d="M227.8535,156.5625 L567.5498,156.5625 L567.5498,163.6953 L557.5498,173.6953 L227.8535,173.6953 L227.8535,156.5625" fill="#EEEEEE" style="stroke:#000000;stroke-width:1.5;"/><rect fill="none" height="206.1953" style="stroke:#000000;stroke-width:1.5;" width="969.9263" x="227.8535" y="156.5625"/><text fill="#000000" font-family="sans-serif" font-size="13" font-weight="bold" lengthAdjust="spacing" textLength="294.6963" x="242.8535" y="169.6294">For each removed PublishedNotification</text><g class="message" data-participant-1="ComponentOperator" data-participant-2="PublishedNotification"><polygon fill="#181818" points="470.7866,208.9609,480.7866,212.9609,470.7866,216.9609,474.7866,212.9609" style="stroke:#181818;stroke-width:1;"/><line style="stroke:#181818;stroke-width:1;" x1="316.8257" x2="476.7866" y1="212.9609" y2="212.9609"/><text fill="#000000" font-family="sans-serif" font-size="13" lengthAdjust="spacing" textLength="40.9551" x="323.8257" y="207.895">delete</text></g><path d="M487,178.6953 L487,233.6953 L869,233.6953 L869,188.6953 L859,178.6953 L487,178.6953" fill="#FEFFDD" style="stroke:#181818;stroke-width:0.5;"/><path d="M859,178.6953 L859,188.6953 L869,188.6953 L859,178.6953" fill="#FEFFDD" style="stroke:#181818;stroke-width:0.5;"/><text fill="#000000" font-family="sans-serif" font-size="13" lengthAdjust="spacing" textLength="341.3452" x="493" y="195.7622">A separate PublishedNotification resource is created</text><text fill="#000000" font-family="sans-serif" font-size="13" lengthAdjust="spacing" textLength="361.2959" x="493" y="210.895">for each new PublishedNotification in the core function,</text><text fill="#000000" font-family="sans-serif" font-size="13" lengthAdjust="spacing" textLength="229.436" x="493" y="226.0278">security and management sections</text><g class="message" data-participant-1="PublishedNotification" data-participant-2="EventPublishingEnablementOperator"><polygon fill="#181818" points="694.2104,274.3594,704.2104,278.3594,694.2104,282.3594,698.2104,278.3594" style="stroke:#181818;stroke-width:1;"/><line style="stroke:#181818;stroke-width:1;" x1="482.7866" x2="700.2104" y1="278.3594" y2="278.3594"/><text fill="#000000" font-family="sans-serif" font-size="13" lengthAdjust="spacing" textLength="61.2803" x="489.7866" y="273.2935">on.delete</text></g><path d="M711,244.0938 L711,299.0938 L1182,299.0938 L1182,254.0938 L1172,244.0938 L711,244.0938" fill="#FEFFDD" style="stroke:#181818;stroke-width:0.5;"/><path d="M1172,244.0938 L1172,254.0938 L1182,254.0938 L1172,244.0938" fill="#FEFFDD" style="stroke:#181818;stroke-width:0.5;"/><text fill="#000000" font-family="sans-serif" font-size="13" lengthAdjust="spacing" textLength="380.8657" x="717" y="261.1606">Since morethan one component may be publishing events</text><text fill="#000000" font-family="sans-serif" font-size="13" lengthAdjust="spacing" textLength="236.9263" x="717" y="276.2935">on the topic, the topic is not deleted</text><text fill="#000000" font-family="sans-serif" font-size="13" lengthAdjust="spacing" textLength="450.5693" x="717" y="291.4263">Since the component will no longer publish no need to clean up hub?</text><g class="message" data-participant-1="EventPublishingEnablementOperator" data-participant-2="PublishedNotification"><polygon fill="#181818" points="493.7866,321.625,483.7866,325.625,493.7866,329.625,489.7866,325.625" style="stroke:#181818;stroke-width:1;"/><line style="stroke:#181818;stroke-width:1;" x1="487.7866" x2="705.2104" y1="325.625" y2="325.625"/><text fill="#000000" font-family="sans-serif" font-size="13" lengthAdjust="spacing" textLength="78.8633" x="499.7866" y="320.5591">allow delete</text></g><g class="message" data-participant-1="PublishedNotification" data-participant-2="ComponentOperator"><polygon fill="#181818" points="327.8257,350.7578,317.8257,354.7578,327.8257,358.7578,323.8257,354.7578" style="stroke:#181818;stroke-width:1;"/><line style="stroke:#181818;stroke-width:1;" x1="321.8257" x2="481.7866" y1="354.7578" y2="354.7578"/><text fill="#000000" font-family="sans-serif" font-size="13" lengthAdjust="spacing" textLength="66.1299" x="333.8257" y="349.6919">on.update</text></g><g class="message" data-participant-1="ComponentOperator" data-participant-2="Component"><polygon fill="#181818" points="152.6055,386.8906,142.6055,390.8906,152.6055,394.8906,148.6055,390.8906" style="stroke:#181818;stroke-width:1;"/><line style="stroke:#181818;stroke-width:1;" x1="146.6055" x2="315.8257" y1="390.8906" y2="390.8906"/><text fill="#000000" font-family="sans-serif" font-size="13" lengthAdjust="spacing" textLength="151.2202" x="158.6055" y="385.8247">update (allow removal)</text></g><!--SRC=[XLF1Ri8m33qtNs5nsgGnRSUXQTE4uCOsQTi7XDJGIAbT9Ic8lvz3A1HH1AVYFZy_Fxzg4zd3LuDUHyiK55AqSGTJhXic-QCQxQCrjj4KJzNSmBw3VxTBPqE5vIT7kx9cJtRMEji8z02pj9wHNZgi-rHzz6WFXuKclKO_0XtWTp6VFZs_AAMEAk1rt9CE4_WZIo5gvtgOyHjSwfu0qsE93YEgjUUsWRdOWDfKuB7c3PPNLYekgDA0GUm43WCAueZWxRgAgW3vVK10sLPBTR1JD0HklK6m0On70PQvSzMf9DnUwRK4iK8mx15MBPbKVCZT0KthqxaqbL3llKqNIFLy_0BbHLAhYc5osVNc8VlUNgp-OqdMgaLSh3G9CYdjJbNh7ImHcYCvO1eMSYldnI8trZoS7fD7CkLWTjaVattesBVMEK62Ov9CTLDIXL3k7HcCGz4aOQZQvNlFZCGux8S4yAOVaaj996-xE2IsonG9qvKKYPjjKqe6v6ChpyC_aEiCXRiySXzcxUxLFm00]--></g></svg>