<svg xmlns="http://www.w3.org/2000/svg" xmlns:xlink="http://www.w3.org/1999/xlink" contentStyleType="text/css" data-diagram-type="SEQUENCE" height="897px" preserveAspectRatio="none" style="width:862px;height:897px;background:#FFFFFF;" version="1.1" viewBox="0 0 862 897" width="862px" zoomAndPan="magnify"><defs/><g><g><title>External</title><rect fill="#000000" fill-opacity="0.00000" height="669.7891" width="8" x="50.1118" y="113.8906"/><line style="stroke:#181818;stroke-width:0.5;stroke-dasharray:5.0,5.0;" x1="54" x2="54" y1="113.8906" y2="783.6797"/></g><g><title>Resource</title><rect fill="#000000" fill-opacity="0.00000" height="669.7891" width="8" x="474.4331" y="113.8906"/><line style="stroke:#181818;stroke-width:0.5;stroke-dasharray:5.0,5.0;" x1="477.9985" x2="477.9985" y1="113.8906" y2="783.6797"/></g><g><title>Kubernetes</title><rect fill="#000000" fill-opacity="0.00000" height="669.7891" width="8" x="814.4321" y="113.8906"/><line style="stroke:#181818;stroke-width:0.5;stroke-dasharray:5.0,5.0;" x1="818.3359" x2="818.3359" y1="113.8906" y2="783.6797"/></g><g class="participant participant-head" data-participant="ExternalTool"><text fill="#000000" font-family="sans-serif" font-size="14" lengthAdjust="spacing" textLength="58.3311" x="21.9463" y="77.9951">External</text><text fill="#000000" font-family="sans-serif" font-size="14" lengthAdjust="spacing" textLength="92.2236" x="5" y="94.292">Management</text><text fill="#000000" font-family="sans-serif" font-size="14" lengthAdjust="spacing" textLength="29.5723" x="36.3257" y="110.5889">Tool</text><ellipse cx="54.1118" cy="13.5" fill="#E2E2F0" rx="8" ry="8" style="stroke:#181818;stroke-width:0.5;"/><path d="M54.1118,21.5 L54.1118,48.5 M41.1118,29.5 L67.1118,29.5 M54.1118,48.5 L41.1118,63.5 M54.1118,48.5 L67.1118,63.5" fill="none" style="stroke:#181818;stroke-width:0.5;"/></g><g class="participant participant-tail" data-participant="ExternalTool"><text fill="#000000" font-family="sans-serif" font-size="14" lengthAdjust="spacing" textLength="58.3311" x="21.9463" y="795.6748">External</text><text fill="#000000" font-family="sans-serif" font-size="14" lengthAdjust="spacing" textLength="92.2236" x="5" y="811.9717">Management</text><text fill="#000000" font-family="sans-serif" font-size="14" lengthAdjust="spacing" textLength="29.5723" x="36.3257" y="828.2686">Tool</text><ellipse cx="54.1118" cy="840.0703" fill="#E2E2F0" rx="8" ry="8" style="stroke:#181818;stroke-width:0.5;"/><path d="M54.1118,848.0703 L54.1118,875.0703 M41.1118,856.0703 L67.1118,856.0703 M54.1118,875.0703 L41.1118,890.0703 M54.1118,875.0703 L67.1118,890.0703" fill="none" style="stroke:#181818;stroke-width:0.5;"/></g><g class="participant participant-head" data-participant="ResourceInventory"><text fill="#000000" font-family="sans-serif" font-size="14" lengthAdjust="spacing" textLength="65.1396" x="442.8633" y="77.9951">Resource</text><text fill="#000000" font-family="sans-serif" font-size="14" lengthAdjust="spacing" textLength="66.8691" x="441.9985" y="94.292">Inventory</text><text fill="#000000" font-family="sans-serif" font-size="14" lengthAdjust="spacing" textLength="51.7412" x="449.5625" y="110.5889">Service</text><ellipse cx="478.4331" cy="49" fill="#E2E2F0" rx="12" ry="12" style="stroke:#181818;stroke-width:0.5;"/><line style="stroke:#181818;stroke-width:0.5;" x1="466.4331" x2="490.4331" y1="63" y2="63"/></g><g class="participant participant-tail" data-participant="ResourceInventory"><text fill="#000000" font-family="sans-serif" font-size="14" lengthAdjust="spacing" textLength="65.1396" x="442.8633" y="795.6748">Resource</text><text fill="#000000" font-family="sans-serif" font-size="14" lengthAdjust="spacing" textLength="66.8691" x="441.9985" y="811.9717">Inventory</text><text fill="#000000" font-family="sans-serif" font-size="14" lengthAdjust="spacing" textLength="51.7412" x="449.5625" y="828.2686">Service</text><ellipse cx="478.4331" cy="847.5703" fill="#E2E2F0" rx="12" ry="12" style="stroke:#181818;stroke-width:0.5;"/><line style="stroke:#181818;stroke-width:0.5;" x1="466.4331" x2="490.4331" y1="861.5703" y2="861.5703"/></g><g class="participant participant-head" data-participant="K8sAPI"><text fill="#000000" font-family="sans-serif" font-size="14" lengthAdjust="spacing" textLength="80.1924" x="775.3359" y="94.292">Kubernetes</text><text fill="#000000" font-family="sans-serif" font-size="14" lengthAdjust="spacing" textLength="72.5088" x="779.1777" y="110.5889">API Server</text><path d="M800.4321,45.2969 C800.4321,35.2969 818.4321,35.2969 818.4321,35.2969 C818.4321,35.2969 836.4321,35.2969 836.4321,45.2969 L836.4321,71.2969 C836.4321,81.2969 818.4321,81.2969 818.4321,81.2969 C818.4321,81.2969 800.4321,81.2969 800.4321,71.2969 L800.4321,45.2969" fill="#E2E2F0" style="stroke:#181818;stroke-width:1.5;"/><path d="M800.4321,45.2969 C800.4321,55.2969 818.4321,55.2969 818.4321,55.2969 C818.4321,55.2969 836.4321,55.2969 836.4321,45.2969" fill="none" style="stroke:#181818;stroke-width:1.5;"/></g><g class="participant participant-tail" data-participant="K8sAPI"><text fill="#000000" font-family="sans-serif" font-size="14" lengthAdjust="spacing" textLength="80.1924" x="775.3359" y="795.6748">Kubernetes</text><text fill="#000000" font-family="sans-serif" font-size="14" lengthAdjust="spacing" textLength="72.5088" x="779.1777" y="811.9717">API Server</text><path d="M800.4321,825.2734 C800.4321,815.2734 818.4321,815.2734 818.4321,815.2734 C818.4321,815.2734 836.4321,815.2734 836.4321,825.2734 L836.4321,851.2734 C836.4321,861.2734 818.4321,861.2734 818.4321,861.2734 C818.4321,861.2734 800.4321,861.2734 800.4321,851.2734 L800.4321,825.2734" fill="#E2E2F0" style="stroke:#181818;stroke-width:1.5;"/><path d="M800.4321,825.2734 C800.4321,835.2734 818.4321,835.2734 818.4321,835.2734 C818.4321,835.2734 836.4321,835.2734 836.4321,825.2734" fill="none" style="stroke:#181818;stroke-width:1.5;"/></g><g class="message" data-participant-1="ExternalTool" data-participant-2="ResourceInventory"><polygon fill="#181818" points="466.4331,141.0234,476.4331,145.0234,466.4331,149.0234,470.4331,145.0234" style="stroke:#181818;stroke-width:1;"/><line style="stroke:#181818;stroke-width:1;" x1="54.1118" x2="472.4331" y1="145.0234" y2="145.0234"/><text fill="#000000" font-family="sans-serif" font-size="13" lengthAdjust="spacing" textLength="286.3936" x="61.1118" y="139.9575">GET /tmf-api/resourceInventory/v4/resource</text></g><g class="message" data-participant-1="ResourceInventory" data-participant-2="K8sAPI"><polygon fill="#181818" points="806.4321,170.1563,816.4321,174.1563,806.4321,178.1563,810.4321,174.1563" style="stroke:#181818;stroke-width:1;"/><line style="stroke:#181818;stroke-width:1;" x1="478.4331" x2="812.4321" y1="174.1563" y2="174.1563"/><text fill="#000000" font-family="sans-serif" font-size="13" lengthAdjust="spacing" textLength="243.623" x="485.4331" y="169.0903">List all Components and ExposedAPIs</text></g><g class="message" data-participant-1="K8sAPI" data-participant-2="ResourceInventory"><polygon fill="#181818" points="489.4331,199.2891,479.4331,203.2891,489.4331,207.2891,485.4331,203.2891" style="stroke:#181818;stroke-width:1;"/><line style="stroke:#181818;stroke-width:1;stroke-dasharray:2.0,2.0;" x1="483.4331" x2="817.4321" y1="203.2891" y2="203.2891"/><text fill="#000000" font-family="sans-serif" font-size="13" lengthAdjust="spacing" textLength="315.999" x="495.4331" y="198.2231">Components and ExposedAPI Custom Resources</text></g><g class="message" data-participant-1="ResourceInventory" data-participant-2="ResourceInventory"><line style="stroke:#181818;stroke-width:1;" x1="478.4331" x2="520.4331" y1="247.5547" y2="247.5547"/><line style="stroke:#181818;stroke-width:1;" x1="520.4331" x2="520.4331" y1="247.5547" y2="260.5547"/><line style="stroke:#181818;stroke-width:1;" x1="479.4331" x2="520.4331" y1="260.5547" y2="260.5547"/><polygon fill="#181818" points="489.4331,256.5547,479.4331,260.5547,489.4331,264.5547,485.4331,260.5547" style="stroke:#181818;stroke-width:1;"/><text fill="#000000" font-family="sans-serif" font-size="13" lengthAdjust="spacing" textLength="145.4692" x="485.4331" y="227.356">Transform K8s objects</text><text fill="#000000" font-family="sans-serif" font-size="13" lengthAdjust="spacing" textLength="116.3652" x="485.4331" y="242.4888">to TMF639 format</text></g><g class="message" data-participant-1="ResourceInventory" data-participant-2="ExternalTool"><polygon fill="#181818" points="65.1118,285.6875,55.1118,289.6875,65.1118,293.6875,61.1118,289.6875" style="stroke:#181818;stroke-width:1;"/><line style="stroke:#181818;stroke-width:1;stroke-dasharray:2.0,2.0;" x1="59.1118" x2="477.4331" y1="289.6875" y2="289.6875"/><text fill="#000000" font-family="sans-serif" font-size="13" lengthAdjust="spacing" textLength="201.2715" x="71.1118" y="284.6216">200 OK (TMF639 Resource list)</text></g><g class="message" data-participant-1="ExternalTool" data-participant-2="ResourceInventory"><polygon fill="#181818" points="466.4331,314.8203,476.4331,318.8203,466.4331,322.8203,470.4331,318.8203" style="stroke:#181818;stroke-width:1;"/><line style="stroke:#181818;stroke-width:1;" x1="54.1118" x2="472.4331" y1="318.8203" y2="318.8203"/><text fill="#000000" font-family="sans-serif" font-size="13" lengthAdjust="spacing" textLength="398.1885" x="61.1118" y="313.7544">GET /tmf-api/resourceInventory/v4/resource/&lt;componentId&gt;</text></g><g class="message" data-participant-1="ResourceInventory" data-participant-2="K8sAPI"><polygon fill="#181818" points="806.4321,343.9531,816.4321,347.9531,806.4321,351.9531,810.4321,347.9531" style="stroke:#181818;stroke-width:1;"/><line style="stroke:#181818;stroke-width:1;" x1="478.4331" x2="812.4321" y1="347.9531" y2="347.9531"/><text fill="#000000" font-family="sans-serif" font-size="13" lengthAdjust="spacing" textLength="163.8521" x="485.4331" y="342.8872">Get Component by name</text></g><g class="message" data-participant-1="K8sAPI" data-participant-2="ResourceInventory"><polygon fill="#181818" points="489.4331,373.0859,479.4331,377.0859,489.4331,381.0859,485.4331,377.0859" style="stroke:#181818;stroke-width:1;"/><line style="stroke:#181818;stroke-width:1;stroke-dasharray:2.0,2.0;" x1="483.4331" x2="817.4321" y1="377.0859" y2="377.0859"/><text fill="#000000" font-family="sans-serif" font-size="13" lengthAdjust="spacing" textLength="194.0288" x="495.4331" y="372.02">Component Custom Resource</text></g><g class="message" data-participant-1="ResourceInventory" data-participant-2="ResourceInventory"><line style="stroke:#181818;stroke-width:1;" x1="478.4331" x2="520.4331" y1="406.2188" y2="406.2188"/><line style="stroke:#181818;stroke-width:1;" x1="520.4331" x2="520.4331" y1="406.2188" y2="419.2188"/><line style="stroke:#181818;stroke-width:1;" x1="479.4331" x2="520.4331" y1="419.2188" y2="419.2188"/><polygon fill="#181818" points="489.4331,415.2188,479.4331,419.2188,489.4331,423.2188,485.4331,419.2188" style="stroke:#181818;stroke-width:1;"/><text fill="#000000" font-family="sans-serif" font-size="13" lengthAdjust="spacing" textLength="259.1938" x="485.4331" y="401.1528">Transform K8s object to TMF639 format</text></g><g class="message" data-participant-1="ResourceInventory" data-participant-2="ExternalTool"><polygon fill="#181818" points="65.1118,444.3516,55.1118,448.3516,65.1118,452.3516,61.1118,448.3516" style="stroke:#181818;stroke-width:1;"/><line style="stroke:#181818;stroke-width:1;stroke-dasharray:2.0,2.0;" x1="59.1118" x2="477.4331" y1="448.3516" y2="448.3516"/><text fill="#000000" font-family="sans-serif" font-size="13" lengthAdjust="spacing" textLength="225.4878" x="71.1118" y="443.2856">200 OK (TMF639 Resource details)</text></g><g class="message" data-participant-1="ExternalTool" data-participant-2="ResourceInventory"><polygon fill="#181818" points="466.4331,473.4844,476.4331,477.4844,466.4331,481.4844,470.4331,477.4844" style="stroke:#181818;stroke-width:1;"/><line style="stroke:#181818;stroke-width:1;" x1="54.1118" x2="472.4331" y1="477.4844" y2="477.4844"/><text fill="#000000" font-family="sans-serif" font-size="13" lengthAdjust="spacing" textLength="400.3213" x="61.1118" y="472.4185">GET /tmf-api/resourceInventory/v4/resource/&lt;exposedApiId&gt;</text></g><g class="message" data-participant-1="ResourceInventory" data-participant-2="K8sAPI"><polygon fill="#181818" points="806.4321,502.6172,816.4321,506.6172,806.4321,510.6172,810.4321,506.6172" style="stroke:#181818;stroke-width:1;"/><line style="stroke:#181818;stroke-width:1;" x1="478.4331" x2="812.4321" y1="506.6172" y2="506.6172"/><text fill="#000000" font-family="sans-serif" font-size="13" lengthAdjust="spacing" textLength="164.0806" x="485.4331" y="501.5513">Get ExposedAPI by name</text></g><g class="message" data-participant-1="K8sAPI" data-participant-2="ResourceInventory"><polygon fill="#181818" points="489.4331,531.75,479.4331,535.75,489.4331,539.75,485.4331,535.75" style="stroke:#181818;stroke-width:1;"/><line style="stroke:#181818;stroke-width:1;stroke-dasharray:2.0,2.0;" x1="483.4331" x2="817.4321" y1="535.75" y2="535.75"/><text fill="#000000" font-family="sans-serif" font-size="13" lengthAdjust="spacing" textLength="194.2573" x="495.4331" y="530.6841">ExposedAPI Custom Resource</text></g><g class="message" data-participant-1="ResourceInventory" data-participant-2="ResourceInventory"><line style="stroke:#181818;stroke-width:1;" x1="478.4331" x2="520.4331" y1="564.8828" y2="564.8828"/><line style="stroke:#181818;stroke-width:1;" x1="520.4331" x2="520.4331" y1="564.8828" y2="577.8828"/><line style="stroke:#181818;stroke-width:1;" x1="479.4331" x2="520.4331" y1="577.8828" y2="577.8828"/><polygon fill="#181818" points="489.4331,573.8828,479.4331,577.8828,489.4331,581.8828,485.4331,577.8828" style="stroke:#181818;stroke-width:1;"/><text fill="#000000" font-family="sans-serif" font-size="13" lengthAdjust="spacing" textLength="259.1938" x="485.4331" y="559.8169">Transform K8s object to TMF639 format</text></g><g class="message" data-participant-1="ResourceInventory" data-participant-2="ExternalTool"><polygon fill="#181818" points="65.1118,603.0156,55.1118,607.0156,65.1118,611.0156,61.1118,607.0156" style="stroke:#181818;stroke-width:1;"/><line style="stroke:#181818;stroke-width:1;stroke-dasharray:2.0,2.0;" x1="59.1118" x2="477.4331" y1="607.0156" y2="607.0156"/><text fill="#000000" font-family="sans-serif" font-size="13" lengthAdjust="spacing" textLength="225.4878" x="71.1118" y="601.9497">200 OK (TMF639 Resource details)</text></g><g class="message" data-participant-1="ExternalTool" data-participant-2="ResourceInventory"><polygon fill="#181818" points="466.4331,632.1484,476.4331,636.1484,466.4331,640.1484,470.4331,636.1484" style="stroke:#181818;stroke-width:1;"/><line style="stroke:#181818;stroke-width:1;" x1="54.1118" x2="472.4331" y1="636.1484" y2="636.1484"/><text fill="#000000" font-family="sans-serif" font-size="13" lengthAdjust="spacing" textLength="382.2051" x="61.1118" y="631.0825">GET /tmf-api/resourceInventory/v4/resource?category=API</text></g><g class="message" data-participant-1="ResourceInventory" data-participant-2="K8sAPI"><polygon fill="#181818" points="806.4321,661.2813,816.4321,665.2813,806.4321,669.2813,810.4321,665.2813" style="stroke:#181818;stroke-width:1;"/><line style="stroke:#181818;stroke-width:1;" x1="478.4331" x2="812.4321" y1="665.2813" y2="665.2813"/><text fill="#000000" font-family="sans-serif" font-size="13" lengthAdjust="spacing" textLength="128.6543" x="485.4331" y="660.2153">List all ExposedAPIs</text></g><g class="message" data-participant-1="K8sAPI" data-participant-2="ResourceInventory"><polygon fill="#181818" points="489.4331,690.4141,479.4331,694.4141,489.4331,698.4141,485.4331,694.4141" style="stroke:#181818;stroke-width:1;"/><line style="stroke:#181818;stroke-width:1;stroke-dasharray:2.0,2.0;" x1="483.4331" x2="817.4321" y1="694.4141" y2="694.4141"/><text fill="#000000" font-family="sans-serif" font-size="13" lengthAdjust="spacing" textLength="201.0303" x="495.4331" y="689.3481">ExposedAPI Custom Resources</text></g><g class="message" data-participant-1="ResourceInventory" data-participant-2="ResourceInventory"><line style="stroke:#181818;stroke-width:1;" x1="478.4331" x2="520.4331" y1="723.5469" y2="723.5469"/><line style="stroke:#181818;stroke-width:1;" x1="520.4331" x2="520.4331" y1="723.5469" y2="736.5469"/><line style="stroke:#181818;stroke-width:1;" x1="479.4331" x2="520.4331" y1="736.5469" y2="736.5469"/><polygon fill="#181818" points="489.4331,732.5469,479.4331,736.5469,489.4331,740.5469,485.4331,736.5469" style="stroke:#181818;stroke-width:1;"/><text fill="#000000" font-family="sans-serif" font-size="13" lengthAdjust="spacing" textLength="265.9668" x="485.4331" y="718.481">Transform K8s objects to TMF639 format</text></g><g class="message" data-participant-1="ResourceInventory" data-participant-2="ExternalTool"><polygon fill="#181818" points="65.1118,761.6797,55.1118,765.6797,65.1118,769.6797,61.1118,765.6797" style="stroke:#181818;stroke-width:1;"/><line style="stroke:#181818;stroke-width:1;stroke-dasharray:2.0,2.0;" x1="59.1118" x2="477.4331" y1="765.6797" y2="765.6797"/><text fill="#000000" font-family="sans-serif" font-size="13" lengthAdjust="spacing" textLength="201.2715" x="71.1118" y="760.6138">200 OK (TMF639 Resource list)</text></g><!--SRC=[tPH1Jy9G3CVlxrCqE-c1ZAWnIXHZ21A2HACxxj9jXSniVSjxXSYtzmqO41XcYN3nslR_R_jBKun56_3wtqA6CGjvZ8nJoeabv43hp0EqKANBW5BA9LDPWFT1LizCJ24FUUw2sYn2_YGpJsDQwgg2JLgf10KZj0JUQ1OvKnAo8J-_3w4KabdgHdVMHLodtSRGwXuQTc3G3y2NVDB28lNDVjwVtso2wa1TMgvwTU0rjGAOPT3JUQ7P5LX0JjpkXRQKk1ghLhNGgf_ag11wCoiwtsXi_IGrbe51jXDjyd9CqD4NnU9mYOPW_79xVGzb3gNEpndkqkl0LRiDRoEuM2ih2MHkySiJe_OVuWh6CEd-3dv0iaK7qG8OSsgAUX_jdyZ2IRac99XczlHeQNrOHTg8xSuTDeDx_73_Fzsd68McBlXOFg1c3wFvXpZRIu1pV8GV]--></g></svg>