<svg xmlns="http://www.w3.org/2000/svg" xmlns:xlink="http://www.w3.org/1999/xlink" contentStyleType="text/css" data-diagram-type="SEQUENCE" height="1232px" preserveAspectRatio="none" style="width:2097px;height:1232px;background:#FFFFFF;" version="1.1" viewBox="0 0 2097 1232" width="2097px" zoomAndPan="magnify"><defs/><g><g><title>=Component POD</title><rect fill="#FFFFFF" height="453.8594" style="stroke:#181818;stroke-width:1;" width="10" x="1327.8115" y="688.5859"/></g><g><title>=Component POD</title><rect fill="#FFFFFF" height="453.8594" style="stroke:#181818;stroke-width:1;" width="10" x="1562.1348" y="688.5859"/></g><rect fill="none" height="102.2656" style="stroke:#000000;stroke-width:1.5;" width="2070.3794" x="10" y="98.2969"/><rect fill="none" height="292.3594" style="stroke:#000000;stroke-width:1.5;" width="1935.8784" x="144.501" y="257.6953"/><rect fill="none" height="153.6641" style="stroke:#000000;stroke-width:1.5;" width="1363.8442" x="716.5352" y="607.1875"/><rect fill="none" height="75.3984" style="stroke:#000000;stroke-width:1.5;" width="701.625" x="1217.063" y="817.9844"/><rect fill="none" height="191.9297" style="stroke:#000000;stroke-width:1.5;" width="863.3164" x="1217.063" y="942.5156"/><g><title>Canvas Operator</title><rect fill="#000000" fill-opacity="0.00000" height="34.1328" width="8" x="78.2505" y="81.2969"/><line style="stroke:#181818;stroke-width:0.5;stroke-dasharray:5.0,5.0;" x1="82" x2="82" y1="81.2969" y2="115.4297"/></g><line style="stroke:#A80036;stroke-width:1;stroke-dasharray:1.0,4.0;" x1="82" x2="82" y1="115.4297" y2="143.4297"/><g><title>Canvas Operator</title><rect fill="#000000" fill-opacity="0.00000" height="29.1328" width="8" x="78.2505" y="143.4297"/><line style="stroke:#181818;stroke-width:0.5;stroke-dasharray:5.0,5.0;" x1="82" x2="82" y1="143.4297" y2="172.5625"/></g><line style="stroke:#A80036;stroke-width:1;stroke-dasharray:1.0,4.0;" x1="82" x2="82" y1="172.5625" y2="200.5625"/><g><title>Canvas Operator</title><rect fill="#000000" fill-opacity="0.00000" height="950.8828" width="8" x="78.2505" y="200.5625"/><line style="stroke:#181818;stroke-width:0.5;stroke-dasharray:5.0,5.0;" x1="82" x2="82" y1="200.5625" y2="1151.4453"/></g><g><title>Component</title><rect fill="#000000" fill-opacity="0.00000" height="34.1328" width="8" x="194.1406" y="81.2969"/><line style="stroke:#181818;stroke-width:0.5;stroke-dasharray:5.0,5.0;" x1="197.501" x2="197.501" y1="81.2969" y2="115.4297"/></g><line style="stroke:#A80036;stroke-width:1;stroke-dasharray:1.0,4.0;" x1="197.501" x2="197.501" y1="115.4297" y2="143.4297"/><g><title>Component</title><rect fill="#000000" fill-opacity="0.00000" height="29.1328" width="8" x="194.1406" y="143.4297"/><line style="stroke:#181818;stroke-width:0.5;stroke-dasharray:5.0,5.0;" x1="197.501" x2="197.501" y1="143.4297" y2="172.5625"/></g><line style="stroke:#A80036;stroke-width:1;stroke-dasharray:1.0,4.0;" x1="197.501" x2="197.501" y1="172.5625" y2="200.5625"/><g><title>Component</title><rect fill="#000000" fill-opacity="0.00000" height="950.8828" width="8" x="194.1406" y="200.5625"/><line style="stroke:#181818;stroke-width:0.5;stroke-dasharray:5.0,5.0;" x1="197.501" x2="197.501" y1="200.5625" y2="1151.4453"/></g><g><title>Component Operator</title><rect fill="#000000" fill-opacity="0.00000" height="34.1328" width="8" x="328.9775" y="81.2969"/><line style="stroke:#181818;stroke-width:0.5;stroke-dasharray:5.0,5.0;" x1="332.7803" x2="332.7803" y1="81.2969" y2="115.4297"/></g><line style="stroke:#A80036;stroke-width:1;stroke-dasharray:1.0,4.0;" x1="332.7803" x2="332.7803" y1="115.4297" y2="143.4297"/><g><title>Component Operator</title><rect fill="#000000" fill-opacity="0.00000" height="29.1328" width="8" x="328.9775" y="143.4297"/><line style="stroke:#181818;stroke-width:0.5;stroke-dasharray:5.0,5.0;" x1="332.7803" x2="332.7803" y1="143.4297" y2="172.5625"/></g><line style="stroke:#A80036;stroke-width:1;stroke-dasharray:1.0,4.0;" x1="332.7803" x2="332.7803" y1="172.5625" y2="200.5625"/><g><title>Component Operator</title><rect fill="#000000" fill-opacity="0.00000" height="950.8828" width="8" x="328.9775" y="200.5625"/><line style="stroke:#181818;stroke-width:0.5;stroke-dasharray:5.0,5.0;" x1="332.7803" x2="332.7803" y1="200.5625" y2="1151.4453"/></g><g><title>Secrets Management</title><rect fill="#000000" fill-opacity="0.00000" height="808.3359" width="8" x="635.0234" y="343.1094"/><line style="stroke:#181818;stroke-width:0.5;stroke-dasharray:5.0,5.0;" x1="638.5117" x2="638.5117" y1="343.1094" y2="1151.4453"/></g><g><title>Secrets Management Operator</title><rect fill="#000000" fill-opacity="0.00000" height="34.1328" width="8" x="837.6045" y="81.2969"/><line style="stroke:#181818;stroke-width:0.5;stroke-dasharray:5.0,5.0;" x1="841.5352" x2="841.5352" y1="81.2969" y2="115.4297"/></g><line style="stroke:#A80036;stroke-width:1;stroke-dasharray:1.0,4.0;" x1="841.5352" x2="841.5352" y1="115.4297" y2="143.4297"/><g><title>Secrets Management Operator</title><rect fill="#000000" fill-opacity="0.00000" height="29.1328" width="8" x="837.6045" y="143.4297"/><line style="stroke:#181818;stroke-width:0.5;stroke-dasharray:5.0,5.0;" x1="841.5352" x2="841.5352" y1="143.4297" y2="172.5625"/></g><line style="stroke:#A80036;stroke-width:1;stroke-dasharray:1.0,4.0;" x1="841.5352" x2="841.5352" y1="172.5625" y2="200.5625"/><g><title>Secrets Management Operator</title><rect fill="#000000" fill-opacity="0.00000" height="950.8828" width="8" x="837.6045" y="200.5625"/><line style="stroke:#181818;stroke-width:0.5;stroke-dasharray:5.0,5.0;" x1="841.5352" x2="841.5352" y1="200.5625" y2="1151.4453"/></g><g><title>Kubernetes API</title><rect fill="#000000" fill-opacity="0.00000" height="34.1328" width="8" x="1152.6675" y="81.2969"/><line style="stroke:#181818;stroke-width:0.5;stroke-dasharray:5.0,5.0;" x1="1156.272" x2="1156.272" y1="81.2969" y2="115.4297"/></g><line style="stroke:#A80036;stroke-width:1;stroke-dasharray:1.0,4.0;" x1="1156.272" x2="1156.272" y1="115.4297" y2="143.4297"/><g><title>Kubernetes API</title><rect fill="#000000" fill-opacity="0.00000" height="29.1328" width="8" x="1152.6675" y="143.4297"/><line style="stroke:#181818;stroke-width:0.5;stroke-dasharray:5.0,5.0;" x1="1156.272" x2="1156.272" y1="143.4297" y2="172.5625"/></g><line style="stroke:#A80036;stroke-width:1;stroke-dasharray:1.0,4.0;" x1="1156.272" x2="1156.272" y1="172.5625" y2="200.5625"/><g><title>Kubernetes API</title><rect fill="#000000" fill-opacity="0.00000" height="950.8828" width="8" x="1152.6675" y="200.5625"/><line style="stroke:#181818;stroke-width:0.5;stroke-dasharray:5.0,5.0;" x1="1156.272" x2="1156.272" y1="200.5625" y2="1151.4453"/></g><g><title>=Component POD</title><rect fill="#000000" fill-opacity="0.00000" height="34.1328" width="8" x="1328.8115" y="81.2969"/><line style="stroke:#181818;stroke-width:0.5;stroke-dasharray:5.0,5.0;" x1="1332.063" x2="1332.063" y1="81.2969" y2="115.4297"/></g><line style="stroke:#A80036;stroke-width:1;stroke-dasharray:1.0,4.0;" x1="1332.063" x2="1332.063" y1="115.4297" y2="143.4297"/><g><title>=Component POD</title><rect fill="#000000" fill-opacity="0.00000" height="29.1328" width="8" x="1328.8115" y="143.4297"/><line style="stroke:#181818;stroke-width:0.5;stroke-dasharray:5.0,5.0;" x1="1332.063" x2="1332.063" y1="143.4297" y2="172.5625"/></g><line style="stroke:#A80036;stroke-width:1;stroke-dasharray:1.0,4.0;" x1="1332.063" x2="1332.063" y1="172.5625" y2="200.5625"/><g><title>=Component POD</title><rect fill="#000000" fill-opacity="0.00000" height="950.8828" width="8" x="1328.8115" y="200.5625"/><line style="stroke:#181818;stroke-width:0.5;stroke-dasharray:5.0,5.0;" x1="1332.063" x2="1332.063" y1="200.5625" y2="1151.4453"/></g><g><title>=Component POD</title><rect fill="#000000" fill-opacity="0.00000" height="34.1328" width="8" x="1563.1348" y="81.2969"/><line style="stroke:#181818;stroke-width:0.5;stroke-dasharray:5.0,5.0;" x1="1566.603" x2="1566.603" y1="81.2969" y2="115.4297"/></g><line style="stroke:#A80036;stroke-width:1;stroke-dasharray:1.0,4.0;" x1="1566.603" x2="1566.603" y1="115.4297" y2="143.4297"/><g><title>=Component POD</title><rect fill="#000000" fill-opacity="0.00000" height="29.1328" width="8" x="1563.1348" y="143.4297"/><line style="stroke:#181818;stroke-width:0.5;stroke-dasharray:5.0,5.0;" x1="1566.603" x2="1566.603" y1="143.4297" y2="172.5625"/></g><line style="stroke:#A80036;stroke-width:1;stroke-dasharray:1.0,4.0;" x1="1566.603" x2="1566.603" y1="172.5625" y2="200.5625"/><g><title>=Component POD</title><rect fill="#000000" fill-opacity="0.00000" height="950.8828" width="8" x="1563.1348" y="200.5625"/><line style="stroke:#181818;stroke-width:0.5;stroke-dasharray:5.0,5.0;" x1="1566.603" x2="1566.603" y1="200.5625" y2="1151.4453"/></g><g><title>Canvas Vault</title><rect fill="#000000" fill-opacity="0.00000" height="34.1328" width="8" x="2013.2573" y="81.2969"/><line style="stroke:#181818;stroke-width:0.5;stroke-dasharray:5.0,5.0;" x1="2017.1353" x2="2017.1353" y1="81.2969" y2="115.4297"/></g><line style="stroke:#A80036;stroke-width:1;stroke-dasharray:1.0,4.0;" x1="2017.1353" x2="2017.1353" y1="115.4297" y2="143.4297"/><g><title>Canvas Vault</title><rect fill="#000000" fill-opacity="0.00000" height="29.1328" width="8" x="2013.2573" y="143.4297"/><line style="stroke:#181818;stroke-width:0.5;stroke-dasharray:5.0,5.0;" x1="2017.1353" x2="2017.1353" y1="143.4297" y2="172.5625"/></g><line style="stroke:#A80036;stroke-width:1;stroke-dasharray:1.0,4.0;" x1="2017.1353" x2="2017.1353" y1="172.5625" y2="200.5625"/><g><title>Canvas Vault</title><rect fill="#000000" fill-opacity="0.00000" height="950.8828" width="8" x="2013.2573" y="200.5625"/><line style="stroke:#181818;stroke-width:0.5;stroke-dasharray:5.0,5.0;" x1="2017.1353" x2="2017.1353" y1="200.5625" y2="1151.4453"/></g><g class="participant participant-head" data-participant="CanvasOps"><text fill="#000000" font-family="sans-serif" font-size="14" lengthAdjust="spacing" textLength="118.501" x="20" y="77.9951">Canvas Operator</text><ellipse cx="82.2505" cy="13.5" fill="#E2E2F0" rx="8" ry="8" style="stroke:#181818;stroke-width:0.5;"/><path d="M82.2505,21.5 L82.2505,48.5 M69.2505,29.5 L95.2505,29.5 M82.2505,48.5 L69.2505,63.5 M82.2505,48.5 L95.2505,63.5" fill="none" style="stroke:#181818;stroke-width:0.5;"/></g><g class="participant participant-tail" data-participant="CanvasOps"><text fill="#000000" font-family="sans-serif" font-size="14" lengthAdjust="spacing" textLength="118.501" x="20" y="1163.4404">Canvas Operator</text><ellipse cx="82.2505" cy="1175.2422" fill="#E2E2F0" rx="8" ry="8" style="stroke:#181818;stroke-width:0.5;"/><path d="M82.2505,1183.2422 L82.2505,1210.2422 M69.2505,1191.2422 L95.2505,1191.2422 M82.2505,1210.2422 L69.2505,1225.2422 M82.2505,1210.2422 L95.2505,1225.2422" fill="none" style="stroke:#181818;stroke-width:0.5;"/></g><g class="participant participant-head" data-participant="Component"><text fill="#000000" font-family="sans-serif" font-size="14" lengthAdjust="spacing" textLength="81.2793" x="154.501" y="77.9951">Component</text><ellipse cx="198.1406" cy="49" fill="#E2E2F0" rx="12" ry="12" style="stroke:#181818;stroke-width:0.5;"/><line style="stroke:#181818;stroke-width:0.5;" x1="186.1406" x2="210.1406" y1="63" y2="63"/></g><g class="participant participant-tail" data-participant="Component"><text fill="#000000" font-family="sans-serif" font-size="14" lengthAdjust="spacing" textLength="81.2793" x="154.501" y="1163.4404">Component</text><ellipse cx="198.1406" cy="1182.7422" fill="#E2E2F0" rx="12" ry="12" style="stroke:#181818;stroke-width:0.5;"/><line style="stroke:#181818;stroke-width:0.5;" x1="186.1406" x2="210.1406" y1="1196.7422" y2="1196.7422"/></g><g class="participant participant-head" data-participant="ComponentOperator"><rect fill="#E2E2F0" height="30.2969" rx="2.5" ry="2.5" style="stroke:#181818;stroke-width:0.5;" width="162.3945" x="251.7803" y="50"/><text fill="#000000" font-family="sans-serif" font-size="14" lengthAdjust="spacing" textLength="148.3945" x="258.7803" y="69.9951">Component Operator</text></g><g class="participant participant-tail" data-participant="ComponentOperator"><rect fill="#E2E2F0" height="30.2969" rx="2.5" ry="2.5" style="stroke:#181818;stroke-width:0.5;" width="162.3945" x="251.7803" y="1150.4453"/><text fill="#000000" font-family="sans-serif" font-size="14" lengthAdjust="spacing" textLength="148.3945" x="258.7803" y="1170.4404">Component Operator</text></g><g class="participant participant-tail" data-participant="SecretsManagement"><text fill="#000000" font-family="sans-serif" font-size="14" lengthAdjust="spacing" textLength="149.0234" x="561.5117" y="1163.4404">Secrets Management</text><ellipse cx="639.0234" cy="1182.7422" fill="#E2E2F0" rx="12" ry="12" style="stroke:#181818;stroke-width:0.5;"/><line style="stroke:#181818;stroke-width:0.5;" x1="627.0234" x2="651.0234" y1="1196.7422" y2="1196.7422"/></g><g class="participant participant-head" data-participant="SecretsManagementOperator"><rect fill="#E2E2F0" height="30.2969" rx="2.5" ry="2.5" style="stroke:#181818;stroke-width:0.5;" width="230.1387" x="726.5352" y="50"/><text fill="#000000" font-family="sans-serif" font-size="14" lengthAdjust="spacing" textLength="216.1387" x="733.5352" y="69.9951">Secrets Management Operator</text></g><g class="participant participant-tail" data-participant="SecretsManagementOperator"><rect fill="#E2E2F0" height="30.2969" rx="2.5" ry="2.5" style="stroke:#181818;stroke-width:0.5;" width="230.1387" x="726.5352" y="1150.4453"/><text fill="#000000" font-family="sans-serif" font-size="14" lengthAdjust="spacing" textLength="216.1387" x="733.5352" y="1170.4404">Secrets Management Operator</text></g><g class="participant participant-head" data-participant="KubernetesAPI"><rect fill="#E2E2F0" height="30.2969" rx="2.5" ry="2.5" style="stroke:#181818;stroke-width:0.5;" width="120.791" x="1096.272" y="50"/><text fill="#000000" font-family="sans-serif" font-size="14" lengthAdjust="spacing" textLength="106.791" x="1103.272" y="69.9951">Kubernetes API</text></g><g class="participant participant-tail" data-participant="KubernetesAPI"><rect fill="#E2E2F0" height="30.2969" rx="2.5" ry="2.5" style="stroke:#181818;stroke-width:0.5;" width="120.791" x="1096.272" y="1150.4453"/><text fill="#000000" font-family="sans-serif" font-size="14" lengthAdjust="spacing" textLength="106.791" x="1103.272" y="1170.4404">Kubernetes API</text></g><g class="participant participant-head" data-participant="ComponentImplementation"><rect fill="#E2E2F0" height="61.25" rx="2.5" ry="2.5" style="stroke:#181818;stroke-width:0.5;" width="211.4971" x="1227.063" y="19.0469"/><text fill="#000000" font-family="sans-serif" font-size="18" font-weight="bold" lengthAdjust="spacing" textLength="165.7266" x="1249.9482" y="42.7549">Component POD</text><line style="stroke:#181818;stroke-width:1;" x1="1227.063" x2="1438.5601" y1="52" y2="52"/><text fill="#000000" font-family="sans-serif" font-size="14" lengthAdjust="spacing" textLength="197.4971" x="1234.063" y="69.9951">Component-Implementation</text></g><g class="participant participant-tail" data-participant="ComponentImplementation"><rect fill="#E2E2F0" height="61.25" rx="2.5" ry="2.5" style="stroke:#181818;stroke-width:0.5;" width="211.4971" x="1227.063" y="1150.4453"/><text fill="#000000" font-family="sans-serif" font-size="18" font-weight="bold" lengthAdjust="spacing" textLength="165.7266" x="1249.9482" y="1174.1533">Component POD</text><line style="stroke:#181818;stroke-width:1;" x1="1227.063" x2="1438.5601" y1="1183.3984" y2="1183.3984"/><text fill="#000000" font-family="sans-serif" font-size="14" lengthAdjust="spacing" textLength="197.4971" x="1234.063" y="1201.3936">Component-Implementation</text></g><g class="participant participant-head" data-participant="SecretsManagementSideCar"><rect fill="#E2E2F0" height="61.25" rx="2.5" ry="2.5" style="stroke:#181818;stroke-width:0.5;" width="223.0635" x="1455.603" y="19.0469"/><text fill="#000000" font-family="sans-serif" font-size="18" font-weight="bold" lengthAdjust="spacing" textLength="165.7266" x="1484.2715" y="42.7549">Component POD</text><line style="stroke:#181818;stroke-width:1;" x1="1455.603" x2="1678.6665" y1="52" y2="52"/><text fill="#000000" font-family="sans-serif" font-size="14" lengthAdjust="spacing" textLength="209.0635" x="1462.603" y="69.9951">Secrets-Management-SideCar</text></g><g class="participant participant-tail" data-participant="SecretsManagementSideCar"><rect fill="#E2E2F0" height="61.25" rx="2.5" ry="2.5" style="stroke:#181818;stroke-width:0.5;" width="223.0635" x="1455.603" y="1150.4453"/><text fill="#000000" font-family="sans-serif" font-size="18" font-weight="bold" lengthAdjust="spacing" textLength="165.7266" x="1484.2715" y="1174.1533">Component POD</text><line style="stroke:#181818;stroke-width:1;" x1="1455.603" x2="1678.6665" y1="1183.3984" y2="1183.3984"/><text fill="#000000" font-family="sans-serif" font-size="14" lengthAdjust="spacing" textLength="209.0635" x="1462.603" y="1201.3936">Secrets-Management-SideCar</text></g><g class="participant participant-head" data-participant="CanvasVault"><rect fill="#E2E2F0" height="30.2969" rx="2.5" ry="2.5" style="stroke:#181818;stroke-width:0.5;" width="106.2441" x="1964.1353" y="50"/><text fill="#000000" font-family="sans-serif" font-size="14" lengthAdjust="spacing" textLength="92.2441" x="1971.1353" y="69.9951">Canvas Vault</text></g><g class="participant participant-tail" data-participant="CanvasVault"><rect fill="#E2E2F0" height="30.2969" rx="2.5" ry="2.5" style="stroke:#181818;stroke-width:0.5;" width="106.2441" x="1964.1353" y="1150.4453"/><text fill="#000000" font-family="sans-serif" font-size="14" lengthAdjust="spacing" textLength="92.2441" x="1971.1353" y="1170.4404">Canvas Vault</text></g><g><title>=Component POD</title><rect fill="#FFFFFF" height="453.8594" style="stroke:#181818;stroke-width:1;" width="10" x="1327.8115" y="688.5859"/></g><g><title>=Component POD</title><rect fill="#FFFFFF" height="453.8594" style="stroke:#181818;stroke-width:1;" width="10" x="1562.1348" y="688.5859"/></g><path d="M10,98.2969 L198.3174,98.2969 L198.3174,105.4297 L188.3174,115.4297 L10,115.4297 L10,98.2969" fill="#EEEEEE" style="stroke:#000000;stroke-width:1.5;"/><rect fill="none" height="102.2656" style="stroke:#000000;stroke-width:1.5;" width="2070.3794" x="10" y="98.2969"/><text fill="#000000" font-family="sans-serif" font-size="13" font-weight="bold" lengthAdjust="spacing" textLength="143.3174" x="25" y="111.3638">Canvas Vault Setup</text><g class="message" data-participant-1="CanvasOps" data-participant-2="CanvasVault"><polygon fill="#181818" points="2005.2573,160.5625,2015.2573,164.5625,2005.2573,168.5625,2009.2573,164.5625" style="stroke:#181818;stroke-width:1;"/><line style="stroke:#181818;stroke-width:1;" x1="82.2505" x2="2011.2573" y1="164.5625" y2="164.5625"/><text fill="#000000" font-family="sans-serif" font-size="13" lengthAdjust="spacing" textLength="564.1543" x="89.2505" y="159.4966">setup jwt endpoint for oidc_discovery with secrets/kubernetes.io/serviceaccount/ca.crt</text></g><rect fill="#EEEEEE" height="3" style="stroke:#EEEEEE;stroke-width:1;" width="2090.3794" x="0" y="228.1289"/><line style="stroke:#000000;stroke-width:1;" x1="0" x2="2090.3794" y1="228.1289" y2="228.1289"/><line style="stroke:#000000;stroke-width:1;" x1="0" x2="2090.3794" y1="231.1289" y2="231.1289"/><rect fill="#EEEEEE" height="23.1328" style="stroke:#000000;stroke-width:2;" width="216.1792" x="937.1001" y="217.5625"/><text fill="#000000" font-family="sans-serif" font-size="13" font-weight="bold" lengthAdjust="spacing" textLength="197.6533" x="943.1001" y="233.6294">COMPONENT DEPLOYMENT</text><path d="M144.501,257.6953 L449.9834,257.6953 L449.9834,264.8281 L439.9834,274.8281 L144.501,274.8281 L144.501,257.6953" fill="#EEEEEE" style="stroke:#000000;stroke-width:1.5;"/><rect fill="none" height="292.3594" style="stroke:#000000;stroke-width:1.5;" width="1935.8784" x="144.501" y="257.6953"/><text fill="#000000" font-family="sans-serif" font-size="13" font-weight="bold" lengthAdjust="spacing" textLength="260.4824" x="159.501" y="270.7622">Bootstrap - component deployment</text><g class="message" data-participant-1="Component" data-participant-2="ComponentOperator"><polygon fill="#181818" points="320.9775,291.9609,330.9775,295.9609,320.9775,299.9609,324.9775,295.9609" style="stroke:#181818;stroke-width:1;"/><line style="stroke:#181818;stroke-width:1;" x1="198.1406" x2="326.9775" y1="295.9609" y2="295.9609"/><text fill="#000000" font-family="sans-serif" font-size="13" lengthAdjust="spacing" textLength="61.877" x="205.1406" y="290.895">on.create</text></g><g class="message" data-participant-1="ComponentOperator" data-participant-2="SecretsManagement"><polygon fill="#181818" points="549.5117,321.0938,559.5117,325.0938,549.5117,329.0938,553.5117,325.0938" style="stroke:#181818;stroke-width:1;"/><line style="stroke:#181818;stroke-width:1;" x1="332.9775" x2="555.5117" y1="325.0938" y2="325.0938"/><text fill="#000000" font-family="sans-serif" font-size="13" lengthAdjust="spacing" textLength="204.5342" x="339.9775" y="320.0278">extract config from Component</text></g><text fill="#000000" font-family="sans-serif" font-size="14" lengthAdjust="spacing" textLength="149.0234" x="561.5117" y="348.9561">Secrets Management</text><ellipse cx="639.0234" cy="319.9609" fill="#E2E2F0" rx="12" ry="12" style="stroke:#181818;stroke-width:0.5;"/><line style="stroke:#181818;stroke-width:0.5;" x1="627.0234" x2="651.0234" y1="333.9609" y2="333.9609"/><g class="message" data-participant-1="SecretsManagement" data-participant-2="SecretsManagementOperator"><polygon fill="#181818" points="829.6045,379.3906,839.6045,383.3906,829.6045,387.3906,833.6045,383.3906" style="stroke:#181818;stroke-width:1;"/><line style="stroke:#181818;stroke-width:1;" x1="639.0234" x2="835.6045" y1="383.3906" y2="383.3906"/><text fill="#000000" font-family="sans-serif" font-size="13" lengthAdjust="spacing" textLength="61.877" x="646.0234" y="378.3247">on.create</text></g><g class="message" data-participant-1="SecretsManagementOperator" data-participant-2="SecretsManagementOperator"><line style="stroke:#181818;stroke-width:1;" x1="841.6045" x2="883.6045" y1="412.5234" y2="412.5234"/><line style="stroke:#181818;stroke-width:1;" x1="883.6045" x2="883.6045" y1="412.5234" y2="425.5234"/><line style="stroke:#181818;stroke-width:1;" x1="842.6045" x2="883.6045" y1="425.5234" y2="425.5234"/><polygon fill="#181818" points="852.6045,421.5234,842.6045,425.5234,852.6045,429.5234,848.6045,425.5234" style="stroke:#181818;stroke-width:1;"/><text fill="#000000" font-family="sans-serif" font-size="13" lengthAdjust="spacing" textLength="301.063" x="848.6045" y="407.4575">create unique Component-Instance-ID &lt;CIID&gt;</text></g><g class="message" data-participant-1="SecretsManagementOperator" data-participant-2="KubernetesAPI"><polygon fill="#181818" points="1144.6675,450.6563,1154.6675,454.6563,1144.6675,458.6563,1148.6675,454.6563" style="stroke:#181818;stroke-width:1;"/><line style="stroke:#181818;stroke-width:1;" x1="841.6045" x2="1150.6675" y1="454.6563" y2="454.6563"/><text fill="#000000" font-family="sans-serif" font-size="13" lengthAdjust="spacing" textLength="289.2183" x="848.6045" y="449.5903">[otional] create ServiceAccount "sa-&lt;CIID&gt;"</text></g><g class="message" data-participant-1="SecretsManagementOperator" data-participant-2="CanvasVault"><polygon fill="#181818" points="2005.2573,479.7891,2015.2573,483.7891,2005.2573,487.7891,2009.2573,483.7891" style="stroke:#181818;stroke-width:1;"/><line style="stroke:#181818;stroke-width:1;" x1="841.6045" x2="2011.2573" y1="483.7891" y2="483.7891"/><text fill="#000000" font-family="sans-serif" font-size="13" lengthAdjust="spacing" textLength="273.4761" x="848.6045" y="478.7231">create Key-Value store "kv-sman-&lt;CIID&gt;"</text></g><g class="message" data-participant-1="SecretsManagementOperator" data-participant-2="CanvasVault"><polygon fill="#181818" points="2005.2573,508.9219,2015.2573,512.9219,2005.2573,516.9219,2009.2573,512.9219" style="stroke:#181818;stroke-width:1;"/><line style="stroke:#181818;stroke-width:1;" x1="841.6045" x2="2011.2573" y1="512.9219" y2="512.9219"/><text fill="#000000" font-family="sans-serif" font-size="13" lengthAdjust="spacing" textLength="441.2192" x="848.6045" y="507.856">create Policy "sman-&lt;CIID&gt;-policy" with access to kv-sman-&lt;CIID&gt;</text></g><g class="message" data-participant-1="SecretsManagementOperator" data-participant-2="CanvasVault"><polygon fill="#181818" points="2005.2573,538.0547,2015.2573,542.0547,2005.2573,546.0547,2009.2573,542.0547" style="stroke:#181818;stroke-width:1;"/><line style="stroke:#181818;stroke-width:1;" x1="841.6045" x2="2011.2573" y1="542.0547" y2="542.0547"/><text fill="#000000" font-family="sans-serif" font-size="13" lengthAdjust="spacing" textLength="932.001" x="848.6045" y="536.9888">create login Role "sman-&lt;CIID&gt;-role" for authenticating with JWT based on configured POD-Selector having "sman-&lt;CIID&gt;-policy" permissions</text></g><rect fill="#EEEEEE" height="3" style="stroke:#EEEEEE;stroke-width:1;" width="2090.3794" x="0" y="577.6211"/><line style="stroke:#000000;stroke-width:1;" x1="0" x2="2090.3794" y1="577.6211" y2="577.6211"/><line style="stroke:#000000;stroke-width:1;" x1="0" x2="2090.3794" y1="580.6211" y2="580.6211"/><rect fill="#EEEEEE" height="23.1328" style="stroke:#000000;stroke-width:2;" width="153.9341" x="968.2227" y="567.0547"/><text fill="#000000" font-family="sans-serif" font-size="13" font-weight="bold" lengthAdjust="spacing" textLength="135.4082" x="974.2227" y="583.1216">POD DEPLOYMENT</text><path d="M716.5352,607.1875 L1181.5088,607.1875 L1181.5088,614.3203 L1171.5088,624.3203 L716.5352,624.3203 L716.5352,607.1875" fill="#EEEEEE" style="stroke:#000000;stroke-width:1.5;"/><rect fill="none" height="153.6641" style="stroke:#000000;stroke-width:1.5;" width="1363.8442" x="716.5352" y="607.1875"/><text fill="#000000" font-family="sans-serif" font-size="13" font-weight="bold" lengthAdjust="spacing" textLength="419.9736" x="731.5352" y="620.2544">Mutate PODs which request Secrets-Management-Access</text><g class="message" data-participant-1="KubernetesAPI" data-participant-2="SecretsManagementOperator"><polygon fill="#181818" points="852.6045,641.4531,842.6045,645.4531,852.6045,649.4531,848.6045,645.4531" style="stroke:#181818;stroke-width:1;"/><line style="stroke:#181818;stroke-width:1;" x1="846.6045" x2="1155.6675" y1="645.4531" y2="645.4531"/><text fill="#000000" font-family="sans-serif" font-size="13" lengthAdjust="spacing" textLength="102.0322" x="858.6045" y="640.3872">POD.onCreate()</text></g><g class="message" data-participant-1="SecretsManagementOperator" data-participant-2="SecretsManagementSideCar"><polygon fill="#181818" points="1555.1348,670.5859,1565.1348,674.5859,1555.1348,678.5859,1559.1348,674.5859" style="stroke:#181818;stroke-width:1;"/><line style="stroke:#181818;stroke-width:1;" x1="841.6045" x2="1561.1348" y1="674.5859" y2="674.5859"/><text fill="#000000" font-family="sans-serif" font-size="13" lengthAdjust="spacing" textLength="701.5303" x="848.6045" y="669.52">create &amp; inject SideCar container with JWT mount, Canvas-Vault-URL, role-name and KV-Store name&lt;CIID&gt;</text></g><g class="message" data-participant-1="ComponentImplementation" data-participant-2="SecretsManagementSideCar"><polygon fill="#FF0000" points="1348.8115,684.5859,1338.8115,688.5859,1348.8115,692.5859,1344.8115,688.5859" style="stroke:#FF0000;stroke-width:1;"/><polygon fill="#FF0000" points="1550.1348,684.5859,1560.1348,688.5859,1550.1348,692.5859,1554.1348,688.5859" style="stroke:#FF0000;stroke-width:1;"/><line style="stroke:#FF0000;stroke-width:1;stroke-dasharray:2.0,2.0;" x1="1342.8115" x2="1556.1348" y1="688.5859" y2="688.5859"/></g><path d="M1342,701.5859 L1342,726.5859 L1546,726.5859 L1546,711.5859 L1536,701.5859 L1342,701.5859" fill="#FEFFDD" style="stroke:#181818;stroke-width:0.5;"/><path d="M1536,701.5859 L1536,711.5859 L1546,711.5859 L1536,701.5859" fill="#FEFFDD" style="stroke:#181818;stroke-width:0.5;"/><text fill="#000000" font-family="sans-serif" font-size="13" lengthAdjust="spacing" textLength="183.1616" x="1348" y="718.6528">started together in one POD</text><g class="message" data-participant-1="SecretsManagementSideCar" data-participant-2="CanvasVault"><polygon fill="#181818" points="2005.2573,748.8516,2015.2573,752.8516,2005.2573,756.8516,2009.2573,752.8516" style="stroke:#181818;stroke-width:1;"/><line style="stroke:#181818;stroke-width:1;" x1="1572.1348" x2="2011.2573" y1="752.8516" y2="752.8516"/><text fill="#000000" font-family="sans-serif" font-size="13" lengthAdjust="spacing" textLength="421.1226" x="1579.1348" y="747.7856">login to "secretsmanagement-&lt;CIID&gt;" using JWT of "sa-&lt;CIID&gt;"</text></g><rect fill="#EEEEEE" height="3" style="stroke:#EEEEEE;stroke-width:1;" width="2090.3794" x="0" y="788.418"/><line style="stroke:#000000;stroke-width:1;" x1="0" x2="2090.3794" y1="788.418" y2="788.418"/><line style="stroke:#000000;stroke-width:1;" x1="0" x2="2090.3794" y1="791.418" y2="791.418"/><rect fill="#EEEEEE" height="23.1328" style="stroke:#000000;stroke-width:2;" width="85.4937" x="1002.4429" y="777.8516"/><text fill="#000000" font-family="sans-serif" font-size="13" font-weight="bold" lengthAdjust="spacing" textLength="66.9678" x="1008.4429" y="793.9185">RUNTIME</text><path d="M1217.063,817.9844 L1913.688,817.9844 L1913.688,825.1172 L1903.688,835.1172 L1217.063,835.1172 L1217.063,817.9844" fill="#EEEEEE" style="stroke:#000000;stroke-width:1.5;"/><rect fill="none" height="75.3984" style="stroke:#000000;stroke-width:1.5;" width="701.625" x="1217.063" y="817.9844"/><text fill="#000000" font-family="sans-serif" font-size="13" font-weight="bold" lengthAdjust="spacing" textLength="651.625" x="1232.063" y="831.0513">Initialization - one-time negotiation about a token securing the localhost communication</text><g class="message" data-participant-1="ComponentImplementation" data-participant-2="SecretsManagementSideCar"><polygon fill="#181818" points="1550.1348,852.25,1560.1348,856.25,1550.1348,860.25,1554.1348,856.25" style="stroke:#181818;stroke-width:1;"/><line style="stroke:#181818;stroke-width:1;" x1="1337.8115" x2="1556.1348" y1="856.25" y2="856.25"/><text fill="#000000" font-family="sans-serif" font-size="13" lengthAdjust="spacing" textLength="61.7246" x="1344.8115" y="851.1841">init(seed)</text></g><g class="message" data-participant-1="SecretsManagementSideCar" data-participant-2="ComponentImplementation"><polygon fill="#181818" points="1348.8115,864.25,1338.8115,868.25,1348.8115,872.25,1344.8115,868.25" style="stroke:#181818;stroke-width:1;"/><line style="stroke:#181818;stroke-width:1;stroke-dasharray:2.0,2.0;" x1="1342.8115" x2="1561.1348" y1="868.25" y2="868.25"/><text fill="#000000" font-family="sans-serif" font-size="13" lengthAdjust="spacing" textLength="99.8613" x="1354.8115" y="881.3169">localhost-token</text></g><path d="M1270,905.3828 L1270,930.3828 L1394,930.3828 L1394,915.3828 L1384,905.3828 L1270,905.3828" fill="#FEFFDD" style="stroke:#181818;stroke-width:0.5;"/><path d="M1384,905.3828 L1384,915.3828 L1394,915.3828 L1384,905.3828" fill="#FEFFDD" style="stroke:#181818;stroke-width:0.5;"/><text fill="#000000" font-family="sans-serif" font-size="13" lengthAdjust="spacing" textLength="103.0415" x="1276" y="922.4497">some time later</text><path d="M1217.063,942.5156 L1481.7427,942.5156 L1481.7427,949.6484 L1471.7427,959.6484 L1217.063,959.6484 L1217.063,942.5156" fill="#EEEEEE" style="stroke:#000000;stroke-width:1.5;"/><rect fill="none" height="191.9297" style="stroke:#000000;stroke-width:1.5;" width="863.3164" x="1217.063" y="942.5156"/><text fill="#000000" font-family="sans-serif" font-size="13" font-weight="bold" lengthAdjust="spacing" textLength="219.6797" x="1232.063" y="955.5825">Runtime - component running</text><g class="message" data-participant-1="ComponentImplementation" data-participant-2="SecretsManagementSideCar"><polygon fill="#181818" points="1550.1348,976.7813,1560.1348,980.7813,1550.1348,984.7813,1554.1348,980.7813" style="stroke:#181818;stroke-width:1;"/><line style="stroke:#181818;stroke-width:1;" x1="1337.8115" x2="1556.1348" y1="980.7813" y2="980.7813"/><text fill="#000000" font-family="sans-serif" font-size="13" lengthAdjust="spacing" textLength="163.1792" x="1344.8115" y="975.7153">create secret(key, value)</text></g><g class="message" data-participant-1="SecretsManagementSideCar" data-participant-2="CanvasVault"><polygon fill="#181818" points="2005.2573,1005.9141,2015.2573,1009.9141,2005.2573,1013.9141,2009.2573,1009.9141" style="stroke:#181818;stroke-width:1;"/><line style="stroke:#181818;stroke-width:1;" x1="1572.1348" x2="2011.2573" y1="1009.9141" y2="1009.9141"/><text fill="#000000" font-family="sans-serif" font-size="13" lengthAdjust="spacing" textLength="370.8491" x="1579.1348" y="1004.8481">create secret("secretsmanagement-&lt;CIID&gt;", key, value)</text></g><g class="message" data-participant-1="ComponentImplementation" data-participant-2="SecretsManagementSideCar"><polygon fill="#181818" points="1550.1348,1035.0469,1560.1348,1039.0469,1550.1348,1043.0469,1554.1348,1039.0469" style="stroke:#181818;stroke-width:1;"/><line style="stroke:#181818;stroke-width:1;" x1="1337.8115" x2="1556.1348" y1="1039.0469" y2="1039.0469"/><text fill="#000000" font-family="sans-serif" font-size="13" lengthAdjust="spacing" textLength="107.415" x="1344.8115" y="1033.981">read secret(key)</text></g><g class="message" data-participant-1="SecretsManagementSideCar" data-participant-2="CanvasVault"><polygon fill="#181818" points="2005.2573,1064.1797,2015.2573,1068.1797,2005.2573,1072.1797,2009.2573,1068.1797" style="stroke:#181818;stroke-width:1;"/><line style="stroke:#181818;stroke-width:1;" x1="1572.1348" x2="2011.2573" y1="1068.1797" y2="1068.1797"/><text fill="#000000" font-family="sans-serif" font-size="13" lengthAdjust="spacing" textLength="311.251" x="1579.1348" y="1063.1138">read secret("secretsmanagement-&lt;CID&gt;", key)</text></g><g class="message" data-participant-1="CanvasVault" data-participant-2="SecretsManagementSideCar"><polygon fill="#181818" points="1583.1348,1076.1797,1573.1348,1080.1797,1583.1348,1084.1797,1579.1348,1080.1797" style="stroke:#181818;stroke-width:1;"/><line style="stroke:#181818;stroke-width:1;stroke-dasharray:2.0,2.0;" x1="1577.1348" x2="2016.2573" y1="1080.1797" y2="1080.1797"/><text fill="#000000" font-family="sans-serif" font-size="13" lengthAdjust="spacing" textLength="124.9536" x="1589.1348" y="1093.2466">return secret-value</text></g><g class="message" data-participant-1="SecretsManagementSideCar" data-participant-2="ComponentImplementation"><polygon fill="#181818" points="1348.8115,1105.3125,1338.8115,1109.3125,1348.8115,1113.3125,1344.8115,1109.3125" style="stroke:#181818;stroke-width:1;"/><line style="stroke:#181818;stroke-width:1;stroke-dasharray:2.0,2.0;" x1="1342.8115" x2="1561.1348" y1="1109.3125" y2="1109.3125"/><text fill="#000000" font-family="sans-serif" font-size="13" lengthAdjust="spacing" textLength="124.9536" x="1354.8115" y="1122.3794">return secret-value</text></g><!--SRC=[fLNRRjiu47sMlcAW1OeK29q-5tM1rCw3DtLi96aMYo1OCFJOPYsHAadPzNxz3gcBfVWI9AiNMoFEcJCpPuPSE6rWmDMQsqbkWLj8oZUOv6WuVKrYL4wwBGnqbcj5Bt7EZPD2vbmvEbwRTnuUfZ7NrXeckKDXq5aOSyKNc94vE5JcdRKRPj-h6s_FlOdRWRakdj4eT6ZXSZeAdZiJMJgdcnn6MPu6KEwaLl0OH_rTsjF9C8uOFN7K65dN8txguEvnlPCp771p7BZoO3iNLlcyW2wRzy2BrBMR6Gn97CSBeuiSsbPYuyWK0pszNe-IQDJ0ldRmFeCDHtzk7A2QvLfIm3dfHykP-6SchT1hD5lOIBUaeu7nnQgfRa_g2ujcBGLo8NIXt8NWFM5S7FcuX0Y1NHpt-p2OZAUJcwkRUnXUJRzF_Xxxl_r-L6VmJMjddU4vC11DnMQOfteRnBFhHKZZfHef6QqeE7A7SLJ-7f1WjEz8Q7ldWE3mDz4HZjYekLp0tEYiDJBHliyXeCFqZXzx1QFAgr3oLu7GKgUoZYk1R3I4BuFHQFZrbI2T6I7WH-rbpTCdQ4eN6djPDXOIora9dBo2t1LOXNQDM_R0K-9iwHX2ibepct7rVp2dEfM2rayBX-N1bfIA9L6YjU0qTAEz9rYg5rB1hKwn6z2G9Gapmmktz1jHq89GYvB1dt_TmpEtEAFcLpeg3BtH8c1tc69Orak-zWu7yo1QcRIMMcDRynJvWIACbwCKLRCqBbmeq6HeOREKOWa6II-sMLJjjNCPgXH7NKMyeaE2xcar2BKv-_XMGTVRiQdk1v3g9rK3wYzKAyUbGhEhO-PrU5vrXuNsi1-tty_1ju0fdY5mgj3r0xiB4lEMkj_7zluNzlZ7VFw9dgSJFEE8re1SUwB7W5f7ZcOR5hBITCJ8nTA1dX-32oTfe8qZhJYzG5AMeHAHYa9NmtSl1uyM7QX-7N9FpQMCQIAIQfrdEo5KemY5zNBq9IU6xRdlBlJR7pVte_5LUuUFb7IIf_BViYZCysLEKcSKBcZ1b6R-h0kwouZ52fM_LWhZ0rAEH4_mTAcjNxfPHbjErEKzLlZJyf94wCmYpaYYTYKLNQmyes6mX6LnJBedbs-OwisbCNe3pXHuIYtiLB26F0kPjSiLkkxlqgC2egjOKvr2iLAIaQbhUakgzyRshMWAfQXaxwrADNIb0ivMk3s7jT_D7z-Yf2x8SJcTGoV0-nXJh5cBxvk8jdqFqwnPde8DpNy9x0gZAcWM4dotTWvWGKj0_m40]--></g></svg>