<svg xmlns="http://www.w3.org/2000/svg" xmlns:xlink="http://www.w3.org/1999/xlink" contentStyleType="text/css" data-diagram-type="SEQUENCE" height="720px" preserveAspectRatio="none" style="width:1895px;height:720px;background:#FFFFFF;" version="1.1" viewBox="0 0 1895 720" width="1895px" zoomAndPan="magnify"><defs/><g><rect fill="none" height="132.7969" style="stroke:#000000;stroke-width:1.5;" width="1167.5229" x="722.1279" y="98.2969"/><rect fill="none" height="230.1953" style="stroke:#000000;stroke-width:1.5;" width="849.1787" x="10" y="245.0938"/><rect fill="none" height="75.3984" style="stroke:#000000;stroke-width:1.5;" width="428.9165" x="420.2622" y="392.8906"/><rect fill="none" height="133.6641" style="stroke:#000000;stroke-width:1.5;" width="1295.7593" x="10" y="489.2891"/><g><title>Operations</title><rect fill="#000000" fill-opacity="0.00000" height="558.6563" width="8" x="57.4829" y="81.2969"/><line style="stroke:#181818;stroke-width:0.5;stroke-dasharray:5.0,5.0;" x1="61" x2="61" y1="81.2969" y2="639.9531"/></g><g><title>Component</title><rect fill="#000000" fill-opacity="0.00000" height="558.6563" width="8" x="204.6782" y="81.2969"/><line style="stroke:#181818;stroke-width:0.5;stroke-dasharray:5.0,5.0;" x1="208.0386" x2="208.0386" y1="81.2969" y2="639.9531"/></g><g><title>ComponentOperator</title><rect fill="#000000" fill-opacity="0.00000" height="558.6563" width="8" x="337.29" y="81.2969"/><line style="stroke:#181818;stroke-width:0.5;stroke-dasharray:5.0,5.0;" x1="340.3179" x2="340.3179" y1="81.2969" y2="639.9531"/></g><g><title>ExposedAPI</title><rect fill="#000000" fill-opacity="0.00000" height="558.6563" width="8" x="470.0249" y="81.2969"/><line style="stroke:#181818;stroke-width:0.5;stroke-dasharray:5.0,5.0;" x1="473.2622" x2="473.2622" y1="81.2969" y2="639.9531"/></g><g><title>APIExposureOperator</title><rect fill="#000000" fill-opacity="0.00000" height="558.6563" width="8" x="605.7539" y="81.2969"/><line style="stroke:#181818;stroke-width:0.5;stroke-dasharray:5.0,5.0;" x1="608.7876" x2="608.7876" y1="81.2969" y2="639.9531"/></g><g><title>Service Mesh</title><rect fill="#000000" fill-opacity="0.00000" height="558.6563" width="8" x="781.6533" y="81.2969"/><line style="stroke:#181818;stroke-width:0.5;stroke-dasharray:5.0,5.0;" x1="785.1279" x2="785.1279" y1="81.2969" y2="639.9531"/></g><g><title>Cloud Platform</title><rect fill="#000000" fill-opacity="0.00000" height="558.6563" width="8" x="904.043" y="81.2969"/><line style="stroke:#181818;stroke-width:0.5;stroke-dasharray:5.0,5.0;" x1="907.1787" x2="907.1787" y1="81.2969" y2="639.9531"/></g><g><title>Observability Platform</title><rect fill="#000000" fill-opacity="0.00000" height="558.6563" width="8" x="1206.5083" y="81.2969"/><line style="stroke:#181818;stroke-width:0.5;stroke-dasharray:5.0,5.0;" x1="1210.2573" x2="1210.2573" y1="81.2969" y2="639.9531"/></g><g class="participant participant-head" data-participant="Operations"><text fill="#000000" font-family="sans-serif" font-size="14" lengthAdjust="spacing" textLength="76.9658" x="20" y="77.9951">Operations</text><ellipse cx="61.4829" cy="13.5" fill="#E2E2F0" rx="8" ry="8" style="stroke:#181818;stroke-width:0.5;"/><path d="M61.4829,21.5 L61.4829,48.5 M48.4829,29.5 L74.4829,29.5 M61.4829,48.5 L48.4829,63.5 M61.4829,48.5 L74.4829,63.5" fill="none" style="stroke:#181818;stroke-width:0.5;"/></g><g class="participant participant-tail" data-participant="Operations"><text fill="#000000" font-family="sans-serif" font-size="14" lengthAdjust="spacing" textLength="76.9658" x="20" y="651.9482">Operations</text><ellipse cx="61.4829" cy="663.75" fill="#E2E2F0" rx="8" ry="8" style="stroke:#181818;stroke-width:0.5;"/><path d="M61.4829,671.75 L61.4829,698.75 M48.4829,679.75 L74.4829,679.75 M61.4829,698.75 L48.4829,713.75 M61.4829,698.75 L74.4829,713.75" fill="none" style="stroke:#181818;stroke-width:0.5;"/></g><g class="participant participant-head" data-participant="Component"><text fill="#000000" font-family="sans-serif" font-size="14" lengthAdjust="spacing" textLength="81.2793" x="165.0386" y="77.9951">Component</text><ellipse cx="208.6782" cy="49" fill="#E2E2F0" rx="12" ry="12" style="stroke:#181818;stroke-width:0.5;"/><line style="stroke:#181818;stroke-width:0.5;" x1="196.6782" x2="220.6782" y1="63" y2="63"/></g><g class="participant participant-tail" data-participant="Component"><text fill="#000000" font-family="sans-serif" font-size="14" lengthAdjust="spacing" textLength="81.2793" x="165.0386" y="651.9482">Component</text><ellipse cx="208.6782" cy="671.25" fill="#E2E2F0" rx="12" ry="12" style="stroke:#181818;stroke-width:0.5;"/><line style="stroke:#181818;stroke-width:0.5;" x1="196.6782" x2="220.6782" y1="685.25" y2="685.25"/></g><g class="participant participant-head" data-participant="ComponentOperator"><rect fill="#E2E2F0" height="30.2969" rx="2.5" ry="2.5" style="stroke:#181818;stroke-width:0.5;" width="157.9443" x="262.3179" y="50"/><text fill="#000000" font-family="sans-serif" font-size="14" lengthAdjust="spacing" textLength="143.9443" x="269.3179" y="69.9951">ComponentOperator</text></g><g class="participant participant-tail" data-participant="ComponentOperator"><rect fill="#E2E2F0" height="30.2969" rx="2.5" ry="2.5" style="stroke:#181818;stroke-width:0.5;" width="157.9443" x="262.3179" y="638.9531"/><text fill="#000000" font-family="sans-serif" font-size="14" lengthAdjust="spacing" textLength="143.9443" x="269.3179" y="658.9482">ComponentOperator</text></g><g class="participant participant-head" data-participant="ExposedAPI"><text fill="#000000" font-family="sans-serif" font-size="14" lengthAdjust="spacing" textLength="81.5254" x="430.2622" y="77.9951">ExposedAPI</text><ellipse cx="474.0249" cy="49" fill="#E2E2F0" rx="12" ry="12" style="stroke:#181818;stroke-width:0.5;"/><line style="stroke:#181818;stroke-width:0.5;" x1="462.0249" x2="486.0249" y1="63" y2="63"/></g><g class="participant participant-tail" data-participant="ExposedAPI"><text fill="#000000" font-family="sans-serif" font-size="14" lengthAdjust="spacing" textLength="81.5254" x="430.2622" y="651.9482">ExposedAPI</text><ellipse cx="474.0249" cy="671.25" fill="#E2E2F0" rx="12" ry="12" style="stroke:#181818;stroke-width:0.5;"/><line style="stroke:#181818;stroke-width:0.5;" x1="462.0249" x2="486.0249" y1="685.25" y2="685.25"/></g><g class="participant participant-head" data-participant="APIExposureOperator"><rect fill="#E2E2F0" height="30.2969" rx="2.5" ry="2.5" style="stroke:#181818;stroke-width:0.5;" width="163.9326" x="527.7876" y="50"/><text fill="#000000" font-family="sans-serif" font-size="14" lengthAdjust="spacing" textLength="149.9326" x="534.7876" y="69.9951">APIExposureOperator</text></g><g class="participant participant-tail" data-participant="APIExposureOperator"><rect fill="#E2E2F0" height="30.2969" rx="2.5" ry="2.5" style="stroke:#181818;stroke-width:0.5;" width="163.9326" x="527.7876" y="638.9531"/><text fill="#000000" font-family="sans-serif" font-size="14" lengthAdjust="spacing" textLength="149.9326" x="534.7876" y="658.9482">APIExposureOperator</text></g><g class="participant participant-head" data-participant="Service Mesh"><rect fill="#E2E2F0" height="30.2969" rx="2.5" ry="2.5" style="stroke:#181818;stroke-width:0.5;" width="107.0508" x="732.1279" y="50"/><text fill="#000000" font-family="sans-serif" font-size="14" lengthAdjust="spacing" textLength="93.0508" x="739.1279" y="69.9951">Service Mesh</text></g><g class="participant participant-tail" data-participant="Service Mesh"><rect fill="#E2E2F0" height="30.2969" rx="2.5" ry="2.5" style="stroke:#181818;stroke-width:0.5;" width="107.0508" x="732.1279" y="638.9531"/><text fill="#000000" font-family="sans-serif" font-size="14" lengthAdjust="spacing" textLength="93.0508" x="739.1279" y="658.9482">Service Mesh</text></g><g class="participant participant-head" data-participant="Cloud Platform"><rect fill="#E2E2F0" height="30.2969" rx="2.5" ry="2.5" style="stroke:#181818;stroke-width:0.5;" width="117.7285" x="849.1787" y="50"/><text fill="#000000" font-family="sans-serif" font-size="14" lengthAdjust="spacing" textLength="103.7285" x="856.1787" y="69.9951">Cloud Platform</text></g><g class="participant participant-tail" data-participant="Cloud Platform"><rect fill="#E2E2F0" height="30.2969" rx="2.5" ry="2.5" style="stroke:#181818;stroke-width:0.5;" width="117.7285" x="849.1787" y="638.9531"/><text fill="#000000" font-family="sans-serif" font-size="14" lengthAdjust="spacing" textLength="103.7285" x="856.1787" y="658.9482">Cloud Platform</text></g><g class="participant participant-head" data-participant="Observability Platform"><rect fill="#E2E2F0" height="30.2969" rx="2.5" ry="2.5" style="stroke:#181818;stroke-width:0.5;" width="170.502" x="1125.2573" y="50"/><text fill="#000000" font-family="sans-serif" font-size="14" lengthAdjust="spacing" textLength="156.502" x="1132.2573" y="69.9951">Observability Platform</text></g><g class="participant participant-tail" data-participant="Observability Platform"><rect fill="#E2E2F0" height="30.2969" rx="2.5" ry="2.5" style="stroke:#181818;stroke-width:0.5;" width="170.502" x="1125.2573" y="638.9531"/><text fill="#000000" font-family="sans-serif" font-size="14" lengthAdjust="spacing" textLength="156.502" x="1132.2573" y="658.9482">Observability Platform</text></g><path d="M722.1279,98.2969 L905.3481,98.2969 L905.3481,105.4297 L895.3481,115.4297 L722.1279,115.4297 L722.1279,98.2969" fill="#EEEEEE" style="stroke:#000000;stroke-width:1.5;"/><rect fill="none" height="132.7969" style="stroke:#000000;stroke-width:1.5;" width="1167.5229" x="722.1279" y="98.2969"/><text fill="#000000" font-family="sans-serif" font-size="13" font-weight="bold" lengthAdjust="spacing" textLength="138.2202" x="737.1279" y="111.3638">canvas installation</text><g class="message" data-participant-1="Cloud Platform" data-participant-2="Observability Platform"><polygon fill="#181818" points="919.043,143.1289,909.043,147.1289,919.043,151.1289,915.043,147.1289" style="stroke:#181818;stroke-width:1;"/><polygon fill="#181818" points="1198.5083,143.1289,1208.5083,147.1289,1198.5083,151.1289,1202.5083,147.1289" style="stroke:#181818;stroke-width:1;"/><line style="stroke:#181818;stroke-width:1;" x1="913.043" x2="1204.5083" y1="147.1289" y2="147.1289"/><text fill="#000000" font-family="sans-serif" font-size="13" lengthAdjust="spacing" textLength="278.4653" x="925.043" y="142.063">Integrate observability with cloud platform</text></g><path d="M1215,120.4297 L1215,160.4297 L1874,160.4297 L1874,130.4297 L1864,120.4297 L1215,120.4297" fill="#FEFFDD" style="stroke:#181818;stroke-width:0.5;"/><path d="M1864,120.4297 L1864,130.4297 L1874,130.4297 L1864,120.4297" fill="#FEFFDD" style="stroke:#181818;stroke-width:0.5;"/><text fill="#000000" font-family="sans-serif" font-size="13" lengthAdjust="spacing" textLength="638.1426" x="1221" y="137.4966">Register the observability platform to listen to technical metric data from any deployed resources</text><text fill="#000000" font-family="sans-serif" font-size="13" lengthAdjust="spacing" textLength="156.311" x="1221" y="152.6294">(e.g. CPU, memory etc.)</text><g class="message" data-participant-1="Service Mesh" data-participant-2="Observability Platform"><polygon fill="#181818" points="796.6533,200.9609,786.6533,204.9609,796.6533,208.9609,792.6533,204.9609" style="stroke:#181818;stroke-width:1;"/><polygon fill="#181818" points="1198.5083,200.9609,1208.5083,204.9609,1198.5083,208.9609,1202.5083,204.9609" style="stroke:#181818;stroke-width:1;"/><line style="stroke:#181818;stroke-width:1;" x1="790.6533" x2="1204.5083" y1="204.9609" y2="204.9609"/><text fill="#000000" font-family="sans-serif" font-size="13" lengthAdjust="spacing" textLength="270.0356" x="802.6533" y="199.895">Integrate observability with service mesh</text></g><path d="M1215,170.6953 L1215,225.6953 L1809,225.6953 L1809,180.6953 L1799,170.6953 L1215,170.6953" fill="#FEFFDD" style="stroke:#181818;stroke-width:0.5;"/><path d="M1799,170.6953 L1799,180.6953 L1809,180.6953 L1799,170.6953" fill="#FEFFDD" style="stroke:#181818;stroke-width:0.5;"/><text fill="#000000" font-family="sans-serif" font-size="13" lengthAdjust="spacing" textLength="573.9995" x="1221" y="187.7622">Register the observability platform to listen to technical metric data from any resources</text><text fill="#000000" font-family="sans-serif" font-size="13" lengthAdjust="spacing" textLength="306.979" x="1221" y="202.895">configured with the service mesh control plane</text><text fill="#000000" font-family="sans-serif" font-size="13" lengthAdjust="spacing" textLength="184.9009" x="1221" y="218.0278">(e.g. HTTP traffic in/out etc.)</text><path d="M10,245.0938 L182.8164,245.0938 L182.8164,252.2266 L172.8164,262.2266 L10,262.2266 L10,245.0938" fill="#EEEEEE" style="stroke:#000000;stroke-width:1.5;"/><rect fill="none" height="230.1953" style="stroke:#000000;stroke-width:1.5;" width="849.1787" x="10" y="245.0938"/><text fill="#000000" font-family="sans-serif" font-size="13" font-weight="bold" lengthAdjust="spacing" textLength="127.8164" x="25" y="258.1606">component setup</text><g class="message" data-participant-1="Operations" data-participant-2="Component"><polygon fill="#181818" points="196.6782,279.3594,206.6782,283.3594,196.6782,287.3594,200.6782,283.3594" style="stroke:#181818;stroke-width:1;"/><line style="stroke:#181818;stroke-width:1;" x1="61.4829" x2="202.6782" y1="283.3594" y2="283.3594"/><text fill="#000000" font-family="sans-serif" font-size="13" lengthAdjust="spacing" textLength="123.1953" x="68.4829" y="278.2935">Deploy component</text></g><g class="message" data-participant-1="Component" data-participant-2="ComponentOperator"><polygon fill="#181818" points="329.29,308.4922,339.29,312.4922,329.29,316.4922,333.29,312.4922" style="stroke:#181818;stroke-width:1;"/><line style="stroke:#181818;stroke-width:1;" x1="208.6782" x2="335.29" y1="312.4922" y2="312.4922"/><text fill="#000000" font-family="sans-serif" font-size="13" lengthAdjust="spacing" textLength="61.877" x="215.6782" y="307.4263">on.create</text></g><g class="message" data-participant-1="ComponentOperator" data-participant-2="ExposedAPI"><polygon fill="#181818" points="462.0249,355.7578,472.0249,359.7578,462.0249,363.7578,466.0249,359.7578" style="stroke:#181818;stroke-width:1;"/><line style="stroke:#181818;stroke-width:1;" x1="341.29" x2="468.0249" y1="359.7578" y2="359.7578"/><text fill="#000000" font-family="sans-serif" font-size="13" lengthAdjust="spacing" textLength="41.5518" x="348.29" y="354.6919">create</text></g><path d="M479,325.4922 L479,380.4922 L779,380.4922 L779,335.4922 L769,325.4922 L479,325.4922" fill="#FEFFDD" style="stroke:#181818;stroke-width:0.5;"/><path d="M769,325.4922 L769,335.4922 L779,335.4922 L769,325.4922" fill="#FEFFDD" style="stroke:#181818;stroke-width:0.5;"/><text fill="#000000" font-family="sans-serif" font-size="13" lengthAdjust="spacing" textLength="279.6396" x="485" y="342.5591">A separate ExposedAPI resource is created</text><text fill="#000000" font-family="sans-serif" font-size="13" lengthAdjust="spacing" textLength="272.5049" x="485" y="357.6919">for each exposed API in the core function,</text><text fill="#000000" font-family="sans-serif" font-size="13" lengthAdjust="spacing" textLength="229.436" x="485" y="372.8247">security and management sections</text><path d="M420.2622,392.8906 L623.3379,392.8906 L623.3379,400.0234 L613.3379,410.0234 L420.2622,410.0234 L420.2622,392.8906" fill="#EEEEEE" style="stroke:#000000;stroke-width:1.5;"/><rect fill="none" height="75.3984" style="stroke:#000000;stroke-width:1.5;" width="428.9165" x="420.2622" y="392.8906"/><text fill="#000000" font-family="sans-serif" font-size="13" font-weight="bold" lengthAdjust="spacing" textLength="158.0757" x="435.2622" y="405.9575">For each exposed API</text><g class="message" data-participant-1="ExposedAPI" data-participant-2="APIExposureOperator"><polygon fill="#181818" points="597.7539,427.1563,607.7539,431.1563,597.7539,435.1563,601.7539,431.1563" style="stroke:#181818;stroke-width:1;"/><line style="stroke:#181818;stroke-width:1;" x1="474.0249" x2="603.7539" y1="431.1563" y2="431.1563"/><text fill="#000000" font-family="sans-serif" font-size="13" lengthAdjust="spacing" textLength="61.877" x="481.0249" y="426.0903">on.create</text></g><g class="message" data-participant-1="APIExposureOperator" data-participant-2="Service Mesh"><polygon fill="#181818" points="773.6533,456.2891,783.6533,460.2891,773.6533,464.2891,777.6533,460.2891" style="stroke:#181818;stroke-width:1;"/><line style="stroke:#181818;stroke-width:1;" x1="609.7539" x2="779.6533" y1="460.2891" y2="460.2891"/><text fill="#000000" font-family="sans-serif" font-size="13" lengthAdjust="spacing" textLength="151.8994" x="616.7539" y="455.2231">configure Service Mesh</text></g><path d="M10,489.2891 L182.9688,489.2891 L182.9688,496.4219 L172.9688,506.4219 L10,506.4219 L10,489.2891" fill="#EEEEEE" style="stroke:#000000;stroke-width:1.5;"/><rect fill="none" height="133.6641" style="stroke:#000000;stroke-width:1.5;" width="1295.7593" x="10" y="489.2891"/><text fill="#000000" font-family="sans-serif" font-size="13" font-weight="bold" lengthAdjust="spacing" textLength="127.9688" x="25" y="502.356">in-life Operations</text><g class="message" data-participant-1="Cloud Platform" data-participant-2="Observability Platform"><polygon fill="#181818" points="1198.5083,523.5547,1208.5083,527.5547,1198.5083,531.5547,1202.5083,527.5547" style="stroke:#181818;stroke-width:1;"/><line style="stroke:#181818;stroke-width:1;" x1="908.043" x2="1204.5083" y1="527.5547" y2="527.5547"/><text fill="#000000" font-family="sans-serif" font-size="13" lengthAdjust="spacing" textLength="98.6108" x="915.043" y="522.4888">stream metrics</text></g><g class="message" data-participant-1="Service Mesh" data-participant-2="Observability Platform"><polygon fill="#181818" points="1198.5083,552.6875,1208.5083,556.6875,1198.5083,560.6875,1202.5083,556.6875" style="stroke:#181818;stroke-width:1;"/><line style="stroke:#181818;stroke-width:1;" x1="785.6533" x2="1204.5083" y1="556.6875" y2="556.6875"/><text fill="#000000" font-family="sans-serif" font-size="13" lengthAdjust="spacing" textLength="98.6108" x="792.6533" y="551.6216">stream metrics</text></g><g class="message" data-participant-1="Operations" data-participant-2="Observability Platform"><polygon fill="#181818" points="1198.5083,581.8203,1208.5083,585.8203,1198.5083,589.8203,1202.5083,585.8203" style="stroke:#181818;stroke-width:1;"/><line style="stroke:#181818;stroke-width:1;" x1="61.4829" x2="1204.5083" y1="585.8203" y2="585.8203"/><text fill="#000000" font-family="sans-serif" font-size="13" lengthAdjust="spacing" textLength="277.0371" x="68.4829" y="580.7544">view performance and operational metrics</text></g><g class="message" data-participant-1="Observability Platform" data-participant-2="Operations"><polygon fill="#181818" points="72.4829,610.9531,62.4829,614.9531,72.4829,618.9531,68.4829,614.9531" style="stroke:#181818;stroke-width:1;"/><line style="stroke:#181818;stroke-width:1;" x1="66.4829" x2="1209.5083" y1="614.9531" y2="614.9531"/><text fill="#000000" font-family="sans-serif" font-size="13" lengthAdjust="spacing" textLength="257.6069" x="78.4829" y="609.8872">Raise alarms for pre-defined thresholds</text></g><!--SRC=[lLLDRzim3BtdLn0zTK2JteDXG95jM0z3Wwxx0Qf4sm9aqP3eTFdte-JuCqc1Oi1yigpt7gb7KbQQAS1JWq6n9HzNwDdo4NPKD-HbiMfKOAjjepoFNpi2XHx-xKz34St3_d66btNUQGCEZEd-pIyC1wiHVcAiRkPREqUjWRrJN52e5vjFhr6OwjMw57q4bO7Q1hJo1nN1-iZAkNom5SYpr8JFwozNjM0BZvwnbAmHQ8Pviro1pbhD2PxrFGaqsBBYl4pFCvOsCWRWQgdIKu49N0BvzCQeAs-rSb0Z1wl1A5PG1Af1-ICOR1mTqK30I6tG68TGjxWfDx3R_xuJQatX2CXwyodlepSvkyw6cUl_P48yATMYbAJ_bmtdfzVa2rjAevakinHebfq0E91ByJmkJFlnyh873gee99BrzzJo9VFafU-mVX0a1hTDXWt38OvE9aei_9gBDf8MSF7_RB2sG7wZ0oRVv_0UaMZZs6sX0ryhm8CaAXEKv4RIO2FOUEARWI4r0LIw0kpmQPZ5csoife1Gj5wd4zuDb8Yw3QccIXohbLSbrfr7khjSpbgnS_FxXL23w2HTEV656-NCgdpUSroYBrf_ExODJ7VwH2SLjtxjR87Jg_BYbVB-C4MMFEjJJyTBq_XX_gJJtkSUBBw1WDDQUGcOgaGzUvYqKrRNT2J6hBUVbOqYvLIeO-wP9k3QO66zr94hwR2Ad4d_5GEhlm00]--></g></svg>