<svg xmlns="http://www.w3.org/2000/svg" xmlns:xlink="http://www.w3.org/1999/xlink" contentStyleType="text/css" data-diagram-type="SEQUENCE" height="1694.7917px" preserveAspectRatio="none" style="width:1584px;height:1694px;background:#FFFFFF;" version="1.1" viewBox="0 0 1584 1694" width="1584.375px" zoomAndPan="magnify"><title>apiOperatorAzureAPIM - Create/Update Sequence</title><defs><filter height="300%" id="f1k7wz39067pew" width="300%" x="-1" y="-1"><feGaussianBlur result="blurOut" stdDeviation="2.0833"/><feColorMatrix in="blurOut" result="blurOut2" type="matrix" values="0 0 0 0 0 0 0 0 0 0 0 0 0 0 0 0 0 0 .4 0"/><feOffset dx="4.1667" dy="4.1667" in="blurOut2" result="blurOut3"/><feBlend in="SourceGraphic" in2="blurOut3" mode="normal"/></filter></defs><g><rect fill="none" height="57.5846" rx="4.1667" ry="4.1667" style="stroke:#CCCCCC;stroke-width:1.0417;" width="617.5008" x="484.8948" y="20.8333"/><text fill="#2196F3" font-family="'Verdana'" font-size="20.8333" font-weight="bold" lengthAdjust="spacing" textLength="584.1675" x="501.5615" y="56.838">apiOperatorAzureAPIM - Create/Update Sequence</text><g><title>Kubernetes API</title><rect fill="#FFFFFF" filter="url(#f1k7wz39067pew)" height="49.9674" style="stroke:#CCCCCC;stroke-width:1.0417;" width="10.4167" x="326.295" y="659.3099"/></g><g><title>Kubernetes API</title><rect fill="#FFFFFF" filter="url(#f1k7wz39067pew)" height="49.9674" style="stroke:#CCCCCC;stroke-width:1.0417;" width="10.4167" x="326.295" y="809.2122"/></g><g><title>Kubernetes API</title><rect fill="#FFFFFF" filter="url(#f1k7wz39067pew)" height="49.9674" style="stroke:#CCCCCC;stroke-width:1.0417;" width="10.4167" x="326.295" y="1113.1836"/></g><g><title>apiOperatorAzureAPIM</title><rect fill="#FFFFFF" filter="url(#f1k7wz39067pew)" height="1366.7643" style="stroke:#CCCCCC;stroke-width:1.0417;" width="10.4167" x="631.8166" y="202.3438"/></g><g><title>Azure Key Vault</title><rect fill="#FFFFFF" filter="url(#f1k7wz39067pew)" height="49.9674" style="stroke:#CCCCCC;stroke-width:1.0417;" width="10.4167" x="1228.0284" y="440.7227"/></g><g><title>Azure APIM</title><rect fill="#FFFFFF" filter="url(#f1k7wz39067pew)" height="238.3464" style="stroke:#CCCCCC;stroke-width:1.0417;" width="10.4167" x="1445.3206" y="1213.1185"/></g><rect fill="#FFFFFF" filter="url(#f1k7wz39067pew)" height="137.4023" rx="4.1667" ry="4.1667" style="stroke:#2196F3;stroke-width:1.0417;" width="758.2672" x="20.8333" y="209.6354"/><rect fill="#FFFFFF" filter="url(#f1k7wz39067pew)" height="1207.487" rx="4.1667" ry="4.1667" style="stroke:#2196F3;stroke-width:1.0417;" width="1365.4409" x="202.0579" y="361.6211"/><rect fill="#FFFFFF" filter="url(#f1k7wz39067pew)" height="411.1654" rx="4.1667" ry="4.1667" style="stroke:#2196F3;stroke-width:1.0417;" width="910.023" x="212.4746" y="506.3151"/><rect fill="#FFFFFF" filter="url(#f1k7wz39067pew)" height="87.4349" rx="4.1667" ry="4.1667" style="stroke:#2196F3;stroke-width:1.0417;" width="566.626" x="212.4746" y="932.0638"/><rect fill="#FFFFFF" filter="url(#f1k7wz39067pew)" height="425.7161" rx="4.1667" ry="4.1667" style="stroke:#2196F3;stroke-width:1.0417;" width="1344.6075" x="212.4746" y="1034.082"/><rect fill="#FFFFFF" filter="url(#f1k7wz39067pew)" height="87.4349" rx="4.1667" ry="4.1667" style="stroke:#2196F3;stroke-width:1.0417;" width="566.626" x="212.4746" y="1474.3815"/><g><title>Developer</title><rect fill="#000000" fill-opacity="0.00000" height="1394.8893" width="8.3333" x="72.7692" y="191.9271"/><line style="stroke:#CCCCCC;stroke-width:1.0417;" x1="76.0417" x2="76.0417" y1="191.9271" y2="1586.8164"/></g><g><title>Kubernetes API</title><rect fill="#000000" fill-opacity="0.00000" height="1394.8893" width="8.3333" x="327.3366" y="191.9271"/><line style="stroke:#CCCCCC;stroke-width:1.0417;" x1="331.2246" x2="331.2246" y1="191.9271" y2="1586.8164"/></g><g><title>apiOperatorAzureAPIM</title><rect fill="#000000" fill-opacity="0.00000" height="1394.8893" width="8.3333" x="632.8583" y="191.9271"/><line style="stroke:#CCCCCC;stroke-width:1.0417;" x1="636.616" x2="636.616" y1="191.9271" y2="1586.8164"/></g><g><title>ODA Component</title><rect fill="#000000" fill-opacity="0.00000" height="1394.8893" width="8.3333" x="976.8016" y="191.9271"/><line style="stroke:#CCCCCC;stroke-width:1.0417;" x1="980.0639" x2="980.0639" y1="191.9271" y2="1586.8164"/></g><g><title>Azure Key Vault</title><rect fill="#000000" fill-opacity="0.00000" height="1394.8893" width="8.3333" x="1229.07" y="191.9271"/><line style="stroke:#CCCCCC;stroke-width:1.0417;" x1="1232.9142" x2="1232.9142" y1="191.9271" y2="1586.8164"/></g><g><title>Azure APIM</title><rect fill="#000000" fill-opacity="0.00000" height="1394.8893" width="8.3333" x="1446.3623" y="191.9271"/><line style="stroke:#CCCCCC;stroke-width:1.0417;" x1="1450.2258" x2="1450.2258" y1="191.9271" y2="1586.8164"/></g><g class="participant participant-head" data-participant="Developer"><text fill="#2196F3" font-family="'Verdana'" font-size="12.5" lengthAdjust="spacing" textLength="64.2883" x="41.6667" y="178.5624">Developer</text><ellipse cx="76.9358" cy="99.2513" fill="#FFFFFF" filter="url(#f1k7wz39067pew)" rx="8.3333" ry="8.3333" style="stroke:#2196F3;stroke-width:1.0417;"/><path d="M76.9358,107.5846 L76.9358,135.7096 M63.3942,115.918 L90.4775,115.918 M76.9358,135.7096 L63.3942,151.3346 M76.9358,135.7096 L90.4775,151.3346" fill="none" filter="url(#f1k7wz39067pew)" style="stroke:#2196F3;stroke-width:1.0417;"/></g><g class="participant participant-tail" data-participant="Developer"><text fill="#2196F3" font-family="'Verdana'" font-size="12.5" lengthAdjust="spacing" textLength="64.2883" x="41.6667" y="1607.7942">Developer</text><ellipse cx="76.9358" cy="1630.5339" fill="#FFFFFF" filter="url(#f1k7wz39067pew)" rx="8.3333" ry="8.3333" style="stroke:#2196F3;stroke-width:1.0417;"/><path d="M76.9358,1638.8672 L76.9358,1666.9922 M63.3942,1647.2005 L90.4775,1647.2005 M76.9358,1666.9922 L63.3942,1682.6172 M76.9358,1666.9922 L90.4775,1682.6172" fill="none" filter="url(#f1k7wz39067pew)" style="stroke:#2196F3;stroke-width:1.0417;"/></g><g class="participant participant-head" data-participant="K8s"><rect fill="#FFFFFF" filter="url(#f1k7wz39067pew)" height="49.9674" rx="4.1667" ry="4.1667" style="stroke:#2196F3;stroke-width:1.0417;" width="130.7658" x="264.5579" y="137.793"/><text fill="#2196F3" font-family="'Verdana'" font-size="12.5" lengthAdjust="spacing" textLength="95.3491" x="282.2662" y="167.1041">Kubernetes API</text></g><g class="participant participant-tail" data-participant="K8s"><rect fill="#FFFFFF" filter="url(#f1k7wz39067pew)" height="49.9674" rx="4.1667" ry="4.1667" style="stroke:#2196F3;stroke-width:1.0417;" width="130.7658" x="264.5579" y="1585.7747"/><text fill="#2196F3" font-family="'Verdana'" font-size="12.5" lengthAdjust="spacing" textLength="95.3491" x="282.2662" y="1615.0859">Kubernetes API</text></g><g class="participant participant-head" data-participant="Operator"><rect fill="#FFFFFF" filter="url(#f1k7wz39067pew)" height="49.9674" rx="4.1667" ry="4.1667" style="stroke:#2196F3;stroke-width:1.0417;" width="176.8595" x="547.0327" y="137.793"/><text fill="#2196F3" font-family="'Verdana'" font-size="12.5" lengthAdjust="spacing" textLength="141.4429" x="564.741" y="167.1041">apiOperatorAzureAPIM</text></g><g class="participant participant-tail" data-participant="Operator"><rect fill="#FFFFFF" filter="url(#f1k7wz39067pew)" height="49.9674" rx="4.1667" ry="4.1667" style="stroke:#2196F3;stroke-width:1.0417;" width="176.8595" x="547.0327" y="1585.7747"/><text fill="#2196F3" font-family="'Verdana'" font-size="12.5" lengthAdjust="spacing" textLength="141.4429" x="564.741" y="1615.0859">apiOperatorAzureAPIM</text></g><g class="participant participant-head" data-participant="ODA_K8s"><rect fill="#FFFFFF" filter="url(#f1k7wz39067pew)" height="64.5182" rx="4.1667" ry="4.1667" style="stroke:#2196F3;stroke-width:1.0417;" width="175.767" x="891.5222" y="123.2422"/><text fill="#2196F3" font-family="'Verdana'" font-size="12.5" lengthAdjust="spacing" textLength="104.5593" x="927.1261" y="152.5533">ODA Component</text><text fill="#2196F3" font-family="'Verdana'" font-size="12.5" lengthAdjust="spacing" textLength="140.3503" x="909.2306" y="167.1041">Service &amp; Deployment</text></g><g class="participant participant-tail" data-participant="ODA_K8s"><rect fill="#FFFFFF" filter="url(#f1k7wz39067pew)" height="64.5182" rx="4.1667" ry="4.1667" style="stroke:#2196F3;stroke-width:1.0417;" width="175.767" x="891.5222" y="1585.7747"/><text fill="#2196F3" font-family="'Verdana'" font-size="12.5" lengthAdjust="spacing" textLength="104.5593" x="927.1261" y="1615.0859">ODA Component</text><text fill="#2196F3" font-family="'Verdana'" font-size="12.5" lengthAdjust="spacing" textLength="140.3503" x="909.2306" y="1629.6366">Service &amp; Deployment</text></g><g class="participant participant-head" data-participant="Vault"><rect fill="#FFFFFF" filter="url(#f1k7wz39067pew)" height="49.9674" rx="4.1667" ry="4.1667" style="stroke:#2196F3;stroke-width:1.0417;" width="135.0199" x="1164.1642" y="137.793"/><text fill="#2196F3" font-family="'Verdana'" font-size="12.5" lengthAdjust="spacing" textLength="99.6033" x="1181.8726" y="167.1041">Azure Key Vault</text></g><g class="participant participant-tail" data-participant="Vault"><rect fill="#FFFFFF" filter="url(#f1k7wz39067pew)" height="49.9674" rx="4.1667" ry="4.1667" style="stroke:#2196F3;stroke-width:1.0417;" width="135.0199" x="1164.1642" y="1585.7747"/><text fill="#2196F3" font-family="'Verdana'" font-size="12.5" lengthAdjust="spacing" textLength="99.6033" x="1181.8726" y="1615.0859">Azure Key Vault</text></g><g class="participant participant-head" data-participant="APIM"><rect fill="#FFFFFF" filter="url(#f1k7wz39067pew)" height="49.9674" rx="4.1667" ry="4.1667" style="stroke:#2196F3;stroke-width:1.0417;" width="105.8146" x="1396.0592" y="137.793"/><text fill="#2196F3" font-family="'Verdana'" font-size="12.5" lengthAdjust="spacing" textLength="70.3979" x="1413.7675" y="167.1041">Azure APIM</text></g><g class="participant participant-tail" data-participant="APIM"><rect fill="#FFFFFF" filter="url(#f1k7wz39067pew)" height="49.9674" rx="4.1667" ry="4.1667" style="stroke:#2196F3;stroke-width:1.0417;" width="105.8146" x="1396.0592" y="1585.7747"/><text fill="#2196F3" font-family="'Verdana'" font-size="12.5" lengthAdjust="spacing" textLength="70.3979" x="1413.7675" y="1615.0859">Azure APIM</text></g><g><title>Kubernetes API</title><rect fill="#FFFFFF" filter="url(#f1k7wz39067pew)" height="49.9674" style="stroke:#CCCCCC;stroke-width:1.0417;" width="10.4167" x="326.295" y="659.3099"/></g><g><title>Kubernetes API</title><rect fill="#FFFFFF" filter="url(#f1k7wz39067pew)" height="49.9674" style="stroke:#CCCCCC;stroke-width:1.0417;" width="10.4167" x="326.295" y="809.2122"/></g><g><title>Kubernetes API</title><rect fill="#FFFFFF" filter="url(#f1k7wz39067pew)" height="49.9674" style="stroke:#CCCCCC;stroke-width:1.0417;" width="10.4167" x="326.295" y="1113.1836"/></g><g><title>apiOperatorAzureAPIM</title><rect fill="#FFFFFF" filter="url(#f1k7wz39067pew)" height="1366.7643" style="stroke:#CCCCCC;stroke-width:1.0417;" width="10.4167" x="631.8166" y="202.3438"/></g><g><title>Azure Key Vault</title><rect fill="#FFFFFF" filter="url(#f1k7wz39067pew)" height="49.9674" style="stroke:#CCCCCC;stroke-width:1.0417;" width="10.4167" x="1228.0284" y="440.7227"/></g><g><title>Azure APIM</title><rect fill="#FFFFFF" filter="url(#f1k7wz39067pew)" height="238.3464" style="stroke:#CCCCCC;stroke-width:1.0417;" width="10.4167" x="1445.3206" y="1213.1185"/></g><path d="M25,209.6354 L157.8532,209.6354 L157.8532,236.6862 L147.4365,247.1029 L20.8333,247.1029 L20.8333,213.8021 A4.1667,4.1667 0 0 1 25,209.6354" fill="#FFFFFF" style="stroke:#666666;stroke-width:1.0417;"/><rect fill="none" height="137.4023" rx="4.1667" ry="4.1667" style="stroke:#2196F3;stroke-width:1.0417;" width="758.2672" x="20.8333" y="209.6354"/><text fill="#9C27B0" font-family="'Verdana'" font-size="12.5" font-weight="bold" lengthAdjust="spacing" textLength="69.3115" x="46.875" y="232.6965">1. Trigger</text><g class="message" data-participant-1="Developer" data-participant-2="K8s"><polygon fill="#2196F3" points="319.0033,284.5703,329.42,288.737,319.0033,292.9036,323.17,288.737" style="stroke:#2196F3;stroke-width:1.0417;"/><line style="stroke:#2196F3;stroke-width:3.125;" x1="76.9358" x2="325.2533" y1="288.737" y2="288.737"/><text fill="#222222" font-family="'Verdana'" font-size="12.5" lengthAdjust="spacing" textLength="208.7341" x="94.6442" y="273.289">kubectl apply -f ExposedAPI.yaml</text></g><g class="message" data-participant-1="K8s" data-participant-2="Operator"><line style="stroke:#2196F3;stroke-width:3.125;" x1="629.7333" x2="619.3166" y1="338.7044" y2="334.5378"/><line style="stroke:#2196F3;stroke-width:3.125;" x1="629.7333" x2="619.3166" y1="338.7044" y2="342.8711"/><line style="stroke:#2196F3;stroke-width:3.125;" x1="331.5033" x2="630.7749" y1="338.7044" y2="338.7044"/><text fill="#222222" font-family="'Verdana'" font-size="12.5" lengthAdjust="spacing" textLength="177.0386" x="349.2116" y="323.2564">Notifies of CR create/update</text></g><path d="M206.2246,361.6211 L493.1793,361.6211 L493.1793,388.6719 L482.7627,399.0885 L202.0579,399.0885 L202.0579,365.7878 A4.1667,4.1667 0 0 1 206.2246,361.6211" fill="#FFFFFF" style="stroke:#666666;stroke-width:1.0417;"/><rect fill="none" height="1207.487" rx="4.1667" ry="4.1667" style="stroke:#2196F3;stroke-width:1.0417;" width="1365.4409" x="202.0579" y="361.6211"/><text fill="#9C27B0" font-family="'Verdana'" font-size="12.5" font-weight="bold" lengthAdjust="spacing" textLength="223.4131" x="228.0996" y="384.6822">2. Operator Reconciliation Loop</text><g class="message" data-participant-1="Operator" data-participant-2="Vault"><polygon fill="#2196F3" points="1215.5284,436.556,1225.945,440.7227,1215.5284,444.8893,1219.695,440.7227" style="stroke:#2196F3;stroke-width:1.0417;"/><line style="stroke:#2196F3;stroke-width:3.125;" x1="642.2333" x2="1221.7784" y1="440.7227" y2="440.7227"/><text fill="#222222" font-family="'Verdana'" font-size="12.5" lengthAdjust="spacing" textLength="215.9241" x="659.9416" y="425.2747">GET secrets (APIM name, RG, etc.)</text></g><g class="message" data-participant-1="Vault" data-participant-2="Operator"><line style="stroke:#2196F3;stroke-width:3.125;" x1="643.2749" x2="653.6916" y1="490.6901" y2="486.5234"/><line style="stroke:#2196F3;stroke-width:3.125;" x1="643.2749" x2="653.6916" y1="490.6901" y2="494.8568"/><line style="stroke:#2196F3;stroke-width:3.125;" x1="642.2333" x2="1232.195" y1="490.6901" y2="490.6901"/><text fill="#222222" font-family="'Verdana'" font-size="12.5" lengthAdjust="spacing" textLength="91.3696" x="670.3583" y="475.2421">Secrets values</text></g><path d="M216.6412,506.3151 L525.6358,506.3151 L525.6358,533.3659 L515.2191,543.7826 L212.4746,543.7826 L212.4746,510.4818 A4.1667,4.1667 0 0 1 216.6412,506.3151" fill="#FFFFFF" style="stroke:#666666;stroke-width:1.0417;"/><rect fill="none" height="411.1654" rx="4.1667" ry="4.1667" style="stroke:#2196F3;stroke-width:1.0417;" width="910.023" x="212.4746" y="506.3151"/><text fill="#9C27B0" font-family="'Verdana'" font-size="12.5" font-weight="bold" lengthAdjust="spacing" textLength="245.4529" x="238.5162" y="529.3762">Component Observability Patching</text><path d="M646.875,553.1576 L646.875,604.1992 A4.1667,4.1667 0 0 0 651.0417,608.3659 L858.3333,608.3659 A4.1667,4.1667 0 0 0 862.5,604.1992 L862.5,559.4076 L852.0833,548.9909 L651.0417,548.9909 A4.1667,4.1667 0 0 0 646.875,553.1576" fill="#FFFFFF" filter="url(#f1k7wz39067pew)" style="stroke:#9C27B0;stroke-width:1.0417;"/><path d="M852.0833,548.9909 L852.0833,557.3242 A2.0833,2.0833 0 0 0 854.1667,559.4076 L862.5,559.4076 L852.0833,548.9909" fill="#FFFFFF" style="stroke:#9C27B0;stroke-width:1.0417;"/><text fill="#9C27B0" font-family="'Verdana'" font-size="12.5" lengthAdjust="spacing" textLength="93.7988" x="663.5417" y="576.2187">This is the new</text><text fill="#9C27B0" font-family="'Verdana'" font-size="12.5" lengthAdjust="spacing" textLength="172.9675" x="663.5417" y="590.7694">observability injection step.</text><g class="message" data-participant-1="Operator" data-participant-2="K8s"><polygon fill="#2196F3" points="348.17,655.1432,337.7533,659.3099,348.17,663.4766,344.0033,659.3099" style="stroke:#2196F3;stroke-width:1.0417;"/><line style="stroke:#2196F3;stroke-width:3.125;" x1="341.92" x2="630.7749" y1="659.3099" y2="659.3099"/><text fill="#222222" font-family="'Verdana'" font-size="12.5" lengthAdjust="spacing" textLength="254.48" x="364.8366" y="643.8619">GET Service (from spec.implementation)</text></g><g class="message" data-participant-1="K8s" data-participant-2="Operator"><line style="stroke:#2196F3;stroke-width:3.125;" x1="629.7333" x2="619.3166" y1="709.2773" y2="705.1107"/><line style="stroke:#2196F3;stroke-width:3.125;" x1="629.7333" x2="619.3166" y1="709.2773" y2="713.444"/><line style="stroke:#2196F3;stroke-width:3.125;" x1="331.5033" x2="630.7749" y1="709.2773" y2="709.2773"/><text fill="#222222" font-family="'Verdana'" font-size="12.5" lengthAdjust="spacing" textLength="185.1563" x="349.2116" y="693.8293">Service details (incl. selector)</text></g><g class="message" data-participant-1="Operator" data-participant-2="ODA_K8s"><polygon fill="#2196F3" points="968.4682,755.0781,978.8849,759.2448,968.4682,763.4115,972.6349,759.2448" style="stroke:#2196F3;stroke-width:1.0417;"/><line style="stroke:#2196F3;stroke-width:3.125;" x1="642.2333" x2="974.7182" y1="759.2448" y2="759.2448"/><text fill="#222222" font-family="'Verdana'" font-size="12.5" font-weight="bold" lengthAdjust="spacing" textLength="103.3142" x="659.9416" y="743.7968">PATCH Service</text><text fill="#222222" font-family="'Verdana'" font-size="12.5" lengthAdjust="spacing" textLength="73.999" x="767.2292" y="743.7968">(add labels)</text></g><g class="message" data-participant-1="Operator" data-participant-2="K8s"><polygon fill="#2196F3" points="348.17,805.0456,337.7533,809.2122,348.17,813.3789,344.0033,809.2122" style="stroke:#2196F3;stroke-width:1.0417;"/><line style="stroke:#2196F3;stroke-width:3.125;" x1="341.92" x2="630.7749" y1="809.2122" y2="809.2122"/><text fill="#222222" font-family="'Verdana'" font-size="12.5" lengthAdjust="spacing" textLength="207.0435" x="364.8366" y="793.7642">GET Deployment (using selector)</text></g><g class="message" data-participant-1="K8s" data-participant-2="Operator"><line style="stroke:#2196F3;stroke-width:3.125;" x1="629.7333" x2="619.3166" y1="859.1797" y2="855.013"/><line style="stroke:#2196F3;stroke-width:3.125;" x1="629.7333" x2="619.3166" y1="859.1797" y2="863.3464"/><line style="stroke:#2196F3;stroke-width:3.125;" x1="331.5033" x2="630.7749" y1="859.1797" y2="859.1797"/><text fill="#222222" font-family="'Verdana'" font-size="12.5" lengthAdjust="spacing" textLength="122.0764" x="349.2116" y="843.7317">Deployment details</text></g><g class="message" data-participant-1="Operator" data-participant-2="ODA_K8s"><polygon fill="#2196F3" points="968.4682,904.9805,978.8849,909.1471,968.4682,913.3138,972.6349,909.1471" style="stroke:#2196F3;stroke-width:1.0417;"/><line style="stroke:#2196F3;stroke-width:3.125;" x1="642.2333" x2="974.7182" y1="909.1471" y2="909.1471"/><text fill="#222222" font-family="'Verdana'" font-size="12.5" font-weight="bold" lengthAdjust="spacing" textLength="136.5479" x="659.9416" y="893.6991">PATCH Deployment</text><text fill="#222222" font-family="'Verdana'" font-size="12.5" lengthAdjust="spacing" textLength="152.3804" x="800.4628" y="893.6991">(add labels/annotations)</text></g><path d="M216.6412,932.0638 L428.5655,932.0638 L428.5655,959.1146 L418.1488,969.5313 L212.4746,969.5313 L212.4746,936.2305 A4.1667,4.1667 0 0 1 216.6412,932.0638" fill="#FFFFFF" style="stroke:#666666;stroke-width:1.0417;"/><rect fill="none" height="87.4349" rx="4.1667" ry="4.1667" style="stroke:#2196F3;stroke-width:1.0417;" width="566.626" x="212.4746" y="932.0638"/><text fill="#9C27B0" font-family="'Verdana'" font-size="12.5" font-weight="bold" lengthAdjust="spacing" textLength="148.3826" x="238.5162" y="955.1249">Ingress Management</text><g class="message" data-participant-1="Operator" data-participant-2="K8s"><polygon fill="#2196F3" points="342.9616,1006.9987,332.545,1011.1654,342.9616,1015.332,338.795,1011.1654" style="stroke:#2196F3;stroke-width:1.0417;"/><line style="stroke:#2196F3;stroke-width:3.125;" x1="336.7116" x2="630.7749" y1="1011.1654" y2="1011.1654"/><text fill="#222222" font-family="'Verdana'" font-size="12.5" lengthAdjust="spacing" textLength="140.6616" x="359.6283" y="995.7174">Create/Update Ingress</text></g><path d="M216.6412,1034.082 L461.8785,1034.082 L461.8785,1061.1328 L451.4618,1071.5495 L212.4746,1071.5495 L212.4746,1038.2487 A4.1667,4.1667 0 0 1 216.6412,1034.082" fill="#FFFFFF" style="stroke:#666666;stroke-width:1.0417;"/><rect fill="none" height="425.7161" rx="4.1667" ry="4.1667" style="stroke:#2196F3;stroke-width:1.0417;" width="1344.6075" x="212.4746" y="1034.082"/><text fill="#9C27B0" font-family="'Verdana'" font-size="12.5" font-weight="bold" lengthAdjust="spacing" textLength="181.6956" x="238.5162" y="1057.1431">Azure APIM Configuration</text><g class="message" data-participant-1="Operator" data-participant-2="K8s"><polygon fill="#2196F3" points="348.17,1109.0169,337.7533,1113.1836,348.17,1117.3503,344.0033,1113.1836" style="stroke:#2196F3;stroke-width:1.0417;"/><line style="stroke:#2196F3;stroke-width:3.125;" x1="341.92" x2="630.7749" y1="1113.1836" y2="1113.1836"/><text fill="#222222" font-family="'Verdana'" font-size="12.5" lengthAdjust="spacing" textLength="103.363" x="364.8366" y="1097.7356">GET Ingress URL</text></g><g class="message" data-participant-1="K8s" data-participant-2="Operator"><line style="stroke:#2196F3;stroke-width:3.125;" x1="629.7333" x2="619.3166" y1="1163.151" y2="1158.9844"/><line style="stroke:#2196F3;stroke-width:3.125;" x1="629.7333" x2="619.3166" y1="1163.151" y2="1167.3177"/><line style="stroke:#2196F3;stroke-width:3.125;" x1="331.5033" x2="630.7749" y1="1163.151" y2="1163.151"/><text fill="#222222" font-family="'Verdana'" font-size="12.5" lengthAdjust="spacing" textLength="130.0171" x="349.2116" y="1147.703">Ingress external URL</text></g><g class="message" data-participant-1="Operator" data-participant-2="APIM"><polygon fill="#2196F3" points="1432.8206,1208.9518,1443.2373,1213.1185,1432.8206,1217.2852,1436.9873,1213.1185" style="stroke:#2196F3;stroke-width:1.0417;"/><line style="stroke:#2196F3;stroke-width:3.125;" x1="642.2333" x2="1439.0706" y1="1213.1185" y2="1213.1185"/><text fill="#222222" font-family="'Verdana'" font-size="12.5" font-weight="bold" lengthAdjust="spacing" textLength="147.8394" x="659.9416" y="1197.6705">1. Create/Update API</text></g><path d="M646.875,1230.8268 L646.875,1296.4518 A4.1667,4.1667 0 0 0 651.0417,1300.6185 L828.125,1300.6185 A4.1667,4.1667 0 0 0 832.2917,1296.4518 L832.2917,1237.0768 L821.875,1226.6602 L651.0417,1226.6602 A4.1667,4.1667 0 0 0 646.875,1230.8268" fill="#FFFFFF" filter="url(#f1k7wz39067pew)" style="stroke:#9C27B0;stroke-width:1.0417;"/><path d="M821.875,1226.6602 L821.875,1234.9935 A2.0833,2.0833 0 0 0 823.9583,1237.0768 L832.2917,1237.0768 L821.875,1226.6602" fill="#FFFFFF" style="stroke:#9C27B0;stroke-width:1.0417;"/><text fill="#9C27B0" font-family="'Verdana'" font-size="12.5" lengthAdjust="spacing" textLength="140.6372" x="663.5417" y="1253.8879">Operator waits for this</text><text fill="#9C27B0" font-family="'Verdana'" font-size="12.5" lengthAdjust="spacing" textLength="143.7134" x="663.5417" y="1268.4387">long-running operation</text><text fill="#9C27B0" font-family="'Verdana'" font-size="12.5" lengthAdjust="spacing" textLength="78.8818" x="663.5417" y="1282.9895">to complete.</text><g class="message" data-participant-1="APIM" data-participant-2="Operator"><line style="stroke:#2196F3;stroke-width:3.125;" x1="643.2749" x2="653.6916" y1="1351.5299" y2="1347.3633"/><line style="stroke:#2196F3;stroke-width:3.125;" x1="643.2749" x2="653.6916" y1="1351.5299" y2="1355.6966"/><line style="stroke:#2196F3;stroke-width:3.125;" x1="642.2333" x2="1444.279" y1="1351.5299" y2="1351.5299"/><text fill="#222222" font-family="'Verdana'" font-size="12.5" lengthAdjust="spacing" textLength="18.0359" x="670.3583" y="1336.0819">OK</text></g><g class="message" data-participant-1="Operator" data-participant-2="APIM"><polygon fill="#2196F3" points="1432.8206,1397.3307,1443.2373,1401.4974,1432.8206,1405.6641,1436.9873,1401.4974" style="stroke:#2196F3;stroke-width:1.0417;"/><line style="stroke:#2196F3;stroke-width:3.125;" x1="642.2333" x2="1439.0706" y1="1401.4974" y2="1401.4974"/><text fill="#222222" font-family="'Verdana'" font-size="12.5" font-weight="bold" lengthAdjust="spacing" textLength="166.2292" x="659.9416" y="1386.0494">2. Create/Update Policy</text><text fill="#222222" font-family="'Verdana'" font-size="12.5" lengthAdjust="spacing" textLength="150.8972" x="830.1442" y="1386.0494">(Trace, JWT, CORS, etc.)</text></g><g class="message" data-participant-1="APIM" data-participant-2="Operator"><line style="stroke:#2196F3;stroke-width:3.125;" x1="643.2749" x2="653.6916" y1="1451.4648" y2="1447.2982"/><line style="stroke:#2196F3;stroke-width:3.125;" x1="643.2749" x2="653.6916" y1="1451.4648" y2="1455.6315"/><line style="stroke:#2196F3;stroke-width:3.125;" x1="642.2333" x2="1449.4873" y1="1451.4648" y2="1451.4648"/><text fill="#222222" font-family="'Verdana'" font-size="12.5" lengthAdjust="spacing" textLength="18.0359" x="670.3583" y="1436.0168">OK</text></g><path d="M216.6412,1474.3815 L402.5401,1474.3815 L402.5401,1501.4323 L392.1234,1511.849 L212.4746,1511.849 L212.4746,1478.5482 A4.1667,4.1667 0 0 1 216.6412,1474.3815" fill="#FFFFFF" style="stroke:#666666;stroke-width:1.0417;"/><rect fill="none" height="87.4349" rx="4.1667" ry="4.1667" style="stroke:#2196F3;stroke-width:1.0417;" width="566.626" x="212.4746" y="1474.3815"/><text fill="#9C27B0" font-family="'Verdana'" font-size="12.5" font-weight="bold" lengthAdjust="spacing" textLength="122.3572" x="238.5162" y="1497.4426">3. Finalize Status</text><g class="message" data-participant-1="Operator" data-participant-2="K8s"><polygon fill="#2196F3" points="342.9616,1549.3164,332.545,1553.4831,342.9616,1557.6497,338.795,1553.4831" style="stroke:#2196F3;stroke-width:1.0417;"/><line style="stroke:#2196F3;stroke-width:3.125;" x1="336.7116" x2="630.7749" y1="1553.4831" y2="1553.4831"/><text fill="#222222" font-family="'Verdana'" font-size="12.5" lengthAdjust="spacing" textLength="160.9985" x="359.6283" y="1538.0351">PATCH ExposedAPI status</text></g><!--SRC=[hLLHRnen37xdLxXzM2c2gzQzJ3nKOhJhEjQ1W6ulI5Cup94jbzoI72tzzNDoNBXhwKQb8PL6nlviV_xY7DaLfWYPO5msJc3AhK1OAWraXmLdYMPfmteho_WmGysiqht7N6DlT7CB7UXhP1RFxh85_OC9_ivHnjXe71N8ALarPnsLMy4bsK_W4fTqyXaofYsFUSQaDS2bjvaIWiMKYhpNA1GbRbISuNYGpr5Bj6Y02Za6Pc3mtjHzzbNiFKjhtNrusOE-IZCbKTgPdA1UynZX3PMG2RL9oLf4N_P-FClb4y00D_2DvQ9mzATzRg4GTt2KT3eT-809CL0Iw4oDHg9Ldi7R2AQQ9mbn0FG9Z43dmZNTXLz4Hcm5ZIWJ6-WiuUeXKmON11zjM2fy67bIm4LelWjVbULBJWog9VJ741UJpFqa6oWNPVxpA0J166CbOouuirn9-A9Kvj7z5qsChvqC0i7Xfm10DNjUkd1zDQLXKrQQVTEhIR8Ksp2-RWFQE3gjOnPiEfC_FUbbiWLQCv6ZyMuBt1FhlqZeAsvWnPELe3yASyAJUDyc4lAOCm5gRcZ-R4wTsWqOYqMR1I6jLj0936kE8sRZ5PT9g-NTtKSgAa2xD8xdNSM-11vIpsGz9PS_QQQEOvSy2d3XK6NKgy3nMOgskTGg1PDX7F4q4-Z4woTs6k83EKxBfV6vI4h41Lh61KsAorX4D3Y1xdxky2fqLn7trhkzGbrYSjIRzZ-LMLejQBB50WIRep2d1pQzkv_Gp0snlwUw0xkjG6qR_Z_zxN3hBPunIVhmazcsw-vTm2taTYCJZSR0BPCiyQDycO_wEjv6lWIysqQq-EII9xdsfVoTxhASk_6Nrz9RXk83lGgIhbaLupK4kveTkxGQwntJ3mVSlG1rppZT_kB1usOcXP99H-TIEXKfxqLypAHL42jtaIn6pvlsQxoq5kzYhUtXuB1kpfzsCrA2nnidcQbcCUt6pz-dRUWFnvFgYlntrWgreLQ_u7TQU1V1HquZuO_qYfCYS_Eo2WfDxnuPMb4Xe2QpIjxwaq1UVm00]--></g></svg>