<svg xmlns="http://www.w3.org/2000/svg" xmlns:xlink="http://www.w3.org/1999/xlink" contentStyleType="text/css" data-diagram-type="SEQUENCE" height="473px" preserveAspectRatio="none" style="width:957px;height:473px;background:#FFFFFF;" version="1.1" viewBox="0 0 957 473" width="957px" zoomAndPan="magnify"><defs/><g><g><title>Operations</title><rect fill="#000000" fill-opacity="0.00000" height="311.3281" width="8" x="42.4829" y="81.2969"/><line style="stroke:#181818;stroke-width:0.5;stroke-dasharray:5.0,5.0;" x1="46" x2="46" y1="81.2969" y2="392.625"/></g><g><title>CPC Component</title><rect fill="#000000" fill-opacity="0.00000" height="311.3281" width="8" x="153.8271" y="81.2969"/><line style="stroke:#181818;stroke-width:0.5;stroke-dasharray:5.0,5.0;" x1="156.9658" x2="156.9658" y1="81.2969" y2="392.625"/></g><g><title>Component Controller</title><rect fill="#000000" fill-opacity="0.00000" height="311.3281" width="8" x="371.5767" y="81.2969"/><line style="stroke:#181818;stroke-width:0.5;stroke-dasharray:5.0,5.0;" x1="375.1255" x2="375.1255" y1="81.2969" y2="392.625"/></g><g><title>API</title><rect fill="#000000" fill-opacity="0.00000" height="311.3281" width="8" x="611.0796" y="81.2969"/><line style="stroke:#181818;stroke-width:0.5;stroke-dasharray:5.0,5.0;" x1="615.0796" x2="615.0796" y1="81.2969" y2="392.625"/></g><g><title>API Operator</title><rect fill="#000000" fill-opacity="0.00000" height="311.3281" width="8" x="783.6274" y="81.2969"/><line style="stroke:#181818;stroke-width:0.5;stroke-dasharray:5.0,5.0;" x1="786.9956" x2="786.9956" y1="81.2969" y2="392.625"/></g><g><title>API Gateway</title><rect fill="#000000" fill-opacity="0.00000" height="311.3281" width="8" x="896.481" y="81.2969"/><line style="stroke:#181818;stroke-width:0.5;stroke-dasharray:5.0,5.0;" x1="900.2593" x2="900.2593" y1="81.2969" y2="392.625"/></g><g class="participant participant-head" data-participant="Operations"><text fill="#000000" font-family="sans-serif" font-size="14" lengthAdjust="spacing" textLength="76.9658" x="5" y="77.9951">Operations</text><ellipse cx="46.4829" cy="13.5" fill="#E2E2F0" rx="8" ry="8" style="stroke:#181818;stroke-width:0.5;"/><path d="M46.4829,21.5 L46.4829,48.5 M33.4829,29.5 L59.4829,29.5 M46.4829,48.5 L33.4829,63.5 M46.4829,48.5 L59.4829,63.5" fill="none" style="stroke:#181818;stroke-width:0.5;"/></g><g class="participant participant-tail" data-participant="Operations"><text fill="#000000" font-family="sans-serif" font-size="14" lengthAdjust="spacing" textLength="76.9658" x="5" y="404.6201">Operations</text><ellipse cx="46.4829" cy="416.4219" fill="#E2E2F0" rx="8" ry="8" style="stroke:#181818;stroke-width:0.5;"/><path d="M46.4829,424.4219 L46.4829,451.4219 M33.4829,432.4219 L59.4829,432.4219 M46.4829,451.4219 L33.4829,466.4219 M46.4829,451.4219 L59.4829,466.4219" fill="none" style="stroke:#181818;stroke-width:0.5;"/></g><g class="participant participant-head" data-participant="CPC Component"><text fill="#000000" font-family="sans-serif" font-size="14" lengthAdjust="spacing" textLength="113.7227" x="97.9658" y="77.9951">CPC Component</text><ellipse cx="157.8271" cy="49" fill="#E2E2F0" rx="12" ry="12" style="stroke:#181818;stroke-width:0.5;"/><line style="stroke:#181818;stroke-width:0.5;" x1="145.8271" x2="169.8271" y1="63" y2="63"/></g><g class="participant participant-tail" data-participant="CPC Component"><text fill="#000000" font-family="sans-serif" font-size="14" lengthAdjust="spacing" textLength="113.7227" x="97.9658" y="404.6201">CPC Component</text><ellipse cx="157.8271" cy="423.9219" fill="#E2E2F0" rx="12" ry="12" style="stroke:#181818;stroke-width:0.5;"/><line style="stroke:#181818;stroke-width:0.5;" x1="145.8271" x2="169.8271" y1="437.9219" y2="437.9219"/></g><g class="participant participant-head" data-participant="Component Controller"><rect fill="#E2E2F0" height="30.2969" rx="2.5" ry="2.5" style="stroke:#181818;stroke-width:0.5;" width="168.9023" x="291.1255" y="50"/><text fill="#000000" font-family="sans-serif" font-size="14" lengthAdjust="spacing" textLength="154.9023" x="298.1255" y="69.9951">Component Controller</text></g><g class="participant participant-tail" data-participant="Component Controller"><rect fill="#E2E2F0" height="30.2969" rx="2.5" ry="2.5" style="stroke:#181818;stroke-width:0.5;" width="168.9023" x="291.1255" y="391.625"/><text fill="#000000" font-family="sans-serif" font-size="14" lengthAdjust="spacing" textLength="154.9023" x="298.1255" y="411.6201">Component Controller</text></g><g class="participant participant-head" data-participant="API"><text fill="#000000" font-family="sans-serif" font-size="14" lengthAdjust="spacing" textLength="22.1484" x="601.0054" y="77.9951">API</text><ellipse cx="615.0796" cy="49" fill="#E2E2F0" rx="12" ry="12" style="stroke:#181818;stroke-width:0.5;"/><line style="stroke:#181818;stroke-width:0.5;" x1="603.0796" x2="627.0796" y1="63" y2="63"/></g><g class="participant participant-tail" data-participant="API"><text fill="#000000" font-family="sans-serif" font-size="14" lengthAdjust="spacing" textLength="22.1484" x="601.0054" y="404.6201">API</text><ellipse cx="615.0796" cy="423.9219" fill="#E2E2F0" rx="12" ry="12" style="stroke:#181818;stroke-width:0.5;"/><line style="stroke:#181818;stroke-width:0.5;" x1="603.0796" x2="627.0796" y1="437.9219" y2="437.9219"/></g><g class="participant participant-head" data-participant="API Operator"><rect fill="#E2E2F0" height="30.2969" rx="2.5" ry="2.5" style="stroke:#181818;stroke-width:0.5;" width="103.2637" x="735.9956" y="50"/><text fill="#000000" font-family="sans-serif" font-size="14" lengthAdjust="spacing" textLength="89.2637" x="742.9956" y="69.9951">API Operator</text></g><g class="participant participant-tail" data-participant="API Operator"><rect fill="#E2E2F0" height="30.2969" rx="2.5" ry="2.5" style="stroke:#181818;stroke-width:0.5;" width="103.2637" x="735.9956" y="391.625"/><text fill="#000000" font-family="sans-serif" font-size="14" lengthAdjust="spacing" textLength="89.2637" x="742.9956" y="411.6201">API Operator</text></g><g class="participant participant-head" data-participant="API Gateway"><rect fill="#E2E2F0" height="30.2969" rx="2.5" ry="2.5" style="stroke:#181818;stroke-width:0.5;" width="102.4434" x="849.2593" y="50"/><text fill="#000000" font-family="sans-serif" font-size="14" lengthAdjust="spacing" textLength="88.4434" x="856.2593" y="69.9951">API Gateway</text></g><g class="participant participant-tail" data-participant="API Gateway"><rect fill="#E2E2F0" height="30.2969" rx="2.5" ry="2.5" style="stroke:#181818;stroke-width:0.5;" width="102.4434" x="849.2593" y="391.625"/><text fill="#000000" font-family="sans-serif" font-size="14" lengthAdjust="spacing" textLength="88.4434" x="856.2593" y="411.6201">API Gateway</text></g><g class="message" data-participant-1="Operations" data-participant-2="CPC Component"><polygon fill="#181818" points="145.8271,108.4297,155.8271,112.4297,145.8271,116.4297,149.8271,112.4297" style="stroke:#181818;stroke-width:1;"/><line style="stroke:#181818;stroke-width:1;" x1="46.4829" x2="151.8271" y1="112.4297" y2="112.4297"/><text fill="#000000" font-family="sans-serif" font-size="13" lengthAdjust="spacing" textLength="79.5171" x="53.4829" y="107.3638">Deployment</text></g><g class="message" data-participant-1="CPC Component" data-participant-2="Component Controller"><polygon fill="#181818" points="363.5767,137.5625,373.5767,141.5625,363.5767,145.5625,367.5767,141.5625" style="stroke:#181818;stroke-width:1;"/><line style="stroke:#181818;stroke-width:1;" x1="157.8271" x2="369.5767" y1="141.5625" y2="141.5625"/><text fill="#000000" font-family="sans-serif" font-size="13" lengthAdjust="spacing" textLength="123.0874" x="164.8271" y="136.4966">Create Component</text></g><g class="message" data-participant-1="Component Controller" data-participant-2="API"><polygon fill="#181818" points="603.0796,166.6953,613.0796,170.6953,603.0796,174.6953,607.0796,170.6953" style="stroke:#181818;stroke-width:1;"/><line style="stroke:#181818;stroke-width:1;" x1="375.5767" x2="609.0796" y1="170.6953" y2="170.6953"/><text fill="#000000" font-family="sans-serif" font-size="13" lengthAdjust="spacing" textLength="215.5029" x="382.5767" y="165.6294">Create exposedAPI API resources</text></g><g class="message" data-participant-1="Component Controller" data-participant-2="API"><polygon fill="#181818" points="603.0796,195.8281,613.0796,199.8281,603.0796,203.8281,607.0796,199.8281" style="stroke:#181818;stroke-width:1;"/><line style="stroke:#181818;stroke-width:1;" x1="375.5767" x2="609.0796" y1="199.8281" y2="199.8281"/><text fill="#000000" font-family="sans-serif" font-size="13" lengthAdjust="spacing" textLength="212.4878" x="382.5767" y="194.7622">Create securityAPI API resources</text></g><g class="message" data-participant-1="API" data-participant-2="API Operator"><polygon fill="#181818" points="775.6274,224.9609,785.6274,228.9609,775.6274,232.9609,779.6274,228.9609" style="stroke:#181818;stroke-width:1;"/><line style="stroke:#181818;stroke-width:1;" x1="615.0796" x2="781.6274" y1="228.9609" y2="228.9609"/><text fill="#000000" font-family="sans-serif" font-size="13" lengthAdjust="spacing" textLength="74.9531" x="622.0796" y="223.895">Create APIs</text></g><g class="message" data-participant-1="API Operator" data-participant-2="API Gateway"><polygon fill="#181818" points="888.481,254.0938,898.481,258.0938,888.481,262.0938,892.481,258.0938" style="stroke:#181818;stroke-width:1;"/><line style="stroke:#181818;stroke-width:1;" x1="787.6274" x2="894.481" y1="258.0938" y2="258.0938"/><text fill="#000000" font-family="sans-serif" font-size="13" lengthAdjust="spacing" textLength="74.9531" x="794.6274" y="253.0278">Create APIs</text></g><g class="message" data-participant-1="API Gateway" data-participant-2="API Operator"><polygon fill="#181818" points="798.6274,283.2266,788.6274,287.2266,798.6274,291.2266,794.6274,287.2266" style="stroke:#181818;stroke-width:1;"/><line style="stroke:#181818;stroke-width:1;" x1="792.6274" x2="899.481" y1="287.2266" y2="287.2266"/><text fill="#000000" font-family="sans-serif" font-size="13" lengthAdjust="spacing" textLength="63.0195" x="804.6274" y="282.1606">Response</text></g><g class="message" data-participant-1="API Operator" data-participant-2="API"><polygon fill="#181818" points="626.0796,312.3594,616.0796,316.3594,626.0796,320.3594,622.0796,316.3594" style="stroke:#181818;stroke-width:1;"/><line style="stroke:#181818;stroke-width:1;" x1="620.0796" x2="786.6274" y1="316.3594" y2="316.3594"/><text fill="#000000" font-family="sans-serif" font-size="13" lengthAdjust="spacing" textLength="148.5479" x="632.0796" y="311.2935">Update URL/IP address</text></g><g class="message" data-participant-1="API" data-participant-2="Component Controller"><polygon fill="#181818" points="386.5767,341.4922,376.5767,345.4922,386.5767,349.4922,382.5767,345.4922" style="stroke:#181818;stroke-width:1;"/><line style="stroke:#181818;stroke-width:1;" x1="380.5767" x2="614.0796" y1="345.4922" y2="345.4922"/><text fill="#000000" font-family="sans-serif" font-size="13" lengthAdjust="spacing" textLength="139.6865" x="392.5767" y="340.4263">API resource updated</text></g><g class="message" data-participant-1="Component Controller" data-participant-2="CPC Component"><polygon fill="#181818" points="168.8271,370.625,158.8271,374.625,168.8271,378.625,164.8271,374.625" style="stroke:#181818;stroke-width:1;"/><line style="stroke:#181818;stroke-width:1;" x1="162.8271" x2="374.5767" y1="374.625" y2="374.625"/><text fill="#000000" font-family="sans-serif" font-size="13" lengthAdjust="spacing" textLength="193.7495" x="174.8271" y="369.5591">Updated status of component</text></g><!--SRC=[ZP71QiCm44Jl-ef5zz2x3u7YGWa4OWBv025jmU1enMfDwx_lgeq8ZXp8mGVjpAoUniuBCPmIifEHOZOOPPG5R3_qqDCrKTI9DScnZ7vCBefgTQwEA4pJX6nhydquhDqwk5r0R5lfqmb-kyKQO-uOk_q3G0SVc2PQhdem3renRn5rFQCklplDjc-tLuvgnfz46KCXAnzZffazvbUo6VtCsa4RrfDIhfge8HtgyfLqizPcEcYiLMgMmXcpKcPiLXPEkAHG5btEnxV302u4HQnqsnsk7WBpNpuyBQFvQ_yN1iZYPCv0N-2h-Wi0]--></g></svg>