<svg xmlns="http://www.w3.org/2000/svg" xmlns:xlink="http://www.w3.org/1999/xlink" contentStyleType="text/css" data-diagram-type="SEQUENCE" height="442px" preserveAspectRatio="none" style="width:1318px;height:442px;background:#FFFFFF;" version="1.1" viewBox="0 0 1318 442" width="1318px" zoomAndPan="magnify"><defs/><g><g><title>Component</title><rect fill="#000000" fill-opacity="0.00000" height="337.3281" width="8" x="44.6396" y="53.2969"/><line style="stroke:#181818;stroke-width:0.5;stroke-dasharray:5.0,5.0;" x1="48" x2="48" y1="53.2969" y2="390.625"/></g><g><title>componentController</title><rect fill="#000000" fill-opacity="0.00000" height="337.3281" width="8" x="191.7271" y="53.2969"/><line style="stroke:#181818;stroke-width:0.5;stroke-dasharray:5.0,5.0;" x1="195.54" x2="195.54" y1="53.2969" y2="390.625"/></g><g><title>API</title><rect fill="#000000" fill-opacity="0.00000" height="337.3281" width="8" x="447.8608" y="53.2969"/><line style="stroke:#181818;stroke-width:0.5;stroke-dasharray:5.0,5.0;" x1="451.8608" x2="451.8608" y1="53.2969" y2="390.625"/></g><g><title>ApisixAPIController</title><rect fill="#000000" fill-opacity="0.00000" height="337.3281" width="8" x="609.5986" y="53.2969"/><line style="stroke:#181818;stroke-width:0.5;stroke-dasharray:5.0,5.0;" x1="613.0269" x2="613.0269" y1="53.2969" y2="390.625"/></g><g><title>ApisixIngressController</title><rect fill="#000000" fill-opacity="0.00000" height="337.3281" width="8" x="972.938" y="53.2969"/><line style="stroke:#181818;stroke-width:0.5;stroke-dasharray:5.0,5.0;" x1="976.0176" x2="976.0176" y1="53.2969" y2="390.625"/></g><g class="participant participant-head" data-participant="Component"><text fill="#000000" font-family="sans-serif" font-size="14" lengthAdjust="spacing" textLength="81.2793" x="5" y="49.9951">Component</text><ellipse cx="48.6396" cy="21" fill="#E2E2F0" rx="12" ry="12" style="stroke:#181818;stroke-width:0.5;"/><line style="stroke:#181818;stroke-width:0.5;" x1="36.6396" x2="60.6396" y1="35" y2="35"/></g><g class="participant participant-tail" data-participant="Component"><text fill="#000000" font-family="sans-serif" font-size="14" lengthAdjust="spacing" textLength="81.2793" x="5" y="402.6201">Component</text><ellipse cx="48.6396" cy="421.9219" fill="#E2E2F0" rx="12" ry="12" style="stroke:#181818;stroke-width:0.5;"/><line style="stroke:#181818;stroke-width:0.5;" x1="36.6396" x2="60.6396" y1="435.9219" y2="435.9219"/></g><g class="participant participant-head" data-participant="componentController"><rect fill="#E2E2F0" height="30.2969" rx="2.5" ry="2.5" style="stroke:#181818;stroke-width:0.5;" width="162.374" x="114.54" y="22"/><text fill="#000000" font-family="sans-serif" font-size="14" lengthAdjust="spacing" textLength="148.374" x="121.54" y="41.9951">componentController</text></g><g class="participant participant-tail" data-participant="componentController"><rect fill="#E2E2F0" height="30.2969" rx="2.5" ry="2.5" style="stroke:#181818;stroke-width:0.5;" width="162.374" x="114.54" y="389.625"/><text fill="#000000" font-family="sans-serif" font-size="14" lengthAdjust="spacing" textLength="148.374" x="121.54" y="409.6201">componentController</text></g><g class="participant participant-head" data-participant="API"><text fill="#000000" font-family="sans-serif" font-size="14" lengthAdjust="spacing" textLength="22.1484" x="437.7866" y="49.9951">API</text><ellipse cx="451.8608" cy="21" fill="#E2E2F0" rx="12" ry="12" style="stroke:#181818;stroke-width:0.5;"/><line style="stroke:#181818;stroke-width:0.5;" x1="439.8608" x2="463.8608" y1="35" y2="35"/></g><g class="participant participant-tail" data-participant="API"><text fill="#000000" font-family="sans-serif" font-size="14" lengthAdjust="spacing" textLength="22.1484" x="437.7866" y="402.6201">API</text><ellipse cx="451.8608" cy="421.9219" fill="#E2E2F0" rx="12" ry="12" style="stroke:#181818;stroke-width:0.5;"/><line style="stroke:#181818;stroke-width:0.5;" x1="439.8608" x2="463.8608" y1="435.9219" y2="435.9219"/></g><g class="participant participant-head" data-participant="ApisixAPIController"><rect fill="#E2E2F0" height="30.2969" rx="2.5" ry="2.5" style="stroke:#181818;stroke-width:0.5;" width="147.1436" x="540.0269" y="22"/><text fill="#000000" font-family="sans-serif" font-size="14" lengthAdjust="spacing" textLength="133.1436" x="547.0269" y="41.9951">ApisixAPIController</text></g><g class="participant participant-tail" data-participant="ApisixAPIController"><rect fill="#E2E2F0" height="30.2969" rx="2.5" ry="2.5" style="stroke:#181818;stroke-width:0.5;" width="147.1436" x="540.0269" y="389.625"/><text fill="#000000" font-family="sans-serif" font-size="14" lengthAdjust="spacing" textLength="133.1436" x="547.0269" y="409.6201">ApisixAPIController</text></g><g class="participant participant-head" data-participant="ApisixIngressController"><text fill="#000000" font-family="sans-serif" font-size="14" lengthAdjust="spacing" textLength="161.8408" x="893.0176" y="49.9951">ApisixIngressController</text><ellipse cx="976.938" cy="21" fill="#E2E2F0" rx="12" ry="12" style="stroke:#181818;stroke-width:0.5;"/><line style="stroke:#181818;stroke-width:0.5;" x1="964.938" x2="988.938" y1="35" y2="35"/></g><g class="participant participant-tail" data-participant="ApisixIngressController"><text fill="#000000" font-family="sans-serif" font-size="14" lengthAdjust="spacing" textLength="161.8408" x="893.0176" y="402.6201">ApisixIngressController</text><ellipse cx="976.938" cy="421.9219" fill="#E2E2F0" rx="12" ry="12" style="stroke:#181818;stroke-width:0.5;"/><line style="stroke:#181818;stroke-width:0.5;" x1="964.938" x2="988.938" y1="435.9219" y2="435.9219"/></g><g class="message" data-participant-1="Component" data-participant-2="componentController"><polygon fill="#181818" points="183.7271,80.4297,193.7271,84.4297,183.7271,88.4297,187.7271,84.4297" style="stroke:#181818;stroke-width:1;"/><line style="stroke:#181818;stroke-width:1;" x1="48.6396" x2="189.7271" y1="84.4297" y2="84.4297"/><text fill="#000000" font-family="sans-serif" font-size="13" lengthAdjust="spacing" textLength="123.0874" x="55.6396" y="79.3638">Create Component</text></g><g class="message" data-participant-1="componentController" data-participant-2="API"><polygon fill="#181818" points="439.8608,109.5625,449.8608,113.5625,439.8608,117.5625,443.8608,113.5625" style="stroke:#181818;stroke-width:1;"/><line style="stroke:#181818;stroke-width:1;" x1="195.7271" x2="445.8608" y1="113.5625" y2="113.5625"/><text fill="#000000" font-family="sans-serif" font-size="13" lengthAdjust="spacing" textLength="222.2759" x="202.7271" y="108.4966">Create exposedAPIs API resources</text></g><g class="message" data-participant-1="API" data-participant-2="ApisixAPIController"><polygon fill="#181818" points="601.5986,138.6953,611.5986,142.6953,601.5986,146.6953,605.5986,142.6953" style="stroke:#181818;stroke-width:1;"/><line style="stroke:#181818;stroke-width:1;" x1="451.8608" x2="607.5986" y1="142.6953" y2="142.6953"/><text fill="#000000" font-family="sans-serif" font-size="13" lengthAdjust="spacing" textLength="129.6382" x="458.8608" y="137.6294">ExposedAPI created</text></g><g class="message" data-participant-1="ApisixAPIController" data-participant-2="ApisixIngressController"><polygon fill="#181818" points="964.938,167.8281,974.938,171.8281,964.938,175.8281,968.938,171.8281" style="stroke:#181818;stroke-width:1;"/><line style="stroke:#181818;stroke-width:1;" x1="613.5986" x2="970.938" y1="171.8281" y2="171.8281"/><text fill="#000000" font-family="sans-serif" font-size="13" lengthAdjust="spacing" textLength="339.3394" x="620.5986" y="166.7622">Create/Update Apisixproute&amp;Plugins for ExposedAPI</text></g><g class="message" data-participant-1="ApisixIngressController" data-participant-2="ApisixIngressController"><line style="stroke:#181818;stroke-width:1;" x1="976.938" x2="1018.938" y1="200.9609" y2="200.9609"/><line style="stroke:#181818;stroke-width:1;" x1="1018.938" x2="1018.938" y1="200.9609" y2="213.9609"/><line style="stroke:#181818;stroke-width:1;" x1="977.938" x2="1018.938" y1="213.9609" y2="213.9609"/><polygon fill="#181818" points="987.938,209.9609,977.938,213.9609,987.938,217.9609,983.938,213.9609" style="stroke:#181818;stroke-width:1;"/><text fill="#000000" font-family="sans-serif" font-size="13" lengthAdjust="spacing" textLength="327.52" x="983.938" y="195.895">Create/Update Apisixproute and add ApisixPlugins</text></g><g class="message" data-participant-1="Component" data-participant-2="componentController"><polygon fill="#181818" points="183.7271,239.0938,193.7271,243.0938,183.7271,247.0938,187.7271,243.0938" style="stroke:#181818;stroke-width:1;"/><line style="stroke:#181818;stroke-width:1;" x1="48.6396" x2="189.7271" y1="243.0938" y2="243.0938"/><text fill="#000000" font-family="sans-serif" font-size="13" lengthAdjust="spacing" textLength="122.3193" x="55.6396" y="238.0278">Delete Component</text></g><g class="message" data-participant-1="componentController" data-participant-2="API"><polygon fill="#181818" points="439.8608,268.2266,449.8608,272.2266,439.8608,276.2266,443.8608,272.2266" style="stroke:#181818;stroke-width:1;"/><line style="stroke:#181818;stroke-width:1;" x1="195.7271" x2="445.8608" y1="272.2266" y2="272.2266"/><text fill="#000000" font-family="sans-serif" font-size="13" lengthAdjust="spacing" textLength="232.1338" x="202.7271" y="267.1606">Remove exposedAPIs API resources</text></g><g class="message" data-participant-1="API" data-participant-2="ApisixAPIController"><polygon fill="#181818" points="601.5986,297.3594,611.5986,301.3594,601.5986,305.3594,605.5986,301.3594" style="stroke:#181818;stroke-width:1;"/><line style="stroke:#181818;stroke-width:1;" x1="451.8608" x2="607.5986" y1="301.3594" y2="301.3594"/><text fill="#000000" font-family="sans-serif" font-size="13" lengthAdjust="spacing" textLength="137.7378" x="458.8608" y="296.2935">ExposedAPI removed</text></g><g class="message" data-participant-1="ApisixAPIController" data-participant-2="ApisixIngressController"><polygon fill="#181818" points="964.938,326.4922,974.938,330.4922,964.938,334.4922,968.938,330.4922" style="stroke:#181818;stroke-width:1;"/><line style="stroke:#181818;stroke-width:1;" x1="613.5986" x2="970.938" y1="330.4922" y2="330.4922"/><text fill="#000000" font-family="sans-serif" font-size="13" lengthAdjust="spacing" textLength="297.7368" x="620.5986" y="325.4263">Remove Apisixproute&amp;Plugins for ExposedAPI</text></g><g class="message" data-participant-1="ApisixIngressController" data-participant-2="ApisixIngressController"><line style="stroke:#181818;stroke-width:1;" x1="976.938" x2="1018.938" y1="359.625" y2="359.625"/><line style="stroke:#181818;stroke-width:1;" x1="1018.938" x2="1018.938" y1="359.625" y2="372.625"/><line style="stroke:#181818;stroke-width:1;" x1="977.938" x2="1018.938" y1="372.625" y2="372.625"/><polygon fill="#181818" points="987.938,368.625,977.938,372.625,987.938,376.625,983.938,372.625" style="stroke:#181818;stroke-width:1;"/><text fill="#000000" font-family="sans-serif" font-size="13" lengthAdjust="spacing" textLength="257.3149" x="983.938" y="354.5591">Remove Apisixproute and ApisixPlugins</text></g><!--SRC=[jP3D2i8m48JlUOezUHFl7eHIFVHM11yW96i9r6pOf5BVtlJ7qc845JrcTcQ_pQ0D9jmWfuiZYpO89paOPPoq0TH3pSa6fhf65ZW4ih9OM3Ddl6cZch3sey9MZDxFncA2hdSfr1PoHXbmTbp21J4SiPCPMqSUTPHyfqE4KiCAlUXUdVdvqYqSfXIeVeyM2T-KVlhC0xyvETrTCTWSKnDmLTPDPQo7C_4C95wi-Wu2qcgGMe_YY7oZuptM-7R7HxpGzGSTSx_duuv7_9_AJMplMrqsUWS0]--></g></svg>