<?xml version="1.0" encoding="UTF-8"?>
<svg width="150px" height="36px" viewBox="0 0 150 36" version="1.1" xmlns="http://www.w3.org/2000/svg" xmlns:xlink="http://www.w3.org/1999/xlink">
    <title>TMForum_logo_2021</title>
    <defs>
        <rect id="path-1" x="0" y="0" width="150" height="36"></rect>
    </defs>
    <g id="Page-1" stroke="none" stroke-width="1" fill="none" fill-rule="evenodd">
        <g id="TMForum_logo_2021">
            <mask id="mask-2" fill="white">
                <use xlink:href="#path-1"></use>
            </mask>
            <g id="Rectangle" fill-rule="nonzero"></g>
            <path d="M44.9,10.9 C42,10.9 39.9,12.3 38.3,14.3 C37.3,12.2 35.3,10.9 32.5,10.9 C29.5,10.9 27.8,12.5 26.6,14.3 L26.6,11.4 L22.1,11.4 L22.1,30.9 L26.6,30.9 L26.6,19.9 C26.6,16.9 28.3,15.1 30.8,15.1 C33.3,15.1 34.7,16.8 34.7,19.8 L34.7,30.9 L39.2,30.9 L39.2,19.9 C39.2,16.8 40.9,15.1 43.4,15.1 C45.9,15.1 47.3,16.8 47.3,19.9 L47.3,31 L51.8,31 L51.8,18.6 C51.7,13.5 49.1,10.9 44.9,10.9 M22.1,30.7 L26.6,30.7 L26.6,19.7 C26.6,16.7 28.3,14.9 30.8,14.9 C33.3,14.9 34.7,16.6 34.7,19.6 L34.7,30.7 L39.2,30.7 L39.2,19.7 C39.2,16.6 40.9,14.9 43.4,14.9 C45.9,14.9 47.3,16.6 47.3,19.7 L47.3,30.8 L51.8,30.8 L51.8,18.4 C51.8,13.6 49.2,11 45,11 C42.1,11 40,12.4 38.4,14.4 C37.4,12.3 35.4,11 32.6,11 C29.6,11 27.9,12.6 26.7,14.4 L26.7,11.5 L22.2,11.5 L22.2,30.7 L22.1,30.7 Z M14.9,14.9 L14.9,22.3 C14.9,24.6 16.7,26.4 19,26.4 L20,26.4 L20,30.7 L19,30.7 C14.4,30.7 10.6,26.9 10.6,22.3 L10.6,14.9 L8.1,14.9 L8.1,11.2 L10.6,11.2 L10.6,6 L14.9,6 L14.9,11.3 L20.1,11.3 L20.1,15 L14.9,15 L14.9,14.9 Z" id="Shape" fill="#9DA4A8" fill-rule="nonzero" mask="url(#mask-2)"></path>
            <path d="M74.7,26.9 C71.5,26.9 68.9,24.3 68.9,21.1 C68.9,17.9 71.5,15.3 74.7,15.3 C77.9,15.3 80.5,17.9 80.5,21.1 C80.5,24.3 77.9,26.9 74.7,26.9 M74.7,10.8 C69,10.8 64.4,15.4 64.4,21.1 C64.4,26.8 69,31.4 74.7,31.4 C80.4,31.4 85,26.8 85,21.1 C85,15.4 80.4,10.8 74.7,10.8 M74.7,26.9 C71.5,26.9 68.9,24.3 68.9,21.1 C68.9,17.9 71.5,15.3 74.7,15.3 C77.9,15.3 80.5,17.9 80.5,21.1 C80.5,24.3 77.9,26.9 74.7,26.9 M85,21.1 C85,15.4 80.4,10.8 74.7,10.8 C69,10.8 64.4,15.4 64.4,21.1 C64.4,26.8 69,31.4 74.7,31.4 C80.4,31.4 85,26.8 85,21.1 M68.7,11.3 L60.7,11.3 L60.7,10.4 C60.7,8.4 61.5,7.5 63.2,7.5 C64.2,7.5 64.9,7.7 65.8,8 L65.8,4.2 C64.8,3.9 63.7,3.7 62.2,3.7 C60.3,3.7 58.9,4.2 57.9,5.2 C56.9,6.2 56.3,7.9 56.3,10 L56.3,11.3 L50.1,11.3 C51.3,12.2 52.1,13.5 52.6,15 L56.3,15 L56.3,30.8 L60.8,30.8 L60.8,15 L65.1,15 C65.9,13.5 67.1,12.2 68.7,11.3 M97.1,11.3 C93.9,11.4 91.8,13.3 90.7,16.1 L90.7,11.3 L86.2,11.3 L86.2,30.8 L90.7,30.8 L90.7,23.8 C90.7,18.7 93.3,16.2 97.1,16.1 L97.1,11.3 Z M140.9,18.3 L140.9,30.7 L136.4,30.7 L136.4,19.6 C136.4,16.5 135,14.8 132.5,14.8 C130.1,14.8 128.3,16.5 128.3,19.6 L128.3,30.6 L123.8,30.6 L123.8,19.5 C123.8,16.5 122.3,14.8 119.9,14.8 C117.5,14.8 115.8,16.5 115.7,19.4 L115.7,30.6 L115.7,30.6 L111.2,30.6 L111.2,30.6 L111.2,27.6 C109.9,29.4 108.1,31 105.1,31 C100.7,31 98.2,28.1 98.2,23.5 L98.2,11.1 L102.7,11.1 L102.7,22.2 C102.7,25.2 104.2,26.9 106.9,26.9 C109.4,26.9 111.2,25.2 111.3,22.3 L111.3,11.1 L111.3,11.1 L115.8,11.1 L115.8,11.1 L115.8,14 C117.1,12.3 118.7,10.7 121.7,10.7 C124.5,10.7 126.5,12.1 127.5,14.1 C129,12 131.1,10.7 134.1,10.7 C138.3,10.9 140.9,13.5 140.9,18.3" id="Shape" fill="#E8222C" fill-rule="nonzero" mask="url(#mask-2)"></path>
        </g>
    </g>
</svg>