<svg xmlns="http://www.w3.org/2000/svg" xmlns:xlink="http://www.w3.org/1999/xlink" contentStyleType="text/css" data-diagram-type="SEQUENCE" height="413px" preserveAspectRatio="none" style="width:1121px;height:413px;background:#FFFFFF;" version="1.1" viewBox="0 0 1121 413" width="1121px" zoomAndPan="magnify"><defs/><g><g><title>Component</title><rect fill="#000000" fill-opacity="0.00000" height="308.1953" width="8" x="44.6396" y="53.2969"/><line style="stroke:#181818;stroke-width:0.5;stroke-dasharray:5.0,5.0;" x1="48" x2="48" y1="53.2969" y2="361.4922"/></g><g><title>componentController</title><rect fill="#000000" fill-opacity="0.00000" height="308.1953" width="8" x="191.7271" y="53.2969"/><line style="stroke:#181818;stroke-width:0.5;stroke-dasharray:5.0,5.0;" x1="195.54" x2="195.54" y1="53.2969" y2="361.4922"/></g><g><title>API</title><rect fill="#000000" fill-opacity="0.00000" height="308.1953" width="8" x="447.8608" y="53.2969"/><line style="stroke:#181818;stroke-width:0.5;stroke-dasharray:5.0,5.0;" x1="451.8608" x2="451.8608" y1="53.2969" y2="361.4922"/></g><g><title>KongAPIController</title><rect fill="#000000" fill-opacity="0.00000" height="308.1953" width="8" x="609.5986" y="53.2969"/><line style="stroke:#181818;stroke-width:0.5;stroke-dasharray:5.0,5.0;" x1="613.1851" x2="613.1851" y1="53.2969" y2="361.4922"/></g><g><title>KIC</title><rect fill="#000000" fill-opacity="0.00000" height="308.1953" width="8" x="1098.8477" y="53.2969"/><line style="stroke:#181818;stroke-width:0.5;stroke-dasharray:5.0,5.0;" x1="1102.8477" x2="1102.8477" y1="53.2969" y2="361.4922"/></g><g class="participant participant-head" data-participant="Component"><text fill="#000000" font-family="sans-serif" font-size="14" lengthAdjust="spacing" textLength="81.2793" x="5" y="49.9951">Component</text><ellipse cx="48.6396" cy="21" fill="#E2E2F0" rx="12" ry="12" style="stroke:#181818;stroke-width:0.5;"/><line style="stroke:#181818;stroke-width:0.5;" x1="36.6396" x2="60.6396" y1="35" y2="35"/></g><g class="participant participant-tail" data-participant="Component"><text fill="#000000" font-family="sans-serif" font-size="14" lengthAdjust="spacing" textLength="81.2793" x="5" y="373.4873">Component</text><ellipse cx="48.6396" cy="392.7891" fill="#E2E2F0" rx="12" ry="12" style="stroke:#181818;stroke-width:0.5;"/><line style="stroke:#181818;stroke-width:0.5;" x1="36.6396" x2="60.6396" y1="406.7891" y2="406.7891"/></g><g class="participant participant-head" data-participant="componentController"><rect fill="#E2E2F0" height="30.2969" rx="2.5" ry="2.5" style="stroke:#181818;stroke-width:0.5;" width="162.374" x="114.54" y="22"/><text fill="#000000" font-family="sans-serif" font-size="14" lengthAdjust="spacing" textLength="148.374" x="121.54" y="41.9951">componentController</text></g><g class="participant participant-tail" data-participant="componentController"><rect fill="#E2E2F0" height="30.2969" rx="2.5" ry="2.5" style="stroke:#181818;stroke-width:0.5;" width="162.374" x="114.54" y="360.4922"/><text fill="#000000" font-family="sans-serif" font-size="14" lengthAdjust="spacing" textLength="148.374" x="121.54" y="380.4873">componentController</text></g><g class="participant participant-head" data-participant="API"><text fill="#000000" font-family="sans-serif" font-size="14" lengthAdjust="spacing" textLength="22.1484" x="437.7866" y="49.9951">API</text><ellipse cx="451.8608" cy="21" fill="#E2E2F0" rx="12" ry="12" style="stroke:#181818;stroke-width:0.5;"/><line style="stroke:#181818;stroke-width:0.5;" x1="439.8608" x2="463.8608" y1="35" y2="35"/></g><g class="participant participant-tail" data-participant="API"><text fill="#000000" font-family="sans-serif" font-size="14" lengthAdjust="spacing" textLength="22.1484" x="437.7866" y="373.4873">API</text><ellipse cx="451.8608" cy="392.7891" fill="#E2E2F0" rx="12" ry="12" style="stroke:#181818;stroke-width:0.5;"/><line style="stroke:#181818;stroke-width:0.5;" x1="439.8608" x2="463.8608" y1="406.7891" y2="406.7891"/></g><g class="participant participant-head" data-participant="KongAPIController"><rect fill="#E2E2F0" height="30.2969" rx="2.5" ry="2.5" style="stroke:#181818;stroke-width:0.5;" width="140.8271" x="543.1851" y="22"/><text fill="#000000" font-family="sans-serif" font-size="14" lengthAdjust="spacing" textLength="126.8271" x="550.1851" y="41.9951">KongAPIController</text></g><g class="participant participant-tail" data-participant="KongAPIController"><rect fill="#E2E2F0" height="30.2969" rx="2.5" ry="2.5" style="stroke:#181818;stroke-width:0.5;" width="140.8271" x="543.1851" y="360.4922"/><text fill="#000000" font-family="sans-serif" font-size="14" lengthAdjust="spacing" textLength="126.8271" x="550.1851" y="380.4873">KongAPIController</text></g><g class="participant participant-head" data-participant="KIC"><text fill="#000000" font-family="sans-serif" font-size="14" lengthAdjust="spacing" textLength="23.085" x="1088.3052" y="49.9951">KIC</text><ellipse cx="1102.8477" cy="21" fill="#E2E2F0" rx="12" ry="12" style="stroke:#181818;stroke-width:0.5;"/><line style="stroke:#181818;stroke-width:0.5;" x1="1090.8477" x2="1114.8477" y1="35" y2="35"/></g><g class="participant participant-tail" data-participant="KIC"><text fill="#000000" font-family="sans-serif" font-size="14" lengthAdjust="spacing" textLength="23.085" x="1088.3052" y="373.4873">KIC</text><ellipse cx="1102.8477" cy="392.7891" fill="#E2E2F0" rx="12" ry="12" style="stroke:#181818;stroke-width:0.5;"/><line style="stroke:#181818;stroke-width:0.5;" x1="1090.8477" x2="1114.8477" y1="406.7891" y2="406.7891"/></g><g class="message" data-participant-1="Component" data-participant-2="componentController"><polygon fill="#181818" points="183.7271,80.4297,193.7271,84.4297,183.7271,88.4297,187.7271,84.4297" style="stroke:#181818;stroke-width:1;"/><line style="stroke:#181818;stroke-width:1;" x1="48.6396" x2="189.7271" y1="84.4297" y2="84.4297"/><text fill="#000000" font-family="sans-serif" font-size="13" lengthAdjust="spacing" textLength="123.0874" x="55.6396" y="79.3638">Create Component</text></g><g class="message" data-participant-1="componentController" data-participant-2="API"><polygon fill="#181818" points="439.8608,109.5625,449.8608,113.5625,439.8608,117.5625,443.8608,113.5625" style="stroke:#181818;stroke-width:1;"/><line style="stroke:#181818;stroke-width:1;" x1="195.7271" x2="445.8608" y1="113.5625" y2="113.5625"/><text fill="#000000" font-family="sans-serif" font-size="13" lengthAdjust="spacing" textLength="222.2759" x="202.7271" y="108.4966">Create exposedAPIs API resources</text></g><g class="message" data-participant-1="API" data-participant-2="KongAPIController"><polygon fill="#181818" points="601.5986,138.6953,611.5986,142.6953,601.5986,146.6953,605.5986,142.6953" style="stroke:#181818;stroke-width:1;"/><line style="stroke:#181818;stroke-width:1;" x1="451.8608" x2="607.5986" y1="142.6953" y2="142.6953"/><text fill="#000000" font-family="sans-serif" font-size="13" lengthAdjust="spacing" textLength="129.6382" x="458.8608" y="137.6294">ExposedAPI created</text></g><g class="message" data-participant-1="KongAPIController" data-participant-2="KIC"><polygon fill="#181818" points="1090.8477,167.8281,1100.8477,171.8281,1090.8477,175.8281,1094.8477,171.8281" style="stroke:#181818;stroke-width:1;"/><line style="stroke:#181818;stroke-width:1;" x1="613.5986" x2="1096.8477" y1="171.8281" y2="171.8281"/><text fill="#000000" font-family="sans-serif" font-size="13" lengthAdjust="spacing" textLength="269.0137" x="620.5986" y="166.7622">Create Httproute&amp;Plugins for ExposedAPI</text></g><g class="message" data-participant-1="KongAPIController" data-participant-2="KongAPIController"><line style="stroke:#181818;stroke-width:1;" x1="613.5986" x2="655.5986" y1="200.9609" y2="200.9609"/><line style="stroke:#181818;stroke-width:1;" x1="655.5986" x2="655.5986" y1="200.9609" y2="213.9609"/><line style="stroke:#181818;stroke-width:1;" x1="614.5986" x2="655.5986" y1="213.9609" y2="213.9609"/><polygon fill="#181818" points="624.5986,209.9609,614.5986,213.9609,624.5986,217.9609,620.5986,213.9609" style="stroke:#181818;stroke-width:1;"/><text fill="#000000" font-family="sans-serif" font-size="13" lengthAdjust="spacing" textLength="291.5923" x="620.5986" y="195.895">Make Httproute&amp;Plugins Child of Component</text></g><g class="message" data-participant-1="Component" data-participant-2="componentController"><polygon fill="#181818" points="183.7271,239.0938,193.7271,243.0938,183.7271,247.0938,187.7271,243.0938" style="stroke:#181818;stroke-width:1;"/><line style="stroke:#181818;stroke-width:1;" x1="48.6396" x2="189.7271" y1="243.0938" y2="243.0938"/><text fill="#000000" font-family="sans-serif" font-size="13" lengthAdjust="spacing" textLength="122.3193" x="55.6396" y="238.0278">Delete Component</text></g><g class="message" data-participant-1="componentController" data-participant-2="API"><polygon fill="#181818" points="439.8608,268.2266,449.8608,272.2266,439.8608,276.2266,443.8608,272.2266" style="stroke:#181818;stroke-width:1;"/><line style="stroke:#181818;stroke-width:1;" x1="195.7271" x2="445.8608" y1="272.2266" y2="272.2266"/><text fill="#000000" font-family="sans-serif" font-size="13" lengthAdjust="spacing" textLength="232.1338" x="202.7271" y="267.1606">Remove exposedAPIs API resources</text></g><g class="message" data-participant-1="API" data-participant-2="KongAPIController"><polygon fill="#181818" points="601.5986,297.3594,611.5986,301.3594,601.5986,305.3594,605.5986,301.3594" style="stroke:#181818;stroke-width:1;"/><line style="stroke:#181818;stroke-width:1;" x1="451.8608" x2="607.5986" y1="301.3594" y2="301.3594"/><text fill="#000000" font-family="sans-serif" font-size="13" lengthAdjust="spacing" textLength="137.7378" x="458.8608" y="296.2935">ExposedAPI removed</text></g><g class="message" data-participant-1="KongAPIController" data-participant-2="KongAPIController"><line style="stroke:#181818;stroke-width:1;" x1="613.5986" x2="655.5986" y1="330.4922" y2="330.4922"/><line style="stroke:#181818;stroke-width:1;" x1="655.5986" x2="655.5986" y1="330.4922" y2="343.4922"/><line style="stroke:#181818;stroke-width:1;" x1="614.5986" x2="655.5986" y1="343.4922" y2="343.4922"/><polygon fill="#181818" points="624.5986,339.4922,614.5986,343.4922,624.5986,347.4922,620.5986,343.4922" style="stroke:#181818;stroke-width:1;"/><text fill="#000000" font-family="sans-serif" font-size="13" lengthAdjust="spacing" textLength="475.249" x="620.5986" y="325.4263">Httproute&amp;Plugins Child resource of Components automatically removed</text></g><!--SRC=[fL9B2i8m4Dtd5BDovmLS2185YmZY3K8xrc2Q2PEfwEsD5KDBAmekytYVUO-W5ojtqDG4ykX51SDYInkC5oZVg2OlJCuXAtm9LeTYGDsHhnCs9kuAhLIsdo-dJ1UW6OrWxum95YHnYiXal0MAM2KeFd5WZDHoYL4zNuaykca1cwo1idEfr8ZLIGkTSxOYWQaLd1rSMriVuKJSS_hWC0xVcykKcpvRLm6TUks_3xP6XpyFTiI6hdyFnfrBzNFTJqtViOFA4Kmhr9ZqeOnpznps0000]--></g></svg>