<svg xmlns="http://www.w3.org/2000/svg" xmlns:xlink="http://www.w3.org/1999/xlink" contentStyleType="text/css" data-diagram-type="DESCRIPTION" height="825px" preserveAspectRatio="none" style="width:2203px;height:825px;background:#FFFFFF;" version="1.1" viewBox="0 0 2203 825" width="2203px" zoomAndPan="magnify"><title>ODA Canvas on Azure - Component &amp; Data Flow</title><defs/><g><g class="title" data-source-line="3"><text fill="#000000" font-family="Verdana" font-size="22" font-weight="bold" lengthAdjust="spacing" textLength="592.8398" x="800.6951" y="35.4209">ODA Canvas on Azure - Component &amp; Data Flow</text></g><!--cluster Azure Control & Data Plane--><g class="cluster" data-entity="Azure Control . Data Plane" data-source-line="25" data-uid="ent0003" id="cluster_Azure Control . Data Plane"><path d="M1058.74,349.6094 L1275.8445,349.6094 A3.75,3.75 0 0 1 1278.3445,352.1094 L1285.3445,371.9063 L2193.73,371.9063 A2.5,2.5 0 0 1 2196.23,374.4063 L2196.23,605.1094 A2.5,2.5 0 0 1 2193.73,607.6094 L1058.74,607.6094 A2.5,2.5 0 0 1 1056.24,605.1094 L1056.24,352.1094 A2.5,2.5 0 0 1 1058.74,349.6094" fill="#ADD8E6" style="stroke:#000000;stroke-width:1;"/><line style="stroke:#000000;stroke-width:1;" x1="1056.24" x2="1285.3445" y1="371.9063" y2="371.9063"/><text fill="#000000" font-family="Verdana" font-size="14" font-weight="bold" lengthAdjust="spacing" textLength="216.1045" x="1060.24" y="364.6045">Azure Control &amp; Data Plane</text></g><!--cluster Azure Observability--><g class="cluster" data-entity="Azure Observability" data-source-line="29" data-uid="ent0005" id="cluster_Azure Observability"><path d="M1904.11,470.6094 L2060.7985,470.6094 A3.75,3.75 0 0 1 2063.2985,473.1094 L2070.2985,492.9063 L2169.73,492.9063 A2.5,2.5 0 0 1 2172.23,495.4063 L2172.23,581.1094 A2.5,2.5 0 0 1 2169.73,583.6094 L1904.11,583.6094 A2.5,2.5 0 0 1 1901.61,581.1094 L1901.61,473.1094 A2.5,2.5 0 0 1 1904.11,470.6094" fill="#FFFFFF" style="stroke:#000000;stroke-width:1;"/><line style="stroke:#000000;stroke-width:1;" x1="1901.61" x2="2070.2985" y1="492.9063" y2="492.9063"/><text fill="#000000" font-family="Verdana" font-size="14" font-weight="bold" lengthAdjust="spacing" textLength="155.6885" x="1905.61" y="485.6045">Azure Observability</text></g><!--cluster Azure Security--><g class="cluster" data-entity="Azure Security" data-source-line="33" data-uid="ent0007" id="cluster_Azure Security"><path d="M1687.56,392.6094 L1804.1489,392.6094 A3.75,3.75 0 0 1 1806.6489,395.1094 L1813.6489,414.9063 L1866.11,414.9063 A2.5,2.5 0 0 1 1868.61,417.4063 L1868.61,568.1094 A2.5,2.5 0 0 1 1866.11,570.6094 L1687.56,570.6094 A2.5,2.5 0 0 1 1685.06,568.1094 L1685.06,395.1094 A2.5,2.5 0 0 1 1687.56,392.6094" fill="#FFFFFF" style="stroke:#000000;stroke-width:1;"/><line style="stroke:#000000;stroke-width:1;" x1="1685.06" x2="1813.6489" y1="414.9063" y2="414.9063"/><text fill="#000000" font-family="Verdana" font-size="14" font-weight="bold" lengthAdjust="spacing" textLength="115.5889" x="1689.06" y="407.6045">Azure Security</text></g><!--cluster AKS Runtime Plane--><g class="cluster" data-entity="AKS Runtime Plane" data-source-line="40" data-uid="ent0010" id="cluster_AKS Runtime Plane"><path d="M13.5,57.6094 L166.2715,57.6094 A3.75,3.75 0 0 1 168.7715,60.1094 L175.7715,79.9063 L2125.27,79.9063 A2.5,2.5 0 0 1 2127.77,82.4063 L2127.77,323.1094 A2.5,2.5 0 0 1 2125.27,325.6094 L13.5,325.6094 A2.5,2.5 0 0 1 11,323.1094 L11,60.1094 A2.5,2.5 0 0 1 13.5,57.6094" fill="#90EE90" style="stroke:#000000;stroke-width:1;"/><line style="stroke:#000000;stroke-width:1;" x1="11" x2="175.7715" y1="79.9063" y2="79.9063"/><text fill="#000000" font-family="Verdana" font-size="14" font-weight="bold" lengthAdjust="spacing" textLength="151.7715" x="15" y="72.6045">AKS Runtime Plane</text></g><!--cluster ODA Component Pod--><g class="cluster" data-entity="ODA Component Pod" data-source-line="47" data-uid="ent0013" id="cluster_ODA Component Pod"><rect fill="#FFFFFF" height="113" rx="2.5" ry="2.5" style="stroke:#000000;stroke-width:1;" width="943.99" x="293.07" y="100.6094"/><path d="M467.3171,100.6094 L467.3171,109.9063 L457.3171,119.9063 L293.07,119.9063" fill="none" style="stroke:#000000;stroke-width:1;"/><text fill="#000000" font-family="Verdana" font-size="14" font-weight="bold" lengthAdjust="spacing" textLength="164.2471" x="296.07" y="114.6045">ODA Component Pod</text></g><!--entity APIMGateway--><g class="entity" data-entity="APIMGateway" data-source-line="27" data-uid="ent0004" id="entity_APIMGateway"><rect fill="#FFFFFF" height="46.2969" rx="2.5" ry="2.5" style="stroke:#000000;stroke-width:1;" width="140.5225" x="1072.24" y="462.4594"/><rect fill="#FFFFFF" height="10" style="stroke:#000000;stroke-width:1;" width="15" x="1192.7625" y="467.4594"/><rect fill="#FFFFFF" height="2" style="stroke:#000000;stroke-width:1;" width="4" x="1190.7625" y="469.4594"/><rect fill="#FFFFFF" height="2" style="stroke:#000000;stroke-width:1;" width="4" x="1190.7625" y="473.4594"/><text fill="#000000" font-family="Verdana" font-size="14" lengthAdjust="spacing" textLength="100.5225" x="1087.24" y="495.4545">APIM Gateway</text></g><!--entity AzureMonitor--><g class="entity" data-entity="AzureMonitor" data-source-line="30" data-uid="ent0006" id="entity_AzureMonitor"><rect fill="#FFFFFF" height="62.5938" rx="2.5" ry="2.5" style="stroke:#000000;stroke-width:1;" width="238.6182" x="1917.61" y="505.3094"/><rect fill="#FFFFFF" height="10" style="stroke:#000000;stroke-width:1;" width="15" x="2136.2282" y="510.3094"/><rect fill="#FFFFFF" height="2" style="stroke:#000000;stroke-width:1;" width="4" x="2134.2282" y="512.3094"/><rect fill="#FFFFFF" height="2" style="stroke:#000000;stroke-width:1;" width="4" x="2134.2282" y="516.3094"/><text fill="#000000" font-family="Verdana" font-size="14" lengthAdjust="spacing" textLength="97.8359" x="1932.61" y="538.3045">Azure Monitor</text><text fill="#000000" font-family="Verdana" font-size="14" lengthAdjust="spacing" textLength="198.6182" x="1932.61" y="554.6014">(App Insights, Logs, Metrics)</text></g><!--entity KeyVault--><g class="entity" data-entity="KeyVault" data-source-line="34" data-uid="ent0008" id="entity_KeyVault"><rect fill="#FFFFFF" height="46.2969" rx="2.5" ry="2.5" style="stroke:#000000;stroke-width:1;" width="151.5557" x="1701.06" y="427.4594"/><rect fill="#FFFFFF" height="10" style="stroke:#000000;stroke-width:1;" width="15" x="1832.6157" y="432.4594"/><rect fill="#FFFFFF" height="2" style="stroke:#000000;stroke-width:1;" width="4" x="1830.6157" y="434.4594"/><rect fill="#FFFFFF" height="2" style="stroke:#000000;stroke-width:1;" width="4" x="1830.6157" y="438.4594"/><text fill="#000000" font-family="Verdana" font-size="14" lengthAdjust="spacing" textLength="111.5557" x="1716.06" y="460.4545">Azure Key Vault</text></g><!--entity EntraID--><g class="entity" data-entity="EntraID" data-source-line="35" data-uid="ent0009" id="entity_EntraID"><rect fill="#FFFFFF" height="46.2969" rx="2.5" ry="2.5" style="stroke:#000000;stroke-width:1;" width="141.5205" x="1706.08" y="508.4594"/><rect fill="#FFFFFF" height="10" style="stroke:#000000;stroke-width:1;" width="15" x="1827.6005" y="513.4594"/><rect fill="#FFFFFF" height="2" style="stroke:#000000;stroke-width:1;" width="4" x="1825.6005" y="515.4594"/><rect fill="#FFFFFF" height="2" style="stroke:#000000;stroke-width:1;" width="4" x="1825.6005" y="519.4594"/><text fill="#000000" font-family="Verdana" font-size="14" lengthAdjust="spacing" textLength="101.5205" x="1721.08" y="541.4545">Azure Entra ID</text></g><!--entity CRD--><g class="entity" data-entity="CRD" data-source-line="43" data-uid="ent0011" id="entity_CRD"><rect fill="#FFFFFF" height="55.5938" rx="2.5" ry="2.5" style="stroke:#000000;stroke-width:1;" width="178.9619" x="282.65" y="253.8094"/><polygon fill="#FFFFFF" points="444.6119,258.8094,444.6119,272.8094,456.6119,272.8094,456.6119,264.8094,450.6119,258.8094,444.6119,258.8094" style="stroke:#000000;stroke-width:1;"/><line style="stroke:#000000;stroke-width:1;" x1="450.6119" x2="450.6119" y1="258.8094" y2="264.8094"/><line style="stroke:#000000;stroke-width:1;" x1="456.6119" x2="450.6119" y1="264.8094" y2="264.8094"/><text fill="#000000" font-family="Verdana" font-size="14" lengthAdjust="spacing" textLength="116.2588" x="292.65" y="279.8045">ExposedAPI CRD</text><text fill="#000000" font-family="Verdana" font-size="14" lengthAdjust="spacing" textLength="148.9619" x="292.65" y="296.1014">(configures operator)</text></g><!--entity Operator--><g class="entity" data-entity="Operator" data-source-line="44" data-uid="ent0012" id="entity_Operator"><rect fill="#FFFFFF" height="46.2969" rx="2.5" ry="2.5" style="stroke:#000000;stroke-width:1;" width="209.3398" x="626.61" y="261.4594"/><rect fill="#FFFFFF" height="10" style="stroke:#000000;stroke-width:1;" width="15" x="815.9498" y="266.4594"/><rect fill="#FFFFFF" height="2" style="stroke:#000000;stroke-width:1;" width="4" x="813.9498" y="268.4594"/><rect fill="#FFFFFF" height="2" style="stroke:#000000;stroke-width:1;" width="4" x="813.9498" y="272.4594"/><text fill="#000000" font-family="Verdana" font-size="14" lengthAdjust="spacing" textLength="169.3398" x="641.61" y="294.4545">[apiOperatorAzureAPIM]</text></g><!--entity OTelCollector--><g class="entity" data-entity="OTelCollector" data-source-line="53" data-uid="ent0016" id="entity_OTelCollector"><rect fill="#FFFFFF" height="46.2969" rx="2.5" ry="2.5" style="stroke:#000000;stroke-width:1;" width="149.6895" x="1962.08" y="143.4594"/><rect fill="#FFFFFF" height="10" style="stroke:#000000;stroke-width:1;" width="15" x="2091.7695" y="148.4594"/><rect fill="#FFFFFF" height="2" style="stroke:#000000;stroke-width:1;" width="4" x="2089.7695" y="150.4594"/><rect fill="#FFFFFF" height="2" style="stroke:#000000;stroke-width:1;" width="4" x="2089.7695" y="154.4594"/><text fill="#000000" font-family="Verdana" font-size="14" lengthAdjust="spacing" textLength="109.6895" x="1977.08" y="176.4545">[OTel Collector]</text></g><!--entity AMA--><g class="entity" data-entity="AMA" data-source-line="54" data-uid="ent0017" id="entity_AMA"><rect fill="#FFFFFF" height="46.2969" rx="2.5" ry="2.5" style="stroke:#000000;stroke-width:1;" width="194.6494" x="27" y="228.4594"/><rect fill="#FFFFFF" height="10" style="stroke:#000000;stroke-width:1;" width="15" x="201.6494" y="233.4594"/><rect fill="#FFFFFF" height="2" style="stroke:#000000;stroke-width:1;" width="4" x="199.6494" y="235.4594"/><rect fill="#FFFFFF" height="2" style="stroke:#000000;stroke-width:1;" width="4" x="199.6494" y="239.4594"/><text fill="#000000" font-family="Verdana" font-size="14" lengthAdjust="spacing" textLength="154.6494" x="42" y="261.4545">[Azure Monitor Agent]</text></g><!--entity ODAComponent--><g class="entity" data-entity="ODAComponent" data-source-line="48" data-uid="ent0014" id="entity_ODAComponent"><rect fill="#FFFFFF" height="62.5938" rx="2.5" ry="2.5" style="stroke:#000000;stroke-width:1;" width="157.1064" x="1063.95" y="135.3094"/><rect fill="#FFFFFF" height="10" style="stroke:#000000;stroke-width:1;" width="15" x="1201.0564" y="140.3094"/><rect fill="#FFFFFF" height="2" style="stroke:#000000;stroke-width:1;" width="4" x="1199.0564" y="142.3094"/><rect fill="#FFFFFF" height="2" style="stroke:#000000;stroke-width:1;" width="4" x="1199.0564" y="146.3094"/><text fill="#000000" font-family="Verdana" font-size="14" lengthAdjust="spacing" textLength="117.1064" x="1078.95" y="168.3045">ODA Component</text><text fill="#000000" font-family="Verdana" font-size="14" lengthAdjust="spacing" textLength="101.6299" x="1078.95" y="184.6014">(e.g., TMF620)</text></g><!--entity Sidecar--><g class="entity" data-entity="Sidecar" data-source-line="49" data-uid="ent0015" id="entity_Sidecar"><rect fill="#FFFFFF" height="46.2969" rx="2.5" ry="2.5" style="stroke:#000000;stroke-width:1;" width="126.126" x="309.07" y="135.4594"/><rect fill="#FFFFFF" height="10" style="stroke:#000000;stroke-width:1;" width="15" x="415.196" y="140.4594"/><rect fill="#FFFFFF" height="2" style="stroke:#000000;stroke-width:1;" width="4" x="413.196" y="142.4594"/><rect fill="#FFFFFF" height="2" style="stroke:#000000;stroke-width:1;" width="4" x="413.196" y="146.4594"/><text fill="#000000" font-family="Verdana" font-size="14" lengthAdjust="spacing" textLength="86.126" x="324.07" y="168.4545">Istio Sidecar</text></g><!--entity User--><g class="entity" data-entity="User" data-source-line="22" data-uid="ent0002" id="entity_User"><ellipse cx="372.1288" cy="489.9594" fill="#FFFFFF" rx="8" ry="8" style="stroke:#000000;stroke-width:1;"/><path d="M372.1288,497.9594 L372.1288,524.9594 M359.1288,505.9594 L385.1288,505.9594 M372.1288,524.9594 L359.1288,539.9594 M372.1288,524.9594 L385.1288,539.9594" fill="none" style="stroke:#000000;stroke-width:1;"/><text fill="#000000" font-family="Verdana" font-size="14" lengthAdjust="spacing" textLength="86.0576" x="329.1" y="554.9545">User / Client</text></g><!--link User to APIMGateway--><g class="link" data-entity-1="User" data-entity-2="APIMGateway" data-source-line="61" data-uid="lnk18" id="link_User_APIMGateway"><path d="M415.54,517.7294 C541.77,512.1494 910.0259,495.8549 1066.0259,488.9449" fill="none" id="User-to-APIMGateway" style="stroke:#0000FF;stroke-width:2;"/><polygon fill="#0000FF" points="1072.02,488.6794,1062.8518,485.0816,1067.0249,488.9006,1063.2058,493.0737,1072.02,488.6794" style="stroke:#0000FF;stroke-width:2;"/><text fill="#000000" font-family="Verdana" font-size="13" lengthAdjust="spacing" textLength="94.6245" x="684.28" y="495.6763">1. API Request</text></g><!--link APIMGateway to Sidecar--><g class="link" data-entity-1="APIMGateway" data-entity-2="Sidecar" data-source-line="62" data-uid="lnk19" id="link_APIMGateway_Sidecar"><path d="M1071.82,472.7694 C912.54,442.8094 532.42,367.6694 491.61,325.6094 C447.3,279.9394 504.65,232.4794 461.61,185.6094 C454.55,177.9194 450.9286,174.6581 441.1586,170.6881" fill="none" id="APIMGateway-to-Sidecar" style="stroke:#0000FF;stroke-width:2;"/><polygon fill="#0000FF" points="435.6,168.4294,442.4321,175.5232,440.2322,170.3116,445.4437,168.1117,435.6,168.4294" style="stroke:#0000FF;stroke-width:2;"/><text fill="#000000" font-family="Verdana" font-size="13" lengthAdjust="spacing" textLength="145.6406" x="658.78" y="358.6763">3. Forwards to Service</text><text fill="#000000" font-family="Verdana" font-size="13" lengthAdjust="spacing" textLength="80.7612" x="691.2197" y="373.8091">(via Ingress)</text></g><!--link Sidecar to ODAComponent--><g class="link" data-entity-1="Sidecar" data-entity-2="ODAComponent" data-source-line="63" data-uid="lnk20" id="link_Sidecar_ODAComponent"><path d="M435.54,157.9794 C453.63,157.8294 473.41,157.6894 491.61,157.6094 C538.28,157.4094 549.97,156.0594 596.61,157.6094 C609.97,158.0494 613.26,159.1694 626.61,159.6094 C719.6,162.7094 742.96,162.7094 835.95,159.6094 C849.31,159.1694 852.6,158.0494 865.95,157.6094 C940.58,155.1294 959.35,154.4894 1033.95,157.6094 C1043.59,158.0094 1047.725,158.1949 1057.735,158.9049" fill="none" id="Sidecar-to-ODAComponent" style="stroke:#0000FF;stroke-width:2;"/><polygon fill="#0000FF" points="1063.72,159.3294,1055.0256,154.7026,1058.7325,158.9756,1054.4595,162.6826,1063.72,159.3294" style="stroke:#0000FF;stroke-width:2;"/><text fill="#000000" font-family="Verdana" font-size="13" lengthAdjust="spacing" textLength="116.2891" x="673.28" y="155.6763">4. Delivers to App</text></g><!--link CRD to Operator--><g class="link" data-entity-1="CRD" data-entity-2="Operator" data-source-line="67" data-uid="lnk21" id="link_CRD_Operator"><path d="M461.87,282.3594 C511.66,282.7694 568.0502,283.2487 620.1402,283.6887" fill="none" id="CRD-to-Operator" style="stroke:#8B0000;stroke-width:1;stroke-dasharray:7,7;"/><polygon fill="#8B0000" points="626.14,283.7394,617.1741,279.6635,621.1402,283.6971,617.1065,287.6632,626.14,283.7394" style="stroke:#8B0000;stroke-width:1;"/><text fill="#000000" font-family="Verdana" font-size="13" lengthAdjust="spacing" textLength="87.2231" x="500.61" y="279.6763">A. Configures</text></g><!--link Operator to ODAComponent--><g class="link" data-entity-1="Operator" data-entity-2="ODAComponent" data-source-line="68" data-uid="lnk22" id="link_Operator_ODAComponent"><path d="M836.4,294.3394 C896.43,295.9494 972.02,290.9794 1033.95,264.6094 C1067.42,250.3594 1093.35,225.6718 1113.06,202.8318" fill="none" id="Operator-to-ODAComponent" style="stroke:#8B0000;stroke-width:1;stroke-dasharray:7,7;"/><polygon fill="#8B0000" points="1116.98,198.2894,1108.0718,202.4898,1113.7134,202.0748,1114.1284,207.7164,1116.98,198.2894" style="stroke:#8B0000;stroke-width:1;"/><text fill="#000000" font-family="Verdana" font-size="13" lengthAdjust="spacing" textLength="90.251" x="904.95" y="245.6763">B. Patches for</text><text fill="#000000" font-family="Verdana" font-size="13" lengthAdjust="spacing" textLength="86.1377" x="907.0066" y="260.8091">Observability</text></g><!--link Operator to APIMGateway--><g class="link" data-entity-1="Operator" data-entity-2="APIMGateway" data-source-line="69" data-uid="lnk23" id="link_Operator_APIMGateway"><path d="M759.02,308.0594 C784.71,329.3594 825.49,360.0494 865.95,377.6094 C936,408.0094 963.63,383.8394 1033.95,413.6094 C1062.92,425.8794 1087.6138,442.6017 1108.3538,458.5517" fill="none" id="Operator-to-APIMGateway" style="stroke:#8B0000;stroke-width:1;stroke-dasharray:7,7;"/><polygon fill="#8B0000" points="1113.11,462.2094,1108.4142,453.552,1109.1465,459.1613,1103.5373,459.8936,1113.11,462.2094" style="stroke:#8B0000;stroke-width:1;"/><text fill="#000000" font-family="Verdana" font-size="13" lengthAdjust="spacing" textLength="166.7402" x="866.95" y="358.6763">C. Creates/Configures API</text><text fill="#000000" font-family="Verdana" font-size="13" lengthAdjust="spacing" textLength="62.8164" x="918.9119" y="373.8091">&amp; Policies</text></g><!--link Operator to KeyVault--><g class="link" data-entity-1="Operator" data-entity-2="KeyVault" data-source-line="70" data-uid="lnk24" id="link_Operator_KeyVault"><path d="M836.26,294.8094 C846.29,295.7694 856.32,296.7194 865.95,297.6094 C1222.75,330.7294 1335.18,238.5194 1669.06,368.6094 C1701.94,381.4194 1728.8586,403.487 1748.9586,422.847" fill="none" id="Operator-to-KeyVault" style="stroke:#8B0000;stroke-width:1;stroke-dasharray:7,7;"/><polygon fill="#8B0000" points="1753.28,427.0094,1749.5727,417.8849,1749.6788,423.5408,1744.0229,423.6468,1753.28,427.0094" style="stroke:#8B0000;stroke-width:1;"/><text fill="#000000" font-family="Verdana" font-size="13" lengthAdjust="spacing" textLength="111.0396" x="1254.06" y="292.6763">D. Reads Secrets</text></g><!--link APIMGateway to AzureMonitor--><g class="link" data-entity-1="APIMGateway" data-entity-2="AzureMonitor" data-source-line="74" data-uid="lnk25" id="link_APIMGateway_AzureMonitor"><path d="M1213.2,503.9794 C1343.43,536.0194 1632.6,596.3594 1876.61,570.6094 C1889.83,569.2194 1897.6604,568.2271 1911.2704,565.8371" fill="none" id="APIMGateway-to-AzureMonitor" style="stroke:#008000;stroke-width:1;stroke-dasharray:7,7;"/><polygon fill="#008000" points="1917.18,564.7994,1907.6238,562.4163,1912.2554,565.6642,1909.0075,570.2957,1917.18,564.7994" style="stroke:#008000;stroke-width:1;"/><text fill="#000000" font-family="Verdana" font-size="13" lengthAdjust="spacing" textLength="81.6563" x="1582.56" y="564.6763">Traces, Logs</text></g><!--link ODAComponent to OTelCollector--><g class="link" data-entity-1="ODAComponent" data-entity-2="OTelCollector" data-source-line="75" data-uid="lnk26" id="link_ODAComponent_OTelCollector"><path d="M1221.53,166.6094 C1391.83,166.6094 1788.93,166.6094 1955.7,166.6094" fill="none" id="ODAComponent-to-OTelCollector" style="stroke:#008000;stroke-width:1;stroke-dasharray:7,7;"/><polygon fill="#008000" points="1961.7,166.6094,1952.7,162.6094,1956.7,166.6094,1952.7,170.6094,1961.7,166.6094" style="stroke:#008000;stroke-width:1;"/><text fill="#000000" font-family="Verdana" font-size="13" lengthAdjust="spacing" textLength="90.7017" x="1578.06" y="162.6763">Traces (OTLP)</text></g><!--link Sidecar to OTelCollector--><g class="link" data-entity-1="Sidecar" data-entity-2="OTelCollector" data-source-line="76" data-uid="lnk27" id="link_Sidecar_OTelCollector"><path d="M435.56,151.7494 C486.82,146.3494 561.34,139.0094 626.61,134.6094 C813.73,121.9894 860.74,121.3894 1048.24,117.6094 C1324.31,112.0494 1393.47,124.4194 1669.06,141.6094 C1770.52,147.9394 1881.7349,155.6461 1955.8249,160.8861" fill="none" id="Sidecar-to-OTelCollector" style="stroke:#008000;stroke-width:1;stroke-dasharray:7,7;"/><polygon fill="#008000" points="1961.81,161.3094,1953.1146,156.6844,1956.8225,160.9566,1952.5502,164.6645,1961.81,161.3094" style="stroke:#008000;stroke-width:1;"/><text fill="#000000" font-family="Verdana" font-size="13" lengthAdjust="spacing" textLength="90.7017" x="1264.56" y="113.6763">Traces (OTLP)</text></g><!--link OTelCollector to AzureMonitor--><g class="link" data-entity-1="OTelCollector" data-entity-2="AzureMonitor" data-source-line="77" data-uid="lnk28" id="link_OTelCollector_AzureMonitor"><path d="M2036.92,190.1794 C2036.92,254.3694 2036.92,426.3594 2036.92,499.0594" fill="none" id="OTelCollector-to-AzureMonitor" style="stroke:#008000;stroke-width:1;stroke-dasharray:7,7;"/><polygon fill="#008000" points="2036.92,505.0594,2040.92,496.0594,2036.92,500.0594,2032.92,496.0594,2036.92,505.0594" style="stroke:#008000;stroke-width:1;"/><text fill="#000000" font-family="Verdana" font-size="13" lengthAdjust="spacing" textLength="96.6304" x="1977.42" y="352.1063">Exports Traces</text></g><!--link AMA to ODAComponent--><g class="link" data-entity-1="AMA" data-entity-2="ODAComponent" data-source-line="79" data-uid="lnk29" id="link_AMA_ODAComponent"><path d="M221.82,242.1994 C241.92,240.2994 262.97,238.3494 282.65,236.6094 C570.44,211.1594 906.8179,184.7323 1057.6279,173.0623" fill="none" id="AMA-to-ODAComponent" style="stroke:#008000;stroke-width:1;stroke-dasharray:7,7;"/><polygon fill="#008000" points="1063.61,172.5994,1054.3282,169.3057,1058.6249,172.9851,1054.9454,177.2818,1063.61,172.5994" style="stroke:#008000;stroke-width:1;"/><text fill="#000000" font-family="Verdana" font-size="13" lengthAdjust="spacing" textLength="103.0542" x="492.61" y="206.6763">Scrapes Metrics</text></g><!--link AMA to AzureMonitor--><g class="link" data-entity-1="AMA" data-entity-2="AzureMonitor" data-source-line="80" data-uid="lnk30" id="link_AMA_AzureMonitor"><path d="M128.37,275.0194 C140.8,359.6194 195.69,644.6094 371.13,644.6094 C371.13,644.6094 371.13,644.6094 1777.84,644.6094 C1857.74,644.6094 1936.4703,603.2598 1986.1503,571.3798" fill="none" id="AMA-to-AzureMonitor" style="stroke:#008000;stroke-width:1;stroke-dasharray:7,7;"/><polygon fill="#008000" points="1991.2,568.1394,1981.4651,569.6336,1986.9919,570.8397,1985.7857,576.3665,1991.2,568.1394" style="stroke:#008000;stroke-width:1;"/><text fill="#000000" font-family="Verdana" font-size="13" lengthAdjust="spacing" textLength="149.2715" x="1068" y="640.6763">Exports Metrics &amp; Logs</text></g><!--link APIMGateway to EntraID--><g class="link" data-entity-1="APIMGateway" data-entity-2="EntraID" data-source-line="84" data-uid="lnk31" id="link_APIMGateway_EntraID"><path d="M1212.98,490.6594 C1334.42,499.4994 1577.9258,517.2142 1699.7758,526.0742" fill="none" id="APIMGateway-to-EntraID" style="stroke:#800080;stroke-width:1;"/><polygon fill="#800080" points="1705.76,526.5094,1697.0738,521.8672,1700.7732,526.1468,1696.4936,529.8462,1705.76,526.5094" style="stroke:#800080;stroke-width:1;"/><text fill="#000000" font-family="Verdana" font-size="13" lengthAdjust="spacing" textLength="149.2588" x="1397.06" y="500.6763">2. Validates JWT Token</text></g><g class="legend" data-source-line="9"><rect fill="none" height="156.6719" rx="7.5" ry="7.5" style="stroke:#000000;stroke-width:1;" width="215.9251" x="1968.3049" y="655.7422"/><text fill="#000000" font-family="Verdana" font-size="14" font-weight="bold" lengthAdjust="spacing" textLength="45.2471" x="1973.3049" y="673.7373">Flows</text><path d="M1978.0965,680.5026 L1977.5482,682.2876 L1976.6382,685.2743 L1976.6032,685.2043 L1976.4982,684.8076 L1974.3049,684.8076 L1974.3049,685.9743 L1975.6582,685.9743 L1976.1015,687.3276 L1976.6499,689.0426 L1977.1982,687.2926 L1978.1082,684.3759 L1979.0182,687.2926 L1979.4965,688.8559 L1980.1149,687.3626 L1980.8032,685.6476 L1980.9549,685.9743 L1983.6499,685.9743 L1983.6499,684.8076 L1981.6782,684.8076 L1981.2349,683.9326 L1980.6515,682.8009 L1980.1732,684.0026 L1979.6249,685.3909 L1978.6449,682.2876 L1978.0965,680.5026" fill="#0000FF"/><text fill="#000000" font-family="Verdana" font-size="14" lengthAdjust="spacing" textLength="189.5811" x="1989.0884" y="690.0342">'''Request/Response Flow'''</text><path d="M1980.7215,696.7995 C1979.1115,696.7995 1977.8049,698.1061 1977.8049,699.7161 C1977.8049,700.0895 1977.8982,700.4395 1978.0265,700.7778 L1974.6315,704.1378 C1974.1765,704.5928 1974.1765,705.3628 1974.6315,705.8178 C1974.8649,706.0511 1975.1682,706.1445 1975.4715,706.1445 C1975.7749,706.1445 1976.0782,706.0395 1976.3115,705.8178 L1979.6715,702.4228 C1979.9982,702.5511 1980.3482,702.6445 1980.7332,702.6445 C1982.3432,702.6445 1983.6499,701.3378 1983.6499,699.7278 C1983.6499,699.5411 1983.6499,699.3545 1983.6149,699.1795 L1982.4832,700.3111 L1980.1499,700.3111 L1980.1499,697.9778 L1981.2815,696.8461 C1981.1065,696.8111 1980.9199,696.8111 1980.7332,696.8111 M1975.4715,704.3828 C1975.7982,704.3828 1976.0549,704.6395 1976.0549,704.9661 C1976.0549,705.2928 1975.7982,705.5495 1975.4715,705.5495 C1975.1449,705.5495 1974.8882,705.2928 1974.8882,704.9661 C1974.8882,704.6395 1975.1449,704.3828 1975.4715,704.3828" fill="#8B0000"/><text fill="#000000" font-family="Verdana" font-size="14" lengthAdjust="spacing" textLength="177.5293" x="1989.0884" y="706.3311">'''Operator Control Flow'''</text><path d="M1982.5065,713.0964 L1978.9715,716.5964 L1977.8049,715.4297 L1974.3049,718.9647 L1975.4715,720.1314 L1977.8049,717.763 L1978.9715,718.9297 L1983.6382,714.263 L1982.5065,713.0964 M1974.3049,721.263 L1974.3049,722.4297 L1983.6382,722.4297 L1983.6382,721.263 L1974.3049,721.263" fill="#008000"/><text fill="#000000" font-family="Verdana" font-size="14" lengthAdjust="spacing" textLength="190.1416" x="1989.0884" y="722.6279">'''Observability Data Flow'''</text><text fill="#000000" font-family="Verdana" font-size="14" lengthAdjust="spacing" textLength="4.4502" x="1973.3049" y="738.9248">&#160;</text><text fill="#000000" font-family="Verdana" font-size="14" font-weight="bold" lengthAdjust="spacing" textLength="68.5508" x="1973.3049" y="755.2217">Notation</text><text fill="#000000" font-family="Verdana" font-size="14" lengthAdjust="spacing" textLength="92.2031" x="1973.3049" y="771.5186">[Component]</text><text fill="#000000" font-family="Verdana" font-size="14" lengthAdjust="spacing" textLength="67.5391" x="1973.3049" y="787.8154">&#171;artifact&#187;</text><text fill="#000000" font-family="Verdana" font-size="14" lengthAdjust="spacing" textLength="123.1357" x="1973.3049" y="804.1123">--&gt;&gt; : Interaction</text></g><!--SRC=[bLPjJoCt4FwUNp5T9E0GMNgqwWU48kqb0QMNDoNXJYh71xCx2HR6tjfUE5hTV- -CTpUlXBPy2B4zpypucPd7-Sa_u1D2heJKZIEOIQyGviO2xKCcnSAAfuOFkwDE0csXduK3eo7vgx08JMYRfzner1uEeIEyW2jbNXhawiOX24WL2akEBAPU6YqKAF5g2jzGEFVW3LYvUF0h0qPsS2urWnKkK6TiXTz3XY4hRRm8fjLnyD00E3dXqExaXBvVfaOPUt6l2cnT7kQ5SlJ_B6osuEZeQ89_5kZysGGTPK-PCfJsLz1Cs4UB6Q5VBEhqOGC-oj4AJoorZVRMg5tumY9g0XD_-HRstg5z5lTIIV-weepHuHB3wdhX7hTBUk_OzwMmNiv5wbijMZQRhHPSG4zxogPaZ_WeMM4UavHJj9XRTEH1waNWZpahA0UWmrH9Bft8SoNJabKHKD4DMvn1EnX4G4Nd7NRRtFw3zgX_CnZ2nmj8_hYPT6azd4r6VUw8P9R0k9yCkxkmHYxIHx50YCfUghci-cYiXCO83XINbmi9VzET0S97kkowA1dt1d0jFBw8rv0dRrJh5M0hraOHeihpjkDWEJ1Q4Y7Vz76IvyIrutJSAVJDWZu7wArCtOSoC0Cg- -3mnzxuKqmB-s-XF-ChV165AkcdLLZij-yIVm9wdM0U5hrEbSUFTmjtJeNxF8N9pN3M6tJ_GxtOkA2E8kNOA5Fe-lKwaQ9Gnot7HL3hIUyeTJsNYyA6ZeEwgGEYNa3K_PuRXncL4zgJ3XMWHY49KEMn99wEjxlYLkIo3XlOuQwu2zRrzdgMrzOKUJqWIpUEbiA3BJH8Adp6cfIRB63c98n4HH35PTYnoVPKTCEExeBn8Zw5sU3gj_EVoqkGnTBWBGyzHsJ1bB98XGs8wljsgnrjTZTGoVWgT0lDDwnKD5M58ztOuMqqGqMPAeMi0nLZjBVSsa5ip0aa7As49OE46szFvms7tVQiDnfEQU2l-gElqpSwZg0VOtXJhE5uQfJCu1ChGv_U2_UX4JIhsRmzOBaulJSgksksrlM0r38YXznIbTEeiNwyWwqePjmlCLmP-o9ivlX5cXB3CaKgvREaeTFK-evqe54ZTbojrvVz_HhJGwVaCzhWZzGb2boTn_3cymB77U4UCAFCi_h2rFWGtnvKRzLTt5f1AK8IiuDgPAB6ycWBiPNNfnZ6mgSFD6LprhrDgTpdPOlaDeMsI6jtjag1ZRxfGveIUcpaEodLKiUUEbn_GPoJP5hqhYI9Yh7d7IMQZFT4qNNGeegezVHY2XQ4wYxcnDT4c-FDw2d5IjyfmNLoDe4RGx52ml5erX-lDSB_GssUlvyg2wIboIvT434qSDlXjeexJUdt28Mhtgte3SY-A1M4fhMaXij0FLo_PEi_GzpEKEM5pHNo65Jl4dkcJlyYQ8QvJU3thpEOcKVKqJy0]--></g></svg>