<svg xmlns="http://www.w3.org/2000/svg" xmlns:xlink="http://www.w3.org/1999/xlink" contentStyleType="text/css" data-diagram-type="SEQUENCE" height="793px" preserveAspectRatio="none" style="width:994px;height:793px;background:#FFFFFF;" version="1.1" viewBox="0 0 994 793" width="994px" zoomAndPan="magnify"><defs/><g><g><title>CatalogAdmin</title><rect fill="#000000" fill-opacity="0.00000" height="631.7891" width="8" x="53.3145" y="81.2969"/><line style="stroke:#181818;stroke-width:0.5;stroke-dasharray:5.0,5.0;" x1="57" x2="57" y1="81.2969" y2="713.0859"/></g><g><title>Operations</title><rect fill="#000000" fill-opacity="0.00000" height="631.7891" width="8" x="157.1118" y="81.2969"/><line style="stroke:#181818;stroke-width:0.5;stroke-dasharray:5.0,5.0;" x1="160.6289" x2="160.6289" y1="81.2969" y2="713.0859"/></g><g><title>ProductCatalogComponent</title><rect fill="#000000" fill-opacity="0.00000" height="631.7891" width="8" x="309.9717" y="81.2969"/><line style="stroke:#181818;stroke-width:0.5;stroke-dasharray:5.0,5.0;" x1="313.5947" x2="313.5947" y1="81.2969" y2="713.0859"/></g><g><title>securityController-keycloak</title><rect fill="#000000" fill-opacity="0.00000" height="631.7891" width="8" x="656.3691" y="81.2969"/><line style="stroke:#181818;stroke-width:0.5;stroke-dasharray:5.0,5.0;" x1="659.3857" x2="659.3857" y1="81.2969" y2="713.0859"/></g><g><title>Keycloak</title><rect fill="#000000" fill-opacity="0.00000" height="631.7891" width="8" x="946.3296" y="81.2969"/><line style="stroke:#181818;stroke-width:0.5;stroke-dasharray:5.0,5.0;" x1="949.8706" x2="949.8706" y1="81.2969" y2="713.0859"/></g><g class="participant participant-head" data-participant="CatalogAdmin"><text fill="#000000" font-family="sans-serif" font-size="14" lengthAdjust="spacing" textLength="98.6289" x="5" y="77.9951">CatalogAdmin</text><ellipse cx="57.3145" cy="13.5" fill="#E2E2F0" rx="8" ry="8" style="stroke:#181818;stroke-width:0.5;"/><path d="M57.3145,21.5 L57.3145,48.5 M44.3145,29.5 L70.3145,29.5 M57.3145,48.5 L44.3145,63.5 M57.3145,48.5 L70.3145,63.5" fill="none" style="stroke:#181818;stroke-width:0.5;"/></g><g class="participant participant-tail" data-participant="CatalogAdmin"><text fill="#000000" font-family="sans-serif" font-size="14" lengthAdjust="spacing" textLength="98.6289" x="5" y="725.0811">CatalogAdmin</text><ellipse cx="57.3145" cy="736.8828" fill="#E2E2F0" rx="8" ry="8" style="stroke:#181818;stroke-width:0.5;"/><path d="M57.3145,744.8828 L57.3145,771.8828 M44.3145,752.8828 L70.3145,752.8828 M57.3145,771.8828 L44.3145,786.8828 M57.3145,771.8828 L70.3145,786.8828" fill="none" style="stroke:#181818;stroke-width:0.5;"/></g><g class="participant participant-head" data-participant="Operations"><text fill="#000000" font-family="sans-serif" font-size="14" lengthAdjust="spacing" textLength="76.9658" x="119.6289" y="77.9951">Operations</text><ellipse cx="161.1118" cy="13.5" fill="#E2E2F0" rx="8" ry="8" style="stroke:#181818;stroke-width:0.5;"/><path d="M161.1118,21.5 L161.1118,48.5 M148.1118,29.5 L174.1118,29.5 M161.1118,48.5 L148.1118,63.5 M161.1118,48.5 L174.1118,63.5" fill="none" style="stroke:#181818;stroke-width:0.5;"/></g><g class="participant participant-tail" data-participant="Operations"><text fill="#000000" font-family="sans-serif" font-size="14" lengthAdjust="spacing" textLength="76.9658" x="119.6289" y="725.0811">Operations</text><ellipse cx="161.1118" cy="736.8828" fill="#E2E2F0" rx="8" ry="8" style="stroke:#181818;stroke-width:0.5;"/><path d="M161.1118,744.8828 L161.1118,771.8828 M148.1118,752.8828 L174.1118,752.8828 M161.1118,771.8828 L148.1118,786.8828 M161.1118,771.8828 L174.1118,786.8828" fill="none" style="stroke:#181818;stroke-width:0.5;"/></g><g class="participant participant-head" data-participant="ProductCatalogComponent"><rect fill="#E2E2F0" height="30.2969" rx="2.5" ry="2.5" style="stroke:#181818;stroke-width:0.5;" width="202.7539" x="212.5947" y="50"/><text fill="#000000" font-family="sans-serif" font-size="14" lengthAdjust="spacing" textLength="188.7539" x="219.5947" y="69.9951">ProductCatalogComponent</text></g><g class="participant participant-tail" data-participant="ProductCatalogComponent"><rect fill="#E2E2F0" height="30.2969" rx="2.5" ry="2.5" style="stroke:#181818;stroke-width:0.5;" width="202.7539" x="212.5947" y="712.0859"/><text fill="#000000" font-family="sans-serif" font-size="14" lengthAdjust="spacing" textLength="188.7539" x="219.5947" y="732.0811">ProductCatalogComponent</text></g><g class="participant participant-head" data-participant="securityController-keycloak"><rect fill="#E2E2F0" height="30.2969" rx="2.5" ry="2.5" style="stroke:#181818;stroke-width:0.5;" width="205.9668" x="557.3857" y="50"/><text fill="#000000" font-family="sans-serif" font-size="14" lengthAdjust="spacing" textLength="191.9668" x="564.3857" y="69.9951">securityController-keycloak</text></g><g class="participant participant-tail" data-participant="securityController-keycloak"><rect fill="#E2E2F0" height="30.2969" rx="2.5" ry="2.5" style="stroke:#181818;stroke-width:0.5;" width="205.9668" x="557.3857" y="712.0859"/><text fill="#000000" font-family="sans-serif" font-size="14" lengthAdjust="spacing" textLength="191.9668" x="564.3857" y="732.0811">securityController-keycloak</text></g><g class="participant participant-head" data-participant="Keycloak"><rect fill="#E2E2F0" height="30.2969" rx="2.5" ry="2.5" style="stroke:#181818;stroke-width:0.5;" width="76.918" x="911.8706" y="50"/><text fill="#000000" font-family="sans-serif" font-size="14" lengthAdjust="spacing" textLength="62.918" x="918.8706" y="69.9951">Keycloak</text></g><g class="participant participant-tail" data-participant="Keycloak"><rect fill="#E2E2F0" height="30.2969" rx="2.5" ry="2.5" style="stroke:#181818;stroke-width:0.5;" width="76.918" x="911.8706" y="712.0859"/><text fill="#000000" font-family="sans-serif" font-size="14" lengthAdjust="spacing" textLength="62.918" x="918.8706" y="732.0811">Keycloak</text></g><g class="message" data-participant-1="Operations" data-participant-2="ProductCatalogComponent"><polygon fill="#181818" points="301.9717,108.4297,311.9717,112.4297,301.9717,116.4297,305.9717,112.4297" style="stroke:#181818;stroke-width:1;"/><line style="stroke:#181818;stroke-width:1;" x1="161.1118" x2="307.9717" y1="112.4297" y2="112.4297"/><text fill="#000000" font-family="sans-serif" font-size="13" lengthAdjust="spacing" textLength="39.1333" x="168.1118" y="107.3638">Install</text></g><g class="message" data-participant-1="ProductCatalogComponent" data-participant-2="securityController-keycloak"><polygon fill="#181818" points="648.3691,137.5625,658.3691,141.5625,648.3691,145.5625,652.3691,141.5625" style="stroke:#181818;stroke-width:1;"/><line style="stroke:#181818;stroke-width:1;" x1="313.9717" x2="654.3691" y1="141.5625" y2="141.5625"/><text fill="#000000" font-family="sans-serif" font-size="13" lengthAdjust="spacing" textLength="61.877" x="320.9717" y="136.4966">on.create</text></g><g class="message" data-participant-1="securityController-keycloak" data-participant-2="ProductCatalogComponent"><polygon fill="#181818" points="324.9717,166.6953,314.9717,170.6953,324.9717,174.6953,320.9717,170.6953" style="stroke:#181818;stroke-width:1;"/><line style="stroke:#181818;stroke-width:1;" x1="318.9717" x2="659.3691" y1="170.6953" y2="170.6953"/><text fill="#000000" font-family="sans-serif" font-size="13" lengthAdjust="spacing" textLength="294.2329" x="330.9717" y="165.6294">Register securityListener to PartyRole events</text></g><g class="message" data-participant-1="securityController-keycloak" data-participant-2="Keycloak"><polygon fill="#181818" points="938.3296,195.8281,948.3296,199.8281,938.3296,203.8281,942.3296,199.8281" style="stroke:#181818;stroke-width:1;"/><line style="stroke:#181818;stroke-width:1;" x1="660.3691" x2="944.3296" y1="199.8281" y2="199.8281"/><text fill="#000000" font-family="sans-serif" font-size="13" lengthAdjust="spacing" textLength="93.9453" x="667.3691" y="194.7622">Register client</text></g><g class="message" data-participant-1="CatalogAdmin" data-participant-2="ProductCatalogComponent"><polygon fill="#181818" points="301.9717,224.9609,311.9717,228.9609,301.9717,232.9609,305.9717,228.9609" style="stroke:#181818;stroke-width:1;"/><line style="stroke:#181818;stroke-width:1;" x1="57.3145" x2="307.9717" y1="228.9609" y2="228.9609"/><text fill="#000000" font-family="sans-serif" font-size="13" lengthAdjust="spacing" textLength="76.21" x="64.3145" y="223.895">Create Role</text></g><g class="message" data-participant-1="ProductCatalogComponent" data-participant-2="securityController-keycloak"><polygon fill="#181818" points="648.3691,254.0938,658.3691,258.0938,648.3691,262.0938,652.3691,258.0938" style="stroke:#181818;stroke-width:1;"/><line style="stroke:#181818;stroke-width:1;" x1="313.9717" x2="654.3691" y1="258.0938" y2="258.0938"/><text fill="#000000" font-family="sans-serif" font-size="13" lengthAdjust="spacing" textLength="233.5747" x="320.9717" y="253.0278">PartyRoleCreationNotification event</text></g><g class="message" data-participant-1="securityController-keycloak" data-participant-2="Keycloak"><polygon fill="#181818" points="938.3296,283.2266,948.3296,287.2266,938.3296,291.2266,942.3296,287.2266" style="stroke:#181818;stroke-width:1;"/><line style="stroke:#181818;stroke-width:1;" x1="660.3691" x2="944.3296" y1="287.2266" y2="287.2266"/><text fill="#000000" font-family="sans-serif" font-size="13" lengthAdjust="spacing" textLength="70.5923" x="667.3691" y="282.1606">create role</text></g><g class="message" data-participant-1="Operations" data-participant-2="Keycloak"><polygon fill="#181818" points="938.3296,312.3594,948.3296,316.3594,938.3296,320.3594,942.3296,316.3594" style="stroke:#181818;stroke-width:1;"/><line style="stroke:#181818;stroke-width:1;" x1="161.1118" x2="944.3296" y1="316.3594" y2="316.3594"/><text fill="#000000" font-family="sans-serif" font-size="13" lengthAdjust="spacing" textLength="152.8579" x="168.1118" y="311.2935">Maintain user identities</text></g><g class="message" data-participant-1="CatalogAdmin" data-participant-2="ProductCatalogComponent"><polygon fill="#181818" points="301.9717,341.4922,311.9717,345.4922,301.9717,349.4922,305.9717,345.4922" style="stroke:#181818;stroke-width:1;"/><line style="stroke:#181818;stroke-width:1;" x1="57.3145" x2="307.9717" y1="345.4922" y2="345.4922"/><text fill="#000000" font-family="sans-serif" font-size="13" lengthAdjust="spacing" textLength="79.8091" x="64.3145" y="340.4263">Update Role</text></g><g class="message" data-participant-1="ProductCatalogComponent" data-participant-2="securityController-keycloak"><polygon fill="#181818" points="648.3691,370.625,658.3691,374.625,648.3691,378.625,652.3691,374.625" style="stroke:#181818;stroke-width:1;"/><line style="stroke:#181818;stroke-width:1;" x1="313.9717" x2="654.3691" y1="374.625" y2="374.625"/><text fill="#000000" font-family="sans-serif" font-size="13" lengthAdjust="spacing" textLength="322.3975" x="320.9717" y="369.5591">PartyRoleAttributeValueChangeNotification event</text></g><g class="message" data-participant-1="securityController-keycloak" data-participant-2="Keycloak"><polygon fill="#181818" points="938.3296,399.7578,948.3296,403.7578,938.3296,407.7578,942.3296,403.7578" style="stroke:#181818;stroke-width:1;"/><line style="stroke:#181818;stroke-width:1;" x1="660.3691" x2="944.3296" y1="403.7578" y2="403.7578"/><text fill="#000000" font-family="sans-serif" font-size="13" lengthAdjust="spacing" textLength="76.1211" x="667.3691" y="398.6919">Update role</text></g><g class="message" data-participant-1="Operations" data-participant-2="Keycloak"><polygon fill="#181818" points="938.3296,428.8906,948.3296,432.8906,938.3296,436.8906,942.3296,432.8906" style="stroke:#181818;stroke-width:1;"/><line style="stroke:#181818;stroke-width:1;" x1="161.1118" x2="944.3296" y1="432.8906" y2="432.8906"/><text fill="#000000" font-family="sans-serif" font-size="13" lengthAdjust="spacing" textLength="152.8579" x="168.1118" y="427.8247">Maintain user identities</text></g><g class="message" data-participant-1="CatalogAdmin" data-participant-2="ProductCatalogComponent"><polygon fill="#181818" points="301.9717,458.0234,311.9717,462.0234,301.9717,466.0234,305.9717,462.0234" style="stroke:#181818;stroke-width:1;"/><line style="stroke:#181818;stroke-width:1;" x1="57.3145" x2="307.9717" y1="462.0234" y2="462.0234"/><text fill="#000000" font-family="sans-serif" font-size="13" lengthAdjust="spacing" textLength="75.4419" x="64.3145" y="456.9575">Delete Role</text></g><g class="message" data-participant-1="ProductCatalogComponent" data-participant-2="securityController-keycloak"><polygon fill="#181818" points="648.3691,487.1563,658.3691,491.1563,648.3691,495.1563,652.3691,491.1563" style="stroke:#181818;stroke-width:1;"/><line style="stroke:#181818;stroke-width:1;" x1="313.9717" x2="654.3691" y1="491.1563" y2="491.1563"/><text fill="#000000" font-family="sans-serif" font-size="13" lengthAdjust="spacing" textLength="232.8066" x="320.9717" y="486.0903">PartyRoleDeletionNotification event</text></g><g class="message" data-participant-1="securityController-keycloak" data-participant-2="Keycloak"><polygon fill="#181818" points="938.3296,516.2891,948.3296,520.2891,938.3296,524.2891,942.3296,520.2891" style="stroke:#181818;stroke-width:1;"/><line style="stroke:#181818;stroke-width:1;" x1="660.3691" x2="944.3296" y1="520.2891" y2="520.2891"/><text fill="#000000" font-family="sans-serif" font-size="13" lengthAdjust="spacing" textLength="71.7539" x="667.3691" y="515.2231">Delete role</text></g><g class="message" data-participant-1="CatalogAdmin" data-participant-2="ProductCatalogComponent"><polygon fill="#181818" points="301.9717,545.4219,311.9717,549.4219,301.9717,553.4219,305.9717,549.4219" style="stroke:#181818;stroke-width:1;"/><line style="stroke:#181818;stroke-width:1;" x1="57.3145" x2="307.9717" y1="549.4219" y2="549.4219"/><text fill="#000000" font-family="sans-serif" font-size="13" lengthAdjust="spacing" textLength="76.21" x="64.3145" y="544.356">Create Role</text></g><g class="message" data-participant-1="ProductCatalogComponent" data-participant-2="securityController-keycloak"><polygon fill="#181818" points="648.3691,574.5547,658.3691,578.5547,648.3691,582.5547,652.3691,578.5547" style="stroke:#181818;stroke-width:1;"/><line style="stroke:#181818;stroke-width:1;" x1="313.9717" x2="654.3691" y1="578.5547" y2="578.5547"/><text fill="#000000" font-family="sans-serif" font-size="13" lengthAdjust="spacing" textLength="233.5747" x="320.9717" y="573.4888">PartyRoleCreationNotification event</text></g><g class="message" data-participant-1="securityController-keycloak" data-participant-2="Keycloak"><polygon fill="#181818" points="938.3296,603.6875,948.3296,607.6875,938.3296,611.6875,942.3296,607.6875" style="stroke:#181818;stroke-width:1;"/><line style="stroke:#181818;stroke-width:1;" x1="660.3691" x2="944.3296" y1="607.6875" y2="607.6875"/><text fill="#000000" font-family="sans-serif" font-size="13" lengthAdjust="spacing" textLength="70.5923" x="667.3691" y="602.6216">create role</text></g><g class="message" data-participant-1="Operations" data-participant-2="ProductCatalogComponent"><polygon fill="#181818" points="301.9717,632.8203,311.9717,636.8203,301.9717,640.8203,305.9717,636.8203" style="stroke:#181818;stroke-width:1;"/><line style="stroke:#181818;stroke-width:1;" x1="161.1118" x2="307.9717" y1="636.8203" y2="636.8203"/><text fill="#000000" font-family="sans-serif" font-size="13" lengthAdjust="spacing" textLength="56.6655" x="168.1118" y="631.7544">Uninstall</text></g><g class="message" data-participant-1="ProductCatalogComponent" data-participant-2="securityController-keycloak"><polygon fill="#181818" points="648.3691,661.9531,658.3691,665.9531,648.3691,669.9531,652.3691,665.9531" style="stroke:#181818;stroke-width:1;"/><line style="stroke:#181818;stroke-width:1;" x1="313.9717" x2="654.3691" y1="665.9531" y2="665.9531"/><text fill="#000000" font-family="sans-serif" font-size="13" lengthAdjust="spacing" textLength="61.2803" x="320.9717" y="660.8872">on.delete</text></g><g class="message" data-participant-1="securityController-keycloak" data-participant-2="Keycloak"><polygon fill="#181818" points="938.3296,691.0859,948.3296,695.0859,938.3296,699.0859,942.3296,695.0859" style="stroke:#181818;stroke-width:1;"/><line style="stroke:#181818;stroke-width:1;" x1="660.3691" x2="944.3296" y1="695.0859" y2="695.0859"/><text fill="#000000" font-family="sans-serif" font-size="13" lengthAdjust="spacing" textLength="265.9604" x="667.3691" y="690.02">Delete client and all roles for component</text></g><!--SRC=[tLJBQiCm4BpxAnRVtGym9H3SI-ah1DAxAc_S9OhMIEk2_xwoPPVaO8SqfeSQ19OOpSxCYbLQs45QA566gtLv99icAXw-rUYK45kV9jstSLmsMWPimSUQBLg1- -mC2payMXymPl96jeBKesuSILkm5SV6eCiEs6h3wf3cmFPEErI2aCmYEwg9AZbiiI8lw61aUEwsDXm8mqOvQRTi4F0heFtbEa_3veHO6mfta_FyPZKLqLLNU2gUo-dyQE_PGkglBBGdtVz7FzVO6P9sdQRJJcQh4GEXgI-Ah8G5ZG_EgGn5I0ZzDUvtTRcW-xM8euz6y5sP1ejFPIkyBOb1tnyayO06bqkYPxlv7GoQell_-QHdZ7ITtLbQOdILCSXVP1y72YXRGb3Hw_Um3zDOZmgIRm00]--></g></svg>