<?xml version="1.0" encoding="UTF-8"?>
<svg width="17px" height="16px" viewBox="0 0 17 16" version="1.1" xmlns="http://www.w3.org/2000/svg" xmlns:xlink="http://www.w3.org/1999/xlink">
    <title>编组</title>
    <g id="页面-1" stroke="none" stroke-width="1" fill="none" fill-rule="evenodd">
        <g id="最终版" transform="translate(-626.000000, -1765.000000)" fill="#3D7FFF" fill-rule="nonzero">
            <g id="编组-33" transform="translate(272.000000, 1593.000000)">
                <g id="Group-3" transform="translate(322.000000, 91.000000)">
                    <g id="编组" transform="translate(32.089253, 81.000000)">
                        <path d="M6.80236274,9.32931522 L6.80702939,9.33598188 L6.14102939,10.9446485 C5.50193332,10.5355182 5.01568674,9.92694837 4.75769606,9.21331522 L6.47636274,8.92198188 L6.47902939,8.92531522 C6.58534855,8.9057726 6.69379952,8.94628949 6.76126124,9.03075601 C6.82872295,9.11522254 6.84426052,9.2299475 6.80169606,9.32931522 L6.80236274,9.32931522 Z M6.24702939,7.90998188 C6.35128846,7.88143768 6.43139984,7.79786632 6.45551278,7.69249417 C6.47962572,7.58712202 6.44383209,7.47702742 6.36236274,7.40598188 L6.36369606,7.39864855 L5.05636274,6.22931522 C4.65754628,6.87848623 4.48631254,7.64200105 4.56969606,8.39931522 L6.24569606,7.91598188 L6.24702939,7.90998188 L6.24702939,7.90998188 Z M7.01036274,6.58998188 C7.09777119,6.65377363 7.21320126,6.66426122 7.31067534,6.61726728 C7.40814942,6.57027335 7.47183408,6.47343144 7.47636274,6.36531522 L7.48302939,6.36198188 L7.58302939,4.61531522 C6.82588531,4.70382415 6.11981391,5.04208161 5.57636274,5.57664855 L7.00769606,6.59198188 L7.01036274,6.59064855 L7.01036274,6.58998188 Z M7.51702939,8.42331522 L7.99902939,8.65598188 L8.48036274,8.42464855 L8.60036274,7.90464855 L8.26702939,7.48931522 L7.73102939,7.48931522 L7.39769606,7.90464855 L7.51702939,8.42398188 L7.51702939,8.42331522 Z M8.51702939,6.35998188 C8.52162702,6.46821405 8.58550218,6.56510162 8.68316398,6.61197928 C8.78082577,6.65885694 8.89637388,6.64809254 8.98369606,6.58398188 L8.98902939,6.58598188 L10.4116961,5.57731522 C9.87011756,5.04694733 9.16929945,4.70918672 8.41702939,4.61598188 L8.51569606,6.35931522 L8.51702939,6.35998188 L8.51702939,6.35998188 Z M15.7676961,10.3399819 L11.9190294,15.1273152 C11.7159534,15.3784717 11.4100137,15.5240872 11.0870294,15.5233152 L4.91302939,15.5253155 C4.59005505,15.5255601 4.28436243,15.3794552 4.08169606,15.1279819 L0.231029393,10.3413152 C0.0303210853,10.0902451 -0.0450211921,9.76138954 0.0263627364,9.44798188 L1.39969606,3.47798188 C1.47169606,3.16464855 1.68302939,2.90198188 1.97502939,2.76264855 L7.53636274,0.104648549 C7.82832633,-0.0348828497 8.16773247,-0.0348828497 8.45969606,0.104648549 L14.0230294,2.76131522 C14.3150294,2.90064855 14.5263627,3.16398189 14.5983627,3.47664855 L15.9730294,9.44664855 C16.0450294,9.75998188 15.9696961,10.0886485 15.7676961,10.3399819 Z M13.5750294,8.96864855 C13.5470294,8.96198188 13.5063627,8.95131522 13.4783627,8.94598188 C13.3623627,8.92398188 13.2683627,8.92931521 13.1590294,8.92064855 C12.9256961,8.89598188 12.7336961,8.87598188 12.5623627,8.82198188 C12.4923627,8.79531521 12.4423627,8.71198188 12.4183627,8.67798188 L12.2843627,8.63864855 C12.3557808,8.12048215 12.332059,7.59363326 12.2143627,7.08398188 C12.096474,6.5691417 11.88496,6.08035456 11.5903627,5.64198188 C11.6250294,5.61064855 11.6903627,5.55331521 11.7083627,5.53598188 C11.7136961,5.47598188 11.7090294,5.41398188 11.7710294,5.34798188 C11.9023627,5.22464855 12.0670294,5.12264855 12.2663627,4.99998188 C12.3610294,4.94398188 12.4483627,4.90864855 12.5430294,4.83864855 C12.5643627,4.82264855 12.5936961,4.79731522 12.6163627,4.77931522 C12.7763627,4.65198189 12.8130294,4.43264855 12.6983627,4.28864855 C12.5836961,4.14464855 12.3610294,4.13131522 12.2016961,4.25864855 C12.1790294,4.27664855 12.1483627,4.29998188 12.1276961,4.31731522 C12.0383627,4.39464855 11.9830294,4.47064855 11.9076961,4.55064855 C11.7436961,4.71731522 11.6076961,4.85598188 11.4590294,4.95664855 C11.3943627,4.99398188 11.2996961,4.98131522 11.2570294,4.97864855 L11.1303627,5.06864855 C10.4011805,4.30344761 9.41902267,3.82895119 8.36636274,3.73331522 L8.35836274,3.58464855 C8.31502941,3.54331522 8.26302941,3.50798188 8.24969606,3.41798188 C8.23502939,3.23931521 8.25969606,3.04664855 8.28769606,2.81464855 C8.30302939,2.70598188 8.32836274,2.61598188 8.33302939,2.49798188 C8.33369606,2.47131521 8.33236272,2.43198188 8.33236274,2.40331522 C8.33236274,2.19931522 8.18302941,2.03331522 7.99902939,2.03331522 C7.81569606,2.03331522 7.66636272,2.19931522 7.66636274,2.40331522 L7.66702939,2.41264855 C7.66702939,2.43998188 7.66569606,2.47398188 7.66702939,2.49798188 C7.67102939,2.61598188 7.69636272,2.70598188 7.71169606,2.81464855 C7.73969606,3.04664855 7.76369606,3.23931522 7.74902939,3.41864855 C7.73011118,3.48508245 7.69264736,3.54474705 7.64102939,3.59064855 L7.63302939,3.73131522 C6.57363088,3.81638801 5.58371132,4.29233829 4.85569606,5.06664855 C4.81532262,5.03873295 4.77531914,5.01028603 4.73569606,4.98131522 C4.67569606,4.98931522 4.61569606,5.00798189 4.53769606,4.96198188 C4.38902939,4.86198188 4.25302939,4.72331521 4.08902939,4.55664855 C4.01369606,4.47664855 3.95902939,4.40064855 3.86969606,4.32398188 C3.84554845,4.30378039 3.82087324,4.28421806 3.79569606,4.26531522 C3.72978689,4.21188563 3.64845977,4.18103741 3.56369606,4.17731522 C3.46160436,4.17189303 3.36304599,4.21547663 3.29836274,4.29464855 C3.18369606,4.43864855 3.22036274,4.65864855 3.38036274,4.78598188 L3.38502939,4.78931522 L3.45436274,4.84464855 C3.54902941,4.91464855 3.63569606,4.95064855 3.73036274,5.00598188 C3.92969606,5.12931521 4.09436274,5.23131521 4.22569606,5.35398188 C4.27636274,5.40864855 4.28569606,5.50464855 4.29236274,5.54598188 L4.39902939,5.64131522 C3.80992566,6.52463943 3.56776975,7.59439877 3.71902939,8.64531522 L3.58036274,8.68531522 C3.54369606,8.73331522 3.49169606,8.80798189 3.43702939,8.82998188 C3.26569606,8.88398188 3.07302939,8.90331521 2.84036274,8.92798188 C2.73102941,8.93731521 2.63702941,8.93198188 2.52036274,8.95398188 C2.49569606,8.95864855 2.46036274,8.96731521 2.43169606,8.97398188 L2.42902939,8.97531522 L2.42436274,8.97664855 C2.22769606,9.02398188 2.10169606,9.20464855 2.14236274,9.38198188 C2.18302941,9.55998188 2.37502941,9.66798188 2.57236274,9.62531522 L2.57702939,9.62464855 L2.58369606,9.62264855 L2.66969606,9.60331522 C2.78302939,9.57264855 2.86569606,9.52798189 2.96836274,9.48864855 C3.18836274,9.40998188 3.37102941,9.34398188 3.54836274,9.31798188 C3.62302941,9.31198188 3.70169606,9.36398188 3.74036274,9.38531522 L3.88502939,9.36064855 C4.21086439,10.3673769 4.89379613,11.2200931 5.80502939,11.7579819 L5.74502939,11.9033152 C5.76702939,11.9593152 5.79102939,12.0359819 5.77436274,12.0913152 C5.70969606,12.2593152 5.59902941,12.4359819 5.47302939,12.6333152 C5.41236272,12.7239819 5.34969606,12.7946485 5.29436274,12.8993152 C5.28102941,12.9239819 5.26436274,12.9626485 5.25169606,12.9886485 C5.16636274,13.1719819 5.22902939,13.3826485 5.39369606,13.4619819 C5.55902939,13.5419819 5.76436274,13.4573152 5.85369606,13.2739819 L5.85369606,13.2726485 C5.86702939,13.2466485 5.88436274,13.2126485 5.89502939,13.1879819 C5.94169606,13.0799819 5.95769606,12.9873152 5.99102939,12.8826485 C6.07902939,12.6613152 6.12769606,12.4293152 6.24902939,12.2846485 C6.28236272,12.2446485 6.33569606,12.2299819 6.39236274,12.2146485 L6.46769606,12.0779819 C7.45601236,12.4588009 8.55007685,12.4616495 9.54036274,12.0859819 L9.61102939,12.2139819 C9.66836272,12.2326485 9.73102939,12.2419819 9.78169606,12.3173152 C9.87236274,12.4719819 9.93436274,12.6553152 10.0096961,12.8773152 C10.0430294,12.9813152 10.0590294,13.0739819 10.1063627,13.1819819 C10.1170294,13.2066485 10.1350294,13.2419819 10.1476961,13.2679819 C10.2363627,13.4519819 10.4423627,13.5359819 10.6076961,13.4559819 C10.7723627,13.3773152 10.8350294,13.1659819 10.7496961,12.9826485 C10.7363627,12.9566485 10.7196961,12.9186485 10.7063627,12.8933152 C10.6510294,12.7893152 10.5883627,12.7193152 10.5276961,12.6279819 C10.4010294,12.4306485 10.2970294,12.2673152 10.2323627,12.0993152 C10.2056961,12.0126485 10.2370294,11.9593152 10.2576961,11.9033152 C10.2456961,11.8886485 10.2183627,11.8073152 10.2023627,11.7686485 C11.1169422,11.2265853 11.8002944,10.3671749 12.1223627,9.35398188 C12.1650294,9.36064855 12.2396961,9.37398188 12.2643627,9.37931522 C12.3143627,9.34598189 12.3603627,9.30331522 12.4510294,9.30998188 C12.6283627,9.33598188 12.8110294,9.40198188 13.0310294,9.48064855 C13.1336961,9.52064855 13.2156961,9.56598188 13.3296961,9.59598188 C13.3536961,9.60264855 13.3883627,9.60864855 13.4163627,9.61464855 L13.4223627,9.61664855 L13.4270294,9.61731522 C13.6250294,9.65998189 13.8163627,9.55198189 13.8570294,9.37398188 C13.8970294,9.19664855 13.7716961,9.01598188 13.5750294,8.96864855 L13.5750294,8.96864855 Z M10.9330294,6.22998188 L9.63302939,7.39398188 L9.63302939,7.39731522 C9.5511862,7.46830776 9.51513924,7.57863275 9.53927701,7.68425291 C9.56341477,7.78987306 9.64380638,7.87358792 9.74836274,7.90198188 L9.75036274,7.90864855 L11.4343627,8.39398188 C11.4709303,8.02053698 11.4466139,7.64363202 11.3623627,7.27798188 C11.277644,6.90727389 11.1326017,6.55300116 10.9330294,6.22931522 L10.9330294,6.22998188 Z M8.25769606,9.77998188 C8.20517527,9.68087984 8.10042791,9.6207279 7.98836274,9.62531522 C7.88392761,9.62921767 7.78945612,9.68838932 7.74036274,9.78064855 L7.73902939,9.78064855 L6.89369606,11.3086485 C7.61236051,11.5538319 8.39192381,11.554535 9.11102939,11.3106485 L8.26436274,9.77998188 L8.25769606,9.77998188 L8.25769606,9.77998188 Z M9.51636274,8.91798188 C9.45533456,8.90674095 9.3923137,8.91514373 9.33636274,8.94198188 C9.1939722,9.01002138 9.13093177,9.17852198 9.19369606,9.32331522 L9.19169606,9.32598188 L9.86502939,10.9513152 C10.508408,10.5405788 10.9965672,9.92715442 11.2523627,9.20798188 L9.51902939,8.91464855 L9.51636274,8.91798188 Z" id="形状"></path>
                    </g>
                </g>
            </g>
        </g>
    </g>
</svg>