<svg xmlns="http://www.w3.org/2000/svg" xmlns:xlink="http://www.w3.org/1999/xlink" contentStyleType="text/css" data-diagram-type="SEQUENCE" height="749px" preserveAspectRatio="none" style="width:1059px;height:749px;background:#FFFFFF;" version="1.1" viewBox="0 0 1059 749" width="1059px" zoomAndPan="magnify"><defs/><g><g><title>CatalogAdmin</title><rect fill="#000000" fill-opacity="0.00000" height="587.5234" width="8" x="53.3145" y="81.2969"/><line style="stroke:#181818;stroke-width:0.5;stroke-dasharray:5.0,5.0;" x1="57" x2="57" y1="81.2969" y2="668.8203"/></g><g><title>Operations</title><rect fill="#000000" fill-opacity="0.00000" height="587.5234" width="8" x="157.1118" y="81.2969"/><line style="stroke:#181818;stroke-width:0.5;stroke-dasharray:5.0,5.0;" x1="160.6289" x2="160.6289" y1="81.2969" y2="668.8203"/></g><g><title>ProductCatalogComponent</title><rect fill="#000000" fill-opacity="0.00000" height="587.5234" width="8" x="309.9717" y="81.2969"/><line style="stroke:#181818;stroke-width:0.5;stroke-dasharray:5.0,5.0;" x1="313.5947" x2="313.5947" y1="81.2969" y2="668.8203"/></g><g><title>securityController-keycloak</title><rect fill="#000000" fill-opacity="0.00000" height="587.5234" width="8" x="628.2046" y="81.2969"/><line style="stroke:#181818;stroke-width:0.5;stroke-dasharray:5.0,5.0;" x1="631.2212" x2="631.2212" y1="81.2969" y2="668.8203"/></g><g><title>securityController-apiListener</title><rect fill="#000000" fill-opacity="0.00000" height="587.5234" width="8" x="852.0908" y="81.2969"/><line style="stroke:#181818;stroke-width:0.5;stroke-dasharray:5.0,5.0;" x1="855.188" x2="855.188" y1="81.2969" y2="668.8203"/></g><g><title>Keycloak</title><rect fill="#000000" fill-opacity="0.00000" height="587.5234" width="8" x="1011.4526" y="81.2969"/><line style="stroke:#181818;stroke-width:0.5;stroke-dasharray:5.0,5.0;" x1="1014.9937" x2="1014.9937" y1="81.2969" y2="668.8203"/></g><g class="participant participant-head" data-participant="CatalogAdmin"><text fill="#000000" font-family="sans-serif" font-size="14" lengthAdjust="spacing" textLength="98.6289" x="5" y="77.9951">CatalogAdmin</text><ellipse cx="57.3145" cy="13.5" fill="#E2E2F0" rx="8" ry="8" style="stroke:#181818;stroke-width:0.5;"/><path d="M57.3145,21.5 L57.3145,48.5 M44.3145,29.5 L70.3145,29.5 M57.3145,48.5 L44.3145,63.5 M57.3145,48.5 L70.3145,63.5" fill="none" style="stroke:#181818;stroke-width:0.5;"/></g><g class="participant participant-tail" data-participant="CatalogAdmin"><text fill="#000000" font-family="sans-serif" font-size="14" lengthAdjust="spacing" textLength="98.6289" x="5" y="680.8154">CatalogAdmin</text><ellipse cx="57.3145" cy="692.6172" fill="#E2E2F0" rx="8" ry="8" style="stroke:#181818;stroke-width:0.5;"/><path d="M57.3145,700.6172 L57.3145,727.6172 M44.3145,708.6172 L70.3145,708.6172 M57.3145,727.6172 L44.3145,742.6172 M57.3145,727.6172 L70.3145,742.6172" fill="none" style="stroke:#181818;stroke-width:0.5;"/></g><g class="participant participant-head" data-participant="Operations"><text fill="#000000" font-family="sans-serif" font-size="14" lengthAdjust="spacing" textLength="76.9658" x="119.6289" y="77.9951">Operations</text><ellipse cx="161.1118" cy="13.5" fill="#E2E2F0" rx="8" ry="8" style="stroke:#181818;stroke-width:0.5;"/><path d="M161.1118,21.5 L161.1118,48.5 M148.1118,29.5 L174.1118,29.5 M161.1118,48.5 L148.1118,63.5 M161.1118,48.5 L174.1118,63.5" fill="none" style="stroke:#181818;stroke-width:0.5;"/></g><g class="participant participant-tail" data-participant="Operations"><text fill="#000000" font-family="sans-serif" font-size="14" lengthAdjust="spacing" textLength="76.9658" x="119.6289" y="680.8154">Operations</text><ellipse cx="161.1118" cy="692.6172" fill="#E2E2F0" rx="8" ry="8" style="stroke:#181818;stroke-width:0.5;"/><path d="M161.1118,700.6172 L161.1118,727.6172 M148.1118,708.6172 L174.1118,708.6172 M161.1118,727.6172 L148.1118,742.6172 M161.1118,727.6172 L174.1118,742.6172" fill="none" style="stroke:#181818;stroke-width:0.5;"/></g><g class="participant participant-head" data-participant="ProductCatalogComponent"><rect fill="#E2E2F0" height="30.2969" rx="2.5" ry="2.5" style="stroke:#181818;stroke-width:0.5;" width="202.7539" x="212.5947" y="50"/><text fill="#000000" font-family="sans-serif" font-size="14" lengthAdjust="spacing" textLength="188.7539" x="219.5947" y="69.9951">ProductCatalogComponent</text></g><g class="participant participant-tail" data-participant="ProductCatalogComponent"><rect fill="#E2E2F0" height="30.2969" rx="2.5" ry="2.5" style="stroke:#181818;stroke-width:0.5;" width="202.7539" x="212.5947" y="667.8203"/><text fill="#000000" font-family="sans-serif" font-size="14" lengthAdjust="spacing" textLength="188.7539" x="219.5947" y="687.8154">ProductCatalogComponent</text></g><g class="participant participant-head" data-participant="securityController-keycloak"><rect fill="#E2E2F0" height="30.2969" rx="2.5" ry="2.5" style="stroke:#181818;stroke-width:0.5;" width="205.9668" x="529.2212" y="50"/><text fill="#000000" font-family="sans-serif" font-size="14" lengthAdjust="spacing" textLength="191.9668" x="536.2212" y="69.9951">securityController-keycloak</text></g><g class="participant participant-tail" data-participant="securityController-keycloak"><rect fill="#E2E2F0" height="30.2969" rx="2.5" ry="2.5" style="stroke:#181818;stroke-width:0.5;" width="205.9668" x="529.2212" y="667.8203"/><text fill="#000000" font-family="sans-serif" font-size="14" lengthAdjust="spacing" textLength="191.9668" x="536.2212" y="687.8154">securityController-keycloak</text></g><g class="participant participant-head" data-participant="securityController-apiListener"><rect fill="#E2E2F0" height="30.2969" rx="2.5" ry="2.5" style="stroke:#181818;stroke-width:0.5;" width="221.8057" x="745.188" y="50"/><text fill="#000000" font-family="sans-serif" font-size="14" lengthAdjust="spacing" textLength="207.8057" x="752.188" y="69.9951">securityController-apiListener</text></g><g class="participant participant-tail" data-participant="securityController-apiListener"><rect fill="#E2E2F0" height="30.2969" rx="2.5" ry="2.5" style="stroke:#181818;stroke-width:0.5;" width="221.8057" x="745.188" y="667.8203"/><text fill="#000000" font-family="sans-serif" font-size="14" lengthAdjust="spacing" textLength="207.8057" x="752.188" y="687.8154">securityController-apiListener</text></g><g class="participant participant-head" data-participant="Keycloak"><rect fill="#E2E2F0" height="30.2969" rx="2.5" ry="2.5" style="stroke:#181818;stroke-width:0.5;" width="76.918" x="976.9937" y="50"/><text fill="#000000" font-family="sans-serif" font-size="14" lengthAdjust="spacing" textLength="62.918" x="983.9937" y="69.9951">Keycloak</text></g><g class="participant participant-tail" data-participant="Keycloak"><rect fill="#E2E2F0" height="30.2969" rx="2.5" ry="2.5" style="stroke:#181818;stroke-width:0.5;" width="76.918" x="976.9937" y="667.8203"/><text fill="#000000" font-family="sans-serif" font-size="14" lengthAdjust="spacing" textLength="62.918" x="983.9937" y="687.8154">Keycloak</text></g><g class="message" data-participant-1="Operations" data-participant-2="ProductCatalogComponent"><polygon fill="#181818" points="301.9717,108.4297,311.9717,112.4297,301.9717,116.4297,305.9717,112.4297" style="stroke:#181818;stroke-width:1;"/><line style="stroke:#181818;stroke-width:1;" x1="161.1118" x2="307.9717" y1="112.4297" y2="112.4297"/><text fill="#000000" font-family="sans-serif" font-size="13" lengthAdjust="spacing" textLength="39.1333" x="168.1118" y="107.3638">Install</text></g><g class="message" data-participant-1="ProductCatalogComponent" data-participant-2="securityController-keycloak"><polygon fill="#181818" points="620.2046,137.5625,630.2046,141.5625,620.2046,145.5625,624.2046,141.5625" style="stroke:#181818;stroke-width:1;"/><line style="stroke:#181818;stroke-width:1;" x1="313.9717" x2="626.2046" y1="141.5625" y2="141.5625"/><text fill="#000000" font-family="sans-serif" font-size="13" lengthAdjust="spacing" textLength="61.877" x="320.9717" y="136.4966">on.create</text></g><g class="message" data-participant-1="securityController-keycloak" data-participant-2="ProductCatalogComponent"><polygon fill="#181818" points="324.9717,166.6953,314.9717,170.6953,324.9717,174.6953,320.9717,170.6953" style="stroke:#181818;stroke-width:1;"/><line style="stroke:#181818;stroke-width:1;" x1="318.9717" x2="631.2046" y1="170.6953" y2="170.6953"/><text fill="#000000" font-family="sans-serif" font-size="13" lengthAdjust="spacing" textLength="294.2329" x="330.9717" y="165.6294">Register securityListener to PartyRole events</text></g><g class="message" data-participant-1="securityController-keycloak" data-participant-2="Keycloak"><polygon fill="#181818" points="1003.4526,209.8281,1013.4526,213.8281,1003.4526,217.8281,1007.4526,213.8281" style="stroke:#181818;stroke-width:1;"/><line style="stroke:#181818;stroke-width:1;" x1="632.2046" x2="1009.4526" y1="213.8281" y2="213.8281"/><text fill="#000000" font-family="sans-serif" font-size="13" lengthAdjust="spacing" textLength="93.9453" x="639.2046" y="208.7622">Register client</text></g><g class="message" data-participant-1="CatalogAdmin" data-participant-2="ProductCatalogComponent"><polygon fill="#181818" points="301.9717,238.9609,311.9717,242.9609,301.9717,246.9609,305.9717,242.9609" style="stroke:#181818;stroke-width:1;"/><line style="stroke:#181818;stroke-width:1;" x1="57.3145" x2="307.9717" y1="242.9609" y2="242.9609"/><text fill="#000000" font-family="sans-serif" font-size="13" lengthAdjust="spacing" textLength="76.21" x="64.3145" y="237.895">Create Role</text></g><g class="message" data-participant-1="ProductCatalogComponent" data-participant-2="securityController-apiListener"><polygon fill="#181818" points="844.0908,268.0938,854.0908,272.0938,844.0908,276.0938,848.0908,272.0938" style="stroke:#181818;stroke-width:1;"/><line style="stroke:#181818;stroke-width:1;" x1="313.9717" x2="850.0908" y1="272.0938" y2="272.0938"/><text fill="#000000" font-family="sans-serif" font-size="13" lengthAdjust="spacing" textLength="233.5747" x="320.9717" y="267.0278">PartyRoleCreationNotification event</text></g><g class="message" data-participant-1="securityController-apiListener" data-participant-2="Keycloak"><polygon fill="#181818" points="1003.4526,297.2266,1013.4526,301.2266,1003.4526,305.2266,1007.4526,301.2266" style="stroke:#181818;stroke-width:1;"/><line style="stroke:#181818;stroke-width:1;" x1="856.0908" x2="1009.4526" y1="301.2266" y2="301.2266"/><text fill="#000000" font-family="sans-serif" font-size="13" lengthAdjust="spacing" textLength="70.5923" x="863.0908" y="296.1606">create role</text></g><g class="message" data-participant-1="CatalogAdmin" data-participant-2="ProductCatalogComponent"><polygon fill="#181818" points="301.9717,326.3594,311.9717,330.3594,301.9717,334.3594,305.9717,330.3594" style="stroke:#181818;stroke-width:1;"/><line style="stroke:#181818;stroke-width:1;" x1="57.3145" x2="307.9717" y1="330.3594" y2="330.3594"/><text fill="#000000" font-family="sans-serif" font-size="13" lengthAdjust="spacing" textLength="79.8091" x="64.3145" y="325.2935">Update Role</text></g><g class="message" data-participant-1="ProductCatalogComponent" data-participant-2="securityController-apiListener"><polygon fill="#181818" points="844.0908,355.4922,854.0908,359.4922,844.0908,363.4922,848.0908,359.4922" style="stroke:#181818;stroke-width:1;"/><line style="stroke:#181818;stroke-width:1;" x1="313.9717" x2="850.0908" y1="359.4922" y2="359.4922"/><text fill="#000000" font-family="sans-serif" font-size="13" lengthAdjust="spacing" textLength="322.3975" x="320.9717" y="354.4263">PartyRoleAttributeValueChangeNotification event</text></g><g class="message" data-participant-1="securityController-apiListener" data-participant-2="Keycloak"><polygon fill="#181818" points="1003.4526,384.625,1013.4526,388.625,1003.4526,392.625,1007.4526,388.625" style="stroke:#181818;stroke-width:1;"/><line style="stroke:#181818;stroke-width:1;" x1="856.0908" x2="1009.4526" y1="388.625" y2="388.625"/><text fill="#000000" font-family="sans-serif" font-size="13" lengthAdjust="spacing" textLength="76.1211" x="863.0908" y="383.5591">Update role</text></g><g class="message" data-participant-1="CatalogAdmin" data-participant-2="ProductCatalogComponent"><polygon fill="#181818" points="301.9717,413.7578,311.9717,417.7578,301.9717,421.7578,305.9717,417.7578" style="stroke:#181818;stroke-width:1;"/><line style="stroke:#181818;stroke-width:1;" x1="57.3145" x2="307.9717" y1="417.7578" y2="417.7578"/><text fill="#000000" font-family="sans-serif" font-size="13" lengthAdjust="spacing" textLength="75.4419" x="64.3145" y="412.6919">Delete Role</text></g><g class="message" data-participant-1="ProductCatalogComponent" data-participant-2="securityController-apiListener"><polygon fill="#181818" points="844.0908,442.8906,854.0908,446.8906,844.0908,450.8906,848.0908,446.8906" style="stroke:#181818;stroke-width:1;"/><line style="stroke:#181818;stroke-width:1;" x1="313.9717" x2="850.0908" y1="446.8906" y2="446.8906"/><text fill="#000000" font-family="sans-serif" font-size="13" lengthAdjust="spacing" textLength="232.8066" x="320.9717" y="441.8247">PartyRoleDeletionNotification event</text></g><g class="message" data-participant-1="securityController-apiListener" data-participant-2="Keycloak"><polygon fill="#181818" points="1003.4526,472.0234,1013.4526,476.0234,1003.4526,480.0234,1007.4526,476.0234" style="stroke:#181818;stroke-width:1;"/><line style="stroke:#181818;stroke-width:1;" x1="856.0908" x2="1009.4526" y1="476.0234" y2="476.0234"/><text fill="#000000" font-family="sans-serif" font-size="13" lengthAdjust="spacing" textLength="71.7539" x="863.0908" y="470.9575">Delete role</text></g><g class="message" data-participant-1="CatalogAdmin" data-participant-2="ProductCatalogComponent"><polygon fill="#181818" points="301.9717,501.1563,311.9717,505.1563,301.9717,509.1563,305.9717,505.1563" style="stroke:#181818;stroke-width:1;"/><line style="stroke:#181818;stroke-width:1;" x1="57.3145" x2="307.9717" y1="505.1563" y2="505.1563"/><text fill="#000000" font-family="sans-serif" font-size="13" lengthAdjust="spacing" textLength="76.21" x="64.3145" y="500.0903">Create Role</text></g><g class="message" data-participant-1="ProductCatalogComponent" data-participant-2="securityController-apiListener"><polygon fill="#181818" points="844.0908,530.2891,854.0908,534.2891,844.0908,538.2891,848.0908,534.2891" style="stroke:#181818;stroke-width:1;"/><line style="stroke:#181818;stroke-width:1;" x1="313.9717" x2="850.0908" y1="534.2891" y2="534.2891"/><text fill="#000000" font-family="sans-serif" font-size="13" lengthAdjust="spacing" textLength="233.5747" x="320.9717" y="529.2231">PartyRoleCreationNotification event</text></g><g class="message" data-participant-1="securityController-apiListener" data-participant-2="Keycloak"><polygon fill="#181818" points="1003.4526,559.4219,1013.4526,563.4219,1003.4526,567.4219,1007.4526,563.4219" style="stroke:#181818;stroke-width:1;"/><line style="stroke:#181818;stroke-width:1;" x1="856.0908" x2="1009.4526" y1="563.4219" y2="563.4219"/><text fill="#000000" font-family="sans-serif" font-size="13" lengthAdjust="spacing" textLength="70.5923" x="863.0908" y="558.356">create role</text></g><g class="message" data-participant-1="Operations" data-participant-2="ProductCatalogComponent"><polygon fill="#181818" points="301.9717,588.5547,311.9717,592.5547,301.9717,596.5547,305.9717,592.5547" style="stroke:#181818;stroke-width:1;"/><line style="stroke:#181818;stroke-width:1;" x1="161.1118" x2="307.9717" y1="592.5547" y2="592.5547"/><text fill="#000000" font-family="sans-serif" font-size="13" lengthAdjust="spacing" textLength="56.6655" x="168.1118" y="587.4888">Uninstall</text></g><g class="message" data-participant-1="ProductCatalogComponent" data-participant-2="securityController-keycloak"><polygon fill="#181818" points="620.2046,617.6875,630.2046,621.6875,620.2046,625.6875,624.2046,621.6875" style="stroke:#181818;stroke-width:1;"/><line style="stroke:#181818;stroke-width:1;" x1="313.9717" x2="626.2046" y1="621.6875" y2="621.6875"/><text fill="#000000" font-family="sans-serif" font-size="13" lengthAdjust="spacing" textLength="61.2803" x="320.9717" y="616.6216">on.delete</text></g><g class="message" data-participant-1="securityController-keycloak" data-participant-2="Keycloak"><polygon fill="#181818" points="1003.4526,646.8203,1013.4526,650.8203,1003.4526,654.8203,1007.4526,650.8203" style="stroke:#181818;stroke-width:1;"/><line style="stroke:#181818;stroke-width:1;" x1="632.2046" x2="1009.4526" y1="650.8203" y2="650.8203"/><text fill="#000000" font-family="sans-serif" font-size="13" lengthAdjust="spacing" textLength="265.9604" x="639.2046" y="645.7544">Delete client and all roles for component</text></g><!--SRC=[rPJ1ReCm38RlUGgBU_S072PLx39jsgfAxMNQ8KlSDceQeyHCukqN86Zj0IWQbzsmvPZl_vrOAYOFMI5PMZgkzSMuJCWk-LwYbsp8XKm8SHsk7c7ZILUAqy62BYKvT9p3iminPSL00SIpMK1LUSDrGOuzMOj-TSPQMPBdB0To3ygZP0GnMWbZ65iyci3eeU_mseGk9fXW8ptNMx88-1shmzH_Fav6QtIV0-ooD7ttR1hv9GLNZCgQY25knp0gh-WCQZGCENq7RFxhHDim3lUDs1oCQhyxTyHKbrjHQNI-8PiXQ5VgPGMjcRtvgXZtqbPOdAGxuf_59SgvufxGugBYsePBJ2kHpHNqJwxVdIjhvymIIqjtNixP0Cd-xls3T1eYHGiVu11tiEe9n0y0]--></g></svg>